<svg width="271" height="272" viewBox="0 0 271 272" fill="none" xmlns="http://www.w3.org/2000/svg">
<path d="M250.083 140.543C239.581 212.867 199.016 254.618 136.136 254.618C52.676 254.618 9.82415 196.437 22.1462 140.543C35.7385 79.1874 92.5638 100.656 122.374 45.2277C162.6 -29.6784 260.965 65.9338 250.083 140.543Z" fill="#F2F2F2"/>
<path d="M238.226 93.2028L218.282 219.43C218.072 221.051 217.513 222.608 216.645 223.993C215.777 225.379 214.62 226.561 213.253 227.457C211.885 228.354 210.34 228.945 208.724 229.189C207.107 229.433 205.457 229.325 203.886 228.872L102.684 201.942C99.3094 200.983 96.3976 198.832 94.4895 195.888C92.5815 192.944 91.8069 189.408 92.3097 185.936L112.254 59.6666C112.463 58.0457 113.021 56.4895 113.89 55.1052C114.758 53.7209 115.917 52.5414 117.285 51.6479C118.654 50.7544 120.2 50.1682 121.816 49.9296C123.433 49.6911 125.082 49.806 126.651 50.2663L227.852 77.0275C231.245 78.0133 234.166 80.1953 236.073 83.1693C237.981 86.1434 238.746 89.708 238.226 93.2028Z" fill="white"/>
<path d="M214.725 203.636L213.751 209.606C213.541 211.228 212.982 212.785 212.114 214.17C211.246 215.556 210.089 216.737 208.722 217.634C207.354 218.531 205.809 219.122 204.193 219.366C202.576 219.61 200.926 219.502 199.354 219.049L98.1529 192.118C94.788 191.144 91.887 188.989 89.9816 186.05C88.0763 183.11 87.2942 179.582 87.7787 176.112L88.922 170.184C89.127 168.559 89.6815 166.998 90.5473 165.607C91.4131 164.216 92.5697 163.03 93.9376 162.129C95.3055 161.227 96.8523 160.633 98.4716 160.386C100.091 160.14 101.745 160.246 103.319 160.699L204.52 187.63C207.849 188.645 210.706 190.815 212.577 193.75C214.448 196.684 215.209 200.19 214.725 203.636Z" fill="#76350E"/>
<path d="M207.061 229.931C205.93 229.922 204.806 229.765 203.716 229.465L102.514 202.577C99.0006 201.554 95.9722 199.302 93.9819 196.231C91.9917 193.16 91.1726 189.476 91.6742 185.851L111.618 59.5822C111.844 57.8511 112.445 56.19 113.377 54.7143C114.31 53.2386 115.553 51.9837 117.02 51.0368C118.487 50.0899 120.142 49.4737 121.871 49.231C123.6 48.9883 125.36 49.125 127.031 49.6315L228.19 76.5621C231.709 77.5769 234.743 79.8276 236.734 82.9005C238.726 85.9734 239.541 89.6618 239.03 93.2879L218.875 219.557C218.643 221.268 218.047 222.91 217.127 224.371C216.206 225.832 214.983 227.078 213.539 228.026C211.613 229.282 209.361 229.945 207.061 229.931ZM123.432 50.436C121.389 50.4307 119.388 51.0191 117.673 52.1297C116.373 52.9938 115.27 54.1236 114.438 55.4446C113.606 56.7656 113.064 58.248 112.846 59.794L92.9021 186.021C92.4349 189.346 93.1845 192.728 95.0129 195.545C96.8413 198.361 99.6254 200.422 102.853 201.349L204.012 228.28C205.5 228.715 207.064 228.822 208.597 228.594C210.129 228.365 211.594 227.807 212.891 226.958C214.187 226.109 215.283 224.988 216.105 223.674C216.926 222.359 217.452 220.883 217.647 219.345L237.591 93.0761C238.049 89.7631 237.3 86.3958 235.481 83.5892C233.662 80.7826 230.894 78.7242 227.682 77.7901L126.481 50.8594C125.49 50.5734 124.463 50.4308 123.432 50.436Z" fill="black"/>
<path d="M204.352 107.939L204.69 105.652C204.761 105.157 204.65 104.652 204.377 104.232C204.105 103.811 203.69 103.504 203.208 103.366L195.967 101.418C195.742 101.355 195.505 101.342 195.273 101.378C195.042 101.414 194.82 101.499 194.624 101.627C194.428 101.755 194.261 101.924 194.135 102.121C194.009 102.319 193.926 102.541 193.893 102.773V104.297L190.547 103.408L191.352 98.454C191.542 96.8397 191.135 95.2116 190.207 93.8774C189.278 92.5432 187.893 91.5954 186.313 91.2132L154.005 82.7444C153.299 82.5436 152.558 82.4967 151.833 82.607C151.107 82.7173 150.414 82.9821 149.799 83.3836C149.185 83.7851 148.664 84.3139 148.272 84.9342C147.88 85.5544 147.626 86.2517 147.526 86.9788L146.722 91.9754L143.969 91.0861C141.862 90.4826 139.649 90.3419 137.482 90.6738C135.315 91.0057 133.246 91.8022 131.416 93.0089C129.586 94.2155 128.038 95.8037 126.88 97.6645C125.721 99.5252 124.978 101.615 124.703 103.789L120.469 129.661C119.804 134.302 120.84 139.027 123.385 142.964C125.929 146.901 129.811 149.786 134.315 151.087L190.039 165.95C192.142 166.554 194.35 166.695 196.512 166.363C198.674 166.03 200.738 165.233 202.562 164.025C204.385 162.817 205.925 161.228 207.075 159.367C208.225 157.506 208.957 155.418 209.221 153.247L213.455 127.375C213.986 123.601 213.408 119.755 211.792 116.304C210.175 112.853 207.59 109.947 204.352 107.939ZM164.506 144.439C160.269 143.201 156.619 140.478 154.224 136.769C151.829 133.06 150.849 128.613 151.464 124.241C151.736 122.225 152.436 120.291 153.516 118.568C154.597 116.844 156.033 115.372 157.73 114.249C159.426 113.126 161.342 112.379 163.351 112.057C165.36 111.736 167.414 111.848 169.376 112.385C173.618 113.607 177.276 116.318 179.68 120.021C182.084 123.723 183.071 128.169 182.46 132.541C182.188 134.562 181.487 136.502 180.404 138.23C179.322 139.959 177.882 141.436 176.182 142.562C174.482 143.689 172.561 144.439 170.547 144.763C168.533 145.087 166.474 144.976 164.506 144.439Z" fill="#FF6000"/>
<path d="M188.939 170.946C187.506 170.946 186.081 170.746 184.704 170.353L167.767 165.865L168.105 164.637L185.043 169.168C187.046 169.734 189.146 169.868 191.204 169.562C193.263 169.255 195.233 168.515 196.984 167.389C198.694 166.202 200.135 164.669 201.215 162.889C202.294 161.109 202.988 159.123 203.251 157.058L207.485 131.185C207.998 127.584 207.474 123.91 205.975 120.595C204.475 117.28 202.061 114.462 199.016 112.47L198.678 112.258L199.101 109.59C199.137 109.241 199.051 108.89 198.858 108.597C198.665 108.304 198.377 108.086 198.042 107.981L190.548 106.076C190.415 106.015 190.27 105.983 190.124 105.983C189.978 105.983 189.834 106.015 189.701 106.076C189.585 106.161 189.488 106.268 189.415 106.392C189.342 106.516 189.295 106.653 189.277 106.795L188.939 108.955L184.408 107.769L185.297 102.265C185.505 100.849 185.189 99.4057 184.41 98.2055C183.63 97.0053 182.441 96.1301 181.063 95.7438L148.754 87.275C148.132 87.0995 147.48 87.0591 146.841 87.1566C146.202 87.254 145.591 87.487 145.05 87.84C144.508 88.1929 144.049 88.6576 143.702 89.2029C143.355 89.7481 143.128 90.3613 143.038 91.0013L142.149 96.6753L138.677 95.7438C136.67 95.1706 134.564 95.0289 132.499 95.3282C130.433 95.6274 128.455 96.3607 126.693 97.4799C124.937 98.6522 123.448 100.182 122.324 101.97C121.201 103.758 120.467 105.763 120.172 107.854L118.944 107.642C119.246 105.391 120.029 103.231 121.24 101.309C122.45 99.3871 124.06 97.7479 125.959 96.5028C127.859 95.2577 130.005 94.4359 132.25 94.093C134.495 93.7502 136.788 93.8944 138.973 94.5158L141.132 95.1086L141.81 90.8742C141.895 90.0197 142.171 89.1954 142.618 88.4623C143.065 87.7292 143.672 87.1063 144.393 86.6399C145.082 86.1971 145.857 85.9043 146.666 85.7802C147.476 85.6562 148.303 85.7038 149.093 85.92L181.401 94.3888C183.046 94.9226 184.445 96.0271 185.346 97.5027C186.247 98.9783 186.59 100.727 186.313 102.434L185.636 106.668L187.711 107.219V106.372C187.755 106.058 187.865 105.756 188.033 105.486C188.2 105.216 188.422 104.985 188.684 104.805C188.957 104.628 189.265 104.513 189.588 104.469C189.91 104.425 190.238 104.453 190.548 104.551L197.746 106.457C198.384 106.635 198.936 107.036 199.302 107.589C199.667 108.141 199.822 108.806 199.736 109.463L199.44 111.326C202.642 113.422 205.179 116.388 206.754 119.876C208.329 123.364 208.877 127.228 208.332 131.016L204.521 157.481C204.209 159.736 203.421 161.899 202.21 163.827C200.998 165.754 199.39 167.402 197.492 168.66C194.918 170.224 191.95 171.018 188.939 170.946Z" fill="black"/>
<path d="M174.499 130.38C174.457 130.705 174.345 131.017 174.171 131.294C173.998 131.572 173.767 131.809 173.494 131.99C173.221 132.17 172.912 132.29 172.589 132.341C172.266 132.393 171.935 132.374 171.62 132.286L169.079 131.608L168.656 134.191C168.619 134.514 168.512 134.825 168.343 135.103C168.174 135.381 167.947 135.618 167.677 135.799C167.408 135.981 167.102 136.101 166.781 136.152C166.46 136.204 166.132 136.185 165.819 136.097C165.143 135.9 164.562 135.466 164.181 134.875C163.799 134.284 163.644 133.575 163.744 132.879L164.167 130.296L161.627 129.618C160.951 129.421 160.37 128.988 159.989 128.396C159.607 127.805 159.452 127.096 159.552 126.4C159.6 126.079 159.716 125.772 159.891 125.5C160.067 125.227 160.299 124.995 160.571 124.819C160.843 124.643 161.15 124.526 161.471 124.478C161.792 124.429 162.119 124.449 162.431 124.537L164.972 125.215L165.353 122.632C165.394 122.302 165.507 121.986 165.683 121.705C165.859 121.423 166.094 121.183 166.372 121.002C166.65 120.821 166.965 120.702 167.293 120.655C167.622 120.607 167.957 120.631 168.275 120.726C168.942 120.931 169.514 121.368 169.887 121.959C170.26 122.549 170.409 123.253 170.307 123.944L169.884 126.527L172.424 127.205C173.091 127.401 173.667 127.828 174.047 128.41C174.428 128.992 174.588 129.691 174.499 130.38Z" fill="#76350E"/>
<path d="M195.036 204.482L181.316 200.841C180.559 200.624 179.905 200.14 179.477 199.478C179.049 198.816 178.875 198.022 178.987 197.242C179.035 196.878 179.16 196.529 179.354 196.218C179.547 195.906 179.804 195.639 180.109 195.435C180.413 195.231 180.758 195.094 181.119 195.033C181.481 194.972 181.851 194.989 182.206 195.082L195.967 198.766C196.725 198.983 197.378 199.467 197.806 200.129C198.235 200.791 198.409 201.585 198.296 202.365C198.25 202.733 198.125 203.086 197.928 203.4C197.732 203.714 197.469 203.981 197.159 204.183C196.848 204.384 196.497 204.516 196.13 204.567C195.764 204.619 195.39 204.59 195.036 204.482Z" fill="white"/>
<path d="M117.166 178.653C123.352 178.691 129.484 177.496 135.204 175.138C137.487 174.008 139.44 172.307 140.872 170.2C142.304 168.093 143.166 165.652 143.377 163.113C142.917 158.121 141.019 153.371 137.914 149.436C144.014 146.413 149.705 142.628 154.852 138.172C157.985 134.869 158.578 131.651 153.539 131.651H151.379C140.807 133.657 130.735 137.73 121.739 143.635C114.413 149.097 114.71 154.475 98.0687 162.308C81.4276 170.142 47.8067 180.389 37.0937 193.134C27.0582 205.075 37.0937 219.261 52.7609 219.261C53.7762 219.322 54.7943 219.322 55.8096 219.261C73.1706 217.27 95.147 198.004 117.166 178.653Z" fill="white"/>
<path d="M94.4265 198.046C89.6904 201.938 84.7579 205.584 79.6485 208.971C75.0506 212.073 70.1401 214.684 64.9976 216.762C62.1267 217.912 59.1264 218.708 56.0631 219.133C55.0336 219.196 54.0014 219.196 52.972 219.133C49.3903 219.116 45.8585 218.291 42.6401 216.719L39.8454 215.026L39.1679 214.475C37.7777 213.363 36.5766 212.033 35.611 210.537C32.0965 205.16 32.647 199.316 37.3471 193.007C42.2038 188.011 47.9473 183.962 54.2846 181.066C62.0524 177.13 70.0243 173.61 78.1665 170.522C80.6449 172.864 82.8342 175.494 84.6874 178.356C88.9742 184.351 92.2631 191 94.4265 198.046Z" fill="#FF6000"/>
<path opacity="0.1" d="M94.4266 198.046C89.6904 201.937 84.758 205.584 79.6486 208.971C75.0507 212.072 70.1402 214.684 64.9977 216.762C62.1267 217.912 59.1265 218.708 56.0631 219.133C55.0337 219.196 54.0014 219.196 52.972 219.133C49.3903 219.116 45.8586 218.291 42.6402 216.719L39.8455 215.026L39.168 214.475C40.6675 212.339 42.7226 210.654 45.1109 209.602C47.4991 208.549 50.1297 208.17 52.718 208.505C59.0272 209.733 67.877 208.505 67.5383 200.544C67.1995 192.583 74.4827 180.346 94.4266 198.046Z" fill="black"/>
<path d="M53.0146 220.108C49.1706 220.288 45.354 219.378 42.005 217.482C38.656 215.587 35.9111 212.783 34.087 209.395C32.8768 206.68 32.4964 203.667 32.9937 200.736C33.4909 197.805 34.8436 195.087 36.8817 192.923C41.1161 187.672 49.5848 182.379 63.6429 176.282L64.1511 177.383C50.474 183.438 42.09 188.646 37.8556 193.728C35.968 195.712 34.7111 198.211 34.2438 200.909C33.7765 203.607 34.1198 206.383 35.2303 208.887C36.9564 212.052 39.5416 214.665 42.688 216.426C45.8343 218.186 49.414 219.022 53.0146 218.837C54.0017 218.901 54.9917 218.901 55.9787 218.837V220.065C54.9922 220.135 54.0027 220.149 53.0146 220.108ZM94.8079 198.597L94.0457 197.623C101.498 191.61 109.247 184.92 116.742 178.272H116.954C123.05 178.317 129.095 177.151 134.738 174.842C136.921 173.761 138.791 172.139 140.17 170.13C141.549 168.121 142.39 165.793 142.614 163.367C142.12 158.502 140.255 153.876 137.236 150.029L136.898 149.478L137.617 149.013C143.713 146.034 149.405 142.292 154.555 137.876C156.291 136.055 157.096 134.362 156.714 133.43C156.333 132.498 154.47 132.16 151.633 132.541C141.213 134.547 131.288 138.575 122.416 144.397C120.347 146.024 118.459 147.87 116.784 149.902C111.909 155.716 105.688 160.251 98.6612 163.113L93.1565 165.484L92.6907 164.341L97.899 161.97C104.838 159.199 110.978 154.746 115.768 149.013C117.515 146.924 119.473 145.023 121.612 143.338C130.598 137.398 140.672 133.296 151.252 131.27C154.767 130.805 156.926 131.271 157.604 132.922C158.281 134.573 157.604 136.436 155.19 138.681C150.174 143.079 144.609 146.808 138.634 149.775C141.681 153.65 143.535 158.329 143.969 163.24C143.778 165.909 142.897 168.484 141.413 170.71C139.928 172.937 137.891 174.74 135.5 175.943C129.777 178.343 123.625 179.554 117.419 179.5C110.094 185.894 102.26 192.627 94.8079 198.597Z" fill="black"/>
<path d="M64.7438 59.7096C56.5508 59.7404 48.4361 61.3059 40.8196 64.3251C32.986 67.7973 25.3642 74.3182 41.5818 78.4256C57.0888 81.4602 72.8685 82.8792 88.6681 82.6599C97.796 82.8205 106.921 82.1829 115.937 80.7545C133.934 77.2399 129.784 68.5171 124.406 63.817C119.097 59.6171 112.619 57.1619 105.86 56.7879C105.839 54.6131 105.026 52.5204 103.573 50.9021C102.009 49.658 100.067 48.9857 98.0684 48.9967C97.5907 48.9321 97.1064 48.9321 96.6287 48.9967C94.4778 49.6204 92.5802 50.9102 91.2087 52.6806C88.2446 48.4462 85.2382 43.9154 81.3003 42.8145C80.6135 42.6096 79.8997 42.5097 79.1831 42.5181C77.3409 42.6373 75.5423 43.1306 73.897 43.9678C72.2517 44.805 70.7942 45.9686 69.6134 47.3876C66.9782 51.0192 65.3032 55.2577 64.7438 59.7096Z" fill="#76350E"/>
<path d="M67.7499 60.3022L66.8184 60.0905C67.3035 56.2843 68.7619 52.6674 71.0527 49.5893C72.2876 48.0977 73.89 46.9539 75.7019 46.2708C77.5137 45.5876 79.4724 45.3887 81.3846 45.6937L81.0882 46.7522C79.3792 46.4878 77.6308 46.6773 76.0181 47.3015C74.4054 47.9258 72.9851 48.963 71.8996 50.3091C69.6858 53.2312 68.2572 56.6715 67.7499 60.3022ZM100.439 54.7129C100.223 54.1344 99.8577 53.6232 99.3807 53.2308C98.1689 52.2976 96.6755 51.8048 95.1463 51.8335V50.6902C96.9404 50.6866 98.6842 51.2828 100.101 52.384C100.654 52.9143 101.1 53.547 101.413 54.2471L100.439 54.7129Z" fill="white"/>
</svg>
