<svg width="283" height="282" viewBox="0 0 283 282" fill="none" xmlns="http://www.w3.org/2000/svg">
<path d="M232.878 229.35L204.717 245.608L162.477 221.22L190.637 204.963L232.878 229.35Z" fill="#FEF7EC"/>
<path d="M106.159 237.478L77.9986 253.738L35.7578 229.351L63.9183 213.091L106.159 237.478Z" fill="#FEF7EC"/>
<path d="M190.636 204.963L134.315 237.478L49.8359 188.703L106.157 156.186L190.636 204.963Z" fill="#FEF7EC"/>
<path d="M78 156.175C78 167.018 78 177.861 78 188.703C101.468 202.251 124.933 215.801 148.401 229.348C148.401 207.671 148.401 185.993 148.401 164.316C138.833 169.742 129.262 175.17 119.694 180.596C105.797 172.455 91.8998 164.316 78 156.175Z" fill="#F9EEDC"/>
<path d="M148.398 164.316C148.398 185.993 148.398 207.671 148.398 229.348C171.866 215.801 195.332 202.251 218.8 188.703C218.8 177.861 218.8 167.018 218.8 156.175C204.719 164.308 190.639 172.441 176.559 180.576C167.171 175.156 157.786 169.736 148.398 164.319V164.316Z" fill="#FEF7EC"/>
<path d="M190.639 204.964L176.559 213.091V180.576L190.639 172.446V204.964Z" fill="#F59E0B"/>
<path d="M120.239 180.574L106.159 172.446L106.156 204.961L120.237 213.091L120.239 180.574Z" fill="#F59E0B"/>
<path d="M246.96 139.928L176.559 180.576L148.398 164.316L218.8 123.671L246.96 139.928Z" fill="white"/>
<path d="M49.8359 139.928L120.237 180.576L148.395 164.316L77.9965 123.671L49.8359 139.928Z" fill="white"/>
<path d="M148.398 83.0239L218.8 123.671L246.96 107.411L176.559 66.7666L148.398 83.0239Z" fill="white"/>
<path d="M49.8359 107.411L120.237 66.7666L148.395 83.0239L77.9965 123.671L49.8359 107.411Z" fill="white"/>
<path d="M247.101 139.686L219.364 123.671L247.101 107.656C247.189 107.605 247.242 107.512 247.242 107.413C247.242 107.315 247.189 107.219 247.101 107.171L176.7 66.5262C176.613 66.4755 176.505 66.4755 176.418 66.5262L148.399 82.7018L120.379 66.5234C120.292 66.4727 120.184 66.4727 120.097 66.5234L49.6957 107.171C49.6083 107.222 49.5547 107.315 49.5547 107.413C49.5547 107.512 49.6083 107.608 49.6957 107.656L77.4332 123.671L49.6957 139.686C49.6083 139.736 49.5547 139.829 49.5547 139.928C49.5547 140.027 49.6083 140.123 49.6957 140.171L77.7152 156.349V188.703C77.7152 188.804 77.7688 188.897 77.8562 188.945L148.258 229.59C148.3 229.615 148.351 229.627 148.399 229.627C148.446 229.627 148.5 229.612 148.542 229.587C160.11 222.625 172.12 215.834 183.736 209.269C195.354 202.701 207.368 195.911 218.944 188.942C219.028 188.892 219.079 188.799 219.079 188.7V156.346L247.099 140.168C247.186 140.117 247.24 140.024 247.24 139.925C247.24 139.827 247.186 139.731 247.099 139.683L247.101 139.686ZM176.559 67.0902L246.396 107.411L218.8 123.344L148.963 83.0232L176.559 67.0902ZM120.241 67.0902L147.837 83.0232L78 123.344L50.4035 107.411L120.241 67.0902ZM78 123.995L147.837 164.315L120.241 180.248L50.4035 139.928L78 123.995ZM78.2792 156.673L120.097 180.818C120.139 180.843 120.19 180.855 120.238 180.855C120.286 180.855 120.334 180.843 120.379 180.818L148.117 164.803V228.862L78.2792 188.542V156.676V156.673ZM218.518 188.545C206.992 195.479 195.03 202.242 183.46 208.781C171.982 215.267 160.124 221.973 148.681 228.851V164.803L176.418 180.818C176.46 180.843 176.511 180.855 176.559 180.855C176.607 180.855 176.658 180.843 176.7 180.818L218.518 156.673V188.542V188.545ZM176.559 180.248L148.963 164.315L218.8 123.995L246.396 139.928L176.559 180.248Z" fill="#64440F"/>
<path d="M145.604 52.2571C145.604 49.9729 146.151 47.934 148.285 44.9054C150.719 41.4283 151.365 39.2907 151.365 36.6597C151.365 34.1753 150.372 33.2306 148.632 33.2306C146.892 33.2306 145.9 34.1753 145.9 36.6597V40.4357H140.733V37.0065C140.733 31.4427 143.415 28.2617 148.731 28.2617C154.047 28.2617 156.83 31.4399 156.83 37.0065C156.83 40.038 155.885 42.5704 153.204 46.149C151.066 49.031 150.372 50.7202 150.372 52.4573V54.3439H145.604V52.2571ZM145.355 58.2693H150.62V63.5343H145.355V58.2693ZM127.784 61.1006C127.395 59.7273 127.378 58.4103 128.148 56.2248C129.019 53.7207 129.045 52.3276 128.599 50.7456C128.176 49.2538 127.42 48.8534 126.374 49.1495C125.328 49.4456 124.891 50.1816 125.314 51.6734L125.954 53.9435L122.849 54.8205L122.268 52.7591C121.323 49.4145 122.395 47.0486 125.59 46.1462C128.785 45.2438 130.996 46.682 131.941 50.0265C132.457 51.8482 132.319 53.5317 131.315 56.1374C130.519 58.2327 130.39 59.3663 130.683 60.4097L131.004 61.5434L128.139 62.3527L127.784 61.0978V61.1006ZM128.655 64.7582L131.819 63.8642L132.713 67.0283L129.549 67.9222L128.655 64.7582ZM164.997 60.7199C165.386 59.3466 166.06 58.2158 167.859 56.7578C169.912 55.0799 170.665 53.9068 171.111 52.3248C171.534 50.833 171.096 50.097 170.05 49.8009C169.004 49.5048 168.248 49.9052 167.825 51.397L167.185 53.6671L164.08 52.7901L164.661 50.7287C165.606 47.3841 167.758 45.929 170.953 46.8314C174.148 47.7338 175.278 50.1167 174.334 53.4612C173.818 55.283 172.822 56.645 170.603 58.3398C168.829 59.7075 168.124 60.6071 167.831 61.6505L167.509 62.7842L164.644 61.9748L165 60.7199H164.997ZM163.826 64.29L166.99 65.184L166.097 68.348L162.933 67.4541L163.826 64.29Z" fill="#F59E0B"/>
<path d="M246.962 221.22C237.574 226.64 228.189 232.06 218.801 237.477C209.413 232.057 200.028 226.637 190.641 221.22C190.641 209.063 190.641 200.86 190.641 188.703C200.028 183.283 209.413 177.863 218.801 172.445C228.189 177.865 237.574 183.285 246.962 188.703C246.962 200.86 246.962 209.063 246.962 221.22Z" fill="#FEF7EC"/>
<path d="M218.801 237.478C209.413 232.058 200.028 226.638 190.641 221.221C190.641 209.064 190.641 200.86 190.641 188.703C200.028 194.123 209.413 199.543 218.801 204.96C218.801 215.801 218.801 226.638 218.801 237.478Z" fill="#F9EEDC"/>
<path d="M218.801 204.963C209.413 199.543 200.028 194.123 190.641 188.706C200.028 183.285 209.413 177.865 218.801 172.448C228.189 177.868 237.574 183.288 246.962 188.706C237.574 194.126 228.189 199.546 218.801 204.963Z" fill="white"/>
<path d="M247.103 188.46L218.943 172.203C218.855 172.152 218.748 172.152 218.661 172.203L190.5 188.46C190.413 188.511 190.359 188.604 190.359 188.703V221.22C190.359 221.322 190.413 221.415 190.5 221.463L218.661 237.72C218.703 237.746 218.754 237.757 218.802 237.757C218.85 237.757 218.901 237.746 218.943 237.72L247.103 221.463C247.191 221.412 247.244 221.319 247.244 221.22V188.703C247.244 188.601 247.191 188.508 247.103 188.46ZM246.68 204.96C242.151 207.56 237.515 210.245 233.023 212.845V197.075L246.68 189.191V204.96ZM190.923 189.191L218.52 205.124V220.896C213.915 218.265 209.276 215.572 204.786 212.966C200.255 210.335 195.571 207.617 190.923 204.96V189.191ZM204.806 180.852L232.462 196.751L218.805 204.636L191.208 188.703L204.809 180.852H204.806ZM219.084 205.124L232.741 197.239V213.008C228.249 215.609 223.613 218.29 219.084 220.893V205.121V205.124ZM219.084 221.22C223.613 218.62 228.249 215.936 232.741 213.336V229.105L219.084 236.99V221.22ZM246.401 188.703L232.744 196.588L205.088 180.688L218.805 172.77L246.401 188.703ZM190.923 205.285C195.523 207.913 200.159 210.603 204.645 213.209C209.18 215.843 213.87 218.564 218.52 221.22V236.99L190.923 221.057V205.285ZM233.023 228.944V213.172C237.513 210.572 242.149 207.89 246.68 205.287V221.06L233.023 228.944Z" fill="#64440F"/>
<path d="M120.239 229.35C110.851 234.77 101.466 240.19 92.0785 245.607C82.6907 240.187 73.3057 234.767 63.918 229.35C63.918 217.193 63.918 208.99 63.918 196.832C73.3057 191.412 82.6907 185.992 92.0785 180.575C101.466 185.995 110.851 191.415 120.239 196.832C120.239 208.99 120.239 217.193 120.239 229.35Z" fill="#FEF7EC"/>
<path d="M92.0785 245.608C82.6907 240.188 73.3057 234.768 63.918 229.35C63.918 217.193 63.918 208.99 63.918 196.833C73.3057 202.253 82.6907 207.673 92.0785 213.09C92.0785 223.93 92.0785 234.768 92.0785 245.608Z" fill="#F9EEDC"/>
<path d="M92.0785 213.09C82.6907 207.67 73.3057 202.25 63.918 196.832C73.3057 191.412 82.6907 185.992 92.0785 180.575C101.466 185.995 110.851 191.415 120.239 196.832C110.851 202.253 101.466 207.673 92.0785 213.09Z" fill="white"/>
<path d="M120.381 196.59L92.2202 180.333C92.1328 180.282 92.0257 180.282 91.9382 180.333L63.7777 196.59C63.6903 196.641 63.6367 196.734 63.6367 196.833V229.35C63.6367 229.452 63.6903 229.545 63.7777 229.593L91.9382 245.85C91.9805 245.875 92.0313 245.887 92.0792 245.887C92.1272 245.887 92.1751 245.875 92.2202 245.85L120.381 229.593C120.468 229.542 120.522 229.449 120.522 229.35V196.833C120.522 196.731 120.468 196.638 120.381 196.59ZM119.958 213.09L106.3 220.975V205.205L119.958 197.321V213.09ZM64.2007 197.321L91.7972 213.254V229.023L64.2007 213.09V197.321ZM78.0808 188.982L105.736 204.881L92.0792 212.766L64.4827 196.833L78.0836 188.982H78.0808ZM92.3612 229.35L106.018 221.466V237.238L92.3612 245.122V229.35ZM92.3612 229.023V213.254L106.018 205.369V221.138L92.3612 229.023ZM119.676 196.833L106.018 204.718L78.3628 188.818L92.0792 180.9L119.676 196.833ZM64.2007 213.417L91.7972 229.35V245.12L64.2007 229.187V213.414V213.417ZM106.3 237.071V221.299L119.958 213.414V229.187L106.3 237.071Z" fill="#64440F"/>
</svg>
