<svg width="171" height="170" viewBox="0 0 171 170" fill="none" xmlns="http://www.w3.org/2000/svg">
<path d="M105.244 96.3541L135.061 126.171C138.936 130.047 138.936 136.33 135.061 140.206C131.186 144.081 124.902 144.081 121.027 140.206L91.2094 110.388C87.3339 106.513 87.3339 100.23 91.2094 96.3541C95.0849 92.4786 101.368 92.4786 105.244 96.3541Z" fill="black" stroke="black" stroke-width="1.5"/>
<path fill-rule="evenodd" clip-rule="evenodd" d="M66.2422 115.547C90.6312 115.547 110.402 95.7757 110.402 71.3867C110.402 46.9977 90.6312 27.2266 66.2422 27.2266C41.8532 27.2266 22.082 46.9977 22.082 71.3867C22.082 95.7757 41.8532 115.547 66.2422 115.547ZM66.2422 104.59C84.5796 104.59 99.4453 89.7241 99.4453 71.3867C99.4453 53.0493 84.5796 38.1836 66.2422 38.1836C47.9048 38.1836 33.0391 53.0493 33.0391 71.3867C33.0391 89.7241 47.9048 104.59 66.2422 104.59Z" fill="black"/>
<mask id="mask0_3052_59025" style="mask-type:luminance" maskUnits="userSpaceOnUse" x="22" y="27" width="89" height="89">
<path fill-rule="evenodd" clip-rule="evenodd" d="M66.2422 115.547C90.6312 115.547 110.402 95.7757 110.402 71.3867C110.402 46.9977 90.6312 27.2266 66.2422 27.2266C41.8532 27.2266 22.082 46.9977 22.082 71.3867C22.082 95.7757 41.8532 115.547 66.2422 115.547ZM66.2422 104.59C84.5796 104.59 99.4453 89.7241 99.4453 71.3867C99.4453 53.0493 84.5796 38.1836 66.2422 38.1836C47.9048 38.1836 33.0391 53.0493 33.0391 71.3867C33.0391 89.7241 47.9048 104.59 66.2422 104.59Z" fill="white"/>
</mask>
<g mask="url(#mask0_3052_59025)">
<path d="M109.906 71.3867C109.906 95.5005 90.3579 115.049 66.2441 115.049V116.045C90.9081 116.045 110.902 96.0507 110.902 71.3867H109.906ZM66.2441 27.7246C90.3579 27.7246 109.906 47.2729 109.906 71.3867H110.902C110.902 46.7228 90.9081 26.7285 66.2441 26.7285V27.7246ZM22.582 71.3867C22.582 47.2729 42.1304 27.7246 66.2441 27.7246V26.7285C41.5802 26.7285 21.5859 46.7228 21.5859 71.3867H22.582ZM66.2441 115.049C42.1304 115.049 22.582 95.5005 22.582 71.3867H21.5859C21.5859 96.0507 41.5802 116.045 66.2441 116.045V115.049ZM98.9492 71.3867C98.9492 89.4492 84.3066 104.092 66.2441 104.092V105.088C84.8568 105.088 99.9453 89.9994 99.9453 71.3867H98.9492ZM66.2441 38.6816C84.3066 38.6816 98.9492 53.3242 98.9492 71.3867H99.9453C99.9453 52.774 84.8568 37.6855 66.2441 37.6855V38.6816ZM33.5391 71.3867C33.5391 53.3242 48.1816 38.6816 66.2441 38.6816V37.6855C47.6315 37.6855 32.543 52.774 32.543 71.3867H33.5391ZM66.2441 104.092C48.1816 104.092 33.5391 89.4492 33.5391 71.3867H32.543C32.543 89.9994 47.6315 105.088 66.2441 105.088V104.092Z" fill="black"/>
</g>
<path d="M111.22 91.0408L141.428 121.248C145.304 125.124 145.304 131.407 141.428 135.283C137.553 139.158 131.269 139.158 127.394 135.283L97.1862 105.075C93.3107 101.2 93.3107 94.9162 97.1862 91.0408C101.062 87.1653 107.345 87.1653 111.22 91.0408Z" fill="#FF6000" stroke="black" stroke-width="1.5"/>
<path fill-rule="evenodd" clip-rule="evenodd" d="M72.2188 110.898C96.6078 110.898 116.379 91.1273 116.379 66.7383C116.379 42.3493 96.6078 22.5781 72.2188 22.5781C47.8297 22.5781 28.0586 42.3493 28.0586 66.7383C28.0586 91.1273 47.8297 110.898 72.2188 110.898ZM72.2188 99.9414C90.5562 99.9414 105.422 85.0757 105.422 66.7383C105.422 48.4009 90.5562 33.5352 72.2188 33.5352C53.8813 33.5352 39.0156 48.4009 39.0156 66.7383C39.0156 85.0757 53.8813 99.9414 72.2188 99.9414Z" fill="#FF6000"/>
<mask id="mask1_3052_59025" style="mask-type:luminance" maskUnits="userSpaceOnUse" x="28" y="22" width="89" height="89">
<path fill-rule="evenodd" clip-rule="evenodd" d="M72.2188 110.898C96.6078 110.898 116.379 91.1273 116.379 66.7383C116.379 42.3493 96.6078 22.5781 72.2188 22.5781C47.8297 22.5781 28.0586 42.3493 28.0586 66.7383C28.0586 91.1273 47.8297 110.898 72.2188 110.898ZM72.2188 99.9414C90.5562 99.9414 105.422 85.0757 105.422 66.7383C105.422 48.4009 90.5562 33.5352 72.2188 33.5352C53.8813 33.5352 39.0156 48.4009 39.0156 66.7383C39.0156 85.0757 53.8813 99.9414 72.2188 99.9414Z" fill="white"/>
</mask>
<g mask="url(#mask1_3052_59025)">
<path d="M115.883 66.7383C115.883 90.8521 96.3345 110.4 72.2207 110.4V111.396C96.8847 111.396 116.879 91.4022 116.879 66.7383H115.883ZM72.2207 23.0762C96.3345 23.0762 115.883 42.6245 115.883 66.7383H116.879C116.879 42.0743 96.8847 22.0801 72.2207 22.0801V23.0762ZM28.5586 66.7383C28.5586 42.6245 48.1069 23.0762 72.2207 23.0762V22.0801C47.5568 22.0801 27.5625 42.0743 27.5625 66.7383H28.5586ZM72.2207 110.4C48.1069 110.4 28.5586 90.8521 28.5586 66.7383H27.5625C27.5625 91.4022 47.5568 111.396 72.2207 111.396V110.4ZM104.926 66.7383C104.926 84.8008 90.2832 99.4434 72.2207 99.4434V100.439C90.8334 100.439 105.922 85.351 105.922 66.7383H104.926ZM72.2207 34.0332C90.2832 34.0332 104.926 48.6758 104.926 66.7383H105.922C105.922 48.1256 90.8334 33.0371 72.2207 33.0371V34.0332ZM39.5156 66.7383C39.5156 48.6758 54.1582 34.0332 72.2207 34.0332V33.0371C53.608 33.0371 38.5195 48.1256 38.5195 66.7383H39.5156ZM72.2207 99.4434C54.1582 99.4434 39.5156 84.8008 39.5156 66.7383H38.5195C38.5195 85.351 53.608 100.439 72.2207 100.439V99.4434Z" fill="black"/>
</g>
<path fill-rule="evenodd" clip-rule="evenodd" d="M82.2226 98.4084C95.6722 94.1647 105.424 81.5904 105.424 66.7383C105.424 48.4009 90.5583 33.5352 72.2205 33.5352C65.0231 33.5352 58.3605 35.8252 52.9219 39.7166C56.0782 38.7205 59.4383 38.1836 62.9237 38.1836C81.2614 38.1836 96.1268 53.0493 96.1268 71.3867C96.1268 82.5267 90.6406 92.3857 82.2226 98.4084Z" fill="black"/>
<mask id="mask2_3052_59025" style="mask-type:luminance" maskUnits="userSpaceOnUse" x="52" y="33" width="54" height="66">
<path fill-rule="evenodd" clip-rule="evenodd" d="M82.2226 98.4084C95.6722 94.1647 105.424 81.5904 105.424 66.7383C105.424 48.4009 90.5583 33.5352 72.2205 33.5352C65.0231 33.5352 58.3605 35.8252 52.9219 39.7166C56.0782 38.7205 59.4383 38.1836 62.9237 38.1836C81.2614 38.1836 96.1268 53.0493 96.1268 71.3867C96.1268 82.5267 90.6406 92.3857 82.2226 98.4084Z" fill="white"/>
</mask>
<g mask="url(#mask2_3052_59025)">
<path d="M82.2234 98.4084L81.9336 98.0033L82.3732 98.8836L82.2234 98.4084ZM52.9227 39.7166L52.6328 39.3115L53.0724 40.1914L52.9227 39.7166ZM104.926 66.7383C104.926 81.3669 95.3217 93.7533 82.0734 97.9336L82.3732 98.8836C96.0243 94.5764 105.923 81.8138 105.923 66.7383H104.926ZM72.2213 34.0332C90.2838 34.0332 104.926 48.6758 104.926 66.7383H105.923C105.923 48.1256 90.834 33.0371 72.2213 33.0371V34.0332ZM53.2125 40.1217C58.5695 36.2887 65.1315 34.0332 72.2213 34.0332V33.0371C64.9166 33.0371 58.1535 35.3617 52.6328 39.3115L53.2125 40.1217ZM53.0724 40.1914C56.1809 39.2109 59.4906 38.6816 62.9245 38.6816V37.6855C59.3877 37.6855 55.977 38.2304 52.7729 39.2414L53.0724 40.1914ZM62.9245 38.6816C80.987 38.6816 95.6295 53.3242 95.6295 71.3867H96.6256C96.6256 52.774 81.5371 37.6855 62.9245 37.6855V38.6816ZM95.6295 71.3867C95.6295 82.3594 90.2264 92.0699 81.9336 98.0033L82.5133 98.8135C91.0561 92.7011 96.6256 82.6944 96.6256 71.3867H95.6295Z" fill="black"/>
</g>
<path d="M62.9288 87.3161C58.3727 85.2595 54.6283 81.7489 52.2822 77.3349C49.9358 72.9212 49.1209 67.8534 49.9646 62.9268" stroke="black" stroke-width="8" stroke-linecap="round" stroke-linejoin="round"/>
<path d="M95.7143 126.785C95.7382 126.67 95.8401 126.587 95.958 126.587C96.0759 126.587 96.1778 126.67 96.2017 126.785L97.9449 135.169L106.466 136.885C106.582 136.908 106.666 137.01 106.666 137.129C106.666 137.247 106.582 137.35 106.466 137.373L97.9449 139.089L96.2017 147.473C96.1778 147.588 96.0759 147.671 95.958 147.671C95.8401 147.671 95.7382 147.588 95.7143 147.473L93.9711 139.089L85.4499 137.373C85.3337 137.35 85.25 137.247 85.25 137.129C85.25 137.01 85.3337 136.908 85.4499 136.885L93.9711 135.169L95.7143 126.785ZM94.5416 33.4844C94.5177 33.3688 94.4157 33.2861 94.2979 33.2861C94.18 33.2861 94.078 33.3688 94.0541 33.4844L92.311 41.8678L83.7897 43.5841C83.6735 43.6073 83.5898 43.7096 83.5898 43.8281C83.5898 43.9467 83.6735 44.0489 83.7897 44.0722L92.311 45.7884L94.0541 54.1719C94.078 54.2874 94.18 54.3701 94.2979 54.3701C94.4157 54.3701 94.5177 54.2874 94.5416 54.1719L96.2847 45.7884L104.806 44.0722C104.922 44.0489 105.006 43.9467 105.006 43.8281C105.006 43.7096 104.922 43.6073 104.806 43.5841L96.2847 41.8678L94.5416 33.4844Z" fill="white" stroke="black" stroke-width="1.5" stroke-linejoin="round"/>
</svg>
