<svg width="173" height="285" viewBox="0 0 173 285" fill="none" xmlns="http://www.w3.org/2000/svg">
<path d="M137.725 203.449C131.965 201.841 129.249 200.624 129.466 199.472H129.444C129.444 199.472 118.882 158.94 116.709 125.796C115.578 108.801 114.992 96.065 114.666 87.6759C106.277 81.2863 96.5183 81.0255 86.5862 80.7865C70.8295 80.417 57.8764 82.8946 48.9006 89.9362C47.7487 97.7602 46.5751 106.997 45.7492 116.581C43.489 142.487 40.0116 196.017 40.0116 196.017C40.468 198.255 36.7299 201.385 29.471 204.427C22.6684 207.296 15.4095 210.6 10.6934 212.773C12.3234 213.099 14.9531 212.99 17.4742 214.664C22.2772 217.837 24.581 227.139 40.4028 232.485C56.2247 237.832 72.7203 228.877 84.2824 229.703C95.8446 230.529 107.863 235.528 114.97 229.703C122.077 223.879 119.447 215.49 126.988 215.598C134.53 215.707 139.007 220.923 150.134 221.119C159.784 221.292 165.261 218.706 165.109 214.012C159.98 208.752 147.548 206.188 137.725 203.449Z" fill="#BE5A1E"/>
<path d="M45.7495 116.603C46.5754 107.019 47.749 97.8037 48.9008 89.958C42.8372 94.7176 38.5992 101.585 36.578 111.083C31.5576 134.598 19.1696 171.328 13.5407 181.912C7.91178 192.496 0.609375 196.647 0.609375 196.647C0.609375 196.647 1.54391 198.19 5.73844 198.081C9.93298 197.973 17.8004 194.647 17.8004 194.647C17.8004 194.647 26.8632 191.735 35.2088 193.257C38.208 193.8 39.7511 194.8 40.0119 196.038C40.0119 196.038 43.4892 142.509 45.7495 116.603Z" fill="#F18340"/>
<path d="M129.445 199.472C129.684 198.364 132.661 197.299 138.377 196.016C150.005 193.408 159.285 196.582 159.285 196.582L172.39 197.494C150.331 177.565 138.551 135.207 128.489 108.409C124.62 98.086 119.904 91.6747 114.645 87.6758C114.971 96.0648 115.579 108.801 116.687 125.796C118.883 158.939 129.445 199.472 129.445 199.472Z" fill="#F18340"/>
<path d="M35.2089 193.256C26.8633 191.713 17.8005 194.647 17.8005 194.647C17.8005 194.647 11.8021 203.536 9.60706 209.165C8.56386 211.838 9.21586 212.512 10.6937 212.794C15.4099 210.621 22.6688 207.318 29.4713 204.449C40.7727 199.689 43.5545 194.777 35.2089 193.256Z" fill="#ED6B1C"/>
<path d="M138.377 196.017C126.75 198.625 126.424 200.32 137.725 203.471C147.549 206.209 159.98 208.774 165.088 214.033C165.066 213.316 164.914 212.556 164.631 211.73C162.458 205.601 159.285 196.603 159.285 196.603C159.285 196.603 150.005 193.409 138.377 196.017Z" fill="#ED6B1C"/>
<path d="M96.1709 267.323L97.8444 274.256L111.123 272.604L108.494 263.237L96.1709 267.323Z" fill="#FFCCAE"/>
<path d="M112.362 263.694L114.036 270.627L127.315 268.975L124.663 259.608L112.362 263.694Z" fill="#FFCCAE"/>
<path d="M57.1152 142.596C57.1152 142.596 57.6586 155.179 64.5263 178.63C71.394 202.08 95.0616 256.044 95.0616 256.044L128.314 250.676C128.314 250.676 122.706 210.904 116.925 184.65C111.144 158.396 112.774 153.984 98.6694 136.293L57.1152 142.596Z" fill="#A87454"/>
<mask id="mask0_3378_81447" style="mask-type:luminance" maskUnits="userSpaceOnUse" x="57" y="136" width="72" height="121">
<path d="M57.1152 142.596C57.1152 142.596 57.6586 155.179 64.5263 178.63C71.394 202.08 95.0616 256.044 95.0616 256.044L128.314 250.676C128.314 250.676 122.706 210.904 116.925 184.65C111.144 158.396 112.774 153.984 98.6694 136.293L57.1152 142.596Z" fill="white"/>
</mask>
<g mask="url(#mask0_3378_81447)">
<path d="M80.1092 151.071C80.1092 151.071 87.1291 180.998 95.04 208.143C102.951 235.266 113.383 258.564 113.383 258.564H109.319C109.341 258.564 79.2182 177.39 80.1092 151.071Z" fill="#705646"/>
</g>
<path d="M133.313 264.303C132.661 261.695 130.662 258.087 130.118 255.631C129.575 253.197 126.706 253.067 126.706 253.067C126.706 253.067 124.728 248.59 120.143 248.764H120.121H120.099C115.296 249.003 115.101 253.849 115.101 253.849C115.101 253.849 111.906 254.436 112.406 257.109C112.905 259.826 112.384 264.151 112.71 267.085C114.079 278.951 122.881 282.103 127.293 281.277C127.293 281.277 137.029 279.277 133.313 264.303Z" fill="#FF6000"/>
<mask id="mask1_3378_81447" style="mask-type:luminance" maskUnits="userSpaceOnUse" x="112" y="248" width="23" height="34">
<path d="M133.313 264.303C132.661 261.695 130.662 258.087 130.118 255.631C129.575 253.197 126.706 253.067 126.706 253.067C126.706 253.067 124.728 248.59 120.143 248.764H120.121H120.099C115.296 249.003 115.101 253.849 115.101 253.849C115.101 253.849 111.906 254.436 112.406 257.109C112.905 259.826 112.384 264.151 112.71 267.085C114.079 278.951 122.881 282.103 127.293 281.277C127.293 281.277 137.029 279.277 133.313 264.303Z" fill="white"/>
</mask>
<g mask="url(#mask1_3378_81447)">
<path d="M112.362 253.871C112.362 253.871 114.666 255.61 117.209 263.455C119.73 271.301 119.947 276.256 117.991 280.255C116.035 284.254 110.015 273.214 109.168 266.65C108.32 260.087 112.362 253.871 112.362 253.871Z" fill="#BE5A1E"/>
</g>
<path d="M115.188 262.607C115.166 261.738 116.079 260.782 118.948 259.608C121.817 258.435 125.968 258.5 127.532 259.152C129.075 259.804 128.619 260.804 127.619 260.847C126.62 260.891 124.729 260.282 122.273 260.586C119.839 260.891 118.6 261.629 117.187 262.586C115.796 263.542 115.188 262.89 115.188 262.607Z" fill="#FF6000"/>
<path d="M116.144 266.628C116.122 265.759 117.035 264.802 119.904 263.629C122.773 262.455 126.924 262.52 128.488 263.172C130.032 263.824 129.575 264.824 128.575 264.868C127.576 264.911 125.685 264.303 123.229 264.607C120.795 264.911 119.556 265.65 118.143 266.606C116.752 267.584 116.144 266.911 116.144 266.628Z" fill="#FF6000"/>
<path d="M117.187 270.214C117.165 269.345 118.078 268.388 120.947 267.215C123.816 266.041 127.967 266.106 129.531 266.758C131.074 267.41 130.618 268.41 129.618 268.453C128.619 268.497 126.728 267.888 124.272 268.193C121.838 268.497 120.599 269.236 119.186 270.192C117.817 271.17 117.209 270.496 117.187 270.214Z" fill="#FF6000"/>
<path d="M117.143 267.519C116.491 264.911 114.492 261.303 113.948 258.847C113.405 256.413 110.536 256.283 110.536 256.283C110.536 256.283 108.559 251.806 103.973 251.98H103.951H103.929C99.1262 252.219 98.9306 257.065 98.9306 257.065C98.9306 257.065 95.7358 257.652 96.2357 260.325C96.7356 263.042 96.214 267.367 96.54 270.301C97.9092 282.167 106.711 285.318 111.123 284.493C111.123 284.493 120.838 282.493 117.143 267.519Z" fill="#FF6000"/>
<path d="M98.9955 265.823C98.9738 264.954 99.8866 263.998 102.755 262.824C105.624 261.65 109.775 261.716 111.34 262.368C112.883 263.02 112.427 264.019 111.427 264.063C110.427 264.106 108.536 263.498 106.081 263.802C103.646 264.106 102.408 264.845 100.995 265.802C99.6258 266.758 99.0172 266.106 98.9955 265.823Z" fill="#FF6000"/>
<path d="M99.9515 269.844C99.9298 268.974 100.843 268.018 103.711 266.845C106.58 265.671 110.731 265.736 112.296 266.388C113.839 267.04 113.383 268.04 112.383 268.083C111.383 268.127 109.492 267.518 107.037 267.823C104.602 268.127 103.364 268.866 101.951 269.822C100.56 270.778 99.9733 270.126 99.9515 269.844Z" fill="#FF6000"/>
<path d="M101.017 273.43C100.995 272.56 101.908 271.604 104.777 270.431C107.646 269.257 111.797 269.322 113.362 269.974C114.905 270.626 114.448 271.626 113.448 271.669C112.449 271.713 110.558 271.104 108.102 271.409C105.668 271.713 104.429 272.452 103.016 273.408C101.626 274.386 101.017 273.712 101.017 273.43Z" fill="#FF6000"/>
<path d="M43.9888 101.585C43.9888 101.585 28.9493 136.902 26.037 147.181C23.1248 157.461 24.1028 161.569 26.5804 163.96C29.058 166.329 32.6005 164.633 32.6005 164.633C32.6005 164.633 34.513 165.416 35.252 164.525C35.9909 163.634 36.1648 162.59 36.1648 162.59C36.1648 162.59 39.403 161.46 40.1202 159.548C40.8374 157.635 40.6201 155.614 38.7945 153.136C36.9689 150.659 37.2732 149.485 37.2732 149.485L54.0948 110.778L43.9888 101.585Z" fill="#FBC4A3"/>
<path d="M111.514 83.5465C107.384 80.1778 99.2562 75.3096 80.5872 75.3096C61.9183 75.3096 50.7474 83.6552 48.0524 87.1325C45.3358 90.6098 36.2295 112.734 36.2295 112.734L51.2038 121.254L55.9851 111.496L57.1804 147.356L107.841 148.008L108.601 108.627L121.424 93.1526C117.512 89.1537 113.405 85.0896 111.514 83.5465Z" fill="#EF5A00"/>
<mask id="mask2_3378_81447" style="mask-type:luminance" maskUnits="userSpaceOnUse" x="36" y="75" width="86" height="74">
<path d="M111.514 83.5465C107.384 80.1778 99.2562 75.3096 80.5872 75.3096C61.9183 75.3096 50.7474 83.6552 48.0524 87.1325C45.3358 90.6098 36.2295 112.734 36.2295 112.734L51.2038 121.254L55.9851 111.496L57.1804 147.356L107.841 148.008L108.601 108.627L121.424 93.1526C117.512 89.1537 113.405 85.0896 111.514 83.5465Z" fill="white"/>
</mask>
<g mask="url(#mask2_3378_81447)">
<path d="M65.2869 75.1142C65.2869 75.1142 68.0036 85.4376 78.8051 87.6761C89.6065 89.8929 95.7136 74.1797 95.7136 74.1797C95.7136 74.1797 106.472 74.81 112.687 81.3952C118.903 87.9804 96.0613 91.8272 78.7833 92.5009C61.5271 93.1746 53.9639 78.8089 53.9639 78.8089C53.9639 78.8089 57.5933 75.1577 65.2869 75.1142Z" fill="#ED6B1C"/>
</g>
<path d="M132.248 112.756H95.9531V155.788H132.248V112.756Z" fill="#EC9763"/>
<path d="M136.117 108.714C133.639 104.584 128.119 100.455 128.119 100.455L116.73 112.213C116.73 112.213 121.316 116.625 120.947 117.82C120.729 118.537 114.535 128.991 109.319 137.38L115.079 145.769C120.99 139.358 127.923 130.925 131.227 126.166C136.66 118.363 138.594 112.843 136.117 108.714Z" fill="#FBC4A3"/>
<path d="M130.27 102.302C130.27 102.302 125.988 97.8035 121.403 93.1309L108.58 108.605L119.099 116.06L130.27 102.302Z" fill="#EF5A00"/>
<path d="M95.9535 112.756H60.2021V155.788H95.9535V112.756Z" fill="#F6A879"/>
<path d="M102.234 147.834C101.039 148.008 98.1048 147.551 95.6707 146.965C93.2366 146.378 92.5846 147.617 94.7144 148.703C96.8226 149.812 98.0614 151.92 96.866 152.659C95.6707 153.398 88.3248 152.659 86.2167 152.898C84.1086 153.137 84.152 154.376 85.0648 155.462C85.9776 156.571 93.8886 158.222 96.3662 158.483C98.8438 158.766 101.973 156.462 106.277 154.071C107.972 153.137 111.319 149.855 115.1 145.747L109.341 137.358C105.798 143.031 102.712 147.769 102.234 147.834Z" fill="#FBC4A3"/>
<path d="M73.0899 114.908H62.6797V120.472H73.0899V114.908Z" fill="#FAC7A9"/>
<path d="M71.7209 118.82H64.0273V119.472H71.7209V118.82Z" fill="#B1714A"/>
<path d="M70.0909 117.256H64.0273V117.908H70.0909V117.256Z" fill="#B1714A"/>
<path d="M67.8307 115.799H64.0273V116.451H67.8307V115.799Z" fill="#B1714A"/>
<path d="M72.2204 78.374C72.2204 78.374 71.2642 78.4175 70.9382 79.0478C70.6122 79.678 70.6774 80.417 72.829 82.1122C74.9806 83.8291 77.1539 84.2855 79.675 84.3724C82.1743 84.4811 85.3908 83.1336 86.9339 82.0035C88.477 80.8734 89.2376 79.2216 88.9986 79.0043C88.7595 78.787 88.4552 78.6131 85.9559 78.6131C83.4348 78.6783 72.2204 78.374 72.2204 78.374Z" fill="#C14900"/>
<path d="M71.8945 79.4829C72.3292 79.961 75.2415 83.0254 79.9141 82.9168C84.3043 82.8081 86.9775 79.9828 87.4339 79.4829C87.4339 75.4622 87.4339 71.4416 87.4339 67.4209H71.8945V79.4829Z" fill="#FBC4A3"/>
<mask id="mask3_3378_81447" style="mask-type:luminance" maskUnits="userSpaceOnUse" x="71" y="67" width="17" height="16">
<path d="M71.8945 79.4829C72.3292 79.961 75.2415 83.0254 79.9141 82.9168C84.3043 82.8081 86.9775 79.9828 87.4339 79.4829C87.4339 75.4622 87.4339 71.4416 87.4339 67.4209H71.8945V79.4829Z" fill="white"/>
</mask>
<g mask="url(#mask3_3378_81447)">
<path d="M88.9331 71.4631C88.9331 71.4631 82.2827 77.1572 70.764 76.6573L68.1777 68.1813L86.086 62.9219L88.9331 71.4631Z" fill="#E2A682"/>
</g>
<path d="M52.2035 28.1051C51.9209 33.0385 51.7471 38.4284 53.5509 46.5349C55.3331 54.6415 55.1157 58.1188 55.1157 62.2916C55.1157 66.4644 56.2024 68.8985 62.8745 72.2672C69.5467 75.6359 75.8928 75.8967 83.8472 73.6799C91.7799 71.4413 98.4303 64.5084 101.256 56.2932C104.059 48.0563 102.82 35.7117 100.647 29.0179C98.4737 22.324 89.4109 14.9781 76.7187 15.1737C64.0264 15.3693 52.7251 19.4987 52.2035 28.1051Z" fill="#FBC4A3"/>
<path d="M90.15 53.2719C90.2152 53.2285 92.1929 51.3377 92.7363 48.947C93.2796 46.5346 92.8449 42.7095 91.3671 40.2537C89.8892 37.7978 88.5417 36.3634 85.8685 36.233C83.2171 36.0809 80.9133 40.3189 80.8916 40.3623C81.1524 39.6234 81.4132 38.9497 81.6957 38.4063C82.8041 36.3417 84.4559 35.6897 84.4559 35.6897C86.1945 35.1029 88.7373 35.2767 91.0411 38.0151C93.3448 40.7535 93.7795 44.2743 93.6925 47.0562C93.6056 49.8381 92.106 52.0114 90.5195 53.0329C90.4325 53.1198 90.3021 53.2067 90.15 53.2719Z" fill="#86431A"/>
<path d="M85.8902 36.2325C88.5634 36.3846 89.9108 37.7973 91.3887 40.2532C92.8666 42.709 93.3012 46.5341 92.7579 48.9465C92.2146 51.3372 90.2151 53.2062 90.1716 53.2714C88.4764 54.0973 85.412 54.206 83.0866 53.2497C80.5655 52.1848 79.8483 50.6852 79.7614 47.599C79.6962 45.317 80.2178 42.5134 80.935 40.3618C80.935 40.3184 83.217 36.0804 85.8902 36.2325Z" fill="white"/>
<path d="M83.8909 51.8596C84.7385 51.9248 86.6728 50.4035 86.6945 47.0566C86.7163 43.7096 85.4775 40.9712 83.7605 40.7756C82.0436 40.58 80.87 43.601 80.9786 46.5132C81.109 49.4038 82.0218 51.7075 83.8909 51.8596Z" fill="#86431A"/>
<path d="M83.2828 47.9907C83.5469 47.9907 83.761 47.5431 83.761 46.9909C83.761 46.4388 83.5469 45.9912 83.2828 45.9912C83.0188 45.9912 82.8047 46.4388 82.8047 46.9909C82.8047 47.5431 83.0188 47.9907 83.2828 47.9907Z" fill="white"/>
<path d="M60.0493 52.3813C60.0058 52.3378 58.115 50.5557 57.5934 48.2955C57.0718 46.0134 57.4848 42.4057 58.8757 40.0585C60.2666 37.733 61.5489 36.3856 64.07 36.2552C66.591 36.1248 68.7426 40.1237 68.7644 40.1455C68.5253 39.4283 68.2645 38.798 68.0037 38.2981C66.9605 36.3421 65.3957 35.7336 65.3957 35.7336C63.744 35.1685 61.3533 35.3424 59.1582 37.9504C56.9849 40.5584 56.572 43.8836 56.6372 46.5133C56.7024 49.143 58.1368 51.2077 59.6364 52.164C59.7885 52.2509 59.9189 52.3161 60.0493 52.3813Z" fill="#86431A"/>
<path d="M64.0914 36.2551C61.5703 36.3855 60.2881 37.7329 58.8971 40.0584C57.5062 42.3839 57.0933 45.9916 57.6149 48.2953C58.1147 50.5556 60.0055 52.3377 60.0707 52.3812C61.679 53.1636 64.5695 53.2723 66.7646 52.3595C69.1553 51.3597 69.829 49.9253 69.9159 47.0131C69.9811 44.8397 69.503 42.1883 68.8075 40.1671C68.7641 40.1236 66.5907 36.1247 64.0914 36.2551Z" fill="white"/>
<path d="M62.266 51.1864C61.4619 51.2516 59.6363 49.7954 59.6146 46.6441C59.5928 43.471 60.7664 40.8848 62.3964 40.6892C64.0047 40.4936 65.1348 43.3624 65.0262 46.1225C64.8958 48.8826 64.0264 51.056 62.266 51.1864Z" fill="#86431A"/>
<path d="M60.9398 47.4267C61.1919 47.4267 61.3962 47.0083 61.3962 46.4921C61.3962 45.976 61.1919 45.5576 60.9398 45.5576C60.6877 45.5576 60.4834 45.976 60.4834 46.4921C60.4834 47.0083 60.6877 47.4267 60.9398 47.4267Z" fill="white"/>
<path d="M75.7842 53.8593C76.1754 54.0331 76.8057 53.7071 76.3493 53.0334C75.8929 52.3597 75.5234 51.8598 74.6541 51.8815C73.7848 51.8815 72.872 52.8595 72.785 53.2507C72.7198 53.6202 73.0241 53.9462 73.6544 53.8375C74.2846 53.7289 74.7845 53.4246 75.7842 53.8593Z" fill="#F9BB96"/>
<path d="M74.6323 51.7513C73.6543 51.7513 72.8284 52.2729 72.6111 52.9684C72.5676 53.0771 72.4589 53.164 72.3503 53.164C72.1764 53.164 72.046 52.9901 72.0895 52.8163C72.372 51.8817 73.3935 51.208 74.6323 51.208C75.8711 51.208 76.9143 51.9035 77.1751 52.8163C77.2185 52.9901 77.0881 53.164 76.9143 53.164C76.7839 53.164 76.6752 53.0771 76.6535 52.9684C76.4579 52.2512 75.632 51.7513 74.6323 51.7513Z" fill="#86431A"/>
<path d="M80.9131 31.1259C80.9131 31.1259 82.8691 29.1916 87.5418 29.9523C92.2144 30.713 94.5182 35.842 94.5182 35.842C94.5182 35.842 94.6703 29.083 88.3894 27.9094C82.1084 26.7358 80.9131 31.1259 80.9131 31.1259Z" fill="#86431A"/>
<path d="M69.1122 30.6913C69.1122 30.6913 67.1562 28.7571 62.4836 29.5177C57.8109 30.2784 55.5072 35.4075 55.5072 35.4075C55.5072 35.4075 55.355 28.6484 61.636 27.4748C67.9169 26.3012 69.1122 30.6913 69.1122 30.6913Z" fill="#86431A"/>
<path d="M69.5249 59.8359C70.4594 61.053 72.2633 62.7265 75.9145 62.4222C78.4138 62.2049 79.9569 61.1182 80.8262 60.2489C80.9783 60.6183 80.9566 61.1617 80.7175 61.9223C80.0873 63.9001 78.0661 65.617 75.1321 65.6605C70.7854 65.7039 68.5034 60.727 69.5249 59.8359Z" fill="#86431A"/>
<path d="M69.5244 59.8361C69.5461 59.8144 69.5679 59.7926 69.5896 59.7926C70.7415 59.032 71.5239 59.9882 74.2623 60.2708C77.0007 60.5533 77.87 59.8361 79.174 59.6622C79.9564 59.5536 80.5867 59.684 80.8257 60.249C79.9564 61.1184 78.4133 62.205 75.914 62.4224C72.2628 62.7266 70.4589 61.0532 69.5244 59.8361Z" fill="white"/>
<path d="M60.7233 4.82843C69.2645 0.0253643 79.7182 -1.66983 91.8237 1.9379C103.929 5.54563 107.711 15.6299 108.732 24.3667C109.123 27.7354 109.145 31.2127 109.015 34.2336L98.7566 36.3635C98.7566 36.3635 93.0408 27.7136 81.696 25.4099C70.3512 23.1062 60.4407 26.7356 56.8982 28.0831C53.3557 29.4088 49.9001 31.2996 49.9001 31.2996C47.1834 18.716 52.1604 9.65323 60.7233 4.82843Z" fill="#7D6251"/>
<path d="M107.863 46.2954L99.2565 50.3161L98.7783 36.3633L109.036 34.2334C108.819 39.0147 107.863 46.2954 107.863 46.2954Z" fill="#86431A"/>
<path d="M53.2687 35.8633L54.2032 49.5335L52.2907 46.9255L50.7259 39.4928L50.3564 36.3631L53.2687 35.8633Z" fill="#86431A"/>
<path d="M41.7501 41.7099C37.4903 41.3187 36.9688 38.6021 36.9688 38.6021L50.3565 36.3418L50.726 39.4714C50.726 39.4931 46.0098 42.1229 41.7501 41.7099Z" fill="#7D6251"/>
<path d="M56.92 28.0611C60.4625 26.7353 70.3729 23.0841 81.7177 25.3879C93.0625 27.6916 98.7784 36.3415 98.7784 36.3415C98.7784 36.3415 88.8462 40.3187 80.8049 43.4265C72.7853 46.5561 67.8301 41.4488 62.4837 38.1236C57.1373 34.7984 53.2905 35.8416 53.2905 35.8416L36.9688 38.58L49.9218 31.2559C49.9001 31.2776 53.3774 29.4085 56.92 28.0611Z" fill="#8E796D"/>
<path d="M51.3559 47.5566C53.3119 45.2312 55.4852 47.5132 55.4852 47.5132C55.7025 47.9696 56.0068 49.1867 56.3328 50.7515C56.8544 53.2508 57.4194 56.576 57.615 58.8363C57.7455 60.3576 57.7455 61.4008 57.4412 61.3573C56.4415 61.2269 53.4857 61.0313 51.9209 58.1843C50.3996 55.3372 49.3999 49.8821 51.3559 47.5566Z" fill="#FBC4A3"/>
<path d="M55.3764 52.5987C55.6154 51.9467 55.485 49.7299 54.3332 49.5126C53.1813 49.2953 52.4424 51.2513 52.9857 53.7941C53.529 56.3369 55.2242 57.4018 55.898 57.5539C56.5717 57.7278 56.0501 56.1195 55.3981 54.8155C54.7678 53.5115 54.92 53.7723 55.3764 52.5987Z" fill="#E1976B"/>
<path d="M107.168 44.7096C104.886 41.254 101.604 43.9924 101.604 43.9924C101.234 44.5792 100.626 46.1874 99.9521 48.2304C98.8437 51.5121 97.5831 55.924 96.9529 58.9449C96.5182 60.9878 96.3878 62.3788 96.779 62.3788C98.1482 62.357 102.191 62.5526 104.712 58.9449C107.254 55.3589 109.45 48.1652 107.168 44.7096Z" fill="#FBC4A3"/>
<path d="M100.952 50.9038C100.713 49.991 101.234 47.0135 102.821 46.9048C104.407 46.7744 105.081 49.5346 103.973 52.8815C102.864 56.2284 100.387 57.402 99.4523 57.5107C98.5177 57.6411 99.474 55.5547 100.561 53.8812C101.647 52.2078 101.387 52.5555 100.952 50.9038Z" fill="#E1976B"/>
</svg>
