<svg width="212" height="207" viewBox="0 0 212 207" fill="none" xmlns="http://www.w3.org/2000/svg">
<path d="M208.931 48.3513C200.307 25.7738 165.458 20.4727 165.458 20.4727V52.9353C165.458 52.9353 189.665 54.0457 177.709 68.7484C175.752 65.3043 172.746 62.5762 169.13 60.9618C152.879 53.8689 124.024 63.0758 106.478 73.3192C88.9319 83.5626 83.8928 97.5988 83.5605 112.509C83.5605 112.509 85.2192 131.789 98.2259 136.769C111.234 141.748 156.195 124.819 169.13 112.509C171.671 110.083 173.868 107.318 175.659 104.295C201.295 87.6443 216.989 69.4492 208.931 48.3513Z" fill="#8C3500"/>
<path d="M118.555 206.385C145.331 206.385 167.037 198.914 167.037 189.699C167.037 180.483 145.331 173.012 118.555 173.012C91.7793 173.012 70.0732 180.483 70.0732 189.699C70.0732 198.914 91.7793 206.385 118.555 206.385Z" fill="#FFCEB0"/>
<path d="M118.556 195.744C129.187 195.744 137.806 193.037 137.806 189.696C137.806 186.356 129.187 183.648 118.556 183.648C107.924 183.648 99.3057 186.356 99.3057 189.696C99.3057 193.037 107.924 195.744 118.556 195.744Z" fill="#B54400"/>
<path d="M118.555 198.984C102.456 198.984 89.8457 194.904 89.8457 189.697C89.8457 184.49 102.457 180.41 118.555 180.41C134.655 180.41 147.265 184.49 147.265 189.697C147.265 194.904 134.655 198.984 118.555 198.984ZM118.555 181.189C103.416 181.189 90.6237 185.085 90.6237 189.697C90.6237 194.309 103.415 198.206 118.555 198.206C133.696 198.206 146.487 194.309 146.487 189.697C146.487 185.085 133.696 181.189 118.555 181.189Z" fill="#B54400"/>
<path d="M122.888 0.613281H114.223C96.2431 0.613281 78.9996 7.76189 66.2859 20.4865C53.5722 33.2111 46.4297 50.4694 46.4297 68.4647C46.4297 81.3283 47.4069 128.611 111.923 187.151C113.74 188.798 116.104 189.709 118.556 189.709C121.007 189.709 123.371 188.798 125.189 187.151C189.705 128.611 190.682 81.3291 190.682 68.4647C190.682 50.4694 183.539 33.2111 170.826 20.4865C158.112 7.76189 140.868 0.613281 122.888 0.613281ZM118.556 117.599C109.279 117.599 100.211 114.845 92.4981 109.687C84.785 104.529 78.7734 97.1977 75.2235 88.6201C71.6735 80.0424 70.7447 70.6038 72.5544 61.4978C74.3642 52.3918 78.8312 44.0275 85.3906 37.4624C91.9501 30.8973 100.307 26.4265 109.406 24.6152C118.504 22.8039 127.934 23.7335 136.505 27.2865C145.075 30.8395 152.4 36.8563 157.554 44.5759C162.707 52.2956 165.458 61.3715 165.458 70.6559C165.458 83.1059 160.517 95.0459 151.721 103.849C142.925 112.653 130.995 117.599 118.556 117.599Z" fill="url(#paint0_linear_4048_67790)"/>
<path d="M113.234 82.21C124.49 82.21 133.614 73.0775 133.614 61.812C133.614 50.5465 124.49 41.4141 113.234 41.4141C101.978 41.4141 92.8535 50.5465 92.8535 61.812C92.8535 73.0775 101.978 82.21 113.234 82.21Z" fill="#FFEFE6"/>
<path d="M131.769 61.3001C130.045 59.203 128.676 56.8368 127.718 54.296C127.718 54.296 109.441 53.9432 97.9094 47.3362C86.3779 40.7293 85.8761 36.6483 87.0096 34.7616C88.1432 32.8749 91.9523 31.4662 98.8586 35.766C98.8586 35.766 104.368 29.6239 109.886 38.2835C109.886 38.2835 124.472 35.1524 132.619 48.4739C135.112 52.551 135.106 57.3374 134.721 60.4521C134.68 60.7764 134.544 61.0813 134.331 61.3293C134.118 61.5774 133.838 61.7576 133.524 61.8478C133.21 61.9379 132.876 61.9341 132.564 61.8368C132.252 61.7395 131.976 61.5529 131.769 61.3001ZM113.504 58.968C113.407 58.968 113.314 58.9316 113.242 58.8661C113.17 58.8005 113.126 58.7105 113.117 58.6137C113.108 58.5093 112.849 56.2154 109.842 55.9911C109.791 55.9874 109.741 55.9736 109.695 55.9506C109.649 55.9276 109.609 55.8958 109.575 55.857C109.542 55.8183 109.517 55.7733 109.501 55.7247C109.485 55.6761 109.478 55.6248 109.482 55.5738C109.485 55.5225 109.499 55.4725 109.522 55.4265C109.544 55.3806 109.576 55.3396 109.615 55.3061C109.654 55.2726 109.699 55.2472 109.748 55.2314C109.797 55.2156 109.848 55.2097 109.899 55.214C113.587 55.4904 113.89 58.5148 113.892 58.5452C113.901 58.648 113.868 58.7501 113.802 58.8291C113.736 58.9081 113.641 58.9575 113.538 58.9664C113.527 58.9673 113.516 58.9678 113.504 58.968Z" fill="#252525"/>
<path d="M109.95 61.0889C110.744 61.0889 111.388 60.4446 111.388 59.6499C111.388 58.8552 110.744 58.2109 109.95 58.2109C109.156 58.2109 108.513 58.8552 108.513 59.6499C108.513 60.4446 109.156 61.0889 109.95 61.0889Z" fill="#252525"/>
<path d="M99.5979 59.0967C100.392 59.0967 101.036 58.4524 101.036 57.6577C101.036 56.863 100.392 56.2188 99.5979 56.2188C98.8038 56.2188 98.1602 56.863 98.1602 57.6577C98.1602 58.4524 98.8038 59.0967 99.5979 59.0967Z" fill="#252525"/>
<path d="M111.686 69.4483C111.634 69.4483 111.583 69.4378 111.535 69.4177C111.488 69.3975 111.445 69.3679 111.408 69.3308C106.547 64.3419 98.2252 63.9151 98.142 63.9113C98.091 63.909 98.0409 63.8966 97.9946 63.8749C97.9483 63.8533 97.9068 63.8227 97.8723 63.7849C97.8379 63.7472 97.8112 63.703 97.7938 63.655C97.7764 63.6069 97.7686 63.5559 97.7709 63.5048C97.7782 63.4028 97.8243 63.3074 97.8997 63.2383C97.9751 63.1693 98.074 63.1317 98.1762 63.1334C98.5294 63.1489 106.885 63.5741 111.965 68.7873C112.018 68.8421 112.055 68.9115 112.069 68.9869C112.083 69.0623 112.075 69.1402 112.045 69.2109C112.016 69.2816 111.966 69.342 111.902 69.3844C111.838 69.4267 111.763 69.4493 111.686 69.4491V69.4483ZM99.2802 55.2509C98.8472 55.265 98.4154 55.1973 98.0074 55.0516C97.9135 55.0108 97.8395 54.9346 97.8013 54.8396C97.7632 54.7445 97.764 54.6382 97.8036 54.5438C97.8432 54.4493 97.9184 54.3743 98.0129 54.3349C98.1075 54.2956 98.2136 54.2952 98.3085 54.3337C98.3381 54.3453 99.8023 54.8997 102.186 53.6733C102.232 53.6482 102.282 53.6325 102.334 53.6271C102.385 53.6217 102.438 53.6267 102.487 53.6419C102.537 53.6571 102.583 53.6822 102.623 53.7156C102.663 53.749 102.696 53.79 102.72 53.8363C102.744 53.8826 102.758 53.9333 102.762 53.9852C102.766 54.0371 102.759 54.0893 102.742 54.1386C102.726 54.188 102.699 54.2335 102.665 54.2725C102.63 54.3115 102.589 54.3431 102.542 54.3656C101.541 54.9174 100.422 55.221 99.2802 55.2509Z" fill="#252525"/>
<path d="M144.605 22.2516C145.297 21.8589 146.093 21.6884 146.885 21.7633C147.677 21.8383 148.426 22.155 149.033 22.6706C151.132 24.4654 149.723 27.1354 149.723 27.1354C149.723 27.1354 152.516 25.0003 154.881 27.2896C157.352 29.6825 154.751 32.6998 154.751 32.6998C154.751 32.6998 157.349 31.1713 159.258 33.4138C161.166 35.6564 159.009 37.9239 159.009 37.9239C159.553 37.7537 160.137 37.7607 160.677 37.9439C161.217 38.127 161.685 38.4769 162.014 38.9431C163.15 40.4724 162.315 42.5016 161.035 44.1493C159.755 45.797 155.325 50.1147 151.367 49.3648C148.335 48.7902 148.998 46.1622 148.998 46.1622C148.285 46.4599 147.501 46.5422 146.741 46.3988C145.982 46.2555 145.281 45.8928 144.726 45.3555C142.932 43.7094 144.257 41.2597 144.257 41.2597C143.548 41.5752 142.754 41.6464 142 41.4623C141.246 41.2781 140.574 40.849 140.09 40.242C138.337 38.0773 140.034 35.3909 140.034 35.3909C139.505 35.4803 138.962 35.4522 138.444 35.3087C137.927 35.1651 137.447 34.9095 137.039 34.56C135.497 33.107 136.185 30.342 137.998 28.1757C139.874 25.8643 142.103 23.8648 144.604 22.2516H144.605Z" fill="#FFEFE6"/>
<path d="M144.03 32.8402C143.952 32.84 143.876 32.8163 143.812 32.7722C143.748 32.7282 143.698 32.6659 143.67 32.5933C143.641 32.5207 143.635 32.4413 143.652 32.3652C143.669 32.2891 143.709 32.22 143.766 32.1667L149.458 26.8515C149.535 26.788 149.632 26.7562 149.732 26.7625C149.831 26.7688 149.924 26.8128 149.991 26.8855C150.059 26.9581 150.096 27.054 150.096 27.1533C150.095 27.2527 150.057 27.3481 149.988 27.4199L144.296 32.7359C144.224 32.803 144.129 32.8402 144.031 32.8402H144.03ZM149.172 37.8377C149.093 37.8375 149.015 37.813 148.95 37.7675C148.885 37.7219 148.835 37.6575 148.808 37.5829C148.78 37.5083 148.776 37.427 148.796 37.3501C148.816 37.2731 148.86 37.2042 148.92 37.1525L154.499 32.4026C154.538 32.3694 154.583 32.3443 154.632 32.3285C154.681 32.3128 154.732 32.3068 154.783 32.3109C154.834 32.3151 154.884 32.3292 154.929 32.3525C154.975 32.3759 155.015 32.408 155.048 32.447C155.081 32.486 155.107 32.5312 155.122 32.5799C155.138 32.6286 155.144 32.68 155.14 32.7311C155.136 32.7821 155.122 32.8318 155.098 32.8774C155.075 32.923 155.043 32.9635 155.004 32.9967L149.425 37.745C149.355 37.8052 149.265 37.8384 149.173 37.8385L149.172 37.8377ZM153.927 42.5097C153.847 42.5095 153.769 42.4847 153.704 42.4386C153.639 42.3925 153.589 42.3273 153.562 42.252C153.535 42.1767 153.532 42.0949 153.553 42.0177C153.574 41.9405 153.618 41.8716 153.68 41.8206L158.762 37.6243C158.802 37.5898 158.847 37.5636 158.897 37.5471C158.946 37.5306 158.998 37.5242 159.05 37.5283C159.102 37.5325 159.153 37.547 159.199 37.5711C159.246 37.5953 159.287 37.6284 159.32 37.6687C159.353 37.709 159.378 37.7555 159.393 37.8055C159.407 37.8556 159.412 37.9081 159.406 37.9599C159.4 38.0118 159.384 38.062 159.359 38.1075C159.333 38.1529 159.299 38.1928 159.257 38.2247L154.175 42.4217C154.105 42.479 154.017 42.5101 153.927 42.5097Z" fill="#252525"/>
<path d="M110.621 109.89C109.976 109.889 109.341 109.724 108.776 109.41C108.212 109.096 107.736 108.644 107.395 108.095C107.053 107.546 106.857 106.92 106.824 106.274C106.791 105.629 106.923 104.986 107.207 104.405L112.619 93.3546C112.839 92.9056 113.145 92.5044 113.52 92.1738C113.895 91.8432 114.331 91.5897 114.803 91.4278C115.276 91.2659 115.776 91.1987 116.274 91.2302C116.773 91.2617 117.26 91.3911 117.709 91.6112C119.596 92.537 119.95 95.689 119.025 97.5773L114.04 107.757C113.727 108.397 113.24 108.936 112.636 109.313C112.031 109.69 111.333 109.89 110.621 109.89Z" fill="#FFEFE6"/>
<path d="M97.5941 88.4012C90.7075 88.398 84.0895 85.7268 79.1273 80.9476C74.1651 76.1684 71.2439 69.6522 70.9762 62.7649C70.7085 55.8776 73.1149 49.154 77.6911 44.0034C82.2673 38.8528 88.658 35.675 95.5235 35.1363C102.389 34.5976 109.196 36.7398 114.519 41.1137C119.841 45.4876 123.265 51.7538 124.073 58.5987C124.881 65.4436 123.01 72.3358 118.853 77.8305C114.695 83.3253 108.574 86.9961 101.772 88.0734C100.39 88.2907 98.993 88.4 97.5941 88.4004V88.4012ZM97.6967 40.6495C96.5843 40.6496 95.4736 40.7369 94.3747 40.9103C90.2469 41.5591 86.404 43.4183 83.3319 46.253C80.2598 49.0876 78.0966 52.7704 77.1158 56.8355C76.1349 60.9006 76.3805 65.1656 77.8215 69.091C79.2624 73.0164 81.8341 76.4261 85.2112 78.8887C88.5882 81.3514 92.6191 82.7565 96.7941 82.9263C100.969 83.0961 105.101 82.0231 108.666 79.8428C112.232 77.6626 115.071 74.4731 116.826 70.6776C118.58 66.8822 119.171 62.6513 118.523 58.5199C117.742 53.5488 115.216 49.0191 111.399 45.7439C107.582 42.4687 102.725 40.6625 97.6967 40.6495Z" fill="#FF6000"/>
<path d="M107.582 127.863C106.934 127.862 106.307 127.629 105.815 127.207C105.322 126.785 104.997 126.201 104.896 125.56L98.6596 85.8033C98.6009 85.4483 98.613 85.0853 98.6952 84.735C98.7774 84.3847 98.9281 84.0542 99.1385 83.7625C99.349 83.4708 99.6151 83.2237 99.9215 83.0355C100.228 82.8473 100.568 82.7216 100.924 82.6658C101.279 82.61 101.641 82.6251 101.991 82.7103C102.34 82.7955 102.669 82.949 102.959 83.1621C103.248 83.3751 103.493 83.6435 103.678 83.9517C103.864 84.2599 103.987 84.6018 104.039 84.9577L110.276 124.714C110.388 125.428 110.212 126.157 109.786 126.741C109.361 127.326 108.721 127.717 108.008 127.829C107.867 127.851 107.725 127.862 107.582 127.863Z" fill="#FF6000"/>
<path d="M108.379 88.8889C108.379 88.8889 112.274 88.6086 112.964 91.8595C113.168 92.7526 113.059 93.6885 112.657 94.5114C112.255 95.3342 111.583 95.9944 110.754 96.382C110.754 96.382 114.902 95.9888 115.845 99.7762C116.83 103.734 112.322 105.136 112.322 105.136C112.322 105.136 115.894 105.23 116.407 108.684C116.921 112.138 113.33 113.065 113.33 113.065C113.984 113.236 114.567 113.61 114.995 114.133C115.423 114.656 115.674 115.301 115.713 115.976C115.897 118.228 113.784 119.745 111.465 120.598C109.146 121.45 99.4724 123.629 95.9613 120.389C93.2725 117.907 95.5878 115.68 95.5878 115.68C94.6836 115.532 93.8426 115.122 93.1686 114.501C92.4946 113.88 92.0171 113.075 91.7951 112.185C91.0233 109.404 93.8918 107.773 93.8918 107.773C92.9806 107.645 92.1376 107.218 91.4947 106.559C90.8519 105.9 90.4456 105.046 90.3394 104.131C89.9333 100.853 93.3238 99.2179 93.3238 99.2179C92.735 98.9751 92.2067 98.6059 91.7761 98.1364C91.3455 97.6668 91.0232 97.1083 90.8319 96.5004C90.1924 94.0709 92.6182 91.7217 95.8002 90.6822C99.9025 89.5644 104.128 88.9623 108.379 88.8897V88.8889Z" fill="#FFEFE6"/>
<path d="M114.881 106.429C114.798 106.429 114.717 106.402 114.65 106.353C113.959 105.871 113.151 105.586 112.31 105.528C112.218 105.525 112.129 105.491 112.06 105.429C111.991 105.367 111.946 105.283 111.934 105.192C111.921 105.1 111.942 105.007 111.991 104.929C112.041 104.851 112.117 104.793 112.205 104.766C112.375 104.712 116.35 103.421 115.466 99.8714C114.618 96.4608 110.946 96.7551 110.79 96.7715C110.699 96.7787 110.607 96.7538 110.532 96.7009C110.457 96.6481 110.402 96.5706 110.378 96.4818C110.355 96.3926 110.364 96.298 110.404 96.2148C110.443 96.1317 110.512 96.0654 110.596 96.0279C111.246 95.7232 111.791 95.2314 112.161 94.6151C112.531 93.9989 112.709 93.2862 112.672 92.5682C112.665 92.4653 112.7 92.3639 112.767 92.2862C112.835 92.2085 112.931 92.161 113.034 92.154C113.085 92.1492 113.137 92.1549 113.186 92.1708C113.235 92.1866 113.28 92.2123 113.319 92.2463C113.358 92.2802 113.389 92.3217 113.412 92.3682C113.434 92.4147 113.447 92.4653 113.449 92.5168C113.498 93.1829 113.387 93.851 113.125 94.4652C112.863 95.0794 112.458 95.6219 111.943 96.0473C112.949 96.1224 113.905 96.5149 114.674 97.1683C115.443 97.8218 115.985 98.7025 116.221 99.6837C116.941 102.577 114.966 104.219 113.605 104.98C114.146 105.142 114.655 105.394 115.112 105.726C115.178 105.775 115.227 105.843 115.251 105.921C115.276 105.999 115.276 106.083 115.25 106.161C115.225 106.239 115.175 106.306 115.109 106.355C115.043 106.403 114.963 106.428 114.881 106.429Z" fill="#252525"/>
<path d="M99.1861 99.1631C99.0901 99.1627 98.9977 99.1268 98.9266 99.0623C98.8555 98.9978 98.8107 98.9093 98.8009 98.8137C98.791 98.7182 98.8168 98.6224 98.8733 98.5447C98.9297 98.4671 99.0129 98.4131 99.1067 98.393L110.676 96.0049C110.727 95.9915 110.78 95.9887 110.832 95.9966C110.884 96.0045 110.934 96.0229 110.979 96.0508C111.024 96.0786 111.063 96.1153 111.093 96.1587C111.123 96.202 111.144 96.251 111.155 96.3028C111.166 96.3545 111.166 96.4079 111.155 96.4597C111.144 96.5114 111.123 96.5605 111.093 96.6038C111.063 96.6472 111.025 96.684 110.98 96.7119C110.935 96.7399 110.885 96.7584 110.833 96.7664L99.2639 99.1553C99.2383 99.1608 99.2122 99.1634 99.1861 99.1631ZM101.224 107.419C101.127 107.419 101.033 107.383 100.961 107.316C100.889 107.25 100.845 107.16 100.837 107.062C100.829 106.965 100.858 106.868 100.917 106.791C100.977 106.714 101.064 106.662 101.16 106.646L112.256 104.756C112.358 104.738 112.463 104.762 112.547 104.822C112.631 104.881 112.688 104.972 112.705 105.074C112.723 105.176 112.699 105.28 112.639 105.365C112.58 105.449 112.489 105.506 112.387 105.523L101.291 107.414C101.269 107.418 101.247 107.419 101.224 107.419ZM103.077 115.104C102.979 115.104 102.884 115.068 102.812 115.001C102.74 114.935 102.695 114.843 102.688 114.745C102.68 114.648 102.709 114.55 102.77 114.473C102.831 114.396 102.918 114.345 103.015 114.33L113.269 112.684C113.371 112.668 113.475 112.692 113.558 112.753C113.642 112.814 113.698 112.905 113.714 113.007C113.731 113.109 113.706 113.213 113.645 113.297C113.585 113.381 113.493 113.437 113.392 113.453L103.139 115.099C103.118 115.102 103.098 115.104 103.077 115.104Z" fill="#252525"/>
<path d="M12.8689 46.3729C9.40133 47.2154 5.5689 48.3764 3.11431 51.1352C0.375753 54.214 0.406872 58.5037 2.22895 62.0459C3.14049 63.7176 4.37648 65.1904 5.86437 66.3776C7.35227 67.5648 9.06209 68.4427 10.8935 68.9597C14.0429 69.8917 18.8198 70.1082 21.3872 67.646C22.0009 67.0599 22.3834 66.2724 22.4648 65.4273C22.5463 64.5822 22.3212 63.736 21.8307 63.0433C20.6722 61.3093 18.6494 60.7354 16.6554 60.772C12.8728 60.8421 7.99004 61.7095 6.02559 65.3591C4.07904 68.976 5.20869 73.2696 7.48901 76.4333C10.1266 79.8566 13.3433 82.7906 16.9931 85.1022C25.1201 90.5402 34.7064 93.3779 44.4814 93.2393C44.6877 93.2393 44.8856 93.1572 45.0315 93.0112C45.1774 92.8652 45.2594 92.6671 45.2594 92.4606C45.2594 92.2541 45.1774 92.056 45.0315 91.91C44.8856 91.764 44.6877 91.6819 44.4814 91.6819C37.0916 91.7983 29.7807 90.1497 23.1548 86.8729C19.8727 85.2577 16.7949 83.2561 13.9869 80.9106C11.211 78.5793 8.22111 75.8182 7.04321 72.2853C5.92912 68.9433 6.8456 65.1006 10.2408 63.5682C11.9533 62.8904 13.7639 62.4942 15.6028 62.3947C17.4311 62.2218 19.7448 62.3052 20.6987 64.1748C21.6082 65.9563 19.8048 67.1259 18.3203 67.5635C16.7746 67.9979 15.158 68.121 13.5644 67.9256C10.3052 67.5516 7.29783 65.989 5.11689 63.5362C2.56271 60.6186 1.34359 56.0143 3.84563 52.6847C6.02403 49.7858 9.92881 48.6902 13.2828 47.8749C14.2553 47.6382 13.8429 46.1362 12.8689 46.3729ZM205.922 173.212C197.822 176.577 188.929 177.551 180.293 176.02C173.973 174.87 167.993 172.311 162.795 168.534C161.15 167.34 159.074 165.96 158.057 164.15C157.492 163.143 157.3 161.847 158.317 161.039C159.164 160.367 160.386 160.368 161.412 160.314C163.642 160.194 166.258 160.088 168.152 161.489C168.933 162.097 169.532 162.908 169.882 163.833C170.233 164.759 170.321 165.763 170.138 166.736C169.673 168.899 167.712 170.061 165.747 170.668C156.526 173.521 146.619 169.808 139.098 164.402C131.515 158.952 125.861 150.794 125.225 141.294C125.158 140.3 123.602 140.292 123.669 141.294C124.306 150.822 129.615 159.053 137.05 164.803C145.07 171.006 156.053 175.297 166.16 172.17C168.217 171.533 170.233 170.407 171.201 168.39C171.63 167.43 171.825 166.382 171.772 165.332C171.718 164.283 171.417 163.26 170.893 162.349C170.334 161.394 169.561 160.582 168.634 159.979C167.707 159.375 166.653 158.996 165.554 158.871C164.291 158.698 163.014 158.654 161.742 158.739C160.57 158.717 159.402 158.899 158.291 159.276C157.82 159.476 157.396 159.772 157.045 160.144C156.693 160.516 156.423 160.957 156.25 161.439C156.077 161.921 156.005 162.434 156.039 162.945C156.074 163.456 156.213 163.954 156.449 164.409C157.392 166.511 159.499 167.986 161.282 169.338C165.161 172.269 169.499 174.537 174.119 176.05C184.679 179.424 196.091 178.951 206.336 174.714C207.251 174.34 206.85 172.834 205.922 173.212Z" fill="#FF6000"/>
<path d="M46.4297 22.9065C47.7737 22.9065 48.8633 21.816 48.8633 20.4708C48.8633 19.1256 47.7737 18.0352 46.4297 18.0352C45.0857 18.0352 43.9961 19.1256 43.9961 20.4708C43.9961 21.816 45.0857 22.9065 46.4297 22.9065Z" fill="#FF6000"/>
<path d="M184.202 141.583C186.366 141.583 188.12 139.828 188.12 137.663C188.12 135.497 186.366 133.742 184.202 133.742C182.039 133.742 180.285 135.497 180.285 137.663C180.285 139.828 182.039 141.583 184.202 141.583Z" fill="#FF6000"/>
<path d="M37.7903 135.826C39.9537 135.826 41.7075 134.07 41.7075 131.905C41.7075 129.74 39.9537 127.984 37.7903 127.984C35.6269 127.984 33.873 129.74 33.873 131.905C33.873 134.07 35.6269 135.826 37.7903 135.826Z" fill="#FF6000"/>
<path d="M133.62 93.7943C133.547 93.7943 133.476 93.7739 133.414 93.7353C133.352 93.6968 133.302 93.6416 133.27 93.5761C133.238 93.5106 133.225 93.4375 133.233 93.3649C133.24 93.2924 133.268 93.2235 133.312 93.1659C141.339 82.8338 138.936 75.0931 138.911 75.0152C138.895 74.9666 138.889 74.9154 138.892 74.8644C138.896 74.8134 138.91 74.7636 138.933 74.718C138.98 74.6257 139.061 74.5558 139.159 74.5235C139.257 74.4911 139.364 74.4991 139.456 74.5456C139.548 74.5921 139.618 74.6734 139.65 74.7715C139.759 75.1008 142.228 82.9599 133.926 93.6432C133.89 93.6902 133.843 93.7283 133.79 93.7545C133.737 93.7807 133.678 93.7943 133.619 93.7943H133.62Z" fill="#252525"/>
<defs>
<linearGradient id="paint0_linear_4048_67790" x1="118.556" y1="-56.5094" x2="118.556" y2="189.709" gradientUnits="userSpaceOnUse">
<stop offset="0.15" stop-color="#FF9454"/>
<stop offset="1" stop-color="#E85700"/>
</linearGradient>
</defs>
</svg>
