<svg width="229" height="228" viewBox="0 0 229 228" fill="none" xmlns="http://www.w3.org/2000/svg">
<path d="M114.5 206.831C165.769 206.831 207.33 165.269 207.33 114C207.33 62.7315 165.769 21.1699 114.5 21.1699C63.2312 21.1699 21.6697 62.7315 21.6697 114C21.6697 165.269 63.2312 206.831 114.5 206.831Z" fill="#ECECEC"/>
<path d="M114.5 191.046C157.051 191.046 191.546 156.551 191.546 114C191.546 71.4487 157.051 36.9541 114.5 36.9541C71.9487 36.9541 37.4541 71.4487 37.4541 114C37.4541 156.551 71.9487 191.046 114.5 191.046Z" fill="#C5C5C5"/>
<path d="M170.047 99.4599L167.315 116.407L166.79 119.66C166.79 122.179 161.41 155.356 158.623 155.356L114.553 124.905L65.6434 158.84C62.8576 158.84 59.9278 123.138 59.9278 120.619L59.7334 116.407L58.9529 99.5092L66.8158 92.7148L111.41 54.1789C112.331 53.5324 113.428 53.1855 114.553 53.1855C115.679 53.1855 116.776 53.5324 117.697 54.1789L162.249 92.7148L170.047 99.4599Z" fill="url(#paint0_linear_2148_47001)"/>
<path d="M157.959 73.6104H71.5034V155.114H157.959V73.6104Z" fill="white"/>
<path d="M114.56 143.806L58.9529 99.5088V174.814H170.047V99.5088L114.56 143.806Z" fill="#FF9454"/>
<path d="M58.9529 99.5088V174.814L106.219 137.162L58.9529 99.5088Z" fill="#FFB68A"/>
<path d="M170.047 99.5088V174.814L122.78 137.162L170.047 99.5088Z" fill="#FFB68A"/>
<path d="M114.731 122.39C123.38 122.39 130.391 115.379 130.391 106.73C130.391 98.0814 123.38 91.0703 114.731 91.0703C106.083 91.0703 99.0715 98.0814 99.0715 106.73C99.0715 115.379 106.083 122.39 114.731 122.39Z" fill="url(#paint1_linear_2148_47001)"/>
<path d="M114.731 127.243C103.42 127.243 94.2185 118.04 94.2185 106.73C94.2185 95.4188 103.42 86.2168 114.731 86.2168C126.042 86.2168 135.244 95.4188 135.244 106.73C135.244 118.04 126.042 127.243 114.731 127.243ZM114.731 88.5304C104.696 88.5304 96.5321 96.6946 96.5321 106.73C96.5321 116.765 104.696 124.929 114.731 124.929C124.766 124.929 132.931 116.765 132.931 106.73C132.931 96.6946 124.766 88.5304 114.731 88.5304Z" fill="url(#paint2_linear_2148_47001)"/>
<path d="M106.909 106.452C107.122 102.414 110.457 99.25 114.5 99.25C118.543 99.25 121.878 102.414 122.091 106.452C122.1 106.624 122.106 106.789 122.113 106.949C122.135 107.49 122.154 107.961 122.253 108.413C122.37 108.953 122.587 109.378 123.028 109.708C123.797 110.285 124.25 111.191 124.25 112.153C124.25 113.534 123.163 114.75 121.7 114.75H107.3C105.837 114.75 104.75 113.534 104.75 112.153C104.75 111.191 105.203 110.285 105.972 109.708C106.413 109.378 106.63 108.953 106.747 108.413C106.846 107.961 106.865 107.49 106.887 106.949V106.949L106.887 106.948C106.894 106.789 106.9 106.624 106.909 106.452Z" fill="white"/>
<path fill-rule="evenodd" clip-rule="evenodd" d="M113.029 96.3743C113.474 96.083 114.017 96 114.5 96C114.983 96 115.526 96.083 115.971 96.3743C116.465 96.6976 116.75 97.2208 116.75 97.875C116.75 98.4712 116.517 99.0938 116.163 99.5706C115.814 100.04 115.242 100.5 114.5 100.5C113.758 100.5 113.186 100.04 112.837 99.5706C112.483 99.0938 112.25 98.4712 112.25 97.875C112.25 97.2208 112.535 96.6976 113.029 96.3743Z" fill="white"/>
<path fill-rule="evenodd" clip-rule="evenodd" d="M111.5 113C112.052 113 112.5 113.448 112.5 114C112.5 115.105 113.395 116 114.5 116C115.605 116 116.5 115.105 116.5 114C116.5 113.448 116.948 113 117.5 113C118.052 113 118.5 113.448 118.5 114C118.5 116.209 116.709 118 114.5 118C112.291 118 110.5 116.209 110.5 114C110.5 113.448 110.948 113 111.5 113Z" fill="white"/>
<defs>
<linearGradient id="paint0_linear_2148_47001" x1="114.5" y1="21.2692" x2="114.5" y2="158.84" gradientUnits="userSpaceOnUse">
<stop offset="0.15" stop-color="#FF9454"/>
<stop offset="1" stop-color="#E85700"/>
</linearGradient>
<linearGradient id="paint1_linear_2148_47001" x1="114.731" y1="81.6092" x2="114.731" y2="122.39" gradientUnits="userSpaceOnUse">
<stop offset="0.15" stop-color="#FF9454"/>
<stop offset="1" stop-color="#E85700"/>
</linearGradient>
<linearGradient id="paint2_linear_2148_47001" x1="114.731" y1="73.8236" x2="114.731" y2="127.243" gradientUnits="userSpaceOnUse">
<stop offset="0.15" stop-color="#FF9454"/>
<stop offset="1" stop-color="#E85700"/>
</linearGradient>
</defs>
</svg>
