<svg width="152" height="152" viewBox="0 0 152 152" fill="none" xmlns="http://www.w3.org/2000/svg">
<path d="M126.206 26.9426C138.607 39.5902 145.709 56.5009 146.059 74.2147L145.775 82.1879C144.171 99.649 136.051 115.865 123.034 127.606C110.017 139.347 93.0576 145.751 75.533 145.543C58.0084 145.336 41.205 138.532 28.4693 126.486C15.7336 114.44 8.00033 98.0364 6.80957 80.5422V72.569C7.43543 59.0063 12.0043 45.9214 19.9556 34.9191C27.907 23.9169 38.8951 15.4759 51.5721 10.6315C64.2491 5.78712 78.0637 4.75002 91.3213 7.64742C104.579 10.5448 116.703 17.2508 126.206 26.9426Z" fill="#FFF1F6"/>
<path d="M23.3148 21.6368C9.51294 34.869 1.22835 52.8373 0.12601 71.9307C-0.976328 91.0241 5.18528 109.827 17.3725 124.562C29.5598 139.296 46.8694 148.869 65.8225 151.357C84.7756 153.844 103.968 149.063 119.541 137.973L140.953 147.535C141.754 147.886 142.64 147.991 143.5 147.836C144.36 147.68 145.155 147.272 145.782 146.663C146.409 146.054 146.84 145.272 147.021 144.416C147.201 143.561 147.123 142.671 146.795 141.86L137.522 120.239C148.69 104.878 153.68 85.8785 151.499 67.0094C149.319 48.1402 140.128 30.7806 125.751 18.3751C111.374 5.96968 92.8613 -0.575014 73.8859 0.0396866C54.9106 0.654387 36.8597 8.38355 23.3148 21.6935V21.6368ZM126.149 26.8293C138.529 39.4795 145.628 56.3727 146.001 74.0731L145.718 82.0747C144.141 99.5352 136.05 115.761 123.056 127.523C110.061 139.284 93.1157 145.717 75.5938 145.542C58.0718 145.366 41.2586 138.595 28.5015 126.577C15.7445 114.558 7.97938 98.1729 6.75235 80.6843V72.6827C7.32855 59.0835 11.8679 45.9498 19.8112 34.8994C27.7545 23.849 38.7549 15.3644 51.4575 10.4907C64.1601 5.61699 78.0101 4.56703 91.3016 7.47012C104.593 10.3732 116.746 17.1026 126.263 26.8293H126.149Z" fill="url(#paint0_linear_193_6502)"/>
<path d="M66.9651 109.704C65.6676 109.707 64.3834 109.445 63.1924 108.934C62.0014 108.424 60.929 107.676 60.042 106.737L38.5625 84.1044C37.6386 83.2191 36.9057 82.1567 36.4083 80.982C35.911 79.8072 35.6595 78.5445 35.6692 77.2704C35.6789 75.9963 35.9495 74.7375 36.4647 73.5703C36.9799 72.4031 37.7288 71.3518 38.6661 70.4804C39.6034 69.6089 40.7095 68.9354 41.9173 68.5006C43.1251 68.0659 44.4093 67.8791 45.6921 67.9514C46.9749 68.0238 48.2294 68.3539 49.3797 68.9216C50.5299 69.4894 51.5518 70.283 52.3834 71.2542L66.3565 86.0408L99.3238 44.5479C100.096 43.5786 101.054 42.7698 102.142 42.1675C103.23 41.5652 104.427 41.1813 105.664 41.0377C106.902 40.8941 108.155 40.9936 109.354 41.3305C110.553 41.6674 111.673 42.2351 112.65 43.0013C113.628 43.7674 114.443 44.717 115.051 45.7958C115.658 46.8745 116.045 48.0613 116.19 49.2884C116.335 50.5155 116.235 51.7589 115.895 52.9476C115.555 54.1363 114.982 55.2469 114.21 56.2162L74.3701 106.259C73.5161 107.292 72.4504 108.134 71.2438 108.728C70.0372 109.321 68.7171 109.654 67.3709 109.704H66.9651Z" fill="url(#paint1_linear_193_6502)"/>
<defs>
<linearGradient id="paint0_linear_193_6502" x1="76" y1="-45.9167" x2="75.9999" y2="152" gradientUnits="userSpaceOnUse">
<stop offset="0.15" stop-color="#FF9454"/>
<stop offset="1" stop-color="#E85700"/>
</linearGradient>
<linearGradient id="paint1_linear_193_6502" x1="75.9616" y1="20.2116" x2="75.9616" y2="109.704" gradientUnits="userSpaceOnUse">
<stop offset="0.15" stop-color="#FF9454"/>
<stop offset="1" stop-color="#E85700"/>
</linearGradient>
</defs>
</svg>
