<svg width="269" height="243" viewBox="0 0 269 243" fill="none" xmlns="http://www.w3.org/2000/svg">
<path d="M52.9622 162.954C100.059 231.635 179.599 217.777 217.253 181.814C217.253 181.814 258.81 140.179 224.973 101.241C210.668 84.7804 208.233 67.4266 204.442 51.981L204.443 51.9806C199.266 30.8894 191.565 13.3568 147.672 6.52036C118.148 1.92115 90.1706 14.1255 69.7487 34.7989C37.5764 67.3628 24.154 120.942 52.9622 162.954Z" fill="#FFF7F2"/>
<path d="M52.9617 162.953C100.058 231.634 179.599 217.776 217.253 181.813C217.253 181.813 251.131 147.872 232.804 112.62C230.834 108.828 228.258 105.022 224.972 101.241C210.668 84.7807 208.232 67.4285 204.442 51.984C204.43 52.3921 203.277 88.9838 163.138 78.0849C131.947 69.6162 106.122 38.4501 69.748 34.7979C51.6407 53.1254 39.4723 78.112 37.4311 103.945C35.8453 124.01 40.3681 144.587 52.9617 162.953Z" fill="#FFEEE4"/>
<path d="M52.9617 162.953C100.058 231.634 179.599 217.777 217.253 181.813C217.253 181.813 233.045 165.991 237.232 144.734C239.178 134.855 238.618 123.804 232.804 112.621C216.304 122.626 179.248 140.758 151.382 122.269C120.347 101.678 71.3301 70.6558 37.4312 103.946C37.161 107.358 37.0682 110.785 37.162 114.213C37.6171 130.944 42.51 147.71 52.9617 162.953Z" fill="#FAE7DB"/>
<path d="M52.9655 162.954C100.062 231.635 179.603 217.778 217.256 181.814C217.256 181.814 233.049 165.992 237.236 144.735C237.236 144.735 221.433 168.89 177.038 175.56C128.469 182.857 83.3305 121.372 37.1658 114.214C37.6209 130.945 42.5138 147.712 52.9655 162.954Z" fill="#DAC1B2"/>
<path d="M168.118 5.61097C199.416 12.234 205.047 42.8581 205.047 42.8581M162.992 5.14104C162.992 5.14104 152.068 2.99922 147.767 3.02464M227.687 175.483C227.687 175.483 248.035 163.024 242.281 118.291" stroke="#FAE7DB" stroke-width="5" stroke-miterlimit="10" stroke-linecap="round"/>
<path d="M268.06 80.2069C264.942 99.5194 240.318 105.831 228.301 90.3939C219.377 78.9303 211.427 62.1579 219.115 43.4668C233.332 8.89981 272.597 49.5527 268.197 79.3236C268.153 79.6213 268.107 79.9157 268.06 80.2069Z" fill="#FFF7F2"/>
<path d="M230.711 173.208L95.6369 95.3064C88.7451 91.3031 2.91369 142.661 2.91369 142.661C-11.0416 156.909 140.773 234.727 140.773 234.727C147.674 238.736 237.613 177.217 230.711 173.208Z" fill="#FAE7DB"/>
<path opacity="0.59" d="M114.871 209.801L85.0864 103.725L95.3264 97.8105L224.756 172.506L137.539 222.883L114.871 209.801Z" fill="#DAC1B2"/>
<path d="M184.978 200.157L122.961 164.351L125.333 162.982L187.351 198.788L184.978 200.157ZM119.06 109.249L28.143 161.741L25.7708 160.372L116.688 107.88L119.06 109.249Z" fill="white"/>
<path d="M169.203 138.202L78.0667 190.82L75.6948 189.45L166.831 136.832L169.203 138.202ZM213.053 163.266L121.917 215.884L118.019 213.633L209.155 161.015L213.053 163.266ZM220.371 167.491L129.235 220.109L125.336 217.858L216.472 165.24L220.371 167.491Z" fill="white"/>
<path d="M102.086 176.403L34.7573 137.53L37.1294 136.161L104.458 175.033L102.086 176.403ZM139.051 155.061L71.7227 116.188L74.0949 114.818L141.423 153.691L139.051 155.061Z" fill="white"/>
<path d="M78.5984 161.425L84.3923 153.951L85.0173 154.436L79.2233 161.909L78.5984 161.425Z" fill="white"/>
<path d="M65.2732 139.156L65.6685 138.471L85.0876 149.68L84.6923 150.365L65.2732 139.156Z" fill="white"/>
<path d="M88.2077 155.483C86.8564 155.483 85.5025 155.186 84.4711 154.592C83.3986 153.97 82.8074 153.121 82.8074 152.202C82.8074 151.283 83.3985 150.437 84.4711 149.817C86.5335 148.627 89.8844 148.627 91.9465 149.82C93.0194 150.437 93.6105 151.283 93.6105 152.202C93.6105 153.121 93.0194 153.97 91.9465 154.59C90.9155 155.186 89.5616 155.483 88.2077 155.483ZM88.2077 149.705C86.9996 149.705 85.7888 149.97 84.8671 150.502C84.0494 150.976 83.5991 151.577 83.5991 152.202C83.5964 152.829 84.0494 153.434 84.8671 153.907C86.7105 154.967 89.7073 154.97 91.5509 153.905C92.3683 153.434 92.8216 152.829 92.8189 152.202C92.8189 151.577 92.3683 150.976 91.5509 150.504C90.6291 149.97 89.4183 149.705 88.2077 149.705Z" fill="white"/>
<path d="M115.197 168.241L91.552 154.592L91.9476 153.904L115.592 167.558L115.197 168.241Z" fill="white"/>
<path d="M101.581 159.898L101.186 159.21L113.051 152.362L113.447 153.044L101.581 159.898Z" fill="white"/>
<path d="M127.279 161.263L77.563 132.559L77.9586 131.877L127.675 160.581L127.279 161.263Z" fill="white"/>
<path d="M91.5542 150.278L91.1582 149.593L99.7038 144.659L100.099 145.341L91.5542 150.278Z" fill="white"/>
<path d="M95.3215 96.3506L5.57495 148.186L137.534 224.342L227.28 172.506L95.3215 96.3506ZM8.10425 148.186L95.3217 97.8103L224.751 172.506L137.534 222.882L8.10425 148.186Z" fill="#8F5837"/>
<path d="M242.905 182.786C242.914 185.429 241.168 188.076 237.676 190.093L168.379 230.118C161.442 234.124 150.228 234.131 143.327 230.122C143.326 230.122 5.60638 150.681 5.60638 150.681C2.18188 148.693 0.467747 146.087 0.459961 143.478L0.487217 152.812C0.495233 155.422 2.21017 158.027 5.63353 160.017L143.355 239.458C150.257 243.467 161.47 243.459 168.406 239.453L237.705 199.428C241.196 197.412 242.941 194.764 242.934 192.12L242.905 182.786Z" fill="#C07344"/>
<path d="M6.54858 148.499L19.7275 156.109L109.472 104.294L96.293 96.6846L6.54858 148.499Z" fill="#262321"/>
<path d="M237.756 175.579L100.035 96.138C93.1432 92.1347 81.9199 92.1365 74.983 96.142L5.68511 136.167C-1.2508 140.173 -1.28606 146.674 5.60588 150.679L143.327 230.119C150.228 234.129 161.442 234.121 168.378 230.114L237.677 190.09C244.613 186.084 244.658 179.588 237.756 175.579ZM137.465 223.58L7.3333 148.478L95.8376 97.3604L225.969 172.462L137.465 223.58Z" fill="#FFDBC5"/>
<path d="M204.337 198.463L200.648 196.334C198.807 195.271 195.722 195.387 193.626 196.598L180.451 204.207C179.751 204.611 179.213 205.115 178.897 205.664C178.182 206.902 178.625 208.266 179.998 209.058L183.688 211.188C185.529 212.251 188.614 212.136 190.709 210.925L203.884 203.316C204.584 202.911 205.122 202.407 205.439 201.859C206.154 200.62 205.711 199.256 204.337 198.463Z" fill="#C07344"/>
<path d="M204.338 199.832L200.649 197.702C198.807 196.64 195.723 196.756 193.627 197.966L180.452 205.575C179.752 205.979 179.214 206.484 178.897 207.032C178.79 207.218 178.759 207.407 178.704 207.596C178.909 208.163 179.34 208.679 179.998 209.059L183.688 211.188C185.53 212.251 188.614 212.136 190.71 210.925L203.885 203.316C204.585 202.912 205.123 202.408 205.439 201.859C205.547 201.673 205.577 201.483 205.633 201.294C205.427 200.728 204.997 200.212 204.338 199.832ZM52.3799 113.164L35.0973 123.147C33.754 123.922 33.6085 125.096 34.772 125.767C35.9355 126.439 37.9677 126.354 39.3112 125.578L56.5938 115.596C57.937 114.82 58.0829 113.647 56.9191 112.976C55.7556 112.304 53.7234 112.389 52.3799 113.164Z" fill="white"/>
<path d="M22.7262 136.389C21.1438 137.303 18.5864 137.303 17.0138 136.389C15.4413 135.476 15.4477 133.994 17.0301 133.08C18.6128 132.166 21.1718 132.166 22.7443 133.079C24.3169 133.993 24.3089 135.475 22.7262 136.389Z" fill="#212121"/>
<path d="M128.43 187.416C123.817 187.166 118.989 186.435 114.413 186.542C111.246 186.62 109.317 185.114 109.317 185.114L106.701 182.544C106.178 181.422 106.191 180.371 106.896 179.408L113.028 179.049L119.38 178.15C119.749 177.914 120.071 177.638 120.347 177.321C121.51 175.999 121.891 173.99 121.649 171.44C121.421 170.376 121.203 169.309 120.995 168.241C120.613 166.274 120.26 164.274 119.926 162.253C123.28 164.046 126.94 163.785 130.799 162.241C131.048 162.144 131.294 162.041 131.537 161.932C131.356 163.291 131.166 164.664 130.998 166.06C130.938 166.571 130.879 167.084 130.826 167.599H130.824C130.698 168.804 130.589 170.022 130.512 171.252C130.379 173.384 130.355 175.559 130.516 177.732C132.288 182.323 133.35 187.263 128.43 187.416Z" fill="#FEBC94"/>
<path d="M131.541 161.932C131.36 163.291 131.17 164.664 131.002 166.06C130.942 166.571 130.883 167.084 130.83 167.599H130.829C124.47 170.889 121 168.241 121 168.241C120.617 166.274 120.264 164.274 119.93 162.253C123.284 164.046 126.944 163.785 130.803 162.241C131.046 162.146 131.297 162.042 131.541 161.932Z" fill="#F58D4E"/>
<path d="M106.898 179.409C106.898 179.409 103.205 183.307 109.47 186.962C109.47 186.962 111.061 188.284 117.754 188.449C124.446 188.614 129.371 188.725 130.688 188.018C132.005 187.312 131.93 184.709 131.93 184.709L106.898 179.409Z" fill="#FF6C13"/>
<path d="M128.43 187.416C123.817 187.166 118.989 186.436 114.413 186.543C114.334 186.545 114.256 186.546 114.178 186.546C111.966 186.546 109.851 185.639 108.273 184.09L106.701 182.544C106.178 181.423 106.191 180.372 106.896 179.409L113.028 179.05C113.028 179.05 116.647 178.969 120.347 177.322C120.347 177.322 125.723 181.846 130.515 177.733C132.288 182.324 133.35 187.264 128.43 187.416Z" fill="#080402"/>
<path d="M118.544 177.889C118.594 177.875 118.648 177.881 118.694 177.906C118.74 177.931 118.774 177.972 118.791 178.021C119.205 179.268 119.842 179.672 119.849 179.676C119.895 179.704 119.927 179.75 119.94 179.802C119.953 179.854 119.944 179.909 119.916 179.955C119.889 180.001 119.844 180.034 119.792 180.048C119.74 180.061 119.685 180.052 119.639 180.025C119.608 180.006 118.871 179.553 118.405 178.15C118.396 178.123 118.393 178.096 118.395 178.068C118.397 178.041 118.405 178.014 118.418 177.989C118.431 177.965 118.449 177.944 118.471 177.926C118.492 177.909 118.517 177.896 118.544 177.889ZM116.394 178.33C116.444 178.316 116.498 178.322 116.544 178.347C116.59 178.371 116.624 178.412 116.641 178.462C117.055 179.709 117.692 180.113 117.699 180.117C117.745 180.145 117.777 180.19 117.79 180.243C117.803 180.295 117.794 180.35 117.767 180.396C117.739 180.442 117.694 180.475 117.642 180.488C117.59 180.501 117.535 180.493 117.489 180.466C117.458 180.447 116.721 179.994 116.255 178.59C116.246 178.564 116.243 178.536 116.245 178.509C116.247 178.481 116.255 178.454 116.268 178.43C116.281 178.406 116.299 178.384 116.321 178.367C116.342 178.35 116.367 178.337 116.394 178.33ZM114.244 178.68C114.294 178.666 114.348 178.672 114.394 178.697C114.44 178.722 114.474 178.763 114.491 178.812C114.905 180.059 115.542 180.463 115.549 180.467C115.595 180.496 115.627 180.541 115.64 180.593C115.653 180.645 115.644 180.7 115.617 180.747C115.589 180.793 115.544 180.826 115.492 180.839C115.44 180.852 115.385 180.844 115.339 180.816C115.308 180.797 114.571 180.345 114.105 178.941C114.096 178.914 114.093 178.887 114.095 178.859C114.097 178.832 114.105 178.805 114.118 178.78C114.131 178.756 114.149 178.735 114.171 178.717C114.192 178.7 114.217 178.687 114.244 178.68Z" fill="white"/>
<path d="M175.257 173.703C171.253 176.007 166.806 178.025 163.027 180.607C160.413 182.397 157.976 182.186 157.976 182.186L154.381 181.456C153.332 180.8 152.77 179.912 152.837 178.72L157.783 175.079L162.62 170.864C162.801 170.465 162.92 170.058 162.98 169.642C163.234 167.9 162.459 166.007 160.867 164C160.096 163.233 159.333 162.457 158.577 161.675C157.185 160.233 155.798 158.749 154.417 157.235C158.207 156.912 161.134 154.699 163.529 151.302C163.684 151.085 163.835 150.865 163.979 150.641C164.568 151.879 165.156 153.134 165.776 154.397C166.004 154.858 166.234 155.32 166.47 155.781L166.469 155.782C167.019 156.861 167.591 157.942 168.197 159.015C169.247 160.875 170.412 162.713 171.73 164.447C175.718 167.331 179.3 170.895 175.257 173.703Z" fill="#FEBC94"/>
<path d="M163.981 150.641C164.569 151.879 165.158 153.134 165.778 154.397C166.006 154.858 166.236 155.32 166.472 155.781L166.471 155.782C160.445 158.226 158.578 161.675 158.578 161.675C157.186 160.233 155.8 158.749 154.418 157.236C158.209 156.912 161.136 154.699 163.53 151.302C163.686 151.085 163.836 150.865 163.981 150.641Z" fill="#F58D4E"/>
<path d="M152.841 178.721C152.841 178.721 151.869 184.002 159.113 183.653C159.113 183.653 161.168 183.895 166.87 180.388C172.571 176.88 176.762 174.29 177.482 172.98C178.201 171.671 176.72 169.528 176.72 169.528L152.841 178.721Z" fill="#FF6C13"/>
<path d="M175.257 173.704C171.253 176.007 166.806 178.025 163.027 180.608C162.961 180.652 162.896 180.696 162.831 180.738C160.977 181.943 158.709 182.335 156.541 181.895L154.381 181.456C153.332 180.801 152.77 179.912 152.837 178.721L157.783 175.079C157.783 175.079 160.774 173.039 162.98 169.643C162.98 169.643 169.952 170.507 171.73 164.447C175.718 167.332 179.3 170.895 175.257 173.704Z" fill="#080402"/>
<path d="M161.775 171.104C161.81 171.065 161.858 171.041 161.91 171.037C161.962 171.032 162.013 171.048 162.054 171.081C163.08 171.901 163.835 171.892 163.843 171.892C163.896 171.891 163.949 171.911 163.988 171.948C164.027 171.985 164.05 172.036 164.052 172.089C164.053 172.143 164.034 172.195 163.997 172.234C163.961 172.274 163.91 172.297 163.857 172.299C163.82 172.3 162.956 172.322 161.8 171.399C161.758 171.365 161.731 171.316 161.725 171.262C161.719 171.209 161.734 171.155 161.768 171.113C161.77 171.11 161.773 171.107 161.775 171.104ZM160.212 172.645C160.247 172.606 160.295 172.582 160.347 172.578C160.399 172.573 160.45 172.589 160.491 172.621C161.517 173.441 162.272 173.433 162.28 173.433C162.334 173.432 162.386 173.452 162.425 173.489C162.464 173.526 162.487 173.576 162.489 173.63C162.491 173.684 162.471 173.736 162.435 173.775C162.398 173.815 162.347 173.838 162.294 173.84C162.258 173.841 161.393 173.863 160.237 172.939C160.195 172.906 160.168 172.857 160.162 172.803C160.156 172.75 160.171 172.696 160.205 172.654C160.207 172.651 160.21 172.648 160.212 172.645ZM158.6 174.11C158.635 174.071 158.683 174.047 158.735 174.043C158.787 174.038 158.838 174.054 158.879 174.087C159.905 174.907 160.66 174.898 160.668 174.898C160.722 174.897 160.774 174.917 160.813 174.954C160.852 174.991 160.875 175.042 160.877 175.095C160.879 175.149 160.859 175.201 160.823 175.24C160.786 175.28 160.735 175.303 160.682 175.305C160.646 175.306 159.781 175.328 158.625 174.405C158.583 174.371 158.556 174.322 158.55 174.268C158.544 174.215 158.559 174.161 158.593 174.119L158.6 174.11Z" fill="white"/>
<path d="M65.4399 86.8509L64.7157 86.4329C65.1845 88.071 65.4391 89.9472 65.4391 92.0441V94.6596C65.4392 104.042 54.1731 128.027 50.0351 136.52C49.6026 137.408 55.2959 143.461 55.2959 143.461L48.5341 139.557C48.5341 139.557 31.6287 125.673 31.6287 114.18V111.565C31.6287 100.072 39.1972 86.386 48.5338 80.9955C53.2409 78.278 57.4971 78.1905 60.5621 80.2419L60.5633 80.2401L66.9857 83.9288L65.4399 86.8509ZM56.9866 95.6358C56.9864 90.2455 53.2021 88.0605 48.5338 90.7557C48.9125 94.2151 42.5942 105.001 40.0813 105.396C40.0815 110.787 43.8658 112.972 48.5341 110.276C53.2022 107.581 56.9866 101.026 56.9866 95.6358Z" fill="#EF8B4E"/>
<path d="M72.4368 98.8441C72.2481 110.335 54.7958 143.458 54.7958 143.458C54.7958 143.458 38.1208 129.297 38.3097 117.806L38.3528 115.191C38.5417 103.7 46.3346 90.1399 55.7583 84.9038C65.1821 79.6676 72.6685 84.738 72.4797 96.2288L72.4368 98.8441ZM63.9691 99.6812C64.0576 94.2915 60.3098 92.0447 55.5978 94.6627C50.8859 97.2809 46.9943 103.772 46.9057 109.162C46.8172 114.552 50.5652 116.799 55.2772 114.181C59.989 111.562 63.8806 105.071 63.9691 99.6812Z" fill="#D9621A"/>
<path d="M110.243 104.77L83.5203 90.7013L83.4012 79.6755L83.0833 50.3428L115.561 63.774L114.353 73.0855L114.353 73.0862L110.243 104.77Z" fill="#FF690F"/>
<path d="M142.855 93.6565L136.196 95.926L129.089 98.3481L128.74 98.4677L110.245 104.77L115.557 63.8246L115.564 63.7745C115.564 63.7745 115.565 63.7745 115.569 63.7737L117.944 63.185L131.296 59.882L132.29 59.6363L147.693 55.8263L147.702 55.8232H147.705L142.855 93.6565Z" fill="#FF6101"/>
<path d="M147.702 55.8232L147.693 55.8263C147.371 55.9428 140.413 58.4452 132.56 60.6454C126.498 62.3438 121.092 63.1596 118.079 63.5202C117.002 63.6485 116.231 63.72 115.846 63.753C115.686 63.766 115.592 63.7721 115.569 63.7737L117.943 63.185L131.296 59.882L132.288 59.6363H132.289L147.702 55.8232Z" fill="black"/>
<path d="M147.701 55.8215L147.701 55.8223H147.7L147.691 55.8252L132.322 59.6507L131.33 59.8973L117.958 63.2249L115.844 63.752L115.554 63.8236L110.773 61.8381L106.019 59.8644L83.0833 50.3422L98.3397 46.3963L115.444 41.9727L147.701 55.8215Z" fill="#FAC9AB"/>
<path d="M147.701 55.8215L147.701 55.8223H147.7L147.691 55.8252L132.322 59.6507L131.33 59.8973L117.958 63.2249L115.844 63.752L115.554 63.8236L110.773 61.8381L106.019 59.8644L83.0833 50.3422L98.3397 46.3963L115.444 41.9727L147.701 55.8215Z" fill="#FF9758"/>
<path d="M110.246 104.771L83.5228 90.703L83.4038 79.6772C83.4038 79.6772 99.5236 96.0889 114.355 73.0879L110.246 104.771Z" fill="#FF6000"/>
<path d="M99.7058 46.048L131.332 59.8986L132.323 59.6519L100.692 45.793L99.7058 46.048Z" fill="black"/>
<path d="M107.874 92.7909L92.0207 85.7627L91.4675 91.0861L107.185 99.4235L107.874 92.7909Z" fill="#EDE2DB"/>
<path d="M103.574 93.6011L103.345 95.8047L105.883 97.0608L106.108 94.9009L103.574 93.6011ZM93.2306 87.4541L93.1716 88.0214L99.2449 91.1224L99.2992 90.5988L93.2306 87.4541ZM93.0742 88.9596L93.0082 89.5945L99.7493 93.0601L99.8102 92.474L93.0742 88.9596ZM92.9178 90.465L92.8518 91.1L99.5927 94.5657L99.6536 93.9794L92.9178 90.465Z" fill="#908C89"/>
<path d="M98.1412 69.2973L86.3301 63.6562L86.5845 57.168L98.6739 63.2787L98.1412 69.2973Z" fill="#EDEBEA"/>
<path d="M87.6752 63.5724L87.0615 63.2774L87.2624 58.5049L87.8872 58.8181L87.6752 63.5724Z" fill="#515151"/>
<path d="M87.7935 63.6324L87.551 63.5158L87.7609 58.7578L88.0077 58.8815L87.7935 63.6324ZM88.3038 63.8775L88.0624 63.7616L88.2815 59.0188L88.5272 59.1419L88.3038 63.8775ZM88.8117 64.1218L88.5714 64.0063L88.7996 59.2785L89.0443 59.4011L88.8117 64.1218ZM89.4238 64.4158L89.0873 64.2543L89.3247 59.5417L89.6672 59.7134L89.4238 64.4158ZM89.8213 64.6071L89.5829 64.4926L89.8293 59.7947L90.0719 59.9161L89.8213 64.6071ZM90.3227 64.8481L90.0855 64.7341L90.3407 60.051L90.5822 60.1719L90.3227 64.8481ZM90.9105 65.1306L90.4971 64.9319L90.7597 60.2609L91.1804 60.4718L90.9105 65.1306ZM91.3193 65.3271L91.084 65.2139L91.3569 60.5603L91.5963 60.6803L91.3193 65.3271ZM91.8144 65.565L91.5801 65.4525L91.8617 60.8134L92.1001 60.9328L91.8144 65.565ZM92.3073 65.802L92.0742 65.6899L92.3644 61.0653L92.6016 61.1843L92.3073 65.802ZM92.8852 66.0798L92.4788 65.8845L92.776 61.2717L93.1895 61.479L92.8852 66.0798ZM93.2871 66.273L93.0557 66.1618L93.363 61.5659L93.5983 61.6839L93.2871 66.273ZM93.7739 66.5069L93.5435 66.3962L93.8591 61.8146L94.0934 61.932L93.7739 66.5069ZM94.2586 66.74L94.0293 66.6297L94.3532 62.0623L94.5863 62.1792L94.2586 66.74Z" fill="#515151"/>
<path d="M94.7226 66.9605L94.2473 66.7322L94.5748 62.1709L95.0582 62.4132L94.7226 66.9605ZM95.226 67.2025L94.9985 67.0932L95.3388 62.5539L95.5701 62.6698L95.226 67.2025ZM95.7045 67.4325L95.4781 67.3239L95.8265 62.7984L96.0567 62.9137L95.7045 67.4325ZM96.1812 67.6616L95.9556 67.5533L96.3121 63.0418L96.5413 63.1567L96.1812 67.6616ZM96.6558 67.8899L96.4313 67.7819L96.7956 63.2841L97.0239 63.3986L96.6558 67.8899Z" fill="#515151"/>
<path d="M97.1086 68.1082L96.5432 67.8363L96.9095 63.3418L97.4843 63.6299L97.1086 68.1082ZM97.5988 68.3437L97.3761 68.2367L97.7562 63.7663L97.9825 63.8797L97.5988 68.3437Z" fill="#515151"/>
<path d="M111.024 58.0098L105.542 60.0423L104.984 65.4174L109.454 67.3968L110.135 62.1074L115.577 59.828L111.024 58.0098Z" fill="black"/>
<path opacity="0.32" d="M106.091 59.8945L105.502 60.4447C105.501 60.4476 108.493 61.523 110.19 62.1085C110.361 61.9977 110.55 61.9104 110.741 61.8242C109.381 61.2597 107.794 60.601 106.091 59.8945Z" fill="#B28367"/>
<path d="M116.841 76.3141L117.115 76.2664L117.444 76.1547C117.493 76.1536 117.552 76.1451 117.631 76.1231L117.695 76.0884L117.785 76.0718L117.793 76.0781L117.82 76.0708L117.824 76.0646L117.876 76.0551L118.024 75.9999L118.201 75.9651L118.242 75.9492L118.255 75.9501L118.255 75.9446L118.471 75.8621L118.634 75.8451L118.823 75.7646L119.094 75.7174L119.55 75.5629L119.849 75.508L120.144 75.3983L120.225 75.4039L120.224 75.3761L120.227 75.3715C120.332 75.3381 120.418 75.2978 120.478 75.247L120.506 75.2394L120.533 75.2599L120.639 75.1439C120.641 75.2399 120.723 75.2751 120.883 75.2497L120.989 75.1055L121.15 75.1193L121.443 75.0075L121.818 74.9034L122.084 74.8016C122.085 74.8403 122.192 74.8395 122.404 74.7992L122.59 74.6616L122.83 74.6226C122.913 74.5946 122.973 74.5675 123.012 74.5414C123.035 74.5932 123.128 74.5986 123.297 74.5515L123.401 74.4949L123.429 74.4871L123.455 74.5076L123.481 74.5005L123.509 74.4651L123.853 74.3973L124.117 74.2962L124.275 74.2801L124.46 74.2011L124.725 74.1555L125.17 74.0041L125.461 73.9511L125.749 73.8436L125.828 73.8494L125.828 73.8243L125.934 73.795L126.171 73.7569L126.329 73.6552L126.409 73.663L126.62 73.5744L126.884 73.5313L126.99 73.472L127.253 73.4291L127.489 73.3337L128.303 73.1653L128.486 73.0873L128.513 73.0797L128.67 73.0637L128.931 72.9337L129.14 72.9059L129.165 72.899L129.165 72.8815C129.188 72.8778 129.21 72.8746 129.238 72.869L129.315 72.8176L129.419 72.8186L129.444 72.8118L129.625 72.7316L129.704 72.7671L130.17 72.5806L130.403 72.5734L130.559 72.4728L130.764 72.4159L131.075 72.3597C131.075 72.3031 131.17 72.2487 131.359 72.1964C131.359 72.1964 131.642 72.1262 131.641 72.1727L131.641 72.2027C131.695 72.1798 131.735 72.1591 131.768 72.1395C131.811 72.1405 131.871 72.1333 131.953 72.1161L132.029 72.0652L132.132 72.0666L132.157 72.0597L132.336 71.9801L132.414 72.0157L132.875 71.8308L133.104 71.8243L133.258 71.7245L133.461 71.6683L133.768 71.613C133.768 71.5567 133.862 71.5027 134.049 71.451L134.431 71.3154C134.363 71.3441 134.329 71.3818 134.328 71.428L134.327 71.4579C134.387 71.4323 134.468 71.3995 134.54 71.3674C134.573 71.4019 134.66 71.4001 134.801 71.3609L134.901 71.306L134.928 71.2987L134.952 71.3192L134.976 71.3124L135.003 71.2778L135.33 71.2145L135.582 71.1174L135.731 71.1031L135.908 71.027L136.158 70.9846L136.583 70.8399L136.859 70.7904L137.134 70.6872L137.208 70.6938L137.208 70.6665L137.211 70.6622C137.309 70.631 137.39 70.5928 137.446 70.5441L137.473 70.5369L137.496 70.5574L137.599 70.4455C137.596 70.5393 137.669 70.5746 137.817 70.5519L137.921 70.4126L138.068 70.4282L138.341 70.323L138.689 70.2266L138.938 70.1307C138.937 70.1415 138.947 70.1485 138.963 70.1532L138.984 70.174C139 70.1696 139.012 70.1633 139.027 70.1583C139.075 70.1572 139.141 70.1492 139.231 70.1327L139.407 70.0009L139.42 69.9988C139.444 70.0502 139.512 70.0679 139.625 70.0506L139.711 69.9342C139.727 69.9276 139.74 69.9211 139.752 69.9146L139.873 69.9276L140.144 69.8232L140.49 69.7273L140.737 69.6322C140.735 69.6697 140.832 69.6705 141.027 69.6345L141.202 69.5032L141.422 69.4689C141.569 69.4186 141.643 69.3705 141.644 69.3247L141.65 69.1578L141.628 69.1348L141.504 69.1981L141.11 69.307L140.696 69.3655C140.695 69.3984 140.654 69.4285 140.571 69.4561L140.252 69.5446L140.13 69.5492L140.105 69.5852L139.982 69.5898L139.854 69.6497L139.835 69.6307L139.71 69.6945L139.448 69.767L139.191 69.8088L139.145 69.8281L138.896 69.8636C138.895 69.8964 138.853 69.9267 138.77 69.9546L138.448 70.0437L138.324 70.0485L138.3 70.0848L138.176 70.0895L137.875 70.2291L137.378 70.3103L137.209 70.3821C137.16 70.3706 137.047 70.3843 136.867 70.4244L136.867 70.4516L136.84 70.4886L136.839 70.5157L136.914 70.4951L136.913 70.5247L136.788 70.5593L136.589 70.5578L136.49 70.6125L136.365 70.6199L136.213 70.6892L136.012 70.7446L135.535 70.9062L135.386 70.8907L135.36 70.898L135.335 70.9322L135.159 70.9537L134.855 71.0649L134.555 71.0638L134.536 71.0903L134.484 71.0736L134.408 71.0945L134.18 71.1305L133.516 71.3983L133.287 71.4345L132.929 71.5906L132.338 71.754L132.083 71.7947L132.083 71.8246C131.975 71.8545 131.902 71.9051 131.847 71.9673L131.848 71.8599L131.797 71.8168L131.72 71.8379L131.489 71.8745L130.817 72.145L130.585 72.1818L130.224 72.3392L129.626 72.5045L129.368 72.5461V72.5761C129.293 72.5959 129.224 72.6318 129.166 72.6812V72.6395C129.166 72.6012 129.07 72.5991 128.879 72.6336L128.775 72.7476C128.748 72.7168 128.626 72.7222 128.408 72.7639L128.251 72.8651L127.831 72.9812L127.646 73.06V73.0324L127.593 73.0471L127.358 73.1398L127.252 73.0837L127.042 73.1998L126.909 73.2366L126.778 73.2426L126.698 73.2951L126.62 73.3167L126.566 73.2736L126.381 73.3828L126.249 73.389C126.072 73.4532 125.94 73.5098 125.851 73.5587V73.557C125.851 73.5133 125.72 73.521 125.458 73.5799L125.459 73.6076L125.431 73.6454L125.431 73.6731L125.51 73.6514L125.51 73.6817L125.379 73.7181L125.168 73.7183L125.064 73.7749L124.932 73.7837L124.773 73.8555L124.562 73.9138L124.061 74.0828L123.903 74.0684L123.875 74.0762L123.849 74.111L123.663 74.1347L123.345 74.2507L123.026 74.2526L122.991 74.3011L122.906 74.3441L122.479 74.4624L122.026 74.5292C122.026 74.563 121.982 74.5946 121.893 74.6244L121.546 74.7204L121.411 74.7271L121.386 74.7646L121.252 74.7713L120.931 74.9187L120.392 75.0091L120.211 75.0851C120.157 75.0741 120.035 75.0897 119.84 75.1336L119.841 75.1615L119.813 75.1998L119.814 75.2276L119.894 75.2054L119.895 75.2357L119.76 75.2732L119.543 75.2744L119.437 75.3318L119.302 75.3413L119.139 75.4145L118.923 75.4741L118.41 75.6467L118.25 75.6334C118.202 75.6172 118.076 75.632 117.865 75.6795L117.866 75.7076L117.838 75.7461L117.839 75.76L117.675 75.8195L117.348 75.8229L117.294 75.8966L117.298 75.8997L117.158 75.9625L116.941 76.0228L116.569 76.1479C116.557 76.2349 116.545 76.3217 116.531 76.4084L116.651 76.3958L116.841 76.3141Z" fill="#593E2D"/>
<path d="M141.515 71.3189L141.583 71.2023L141.611 70.8878L141.681 70.5006L141.706 70.213C141.741 70.2287 141.786 70.1304 141.843 69.9177L141.801 69.6887L141.871 69.4494C141.892 69.2798 141.882 69.1856 141.839 69.1666L141.685 69.0977L141.653 69.1122L141.655 69.2631L141.575 69.7079L141.438 70.1526C141.468 70.1662 141.477 70.22 141.465 70.3142L141.401 70.6723L141.349 70.7978L141.371 70.8368L141.319 70.9622L141.316 71.1151L141.289 71.1269L141.292 71.2768L141.239 71.568L141.16 71.842L141.157 71.8951L141.076 72.1584C141.106 72.172 141.115 72.2257 141.103 72.319L141.039 72.6742L140.988 72.7985L141.01 72.8372L140.958 72.9613L140.951 73.3129L140.801 73.8338L140.79 74.0281C140.758 74.0714 140.72 74.1866 140.676 74.3782L140.7 74.3895L140.722 74.4306L140.747 74.4421L140.761 74.3611L140.788 74.3736L140.763 74.5093L140.673 74.7018L140.678 74.8202L140.629 74.944L140.624 75.1194L140.585 75.3353L140.519 75.8595L140.439 75.9963L140.434 76.0246L140.454 76.0622L140.395 76.2397L140.361 76.5746L140.228 76.8595L140.255 76.9117L140.257 77.0057L140.179 77.4361L140.047 77.8651C140.076 77.8792 140.085 77.9318 140.073 78.0231L140.011 78.3698L139.96 78.4905L139.982 78.5289L139.931 78.6494L139.924 78.9939L139.778 79.5012L139.772 79.6168L139.75 79.6271L139.721 79.7877L139.724 79.9331C139.699 79.921 139.667 79.9935 139.629 80.1504L139.637 80.414L139.596 80.4824L139.591 80.5078L139.613 80.5485L139.572 80.6146L139.536 80.9749L139.522 81.0258C139.491 81.0513 139.444 81.077 139.372 81.103L139.013 81.1336L138.938 81.1836L138.915 81.1906L138.891 81.1705C138.843 81.1849 138.818 81.2099 138.818 81.2454L138.815 81.3422C138.77 81.386 138.726 81.4177 138.681 81.4312L138.512 81.4822L138.516 81.3503L138.469 81.3117L138.277 81.3696L138.178 81.4801L138.154 81.4871L138.009 81.5033C137.95 81.5346 137.746 81.6077 137.542 81.6819L137.647 81.5599L137.454 81.6182L136.99 81.8111C136.991 81.7802 136.911 81.7869 136.749 81.831L136.579 81.9102L136.554 81.89L136.48 81.9654L136.431 81.9802L136.261 82.006L136.261 82.0316L136.237 82.0665C136.226 82.0699 136.217 82.0762 136.207 82.0809L136.207 82.064L136.184 82.0431L135.962 82.1379L135.791 82.1089L135.446 82.2662L135.273 82.3185L134.997 82.589L134.824 82.6415L134.826 82.5346C134.909 82.5095 134.95 82.4698 134.951 82.4156L134.952 82.3877L134.927 82.3698L134.357 82.5952C134.358 82.5594 134.275 82.5666 134.108 82.6169L134.01 82.6468L133.936 82.7225L133.91 82.7303L133.885 82.6565C133.702 82.7302 133.611 82.7943 133.61 82.8487L133.237 82.9055L133.213 82.9406L133.209 82.9373L133.186 82.9188L133.139 82.8818L133.115 82.889L133.039 82.9655C133.039 82.9708 133.04 82.9741 133.04 82.9792L132.959 83.013L132.734 83.0552L132.558 83.1339L132.309 83.1835L132.209 83.2929L132.133 83.3159C132.133 83.263 132.117 83.2415 132.084 83.2516L131.732 83.3578C131.663 83.3877 131.598 83.425 131.537 83.4691L131.475 83.4189L131.299 83.4723C131.266 83.4823 131.249 83.5146 131.248 83.5692L131.098 83.6147L131.048 83.5761L130.618 83.7598L130.493 83.7693L130.467 83.7772L129.988 83.9501L129.887 83.9525L129.786 84.0368L129.76 84.0447L129.736 84.0262L129.659 84.0751L129.683 84.1499V84.1756L129.633 84.1909L129.633 84.0574L129.583 84.0187L129.152 84.2027L128.798 84.2816C128.731 84.3015 128.666 84.3291 128.605 84.3637L128.534 84.3073L128.355 84.3613C128.321 84.3715 128.304 84.404 128.304 84.4587L128.152 84.5048L128.101 84.4661L127.666 84.6515L127.54 84.6616L127.513 84.6696L127.028 84.8446L126.926 84.8472L126.824 84.9322L126.797 84.9402L126.773 84.9218L126.695 84.9711L126.72 85.0461L126.72 85.0719L126.669 85.0874L126.668 84.9534L126.617 84.9147L126.181 85.1006L125.822 85.1809C125.75 85.2019 125.681 85.2318 125.617 85.2698L125.617 85.2312L125.592 85.2126L125.357 85.3095L125.124 85.3539L124.943 85.4345L124.685 85.4864L124.583 85.5978L124.505 85.6215C124.504 85.5681 124.487 85.5464 124.452 85.5568L124.088 85.6667C124.013 85.6992 123.941 85.7406 123.875 85.7901L123.875 85.7785L123.823 85.7398L123.798 85.7472L123.72 85.8253L123.565 85.8723C123.285 85.9568 123.13 86.0581 123.1 86.1763L123.024 86.1995L123.046 86.029L122.993 85.9903L122.966 85.9985L122.863 86.0582L122.838 86.0657L122.81 86.0454C122.759 86.0609 122.733 86.0868 122.734 86.1231L122.214 86.3088L122.109 86.2858C122.074 86.2963 122.057 86.3284 122.058 86.3821L121.954 86.4136L121.873 86.3831L121.848 86.3905L121.77 86.469L121.743 86.3676L121.664 86.42L121.637 86.4282L121.611 86.4073L121.271 86.5648C121.185 86.591 121.132 86.5799 121.113 86.5317L121.008 86.5894L121.009 86.6178L121.063 86.6566L121.022 86.7339L120.907 86.7586C120.765 86.8013 120.651 86.7897 120.564 86.7237L120.511 86.7395L120.46 86.7908L120.391 86.8116C120.356 86.8222 120.339 86.8639 120.341 86.9366C120.3 86.9483 120.261 86.9638 120.223 86.9828C120.172 86.9683 120.077 86.9571 120.075 86.907L120.075 86.8808L120.049 86.8599L119.473 87.0889L118.918 87.2014L118.71 87.2931L118.629 87.2888C118.63 87.3349 118.561 87.383 118.421 87.433L118.023 87.4719L117.943 87.5248L117.917 87.5325L117.889 87.5122C117.859 87.5214 117.84 87.5347 117.828 87.5504L117.81 87.536L117.228 87.7669L116.668 87.8808L116.457 87.9732L116.375 87.9691C116.377 88.0152 116.307 88.0636 116.166 88.1141L115.763 88.1539L115.682 88.2073L115.657 88.2151L115.634 88.1988L115.593 87.7312C115.602 87.6402 115.641 87.6082 115.711 87.6351L115.739 87.6455C115.752 87.5063 115.745 87.3851 115.722 87.2783L115.746 87.2875L115.776 87.272C115.788 87.1447 115.78 87.0398 115.751 86.9571L115.754 86.9288L115.781 86.9123L115.714 86.7743C115.801 86.8073 115.86 86.7469 115.892 86.5926L115.799 86.4447L115.867 86.3039L115.867 85.9976L115.903 85.6183L115.903 85.3381C115.938 85.3514 115.974 85.2535 116.011 85.0443L115.951 84.8247L115.999 84.5889C116.002 84.503 115.999 84.4381 115.989 84.3925C116.044 84.3892 116.081 84.306 116.097 84.1322L116.082 84.0152L116.085 83.9866L116.112 83.9698L116.115 83.9436L116.092 83.9054L116.151 83.5609L116.151 83.2785L116.192 83.1249L116.184 82.9236L116.236 82.6594L116.254 82.1859L116.308 81.8916L116.31 81.5809L116.344 81.508L116.318 81.4988L116.315 81.4943C116.321 81.3855 116.315 81.2912 116.289 81.218L116.292 81.189L116.32 81.1717L116.251 81.0319C116.34 81.064 116.4 81.0009 116.433 80.8427L116.338 80.6932L116.407 80.5478L116.408 80.2346L116.444 79.8461L116.445 79.5597C116.455 79.5634 116.465 79.555 116.476 79.54L116.503 79.5248C116.505 79.5068 116.503 79.4929 116.504 79.4758C116.521 79.4252 116.538 79.3544 116.555 79.2569L116.494 79.0335L116.497 79.0192C116.555 79.0095 116.597 78.9445 116.623 78.8216L116.543 78.6959C116.543 78.6777 116.541 78.6624 116.54 78.6468L116.597 78.5247L116.598 78.209L116.635 77.8172L116.635 77.5287C116.671 77.5413 116.708 77.4393 116.746 77.2227L116.685 76.9982L116.734 76.7538C116.741 76.5831 116.722 76.49 116.678 76.4747L116.519 76.419L116.488 76.4363L116.503 76.5864L116.461 77.0364L116.363 77.4911C116.394 77.5021 116.408 77.555 116.404 77.6497L116.37 78.0121L116.329 78.1416L116.355 78.1785L116.314 78.3079L116.323 78.4605L116.298 78.4745L116.313 78.6236L116.286 78.9183L116.231 79.198L116.232 79.251L116.174 79.5202C116.205 79.5313 116.219 79.5839 116.215 79.678L116.181 80.0373L116.141 80.1656L116.166 80.2023L116.125 80.3304L116.147 80.6814L116.043 81.2132L116.049 81.4077C116.02 81.4535 115.992 81.5716 115.965 81.7664L115.99 81.7756L116.015 81.8147L116.041 81.8241L116.048 81.7422L116.076 81.7523L116.063 81.8897L115.99 82.0893L116.005 82.2069L115.967 82.3345L115.977 82.5096L115.956 82.7281L115.936 83.2561L115.867 83.3992L115.865 83.4279L115.888 83.4637L115.844 83.6455L115.839 83.9822L115.731 84.2774L115.763 84.327L115.772 84.4205L115.731 84.8562L115.636 85.2948C115.666 85.3064 115.68 85.3579 115.676 85.4499L115.643 85.8007L115.603 85.9253L115.628 85.9618L115.588 86.0863L115.611 86.43L115.508 86.9481L115.512 87.0637L115.491 87.0758L115.476 87.2383L115.491 87.3829C115.465 87.3731 115.44 87.4479 115.416 87.6074L115.446 87.8696L115.411 87.9412L115.408 87.9669L115.433 88.0056L115.398 88.0749L115.393 88.437L115.389 88.4596C115.463 88.4827 115.536 88.5056 115.606 88.5285V88.5265L115.614 88.532L116.04 88.4031L116.174 88.3337L116.201 88.3545L116.467 88.2452L117.157 88.0915L117.262 88.0046L117.582 87.9628L117.712 87.8682L117.712 87.8421L117.685 87.8213L117.685 87.7952C117.755 87.7551 117.792 87.7075 117.813 87.6563L117.818 87.8098L117.873 87.8484L117.898 87.841L117.899 87.8671C118.009 87.8291 118.091 87.7952 118.148 87.7652L118.295 87.7207L118.428 87.6518L118.454 87.6727L118.718 87.5641L119.401 87.4123L119.505 87.3258L119.822 87.2848L120.134 87.1509L120.135 87.1899C120.268 87.1442 120.357 87.105 120.411 87.0709L120.413 87.0723L120.517 87.0121L120.754 87.0239L121.061 86.8761L121.252 86.8184L121.409 86.797L121.434 86.7895L121.461 86.7551L121.618 86.7337L121.749 86.6679L121.879 86.6547L122.087 86.5656L122.323 86.5487L122.323 86.5203L122.347 86.4868L122.712 86.4026L122.971 86.2981L123.13 86.3045C123.408 86.2099 123.605 86.1339 123.728 86.0754V86.0759L123.756 86.0936L123.883 86.0006L124.533 85.8867L124.663 85.819L124.844 85.7641L125.026 85.7374L125.103 85.6595L125.258 85.6387L125.336 85.615L125.36 85.5817L125.36 85.5534L125.335 85.5349C125.384 85.5153 125.426 85.4971 125.462 85.48L125.541 85.5363L125.72 85.4823L126.081 85.4012L126.234 85.3007L126.312 85.303L126.414 85.2462L126.441 85.2381L126.466 85.2566L126.825 85.0937L127.158 85.0469L127.335 84.9675L128.407 84.6971C128.447 84.6851 128.481 84.6609 128.511 84.6291L128.519 84.6349L128.695 84.5818L129.051 84.5019L129.203 84.4022L129.28 84.4047L129.381 84.3483L129.407 84.3404L129.431 84.3588L129.787 84.1975L130.115 84.152L130.29 84.0733L131.347 83.8068C131.377 83.7978 131.403 83.7809 131.428 83.7604L131.528 83.6869L132.155 83.5785L132.281 83.5125L132.456 83.4594L132.631 83.4344L132.707 83.3578L132.856 83.3382L132.932 83.3154L132.956 83.2825L132.956 83.2546L132.933 83.2362C132.993 83.2121 133.039 83.1907 133.079 83.1705C133.108 83.2128 133.151 83.2257 133.211 83.2078L133.26 83.1928L133.36 83.1371L133.386 83.1293L133.409 83.1478L133.558 83.0771L133.709 83.0571C133.823 83.0223 133.915 82.9769 133.983 82.9209L134.13 82.9295L134.154 82.9224L134.18 82.889L134.206 82.8812L134.229 82.8996L134.328 82.8441L134.502 82.7915C135.029 82.6319 135.432 82.5276 135.712 82.4784L136.007 82.3359L136.105 82.3208L136.134 82.3599L136.501 82.1958L136.935 82.1172L137.059 82.0546L137.061 81.9856L137.545 81.8798L137.568 81.8729L137.882 81.8052L137.98 81.7479L138.677 81.5898C138.752 81.5528 138.809 81.5222 138.857 81.4947L138.859 81.4958L139.243 81.3793L139.366 81.3149L139.388 81.3356L139.484 81.2959C139.523 81.2682 139.558 81.2538 139.594 81.236C139.642 81.2234 139.691 81.1997 139.736 81.196L139.737 81.1736L139.769 80.9741L139.796 80.8968V80.2883C139.813 80.1986 139.854 80.1699 139.922 80.2028L139.948 80.2156C139.973 80.078 139.977 79.9567 139.963 79.8484L139.986 79.8595L140.017 79.8467C140.04 79.7209 140.041 79.6156 140.019 79.5309L140.025 79.5031L140.054 79.4891L139.998 79.3455C140.082 79.386 140.146 79.3309 140.191 79.18L140.111 79.0244L140.191 78.89L140.217 78.5849L140.285 78.21L140.309 77.9309C140.343 77.9471 140.388 77.8527 140.442 77.6474L140.401 77.4234L140.469 77.1926C140.48 77.1072 140.482 77.0422 140.475 76.996C140.531 76.9975 140.575 76.9177 140.606 76.7459L140.6 76.6281L140.606 76.5998L140.635 76.5854L140.64 76.5594L140.62 76.5194L140.708 76.181L140.733 75.8997L140.786 75.7502L140.796 75.5491L140.87 75.2901L140.928 74.8198L141.007 74.5314L141.037 74.2219L141.076 74.1522L141.051 74.1408L141.049 74.1361C141.064 74.0282 141.065 73.9337 141.047 73.8585L141.052 73.8298L141.081 73.8149L141.025 73.6697C141.11 73.7092 141.176 73.6514 141.222 73.4966L141.141 73.3397L141.222 73.2007L141.249 72.8887L141.319 72.5048L141.343 72.2194C141.353 72.224 141.364 72.2165 141.376 72.2026L141.405 72.1897C141.408 72.172 141.408 72.1579 141.41 72.141C141.431 72.092 141.454 72.0229 141.479 71.9273L141.438 71.6996L141.442 71.6855C141.501 71.6809 141.548 71.6197 141.584 71.4994L141.516 71.3675C141.516 71.35 141.515 71.3345 141.515 71.3189Z" fill="#593E2D"/>
<path opacity="0.47" d="M136.196 95.9249L136.125 96.378L129.292 98.5933C129.214 98.5772 129.136 98.5597 129.058 98.5408C128.951 98.5175 128.846 98.4928 128.74 98.4666C126.623 97.9514 124.451 97.068 122.273 95.7022C118.569 93.3799 116.972 90.8101 116.579 88.2201C116.564 88.1262 116.551 88.032 116.54 87.9375C115.983 83.2476 119.26 78.5202 121.015 75.1074C121.066 75.0071 121.116 74.9083 121.164 74.8103C122.057 73.019 122.464 71.6181 121.557 70.818C119.341 68.8662 119.322 66.67 118.08 63.5191C118.041 63.4217 118.002 63.3237 117.96 63.2249C117.955 63.2117 117.95 63.1979 117.944 63.184C117.149 61.2654 115.876 58.9968 113.401 56.2305C106.632 48.663 97.6238 46.8623 97.6238 46.8623C97.6238 46.8623 97.8709 46.6895 98.342 46.3963L115.447 41.9727L147.703 55.8215L147.704 55.8223H147.705L142.856 93.6555L136.196 95.9249Z" fill="#FF690F"/>
<path d="M136.124 96.3802L129.291 98.5956L129.034 98.6789L129.056 98.543L129.088 98.3492L129.942 93.0564L136.906 91.3984L136.194 95.9272L136.124 96.3802Z" fill="black"/>
<path d="M88.3007 91.1201C88.3007 91.1201 84.0262 92.1773 86.4485 95.3484C89.2209 98.978 93.5572 98.3021 94.5584 95.0481C95.5597 91.7942 88.3007 91.1201 88.3007 91.1201Z" fill="#FEBC94"/>
<path d="M167.093 155.786C165.162 155.665 163.593 155.95 162.326 156.447C158.46 157.961 157.395 161.449 157.395 161.449C157.395 161.449 142.407 146.775 137.626 139.298C132.845 131.821 135.62 102.082 135.62 102.082C135.62 102.082 147.603 87.9575 152.307 93.9276C153.519 95.4657 154.17 98.3312 154.474 101.75C155.351 111.598 153.354 126.035 153.614 126.541C165.49 149.741 167.093 155.786 167.093 155.786Z" fill="#593C2A"/>
<path d="M162.326 156.447C158.46 157.961 157.395 161.449 157.395 161.449C157.395 161.449 142.407 146.775 137.626 139.298C132.845 131.821 135.62 102.082 135.62 102.082C135.62 102.082 147.603 87.9575 152.307 93.9276C153.519 95.4657 154.17 98.3312 154.474 101.75C154.354 101.832 146.71 107.082 145.071 114.827C143.419 122.634 140.875 131.795 147.705 142.008C153.131 150.123 159.65 153.295 162.326 156.447Z" fill="#422B1D"/>
<path d="M122.096 103.703C122.242 103.729 139.166 107.012 141.069 106.962C142.971 106.912 133.592 125.037 135.653 132.996C135.653 132.996 139.278 121.23 141.325 117.575C143.371 113.921 146.582 102.767 154.338 100.434L153.384 96.249L122.096 103.703Z" fill="#27170E"/>
<path d="M135.238 133.582C135.755 143.986 131.878 164.474 131.878 164.474C128.432 166.266 124.925 166.42 122.491 166.204C120.551 166.033 119.293 165.626 119.293 165.626C119.293 165.626 117.323 151.645 116.37 142.372C115.667 135.529 115.635 116.214 115.667 106.562C115.678 103.135 115.697 100.926 115.697 100.926C115.697 100.926 144.78 83.3723 145.67 95.2372C146.561 107.103 134.722 123.179 135.238 133.582Z" fill="#664836"/>
<path d="M135.242 133.582C135.758 143.986 131.882 164.474 131.882 164.474C128.435 166.266 124.928 166.42 122.495 166.204C128.65 159.163 127.853 138.301 129.038 127.488C130.223 116.674 127.553 112.469 123.147 110.667C118.742 108.865 115.67 106.562 115.67 106.562C115.681 103.135 115.701 100.926 115.701 100.926C115.701 100.926 144.783 83.3723 145.673 95.2372C146.564 107.103 134.725 123.179 135.242 133.582Z" fill="#593C2A"/>
<path d="M113.791 98.5901L113.792 101.717C113.792 101.717 123.481 104.836 133.293 104.764C143.106 104.692 154.794 98.9677 154.794 98.9677L153.96 89.4736C153.96 89.4736 115.079 91.2843 113.791 98.5901Z" fill="white"/>
<path opacity="0.76" d="M154.474 95.3314C154.474 95.3314 145.107 101.991 132.155 102.558C119.203 103.124 113.792 101.716 113.792 101.716L113.791 95.7494L154.323 93.6016L154.474 95.3314Z" fill="#DBD5D2"/>
<path d="M144.6 34.7823C144.6 34.7823 142.092 36.8024 142.814 38.3623C143.537 39.9222 137.843 36.8101 139.501 34.7367C141.16 32.6635 146.993 27.7215 147.097 30.4565C147.202 33.1917 144.6 34.7823 144.6 34.7823Z" fill="#72320C"/>
<path d="M128.786 19.9427C128.786 19.9427 127.069 23.6336 126.909 27.1794C126.749 30.7252 126.779 34.5154 128.347 36.6452C129.915 38.775 132.686 39.2345 132.686 39.2345C132.686 39.2345 132.504 43.6337 131.754 44.6887C131.003 45.7438 132.927 51.6142 134.52 51.3116C136.113 51.0089 138.104 50.5244 139.381 47.5377C140.658 44.551 140.611 42.8309 140.611 42.8309C140.611 42.8309 139.635 39.3247 140.277 38.1571C140.919 36.9895 143.866 33.6892 144.357 31.9753C144.357 31.9753 145.975 32.1394 147.069 31.2448C148.163 30.3502 148.656 27.4519 147.046 27.1955C147.046 27.1955 148.539 22.4835 147.831 20.8152C147.122 19.1469 139.551 15.4697 138.206 15.3096C136.861 15.1495 128.786 19.9427 128.786 19.9427Z" fill="#FEBC94"/>
<path d="M142.306 29.1211C142.306 29.1211 143.278 25.3305 142.627 22.2418C141.976 19.1532 143.092 15.7051 143.092 15.7051C143.092 15.7051 149.278 16.8604 148.619 21.5141C147.959 26.1679 147.045 27.1946 147.045 27.1946C147.045 27.1946 145.579 26.9847 143.73 28.9046C141.881 30.8245 142.306 29.1211 142.306 29.1211Z" fill="#72320C"/>
<path d="M150.797 27.9004C148.224 33.8923 144.602 34.7839 144.602 34.7839C144.602 34.7839 145.84 33.5036 145.608 29.713C145.544 28.6683 145.075 26.9581 144.429 25.0286C142.732 19.9602 139.814 13.3803 139.814 13.3803L138.347 12.0321C138.347 12.0321 142.336 10.6242 146.012 12.5761C148.686 13.9962 153.371 21.9085 150.797 27.9004Z" fill="#8F5837"/>
<path d="M148.283 20.5236C146.667 23.8982 144.429 25.0287 144.429 25.0287C142.732 19.9603 139.814 13.3803 139.814 13.3803L138.347 12.0322C138.347 12.0322 142.524 10.3046 146.012 12.5762L146.077 12.6189C148.688 14.328 149.631 17.7098 148.283 20.5236Z" fill="white"/>
<path d="M145.052 27.0197C142.865 20.994 140.936 17.3774 135.986 17.1044C131.035 16.8315 127.989 21.9935 127.989 21.9935C127.989 21.9935 126.818 19.3453 125.703 16.6242C125.911 16.3017 126.025 16.0173 126.003 15.7973C125.886 14.6314 127.383 12.9921 126.071 13.1457C125.722 13.1867 125.238 13.5818 124.714 14.1411C124.478 13.5226 124.267 12.9479 124.101 12.4558C123.909 11.8833 123.776 11.4228 123.732 11.1326C123.623 10.4026 123.556 9.28364 123.63 8.0779C123.746 6.19853 124.202 4.10962 125.359 2.96274C127.259 1.08062 133.618 1.57173 137.819 7.94691C142.02 14.3213 145.052 27.0197 145.052 27.0197Z" fill="#8F5837"/>
<path d="M142.531 21.3136C142.453 21.1824 138.747 16.6115 135.502 18.9442C132.334 21.2215 126.82 22.2147 124.9 17.607C124.767 17.2895 124.653 16.9456 124.556 16.573C124.15 15.0013 124.813 13.8432 126.07 13.1439C129.43 11.2742 140.152 15.6088 142.531 21.3136Z" fill="#72320C"/>
<path d="M132.687 39.2343C132.687 39.2343 134.383 39.4549 136.446 38.8001C136.446 38.8001 137.647 38.1624 136.517 40.0188C135.388 41.8751 132.427 42.1656 132.427 42.1656L132.687 39.2343Z" fill="#F58D4E"/>
<path d="M129.482 27.2415C129.373 27.7143 129.079 28.0499 128.825 27.9912C128.571 27.9325 128.454 27.5016 128.563 27.0288C128.673 26.556 128.967 26.2204 129.221 26.2791C129.475 26.3379 129.592 26.7688 129.482 27.2415Z" fill="#72320C"/>
<path d="M135.633 28.3694C135.742 27.8966 135.625 27.4657 135.371 27.4069C135.117 27.3482 134.823 27.6838 134.713 28.1566C134.604 28.6294 134.721 29.0603 134.975 29.1191C135.229 29.1778 135.523 28.8422 135.633 28.3694Z" fill="#72320C"/>
<path d="M134.996 24.7262C134.977 24.5876 135.149 24.4932 135.287 24.4659C135.724 24.3793 136.815 24.2686 137.075 25.2396C137.289 26.0393 136.934 25.8404 136.891 25.7142C136.824 25.5195 136.64 25.1039 136.416 24.941C135.899 24.5646 135.042 25.0439 134.996 24.7262ZM127.951 24.3696C127.866 24.2578 127.972 24.0916 128.079 24.0014C128.42 23.7137 129.32 23.0885 130.018 23.8123C130.592 24.4083 130.186 24.406 130.087 24.3166C129.934 24.1786 129.572 23.9041 129.297 23.87C128.662 23.7911 128.144 24.6259 127.951 24.3696Z" fill="#72320C"/>
<path d="M131.411 27.423C131.408 27.9625 131.327 28.4785 131.217 28.9858C131.109 29.4961 130.962 29.997 130.775 30.484C130.724 30.6081 130.676 30.7304 130.61 30.8652C130.598 30.8929 130.569 30.9422 130.543 30.9849L130.51 31.0401C130.524 31.02 130.53 31.0002 130.54 30.9703C130.546 30.9411 130.55 30.9137 130.547 30.8859C130.546 30.866 130.542 30.8464 130.534 30.8278C130.531 30.8167 130.522 30.8044 130.522 30.8038C130.518 30.7997 130.515 30.7985 130.517 30.8015C130.518 30.8096 130.543 30.84 130.574 30.8681C130.608 30.8967 130.646 30.9295 130.69 30.9601C130.777 31.0209 130.876 31.0828 130.978 31.1417C131.398 31.3704 131.86 31.5654 132.355 31.7612L132.352 31.8069C131.834 31.7803 131.324 31.6694 130.841 31.4785C130.721 31.4299 130.602 31.3763 130.488 31.3115C130.375 31.2458 130.262 31.1749 130.174 31.0656C130.132 31.0124 130.089 30.9357 130.114 30.8506C130.118 30.8296 130.129 30.8127 130.139 30.7948L130.161 30.7539C130.176 30.7273 130.191 30.7021 130.203 30.672C130.256 30.5573 130.302 30.4377 130.348 30.3184C130.534 29.8406 130.704 29.355 130.871 28.8691L131.368 27.4092L131.411 27.423ZM130.108 34.2313C131.236 34.4451 133.232 34.6028 135.046 33.6237C135.107 33.5906 135.162 33.6762 135.105 33.717C134.078 34.4613 132.094 35.5106 130.015 34.5079C129.861 34.4331 129.939 34.1992 130.108 34.2313ZM136.538 29.9732C136.557 29.9937 136.572 30.0177 136.582 30.0439C136.591 30.0701 136.595 30.0979 136.594 30.1257C136.593 30.1536 136.587 30.181 136.575 30.2062C136.563 30.2315 136.546 30.2543 136.526 30.2732C136.505 30.2921 136.481 30.3067 136.455 30.3163C136.429 30.3259 136.401 30.3303 136.373 30.3291C136.346 30.328 136.318 30.3214 136.293 30.3096C136.268 30.2979 136.245 30.2813 136.226 30.2608C136.188 30.2194 136.168 30.1645 136.17 30.1082C136.172 30.052 136.197 29.999 136.238 29.9608C136.28 29.9227 136.335 29.9025 136.391 29.9049C136.447 29.9072 136.5 29.9317 136.538 29.9732ZM128.938 28.9784C128.976 29.0198 128.997 29.0747 128.994 29.1309C128.992 29.1872 128.967 29.2402 128.926 29.2784C128.885 29.3165 128.83 29.3366 128.773 29.3343C128.717 29.332 128.664 29.3074 128.626 29.266C128.588 29.2246 128.568 29.1697 128.57 29.1134C128.572 29.0572 128.597 29.0041 128.638 28.966C128.68 28.9278 128.735 28.9077 128.791 28.91C128.847 28.9124 128.9 28.9369 128.938 28.9784ZM137.271 30.4654C137.327 30.5265 137.323 30.6214 137.262 30.6776C137.24 30.6977 137.213 30.7109 137.184 30.7155C137.154 30.7201 137.124 30.7159 137.097 30.7034C137.07 30.6909 137.048 30.6707 137.032 30.6454C137.017 30.62 137.009 30.5907 137.01 30.561C137.012 30.5314 137.022 30.5027 137.039 30.4787C137.057 30.4547 137.081 30.4365 137.109 30.4263C137.137 30.416 137.167 30.4143 137.196 30.4213C137.225 30.4282 137.251 30.4436 137.271 30.4654ZM127.767 28.2136C127.823 28.2746 127.819 28.3695 127.758 28.4258C127.729 28.4527 127.69 28.4669 127.651 28.4653C127.611 28.4636 127.573 28.4463 127.546 28.4171C127.533 28.4025 127.523 28.3856 127.516 28.367C127.509 28.3485 127.506 28.3289 127.507 28.3092C127.508 28.2895 127.512 28.2701 127.52 28.2522C127.529 28.2343 127.54 28.2182 127.555 28.2049C127.569 28.1915 127.586 28.1811 127.605 28.1743C127.624 28.1676 127.643 28.1645 127.663 28.1653C127.683 28.1661 127.702 28.1708 127.72 28.1791C127.738 28.1873 127.754 28.1991 127.767 28.2136ZM127.759 30.1177C127.772 30.1322 127.782 30.1492 127.789 30.1677C127.796 30.1862 127.799 30.2059 127.798 30.2256C127.797 30.2453 127.793 30.2646 127.784 30.2825C127.776 30.3004 127.764 30.3165 127.75 30.3299C127.735 30.3432 127.718 30.3536 127.7 30.3604C127.681 30.3671 127.662 30.3702 127.642 30.3694C127.622 30.3686 127.603 30.3639 127.585 30.3556C127.567 30.3473 127.551 30.3356 127.538 30.321C127.511 30.2917 127.497 30.2529 127.498 30.2131C127.5 30.1733 127.517 30.1358 127.547 30.1089C127.576 30.0819 127.615 30.0677 127.654 30.0693C127.694 30.071 127.732 30.0884 127.759 30.1177ZM137.435 29.7546C137.449 29.7691 137.459 29.7861 137.466 29.8046C137.473 29.8231 137.476 29.8428 137.475 29.8625C137.474 29.8822 137.469 29.9016 137.461 29.9194C137.453 29.9373 137.441 29.9534 137.427 29.9668C137.412 29.9801 137.395 29.9905 137.377 29.9973C137.358 30.004 137.338 30.0071 137.319 30.0063C137.299 30.0055 137.28 30.0008 137.262 29.9925C137.244 29.9842 137.228 29.9725 137.214 29.9579C137.187 29.9286 137.173 29.8898 137.175 29.85C137.177 29.8102 137.194 29.7727 137.223 29.7458C137.253 29.7188 137.291 29.7046 137.331 29.7062C137.371 29.7079 137.408 29.7253 137.435 29.7546ZM135.593 30.6445C135.612 30.665 135.626 30.6891 135.636 30.7152C135.646 30.7414 135.65 30.7692 135.649 30.7971C135.648 30.8249 135.641 30.8523 135.629 30.8776C135.618 30.9029 135.601 30.9256 135.58 30.9445C135.56 30.9634 135.536 30.9781 135.51 30.9877C135.484 30.9973 135.456 31.0016 135.428 31.0005C135.4 30.9993 135.373 30.9927 135.347 30.981C135.322 30.9693 135.299 30.9527 135.28 30.9322C135.242 30.8907 135.222 30.8359 135.224 30.7796C135.227 30.7233 135.251 30.6703 135.293 30.6321C135.334 30.594 135.389 30.5739 135.445 30.5762C135.502 30.5785 135.555 30.6031 135.593 30.6445ZM136.702 31.1907C136.726 31.2169 136.745 31.2476 136.757 31.281C136.77 31.3144 136.775 31.3499 136.774 31.3854C136.772 31.421 136.764 31.4559 136.749 31.4882C136.734 31.5204 136.713 31.5495 136.686 31.5736C136.66 31.5976 136.63 31.6164 136.596 31.6286C136.563 31.6408 136.527 31.6464 136.492 31.6449C136.456 31.6434 136.421 31.635 136.389 31.62C136.357 31.605 136.328 31.5839 136.304 31.5577C136.255 31.5048 136.229 31.4348 136.232 31.363C136.235 31.2912 136.267 31.2235 136.319 31.1748C136.372 31.1262 136.442 31.1005 136.514 31.1035C136.586 31.1065 136.654 31.1378 136.702 31.1907ZM128.071 29.0716C128.095 29.0977 128.114 29.1284 128.126 29.1618C128.138 29.1952 128.144 29.2307 128.142 29.2663C128.141 29.3018 128.132 29.3367 128.117 29.369C128.102 29.4013 128.081 29.4303 128.055 29.4544C128.029 29.4785 127.998 29.4972 127.965 29.5095C127.931 29.5217 127.896 29.5272 127.86 29.5258C127.825 29.5243 127.79 29.5158 127.757 29.5009C127.725 29.4859 127.696 29.4647 127.672 29.4385C127.623 29.3857 127.598 29.3156 127.601 29.2438C127.604 29.172 127.635 29.1044 127.688 29.0557C127.741 29.007 127.811 28.9814 127.883 28.9843C127.954 28.9873 128.022 29.0187 128.071 29.0716ZM137.828 30.9863C137.852 31.0125 137.871 31.0432 137.883 31.0766C137.895 31.11 137.901 31.1455 137.899 31.181C137.898 31.2166 137.889 31.2515 137.874 31.2838C137.859 31.316 137.838 31.3451 137.812 31.3692C137.786 31.3933 137.755 31.412 137.722 31.4242C137.688 31.4365 137.653 31.442 137.617 31.4405C137.582 31.4391 137.547 31.4306 137.514 31.4156C137.482 31.4007 137.453 31.3795 137.429 31.3533C137.38 31.3004 137.355 31.2304 137.358 31.1586C137.361 31.0868 137.392 31.0191 137.445 30.9705C137.498 30.9218 137.568 30.8961 137.64 30.8991C137.711 30.9021 137.779 30.9334 137.828 30.9863Z" fill="#F58D4E"/>
<path d="M155.002 93.6693C155.002 93.6693 154.667 95.4673 144.277 98.5642C139.973 99.8469 136.2 100.579 132.297 100.777C126.777 101.056 121.002 100.263 113.115 98.4342C113.115 98.4342 113.977 81.5939 116.691 73.9667C119.407 66.3385 122.882 49.7087 122.882 49.7087C122.882 49.7087 122.819 49.2885 124.171 48.5254C125.524 47.7635 130.658 45.0596 131.482 44.9853C132.306 44.9111 139.746 45.7352 141.384 42.3184C141.384 42.3184 144.443 41.8021 146.917 43.0967C149.393 44.3925 152.236 46.4414 153.104 55.8293C153.972 65.2163 155.002 93.6693 155.002 93.6693Z" fill="#8F5837"/>
<path d="M132.322 100.748L132.297 100.776C126.777 101.056 121.002 100.262 113.115 98.4338C113.115 98.4338 113.977 81.5935 116.691 73.9663C119.407 66.3381 122.882 49.7083 122.882 49.7083C122.882 49.7083 122.819 49.2881 124.171 48.525C124.171 48.525 129.49 47.536 131.473 55.8235C133.456 64.1112 140.5 91.429 132.322 100.748Z" fill="#794322"/>
<path d="M130.142 59.8975C130.142 59.8975 132.957 68.5659 130.954 75.4744C128.952 82.3828 113.627 91.6483 113.627 91.6483L115.659 73.7723L130.142 59.8975Z" fill="#5F2E11"/>
<path d="M128.87 73.6345C126.495 77.0567 122.222 77.3787 122.222 77.3787C122.222 77.3787 119.716 79.9133 117.136 82.4318C114.555 84.9502 103.009 95.4101 98.9945 96.4754C95.736 97.34 89.6186 95.8892 87.7661 92.4539H87.765C87.3349 91.6548 87.1341 90.7499 87.253 89.7413C87.884 84.3923 99.9006 79.932 106.793 70.3028C113.685 60.6736 119.818 51.54 122.881 49.7073C124.342 48.8339 125.638 49.2969 126.594 50.0217H126.595C127.645 50.8164 128.285 51.9254 128.285 51.9254C130.434 56.3836 131.554 69.7668 128.87 73.6345Z" fill="white"/>
<path opacity="0.76" d="M129.341 72.7724C129.2 73.0962 129.043 73.3852 128.869 73.635C126.494 77.0568 122.221 77.3783 122.221 77.3783C122.221 77.3783 119.715 79.9131 117.135 82.4318C114.554 84.9504 103.008 95.4101 98.9935 96.4763C95.7348 97.3401 89.6174 95.89 87.7649 92.4543C106.23 89.6859 126.896 69.9162 128.774 64.6604C130.651 59.4045 126.593 50.0215 126.593 50.0215H126.594C127.644 50.8171 128.284 51.926 128.284 51.926C130.295 56.096 131.404 68.0774 129.341 72.7724Z" fill="#DBD5D2"/>
<path d="M129.346 72.7722C129.205 73.096 129.047 73.385 128.874 73.6348C126.498 77.0566 122.226 77.3781 122.226 77.3781C122.226 77.3781 126.287 73.7355 127.082 71.8795C127.502 70.8988 128.719 71.5325 129.346 72.7722Z" fill="#9B9794"/>
<path d="M131.556 44.2804C131.556 44.2804 139.381 44.8036 140.874 42.0763C140.874 42.0763 140.992 41.4142 142.535 44.0156C142.535 44.0156 140.922 47.3999 134.44 47.1689C127.957 46.938 128.112 46.1803 128.112 46.1803C128.112 46.1803 130.096 44.9901 131.556 44.2804Z" fill="white"/>
<path d="M122.963 107.253C122.963 107.253 123.077 152.321 123.965 161.447" stroke="white" stroke-width="4" stroke-miterlimit="10" stroke-linecap="round"/>
</svg>
