<svg width="549" height="399" viewBox="0 0 549 399" fill="none" xmlns="http://www.w3.org/2000/svg">
<path d="M98.0781 356.025L108.595 355.07L109.55 372.266L99.0339 373.221L98.0781 356.025Z" fill="#F2C4A8"/>
<path d="M101.864 365.582H99.9885C97.8773 365.582 96.1655 367.293 96.1655 369.403C96.1655 370.603 95.5992 371.738 94.637 372.458L89.5375 376.278C88.8959 376.759 88.5195 377.512 88.5195 378.316C88.5195 379.723 89.6618 380.864 91.0693 380.864H108.165C109.562 380.864 110.806 379.971 111.248 378.643C111.389 378.218 111.441 377.77 111.402 377.322L110.786 370.544C110.665 369.21 109.127 368.529 108.053 369.331L107.127 370.027C106.839 370.24 106.492 370.358 106.132 370.358C105.343 370.358 104.662 369.798 104.505 369.026L104.198 367.492C103.972 366.38 102.996 365.582 101.864 365.582Z" fill="#5B321A"/>
<path d="M98.0756 374.654H92.3412C92.076 374.654 91.8633 374.442 91.8633 374.177C91.8633 373.912 92.076 373.699 92.3412 373.699H98.0756C98.3407 373.699 98.5535 373.912 98.5535 374.177C98.5535 374.442 98.3375 374.654 98.0756 374.654Z" fill="#F4D4C0"/>
<path d="M99.9897 372.744H94.2552C93.9901 372.744 93.7773 372.532 93.7773 372.267C93.7773 372.002 93.9901 371.789 94.2552 371.789H99.9897C100.255 371.789 100.468 372.002 100.468 372.267C100.468 372.532 100.255 372.744 99.9897 372.744Z" fill="#F4D4C0"/>
<path d="M101.9 370.834H96.1654C95.9003 370.834 95.6875 370.621 95.6875 370.356C95.6875 370.092 95.9003 369.879 96.1654 369.879H101.9C102.165 369.879 102.378 370.092 102.378 370.356C102.378 370.618 102.165 370.834 101.9 370.834Z" fill="#F4D4C0"/>
<path d="M98.4785 363.313L98.125 356.98H105.719L98.4785 363.313Z" fill="#ECA072"/>
<path d="M96.1654 357.936L88.6372 280.87C87.544 271.541 92.3653 263.072 101.481 260.792L102.528 260.531C112.099 258.139 121.771 264.06 123.99 273.664C125.109 278.508 125.188 283.536 124.226 288.413L111.461 356.978C103.049 359.274 97.7594 358.574 96.1654 357.936Z" fill="#7D5136"/>
<path d="M88.5124 277.893L85.6484 214.641H136.313L125.151 282.142C123.78 291.098 117.397 296.182 108.347 296.659L107.228 296.718C96.4595 297.284 88.7612 288.665 88.5124 277.893Z" fill="#7D5136"/>
<path d="M69.4943 205.894L82.027 177.737L57.0075 167.148L47.6464 197.736C45.784 203.824 49.1422 210.281 55.2007 212.253C60.8894 214.104 67.0624 211.36 69.4943 205.894Z" fill="#F2C4A8"/>
<path d="M156.386 356.025L145.87 355.07L144.914 372.266L155.431 373.221L156.386 356.025Z" fill="#F2C4A8"/>
<path d="M152.601 365.582H154.477C156.588 365.582 158.3 367.293 158.3 369.403C158.3 370.603 158.866 371.738 159.828 372.458L164.928 376.278C165.569 376.759 165.946 377.512 165.946 378.316C165.946 379.723 164.803 380.864 163.396 380.864H146.301C144.903 380.864 143.659 379.971 143.217 378.643C143.077 378.218 143.024 377.77 143.063 377.322L143.679 370.544C143.8 369.21 145.338 368.529 146.412 369.331L147.338 370.027C147.626 370.24 147.973 370.358 148.333 370.358C149.122 370.358 149.803 369.798 149.96 369.026L150.268 367.492C150.493 366.38 151.469 365.582 152.601 365.582Z" fill="#5B321A"/>
<path d="M162.122 374.654H156.388C156.123 374.654 155.91 374.442 155.91 374.177C155.91 373.912 156.123 373.699 156.388 373.699H162.122C162.388 373.699 162.6 373.912 162.6 374.177C162.6 374.442 162.388 374.654 162.122 374.654Z" fill="#F4D4C0"/>
<path d="M160.208 372.744H154.474C154.209 372.744 153.996 372.532 153.996 372.267C153.996 372.002 154.209 371.789 154.474 371.789H160.208C160.474 371.789 160.686 372.002 160.686 372.267C160.686 372.532 160.474 372.744 160.208 372.744Z" fill="#F4D4C0"/>
<path d="M158.298 370.834H152.564C152.299 370.834 152.086 370.621 152.086 370.356C152.086 370.092 152.299 369.879 152.564 369.879H158.298C158.563 369.879 158.776 370.092 158.776 370.356C158.776 370.618 158.563 370.834 158.298 370.834Z" fill="#F4D4C0"/>
<path d="M155.982 363.313L156.336 356.98H148.742L155.982 363.313Z" fill="#ECA072"/>
<path d="M158.299 357.936L166.436 284.301C167.529 274.972 161.988 266.432 152.869 264.152L151.822 263.89C142.251 261.499 132.579 267.419 130.36 277.023C129.241 281.868 129.162 286.895 130.124 291.772L143.001 356.978C151.416 359.274 156.705 358.574 158.299 357.936Z" fill="#7D5136"/>
<path d="M47.9336 166.934C56.0476 143.651 65.6181 110.404 99.0757 107.535L88.975 177.807C69.3331 185.553 51.1445 175.619 47.9336 166.934Z" fill="#E96E24"/>
<path d="M192.168 181.993L170.844 159.731L190.803 141.305L209.967 166.927C213.78 172.026 212.805 179.239 207.771 183.142C203.044 186.812 196.308 186.314 192.168 181.993Z" fill="#F2C4A8"/>
<path d="M199.444 150.635C185.105 130.573 169.81 107.647 144.957 106.691L163.119 172.606C184.149 174.517 198.806 159.869 199.444 150.635Z" fill="#E96E24"/>
<path d="M175.586 171.796C175.527 159.039 173.606 137.496 165.989 130.574C168.742 134.012 167.057 157.812 165.531 172.758C169.096 172.872 172.464 172.512 175.586 171.796Z" fill="#B04809"/>
<path d="M215.672 116.035L191.18 169.079C188.735 174.368 190.865 180.642 196.021 183.357C202.203 186.615 209.82 183.331 211.692 176.599L227.233 120.693L215.672 116.035Z" fill="#F2C4A8"/>
<path d="M166.581 282.754L168.813 214.641H118.152L129.477 286.031C130.849 294.988 136.799 300.898 145.853 301.373L146.972 301.432C157.734 301.997 166.332 293.525 166.581 282.754Z" fill="#7D5136"/>
<path d="M126.344 274.432L133.034 257.236L131.122 248.637L126.344 274.432Z" fill="#57321B"/>
<path d="M76.786 180.533C73.2511 168.273 69.0321 147.06 74.3934 138.277C72.7209 142.35 81.0345 164.717 86.7068 178.629C83.3159 179.741 79.9839 180.343 76.786 180.533Z" fill="#B04809"/>
<path d="M80.8705 225.148C80.5105 205.689 78.6645 173.142 77.1065 148.219C75.7776 126.948 86.9323 107.004 108.135 104.714C112.328 104.263 116.937 103.942 121.974 103.821C126.406 103.717 130.605 103.821 134.556 104.083C159.202 105.712 172.016 130.114 170.796 154.765C169.935 172.134 169.571 194.547 170.727 221.115C153.645 240.584 95.21 239.479 80.8705 225.148Z" fill="#E96E24"/>
<path d="M116.434 108.55V82.7578L125.991 90.399V108.55C124.423 112.469 119.042 112.901 116.869 109.28L116.434 108.55Z" fill="#F2C4A8"/>
<path d="M125.995 100.908C122.172 100.908 118.349 93.2673 119.305 88.4883L125.995 94.2192V100.908Z" fill="#ECA072"/>
<path d="M136.509 84.6646C135.553 81.7991 137.464 76.0682 132.686 69.3789L120.258 72.2444C118.029 74.1547 114.14 79.5061 116.435 85.6197C119.302 93.2609 125.996 98.0399 131.73 97.0848C137.464 96.1296 137.464 87.53 136.509 84.6646Z" fill="#F2C4A8"/>
<path d="M122.171 75.1141C132.688 76.0692 145.112 66.5177 133.644 55.0527C128.865 52.1872 129.821 56.963 125.998 57.9181C122.175 58.8733 109.747 57.9181 109.747 68.428C104.768 73.2561 108.791 88.1721 116.437 95.1755C116.754 91.3549 117.393 83.5207 117.393 82.7553C117.393 81.8001 121.975 81.7412 122.171 75.1141Z" fill="#5C331B"/>
<path d="M118.348 81.8008C114.525 77.9802 112.106 82.4191 115.481 84.6663C118.348 86.5766 121.219 85.6214 118.348 81.8008Z" fill="#F2C4A8"/>
<path d="M34.3461 252.859L45.0425 257.115L45.887 273.039C45.9197 273.657 45.5368 274.219 44.9509 274.416C44.1359 274.69 43.2685 274.154 43.1507 273.3L42.4993 268.652L37.2951 279.103C37.0922 279.512 36.6732 279.77 36.2183 279.77C35.4851 279.77 34.9189 279.123 35.0203 278.397L36.0939 270.798L31.4952 278.105C31.2039 278.57 30.6049 278.737 30.1139 278.495C29.6295 278.253 29.4037 277.693 29.5804 277.183L31.8192 270.804L28.1174 274.517C27.7802 274.857 27.2631 274.939 26.8343 274.726C26.2844 274.452 26.0619 273.788 26.3335 273.238L30.0976 265.682L26.8965 269.686C26.4514 270.242 25.6003 270.232 25.1716 269.663C24.9064 269.31 24.8803 268.832 25.1061 268.452L34.3461 252.859Z" fill="#F2C4A8"/>
<path d="M44.6211 260.107L68.6194 208.375C71.3525 202.484 68.7536 195.497 62.8326 192.821C56.1817 189.815 48.4277 193.57 46.67 200.652L33.0703 255.429L44.6211 260.107Z" fill="#F2C4A8"/>
<path d="M121.977 75.1626C143.962 78.028 147.785 62.4709 140.139 57.0115C133.445 52.2357 125.8 70.0695 121.977 75.1626Z" fill="#5C331B"/>
<path d="M121.975 75.1655C137.924 62.513 139.155 50.819 129.287 50.9662C121.395 51.084 121.405 68.0575 121.975 75.1655Z" fill="#5C331B"/>
<path d="M121.02 63.7001C124.187 63.7001 126.754 61.1343 126.754 57.9692C126.754 54.8041 124.187 52.2383 121.02 52.2383C117.853 52.2383 115.285 54.8041 115.285 57.9692C115.285 61.1343 117.853 63.7001 121.02 63.7001Z" fill="#5C331B"/>
<path d="M113.371 69.3212C116.538 69.3212 119.106 66.7554 119.106 63.5903C119.106 60.4252 116.538 57.8594 113.371 57.8594C110.204 57.8594 107.637 60.4252 107.637 63.5903C107.637 66.7554 110.204 69.3212 113.371 69.3212Z" fill="#5C331B"/>
<path d="M111.457 76.9657C114.624 76.9657 117.192 74.3999 117.192 71.2348C117.192 68.0697 114.624 65.5039 111.457 65.5039C108.29 65.5039 105.723 68.0697 105.723 71.2348C105.723 74.3999 108.29 76.9657 111.457 76.9657Z" fill="#5C331B"/>
<path d="M126.754 76.9657C129.921 76.9657 132.488 74.3999 132.488 71.2348C132.488 68.0697 129.921 65.5039 126.754 65.5039C123.587 65.5039 121.02 68.0697 121.02 71.2348C121.02 74.3999 123.587 76.9657 126.754 76.9657Z" fill="#5C331B"/>
<path d="M134.402 76.9657C137.569 76.9657 140.137 74.3999 140.137 71.2348C140.137 68.0697 137.569 65.5039 134.402 65.5039C131.235 65.5039 128.668 68.0697 128.668 71.2348C128.668 74.3999 131.235 76.9657 134.402 76.9657Z" fill="#5C331B"/>
<path d="M140.137 71.2313C143.304 71.2313 145.871 68.6655 145.871 65.5004C145.871 62.3353 143.304 59.7695 140.137 59.7695C136.97 59.7695 134.402 62.3353 134.402 65.5004C134.402 68.6655 136.97 71.2313 140.137 71.2313Z" fill="#5C331B"/>
<path d="M215.999 116.353L228.025 121.096L235.805 113.321C237.176 111.947 237.657 109.919 237.042 108.077C237.265 106.53 236.185 105.094 234.636 104.875C234.97 102.553 233.353 100.4 231.029 100.07L229.625 99.8703L235.89 90.8226C236.414 90.0669 236.224 89.03 235.468 88.5066C234.764 88.0225 233.812 88.1435 233.255 88.7912L222.212 101.673L220.971 92.6641C220.873 91.951 220.313 91.3884 219.6 91.287C218.716 91.1595 217.898 91.7744 217.773 92.6576L216.441 101.98C216.147 104.044 215.996 106.128 215.996 108.211V116.353H215.999Z" fill="#F2C4A8"/>
<path d="M220.526 113.476L220.016 112.796L220.356 112.54C221.934 111.356 224.523 107.922 223.011 103.401L222.876 102.999L223.681 102.73L223.816 103.133C225.478 108.115 222.611 111.909 220.863 113.221L220.526 113.476Z" fill="#ECA072"/>
<path d="M228.866 107.818C228.068 107.818 227.276 107.455 226.762 106.772C226.012 105.774 226.074 104.374 226.906 103.445L229.39 100.668L230.025 101.234L227.541 104.011C226.978 104.639 226.935 105.588 227.442 106.261C228.028 107.047 229.144 107.204 229.93 106.618L233.318 104.076L233.828 104.757L230.441 107.298C229.969 107.648 229.416 107.818 228.866 107.818Z" fill="#ECA072"/>
<path d="M232.394 116.372C232.159 116.372 231.923 116.342 231.687 116.287C230.82 116.074 230.1 115.492 229.717 114.687C229.125 113.451 229.485 111.956 230.575 111.138L230.915 110.883L231.426 111.563L231.085 111.818C230.316 112.394 230.064 113.447 230.483 114.321C230.758 114.893 231.272 115.309 231.89 115.462C232.493 115.609 233.128 115.485 233.619 115.116L234.718 114.288L235.229 114.968L234.129 115.796C233.625 116.175 233.016 116.372 232.394 116.372Z" fill="#ECA072"/>
<path d="M229.783 112.441C229.007 112.441 228.248 112.084 227.75 111.424C227.344 110.884 227.171 110.213 227.269 109.543C227.364 108.872 227.717 108.277 228.258 107.871L231.714 105.277L232.224 105.958L228.768 108.552C228.408 108.823 228.172 109.219 228.11 109.664C228.045 110.112 228.159 110.557 228.431 110.913C228.948 111.604 229.897 111.793 230.644 111.355L237.193 107.492L237.625 108.225L231.076 112.088C230.67 112.323 230.225 112.441 229.783 112.441Z" fill="#ECA072"/>
<path d="M279.544 38.5859H493.896C506.762 38.5859 517.194 49.0108 517.194 61.8693V215.547C517.194 228.405 506.762 238.83 493.896 238.83H279.544C266.677 238.83 256.246 228.405 256.246 215.547V61.8693C256.246 49.0108 266.677 38.5859 279.544 38.5859Z" fill="#FFECE1"/>
<path d="M256.246 61.8693C256.246 49.0108 266.677 38.5859 279.544 38.5859H493.893C506.759 38.5859 517.191 49.0108 517.191 61.8693V68.8563H256.246V61.8693Z" fill="#FB8741"/>
<path d="M279.543 59.5416C283.402 59.5416 286.531 56.4149 286.531 52.5579C286.531 48.7009 283.402 45.5742 279.543 45.5742C275.683 45.5742 272.555 48.7009 272.555 52.5579C272.555 56.4149 275.683 59.5416 279.543 59.5416Z" fill="#FFECE1"/>
<path d="M300.515 59.5416C304.375 59.5416 307.503 56.4149 307.503 52.5579C307.503 48.7009 304.375 45.5742 300.515 45.5742C296.656 45.5742 293.527 48.7009 293.527 52.5579C293.527 56.4149 296.656 59.5416 300.515 59.5416Z" fill="#FFECE1"/>
<path d="M321.48 59.5416C325.34 59.5416 328.468 56.4149 328.468 52.5579C328.468 48.7009 325.34 45.5742 321.48 45.5742C317.621 45.5742 314.492 48.7009 314.492 52.5579C314.492 56.4149 317.621 59.5416 321.48 59.5416Z" fill="#FFECE1"/>
<path d="M385.058 156.736C395.031 158.064 402.981 161.146 410.192 166.065C411.76 167.037 413.098 168.335 414.116 169.869C414.745 170.962 414.872 173.16 414.175 173.978C413.354 174.946 411.311 175.489 409.972 175.25C408.372 174.969 406.827 173.821 405.482 172.768C395.024 164.577 383.045 162.179 370.126 163.396C363.246 164.044 357.488 167.19 352.471 171.809C351.911 172.326 351.4 172.895 350.841 173.412C349.672 174.488 348.438 176.281 346.753 174.766C345.103 173.284 345.83 171.302 347.064 169.791C352.248 163.426 358.765 159.154 366.876 157.433C372.862 156.262 378.996 156.026 385.058 156.736Z" fill="#E96E24"/>
<path d="M354.824 138.876C350.471 138.082 346.723 136.096 344.206 132.164C343.146 130.503 342.389 128.566 344.298 127.218C346.147 125.907 347.423 127.382 348.566 128.877C353.331 135.112 360.676 134.369 364.283 127.33C364.781 126.361 365.249 125.377 365.795 124.441C366.656 122.966 368.073 121.972 369.563 122.907C370.086 123.306 370.518 123.817 370.826 124.402C371.13 124.988 371.301 125.632 371.327 126.293C371.261 128.373 370.672 130.404 369.618 132.2C368.561 133.996 367.072 135.497 365.285 136.57C362.123 138.576 358.637 139.171 354.824 138.876Z" fill="#E96E24"/>
<path d="M404.895 140.979C402.381 140.4 400.044 139.225 398.084 137.551C396.12 135.876 394.595 133.753 393.629 131.365C393.01 129.746 392.86 127.989 393.19 126.288C393.364 125.336 394.791 123.995 395.691 123.969C396.532 123.943 397.956 125.291 398.182 126.252C398.771 128.794 399.691 130.972 401.776 132.628C405.438 135.536 408.099 135.199 410.76 131.398C412.908 128.333 414.704 127.45 416.488 128.578C418.158 129.635 418.266 132.013 416.786 135.13C414.714 139.497 410.643 141.721 404.895 140.979Z" fill="#E96E24"/>
<path d="M345.917 112.329C344.104 111.112 342.369 109.787 340.72 108.358C340.278 107.939 340.491 106.467 340.874 105.718C341.054 105.371 342.517 105.29 343.119 105.613C349.115 108.839 354.208 106.356 359.124 103.118C360.555 102.172 361.658 100.74 362.957 99.5849C364.234 98.4499 365.723 97.4489 367.284 98.8489C368.813 100.219 368.08 101.917 367.127 103.278C363.281 108.78 357.619 110.985 351.223 111.704C349.609 111.887 347.97 111.825 346.34 111.874C346.205 112.025 346.061 112.178 345.917 112.329Z" fill="#E96E24"/>
<path d="M414.051 117.647C408.379 116.469 403.94 113.964 400.903 109.332C400.193 108.374 399.728 107.255 399.551 106.074C399.492 105.188 400.071 103.778 400.765 103.451C401.463 103.124 403.155 103.565 403.531 104.196C406.657 109.424 411.521 111.255 417.222 111.789C418.905 111.946 420.577 112.672 420.41 114.785C420.253 116.731 418.735 117.464 416.964 117.614C415.89 117.706 414.804 117.644 414.051 117.647Z" fill="#E96E24"/>
<path fill-rule="evenodd" clip-rule="evenodd" d="M221.576 244.664H236.446L239.444 257.29C241.14 257.84 242.773 258.52 244.337 259.318L255.394 252.508L265.907 263.015L259.096 274.061C259.894 275.625 260.575 277.26 261.125 278.951L273.759 281.948V296.805L261.125 299.801C260.575 301.495 259.894 303.128 259.096 304.691L265.907 315.738L255.394 326.244L244.337 319.434C242.773 320.232 241.14 320.912 239.444 321.462L236.446 334.088H221.576L218.578 321.462C216.883 320.912 215.249 320.232 213.685 319.434L202.632 326.244L192.118 315.738L198.933 304.691C198.134 303.128 197.454 301.492 196.904 299.801L184.27 296.805V281.948L196.904 278.951C197.454 277.257 198.134 275.625 198.933 274.061L192.118 263.011L202.632 252.505L213.685 259.315C215.249 258.517 216.886 257.837 218.578 257.287L221.576 244.664ZM229.01 301.747C222.175 301.747 216.634 296.209 216.634 289.379C216.634 282.549 222.175 277.012 229.01 277.012C235.847 277.012 241.385 282.549 241.385 289.379C241.385 296.209 235.847 301.747 229.01 301.747Z" fill="#FB8741"/>
<path d="M154.228 45.6884L154.594 45.044C155.861 42.8393 157.059 41.1874 158.182 40.0884C159.321 38.9958 160.489 38.2566 161.697 37.8706C162.902 37.4846 164.217 37.2589 165.638 37.1968C166.708 37.1346 167.706 37.0103 168.636 36.8173C169.566 36.6243 170.397 36.3038 171.137 35.8556C171.883 35.3944 172.488 34.7533 172.957 33.929C173.451 33.0556 173.677 32.1757 173.631 31.2794C173.585 30.3864 173.31 29.5621 172.803 28.8065C172.308 28.0574 171.637 27.4457 170.79 26.9649C169.968 26.5004 169.088 26.242 168.145 26.1929C167.212 26.1308 166.309 26.3205 165.438 26.7654C164.577 27.1939 163.831 27.9168 163.206 28.9341L155.468 24.5508C156.964 22.0583 158.755 20.3181 160.84 19.327C162.931 18.3227 165.153 17.9531 167.507 18.2213C169.87 18.4732 172.194 19.2485 174.485 20.5471C177.002 21.9733 178.992 23.6513 180.452 25.5812C181.922 27.4981 182.759 29.5523 182.972 31.7439C183.185 33.9355 182.661 36.1369 181.408 38.3482C180.57 39.8267 179.578 41.001 178.432 41.8711C177.306 42.7347 176.056 43.3627 174.681 43.7552C173.313 44.1314 171.837 44.3375 170.246 44.3735C168.911 44.4029 167.736 44.5566 166.728 44.8347C165.73 45.1225 164.833 45.5968 164.037 46.2641C163.255 46.938 162.506 47.8931 161.789 49.123L161.419 49.7609L154.228 45.6884ZM151.102 59.9502C149.839 59.2339 149.007 58.1773 148.611 56.7871C148.235 55.3871 148.408 54.0656 149.132 52.8226C149.822 51.5763 150.86 50.7618 152.248 50.3791C153.649 50.0029 154.981 50.173 156.244 50.8894C157.445 51.5698 158.25 52.61 158.66 54.01C159.069 55.41 158.928 56.7348 158.237 57.9778C157.753 58.8054 157.095 59.4432 156.274 59.8946C155.468 60.3395 154.608 60.5783 153.688 60.6077C152.771 60.6273 151.91 60.4082 151.102 59.9502Z" fill="#FB8741"/>
<path d="M494.273 283.307C493.562 281.132 491.533 279.656 489.242 279.656H479.714C477.423 279.656 475.393 281.132 474.683 283.307L473.348 287.392L471.826 292.057L452.871 350.141H516.078L494.273 283.307Z" fill="#FE7421"/>
<path d="M522.277 359.015H446.682C445.706 359.015 444.914 358.223 444.914 357.249V351.907C444.914 350.932 445.706 350.141 446.682 350.141H522.277C523.252 350.141 524.044 350.932 524.044 351.907V357.249C524.044 358.223 523.252 359.015 522.277 359.015Z" fill="#FE7421"/>
<path d="M522.277 354.93H446.682C445.706 354.93 444.914 354.139 444.914 353.164V357.6C444.914 358.574 445.706 359.366 446.682 359.366H522.277C523.252 359.366 524.044 358.574 524.044 357.6V353.164C524.044 354.139 523.252 354.93 522.277 354.93Z" fill="#FF6000"/>
<path d="M462.012 322.135L495.892 288.276L494.271 283.307C493.751 281.714 492.52 280.497 490.998 279.961L468.404 302.541L462.012 322.135Z" fill="#F2F2F2"/>
<path d="M503.088 310.316L499.837 300.359L454.253 345.915L452.875 350.142H463.238L503.088 310.316Z" fill="#F2F2F2"/>
<path d="M510.279 332.356L507.029 322.398L479.27 350.14H492.483L510.279 332.356Z" fill="#F2F2F2"/>
<path d="M494.273 283.307C493.563 281.132 491.534 279.656 489.242 279.656H484.372C486.663 279.656 488.696 281.132 489.406 283.307L508.452 341.679C509.032 343.452 507.709 345.274 505.84 345.274H454.462L452.875 350.141H511.211H516.082L494.273 283.307Z" fill="#FF6000"/>
<path d="M494.142 282.951C494.129 282.915 494.112 282.883 494.096 282.85C494.06 282.765 494.021 282.68 493.978 282.595C493.962 282.562 493.945 282.529 493.929 282.497C493.873 282.389 493.814 282.284 493.752 282.183C493.736 282.153 493.716 282.127 493.696 282.101C493.647 282.026 493.598 281.95 493.546 281.878C493.516 281.839 493.487 281.797 493.458 281.757C493.412 281.698 493.366 281.64 493.32 281.584C493.287 281.545 493.255 281.506 493.222 281.466C493.153 281.388 493.081 281.309 493.003 281.234C492.957 281.188 492.911 281.146 492.865 281.1C492.826 281.064 492.79 281.031 492.751 280.999C492.698 280.953 492.643 280.904 492.59 280.861C492.561 280.835 492.531 280.812 492.499 280.789C492.296 280.629 492.08 280.485 491.854 280.357C491.831 280.344 491.811 280.331 491.788 280.321C491.536 280.184 491.271 280.063 490.996 279.965L488.836 282.124C489.068 282.49 489.258 282.886 489.399 283.311L492.217 291.95L495.889 288.28L494.888 285.205L494.269 283.311C494.233 283.187 494.187 283.069 494.142 282.951Z" fill="#CCCCCC"/>
<path d="M468.108 345.273H454.895L454.253 345.911L452.875 350.141H463.238L468.108 345.273Z" fill="#CCCCCC"/>
<path d="M496.164 304.029L499.414 313.987L503.087 310.316L499.836 300.359L496.164 304.029Z" fill="#CCCCCC"/>
<path d="M497.353 345.273H484.14L479.27 350.141H492.483L497.353 345.273Z" fill="#CCCCCC"/>
<path d="M503.359 326.069L506.61 336.026L510.282 332.356L507.032 322.398L503.359 326.069Z" fill="#CCCCCC"/>
</svg>
