<svg width="194" height="58" viewBox="0 0 194 58" fill="none" xmlns="http://www.w3.org/2000/svg">
<path d="M192.025 50.318C192.025 51.0354 191.884 51.7458 191.609 52.4085C191.334 53.0712 190.931 53.6733 190.424 54.1803C189.916 54.6873 189.313 55.0894 188.65 55.3634C187.987 55.6374 187.276 55.778 186.559 55.7773H7.66884C6.21893 55.7788 4.82778 55.2045 3.80134 54.1808C2.77489 53.157 2.1972 51.7676 2.19531 50.318V6.7823C2.1972 5.33211 2.77466 3.94195 3.8009 2.91705C4.82714 1.89215 6.21828 1.31629 7.66884 1.31592H186.557C187.275 1.31592 187.986 1.45732 188.65 1.73205C189.313 2.00678 189.916 2.40945 190.423 2.91707C190.931 3.42469 191.333 4.02731 191.608 4.69051C191.883 5.35371 192.024 6.06451 192.024 6.7823L192.025 50.318Z" fill="white"/>
<path d="M186.558 57.0472H7.66825C5.88212 57.0468 4.1691 56.3381 2.90505 55.0765C1.641 53.8149 0.92918 52.1036 0.925781 50.3179L0.925781 6.78358C0.928424 4.99705 1.63977 3.2845 2.90378 2.02163C4.16779 0.758762 5.88124 0.0486881 7.66825 0.0471802L186.557 0.0471802C188.343 0.0494405 190.057 0.759756 191.32 2.02246C192.584 3.28517 193.296 4.99728 193.299 6.78358V50.3179C193.302 54.0296 190.272 57.0472 186.558 57.0472Z" fill="#A6A6A6"/>
<path d="M192.025 50.318C192.025 51.0354 191.884 51.7458 191.609 52.4085C191.334 53.0712 190.931 53.6733 190.424 54.1803C189.916 54.6873 189.313 55.0894 188.65 55.3634C187.987 55.6374 187.276 55.778 186.559 55.7773H7.66884C6.21893 55.7788 4.82778 55.2045 3.80134 54.1808C2.77489 53.157 2.1972 51.7676 2.19531 50.318V6.7823C2.1972 5.33211 2.77466 3.94195 3.8009 2.91705C4.82714 1.89215 6.21828 1.31629 7.66884 1.31592H186.557C187.275 1.31592 187.986 1.45732 188.65 1.73205C189.313 2.00678 189.916 2.40945 190.423 2.91707C190.931 3.42469 191.333 4.02731 191.608 4.69051C191.883 5.35371 192.024 6.06451 192.024 6.7823L192.025 50.318Z" fill="black"/>
<path d="M43.8813 28.248C43.84 23.654 47.6439 21.419 47.8179 21.3149C45.6636 18.1748 42.3244 17.7457 41.151 17.7115C38.3465 17.4165 35.6261 19.3892 34.1975 19.3892C32.7404 19.3892 30.5404 17.74 28.1694 17.7885C25.1182 17.8355 22.2638 19.6016 20.6983 22.344C17.4675 27.9359 19.8771 36.1532 22.9724 40.6732C24.5208 42.8882 26.3301 45.3584 28.6983 45.2715C31.0152 45.1774 31.8806 43.7962 34.6766 43.7962C37.4468 43.7962 38.2595 45.2715 40.6748 45.2159C43.1613 45.1774 44.7268 42.9923 46.221 40.7587C48.0104 38.2229 48.729 35.7228 48.7575 35.5945C48.7004 35.5745 43.9298 33.7529 43.8813 28.248ZM39.3189 14.7382C40.565 13.1802 41.4176 11.0606 41.1809 8.90973C39.3773 8.98955 37.1218 10.1569 35.8229 11.6807C34.6737 13.0234 33.6472 15.2242 33.9124 17.2939C35.9384 17.445 38.0186 16.2719 39.3189 14.7382Z" fill="white"/>
<path d="M186.561 0.0471802H90.7422L128.273 57.0472H186.561C188.348 57.0457 190.061 56.336 191.324 55.0737C192.588 53.8115 193.3 52.0997 193.303 50.3136V6.78358C193.3 4.99716 192.589 3.28484 191.325 2.02205C190.061 0.75926 188.348 0.0490644 186.561 0.0471802Z" fill="url(#paint0_linear_1557_75552)"/>
<path d="M77.4404 44.954H74.2025L72.4288 39.3822H66.2638L64.5742 44.954H61.4219L67.5313 25.9849H71.3039L77.4404 44.954ZM71.8942 37.0445L70.2902 32.0913C70.1205 31.5853 69.8011 30.3936 69.3335 28.5178H69.2764C69.0882 29.3246 68.7874 30.5162 68.3754 32.0913L66.7985 37.0445H71.8942ZM93.121 37.9468C93.121 40.273 92.4894 42.1118 91.2247 43.4616C90.0927 44.6632 88.6854 45.2633 87.0073 45.2633C85.1952 45.2633 83.892 44.6176 83.1007 43.3234V50.5002H80.061V35.7716C80.061 34.3106 80.0225 32.8125 79.9483 31.276H82.6216L82.7913 33.444H82.8483C83.8621 31.8105 85.4005 30.9937 87.465 30.9937C89.079 30.9937 90.4263 31.6309 91.5042 32.9066C92.5806 34.1852 93.121 35.8643 93.121 37.9468ZM90.0242 38.058C90.0242 36.7267 89.7248 35.6291 89.1232 34.7639C88.4659 33.8645 87.5833 33.414 86.4769 33.414C85.727 33.414 85.0454 33.6649 84.4366 34.1595C83.8264 34.6584 83.4272 35.3098 83.2404 36.1166C83.157 36.4183 83.1097 36.7288 83.0993 37.0417V39.3237C83.0993 40.3172 83.4044 41.1568 84.0146 41.8438C84.6248 42.528 85.4176 42.8715 86.3928 42.8715C87.5377 42.8715 88.4288 42.4282 89.0661 41.5488C89.7049 40.6664 90.0242 39.5033 90.0242 38.058ZM108.857 37.9468C108.857 40.273 108.226 42.1118 106.961 43.4616C105.827 44.6632 104.422 45.2633 102.742 45.2633C100.93 45.2633 99.6268 44.6176 98.8355 43.3234V50.5002H95.7958V35.7716C95.7958 34.3106 95.7573 32.8125 95.6831 31.276H98.3564L98.5261 33.444H98.5831C99.5954 31.8105 101.134 30.9937 103.2 30.9937C104.812 30.9937 106.16 31.6309 107.24 32.9066C108.315 34.1852 108.857 35.8643 108.857 37.9468ZM105.759 38.058C105.759 36.7267 105.458 35.6291 104.857 34.7639C104.199 33.8645 103.32 33.414 102.213 33.414C101.463 33.414 100.782 33.6649 100.17 34.1595C99.5598 34.6584 99.162 35.3098 98.9752 36.1166C98.8825 36.4929 98.8326 36.7993 98.8326 37.0417V39.3237C98.8326 40.3172 99.1392 41.1568 99.7466 41.8438C100.357 42.5266 101.15 42.8715 102.128 42.8715C103.274 42.8715 104.165 42.4282 104.801 41.5488C105.44 40.6664 105.759 39.5033 105.759 38.058ZM126.451 39.633C126.451 41.248 125.887 42.5608 124.765 43.5742C123.53 44.6803 121.806 45.2348 119.596 45.2348C117.554 45.2348 115.918 44.8414 114.683 44.0532L115.386 41.5202C116.719 42.3099 118.183 42.7033 119.777 42.7033C120.924 42.7033 121.815 42.4439 122.451 41.9293C123.088 41.4133 123.41 40.7235 123.41 39.8625C123.41 39.0914 123.143 38.4457 122.62 37.9197C122.094 37.3952 121.224 36.9063 120.002 36.4573C116.68 35.2186 115.018 33.4069 115.018 31.0237C115.018 29.4671 115.605 28.1928 116.777 27.1965C117.949 26.2016 119.503 25.7041 121.437 25.7041C123.163 25.7041 124.602 26.0049 125.744 26.6049L124.981 29.0823C123.906 28.5007 122.693 28.2099 121.336 28.2099C120.263 28.2099 119.422 28.4736 118.821 28.9982C118.314 29.4671 118.058 30.0387 118.058 30.7172C118.058 31.4655 118.35 32.087 118.932 32.5745C119.436 33.0235 120.357 33.5124 121.689 34.0369C123.323 34.6955 124.524 35.4623 125.292 36.3432C126.066 37.2241 126.451 38.3231 126.451 39.633ZM136.527 33.5566H133.177V40.1975C133.177 41.8866 133.767 42.729 134.95 42.729C135.493 42.729 135.944 42.6834 136.3 42.5879L136.385 44.8956C135.786 45.1194 134.997 45.232 134.021 45.232C132.82 45.232 131.882 44.8656 131.205 44.133C130.53 43.4003 130.191 42.1731 130.191 40.4455V33.5509H128.195V31.2703H130.191V28.7658L133.177 27.865V31.2703H136.527V33.5566ZM151.615 38.0024C151.615 40.1048 151.013 41.831 149.812 43.1808C148.556 44.5706 146.885 45.2633 144.802 45.2633C142.792 45.2633 141.194 44.5977 140.002 43.2678C138.81 41.935 138.214 40.2559 138.214 38.2304C138.214 36.1109 138.83 34.3748 140.057 33.0249C141.288 31.6736 142.945 30.998 145.028 30.998C147.035 30.998 148.648 31.6651 149.868 32.9964C151.034 34.2878 151.615 35.9555 151.615 38.0024ZM148.464 38.0722C148.464 36.8193 148.193 35.7446 147.65 34.8451C147.012 33.759 146.1 33.2159 144.918 33.2159C143.7 33.2159 142.766 33.759 142.13 34.8451C141.586 35.7446 141.315 36.8378 141.315 38.1292C141.315 39.3836 141.586 40.4612 142.13 41.3578C142.788 42.4439 143.704 42.987 144.892 42.987C146.054 42.987 146.965 42.4325 147.624 41.3307C148.183 40.4099 148.464 39.328 148.464 38.0722ZM161.499 33.9486C161.183 33.8915 160.863 33.8634 160.541 33.8645C159.472 33.8645 158.645 34.2664 158.063 35.0761C157.559 35.7887 157.305 36.6896 157.305 37.7772V44.954H154.265V35.5835C154.268 34.1476 154.238 32.7119 154.177 31.2774H156.824L156.936 33.8944H157.02C157.342 32.995 157.847 32.2695 158.54 31.7264C159.174 31.2518 159.944 30.9949 160.737 30.9937C161.018 30.9937 161.271 31.0137 161.497 31.0493L161.499 33.9486ZM175.094 37.4679C175.102 37.9298 175.065 38.3915 174.983 38.8462H165.864C165.898 40.1975 166.34 41.2323 167.187 41.945C167.955 42.5807 168.949 42.9 170.17 42.9C171.52 42.9 172.752 42.6862 173.859 42.2543L174.336 44.3625C173.041 44.9269 171.513 45.2077 169.749 45.2077C167.627 45.2077 165.962 44.5834 164.75 43.3376C163.541 42.0904 162.935 40.4141 162.935 38.3145C162.935 36.2534 163.498 34.5358 164.626 33.166C165.807 31.7036 167.402 30.9723 169.41 30.9723C171.382 30.9723 172.874 31.7036 173.888 33.166C174.691 34.3249 175.094 35.7617 175.094 37.4679ZM172.196 36.6796C172.217 35.7773 172.017 35.0005 171.605 34.3434C171.079 33.4967 170.269 33.0748 169.184 33.0748C168.191 33.0748 167.381 33.4867 166.765 34.3135C166.259 34.9706 165.958 35.7602 165.865 36.6768L172.196 36.6796Z" fill="white"/>
<path d="M65.3849 19.2767C64.5394 19.2767 63.808 19.2354 63.1992 19.1655V9.99455C64.0507 9.86305 64.9112 9.79823 65.7727 9.80069C69.2587 9.80069 70.8642 11.5154 70.8642 14.3106C70.8642 17.5349 68.9679 19.2767 65.3849 19.2767ZM65.8953 10.9766C65.4248 10.9766 65.0242 11.0051 64.692 11.0736V18.0452C64.8716 18.0737 65.2167 18.0865 65.7014 18.0865C67.9855 18.0865 69.2858 16.7865 69.2858 14.352C69.2858 12.1811 68.1096 10.9766 65.8953 10.9766ZM75.8672 19.3465C73.9025 19.3465 72.6293 17.8798 72.6293 15.8885C72.6293 13.8132 73.9296 12.3336 75.9784 12.3336C77.9146 12.3336 79.2163 13.7305 79.2163 15.7788C79.2163 17.8798 77.8747 19.3465 75.8672 19.3465ZM75.9242 13.4255C74.8449 13.4255 74.1534 14.4346 74.1534 15.8458C74.1534 17.2298 74.8592 18.239 75.91 18.239C76.9607 18.239 77.6665 17.16 77.6665 15.8173C77.6665 14.4489 76.975 13.4255 75.9242 13.4255ZM90.42 12.4719L88.317 19.194H86.9468L86.0757 16.2748C85.8591 15.5608 85.6787 14.8362 85.5353 14.104H85.5068C85.397 14.8366 85.1889 15.5707 84.9679 16.2748L84.0411 19.194H82.6567L80.6777 12.4719H82.2133L82.9746 15.6676C83.1543 16.4288 83.3054 17.1472 83.4309 17.8256H83.4594C83.5692 17.2598 83.7488 16.5528 84.0126 15.6819L84.9679 12.4733H86.1855L87.0994 15.6134C87.3204 16.3746 87.5 17.1215 87.6398 17.8271H87.6797C87.7766 17.1358 87.9292 16.4017 88.1359 15.6134L88.9529 12.4733L90.42 12.4719ZM98.1619 19.194H96.6677V15.3341C96.6677 14.1453 96.2115 13.5495 95.3118 13.5495C94.4264 13.5495 93.8176 14.3106 93.8176 15.1958V19.194H92.3234V14.3933C92.3234 13.7989 92.3092 13.1618 92.2678 12.4705H93.5824L93.6522 13.5081H93.6936C94.0956 12.7897 94.9112 12.3336 95.8251 12.3336C97.2366 12.3336 98.1634 13.4126 98.1634 15.1687L98.1619 19.194ZM102.282 19.194H100.787V9.38733H102.282V19.194ZM107.73 19.3465C105.767 19.3465 104.492 17.8798 104.492 15.8885C104.492 13.8132 105.793 12.3336 107.84 12.3336C109.778 12.3336 111.078 13.7305 111.078 15.7788C111.079 17.8798 109.736 19.3465 107.73 19.3465ZM107.786 13.4255C106.707 13.4255 106.015 14.4346 106.015 15.8458C106.015 17.2298 106.722 18.239 107.77 18.239C108.822 18.239 109.527 17.16 109.527 15.8173C109.528 14.4489 108.838 13.4255 107.786 13.4255ZM116.969 19.194L116.861 18.42H116.821C116.365 19.0429 115.699 19.3465 114.855 19.3465C113.65 19.3465 112.795 18.5027 112.795 17.3681C112.795 15.7089 114.233 14.8509 116.724 14.8509V14.7268C116.724 13.8417 116.255 13.3984 115.328 13.3984C114.665 13.3984 114.084 13.5652 113.572 13.8973L113.268 12.9152C113.89 12.5275 114.665 12.3336 115.576 12.3336C117.333 12.3336 118.22 13.2601 118.22 15.1146V17.5905C118.22 18.2689 118.25 18.7949 118.317 19.1955L116.969 19.194ZM116.764 15.8458C115.104 15.8458 114.272 16.2477 114.272 17.2013C114.272 17.9069 114.701 18.2518 115.297 18.2518C116.057 18.2518 116.764 17.6717 116.764 16.8835V15.8458ZM125.475 19.194L125.406 18.115H125.364C124.935 18.9303 124.214 19.3465 123.206 19.3465C121.584 19.3465 120.384 17.9212 120.384 15.9156C120.384 13.8132 121.629 12.3322 123.328 12.3322C124.228 12.3322 124.865 12.6358 125.224 13.2459H125.254V9.38733H126.75V17.3824C126.75 18.0323 126.766 18.641 126.806 19.194H125.475ZM125.254 15.2386C125.254 14.2978 124.631 13.4953 123.68 13.4953C122.573 13.4953 121.895 14.4774 121.895 15.86C121.895 17.2156 122.598 18.1435 123.65 18.1435C124.59 18.1435 125.254 17.3268 125.254 16.3589V15.2386ZM136.233 19.3465C134.27 19.3465 132.996 17.8798 132.996 15.8885C132.996 13.8132 134.297 12.3336 136.344 12.3336C138.282 12.3336 139.582 13.7305 139.582 15.7788C139.583 17.8798 138.242 19.3465 136.233 19.3465ZM136.288 13.4255C135.211 13.4255 134.519 14.4346 134.519 15.8458C134.519 17.2298 135.225 18.239 136.274 18.239C137.326 18.239 138.031 17.16 138.031 15.8173C138.034 14.4489 137.342 13.4255 136.288 13.4255ZM147.618 19.194H146.122V15.3341C146.122 14.1453 145.666 13.5495 144.766 13.5495C143.881 13.5495 143.273 14.3106 143.273 15.1958V19.194H141.778V14.3933C141.778 13.7989 141.763 13.1618 141.722 12.4705H143.037L143.106 13.5081H143.148C143.548 12.7897 144.365 12.3322 145.278 12.3322C146.689 12.3322 147.618 13.4112 147.618 15.1673V19.194ZM157.671 13.5922H156.027V16.8564C156.027 17.6874 156.315 18.1022 156.897 18.1022C157.16 18.1022 157.381 18.0737 157.56 18.0323L157.601 19.1669C157.311 19.2781 156.924 19.3337 156.442 19.3337C155.264 19.3337 154.56 18.6837 154.56 16.9818V13.5922H153.579V12.4719H154.56V11.2403L156.027 10.797V12.4705H157.671V13.5922ZM165.581 19.194H164.088V15.3626C164.088 14.1595 163.633 13.5509 162.732 13.5509C161.958 13.5509 161.237 14.0769 161.237 15.1416V19.194H159.744V9.38733H161.237V13.4255H161.266C161.737 12.6928 162.419 12.3322 163.288 12.3322C164.711 12.3322 165.581 13.4383 165.581 15.1958V19.194ZM173.685 16.1922H169.201C169.229 17.465 170.072 18.1834 171.32 18.1834C171.983 18.1834 172.593 18.0722 173.132 17.8656L173.364 18.9032C172.728 19.1798 171.98 19.318 171.109 19.318C169.006 19.318 167.761 17.9896 167.761 15.9299C167.761 13.8688 169.036 12.3194 170.94 12.3194C172.658 12.3194 173.736 13.5922 173.736 15.5151C173.746 15.742 173.729 15.9693 173.685 16.1922ZM172.315 15.1274C172.315 14.0897 171.792 13.357 170.836 13.357C169.978 13.357 169.299 14.104 169.202 15.1274H172.315Z" fill="white"/>
<defs>
<linearGradient id="paint0_linear_1557_75552" x1="142.021" y1="57.1985" x2="142.021" y2="-148.371" gradientUnits="userSpaceOnUse">
<stop stop-color="#1A1A1A" stop-opacity="0.1"/>
<stop offset="0.123" stop-color="#212121" stop-opacity="0.151"/>
<stop offset="0.308" stop-color="#353535" stop-opacity="0.227"/>
<stop offset="0.532" stop-color="#575757" stop-opacity="0.318"/>
<stop offset="0.783" stop-color="#858585" stop-opacity="0.421"/>
<stop offset="1" stop-color="#B3B3B3" stop-opacity="0.51"/>
</linearGradient>
</defs>
</svg>
