<svg width="569" height="568" viewBox="0 0 569 568" fill="none" xmlns="http://www.w3.org/2000/svg">
<path d="M83.7843 331.563C83.7843 331.563 94.9483 299.723 127.643 312.749C127.643 312.749 108.691 199.535 184.206 201.28C221.947 202.153 230.115 258.717 230.115 258.717C230.115 258.717 241.659 214.369 276.368 225.913C303.272 234.86 297.899 283.321 297.899 283.321C297.899 283.321 320.66 238.187 365.225 265.452C388.068 279.428 393.194 331.563 393.194 331.563H83.7843Z" fill="#F4F3F2"/>
<path d="M319.274 331.563C314.369 321.171 305.142 314.159 294.531 314.159C283.936 314.159 274.704 321.171 269.794 331.563H319.274Z" fill="#ECE9E7"/>
<path d="M482.005 331.684C483.584 323.448 484.38 315.081 484.381 306.695C484.381 245.777 443.554 196.378 393.205 196.378C342.833 196.378 302.005 245.777 302.005 306.695C302.005 315.294 302.845 323.65 304.382 331.684H482.005Z" fill="#ECE9E7"/>
<path d="M468.141 458.585L526.43 497.49H41.7362L100.024 458.585H468.141ZM100.024 360.783H468.141V458.585H100.024V360.783Z" fill="#F4F3F2"/>
<path d="M100.024 360.783H468.141V366.335H100.024V360.783Z" fill="#ECE9E7"/>
<path d="M479.57 351.543C479.57 357.4 474.821 362.148 468.964 362.148H99.2017C93.3447 362.148 88.5962 357.4 88.5962 351.543C88.5962 345.686 93.3447 340.937 99.2017 340.937H468.964C474.821 340.937 479.57 345.686 479.57 351.543Z" fill="#F4F3F2"/>
<path d="M452.579 430.824V441.505C452.579 442.131 452.331 442.731 451.888 443.174C451.446 443.616 450.846 443.865 450.22 443.865H422.842C422.532 443.865 422.225 443.804 421.939 443.685C421.653 443.566 421.392 443.393 421.173 443.174C420.954 442.955 420.781 442.694 420.662 442.408C420.543 442.122 420.482 441.815 420.482 441.505V430.824C420.482 430.514 420.543 430.208 420.662 429.921C420.781 429.635 420.954 429.375 421.173 429.156C421.392 428.937 421.653 428.763 421.939 428.645C422.225 428.526 422.532 428.465 422.842 428.465H450.22C450.846 428.465 451.446 428.714 451.888 429.156C452.331 429.599 452.579 430.199 452.579 430.824ZM434.722 415.426V426.106C434.722 426.732 434.474 427.332 434.031 427.774C433.589 428.217 432.989 428.465 432.363 428.465H404.984C404.358 428.465 403.758 428.216 403.316 427.774C402.874 427.331 402.625 426.732 402.625 426.106V415.426C402.625 414.8 402.874 414.2 403.316 413.758C403.758 413.316 404.358 413.067 404.984 413.067H432.363C432.989 413.067 433.589 413.315 434.031 413.758C434.474 414.2 434.722 414.8 434.722 415.426ZM453.782 400.025V410.708C453.782 411.333 453.534 411.933 453.091 412.375C452.649 412.817 452.05 413.065 451.424 413.066H424.045C423.419 413.065 422.82 412.817 422.378 412.375C421.935 411.933 421.687 411.333 421.687 410.708V400.025C421.687 399.4 421.935 398.8 422.378 398.358C422.82 397.916 423.419 397.667 424.045 397.667H451.424C452.05 397.667 452.65 397.916 453.092 398.358C453.534 398.8 453.782 399.4 453.782 400.025ZM260.757 425.513V436.195C260.757 436.82 260.509 437.42 260.066 437.862C259.624 438.305 259.024 438.553 258.399 438.554H231.019C230.394 438.554 229.794 438.305 229.351 437.863C228.909 437.42 228.66 436.82 228.66 436.195V425.513C228.66 424.888 228.909 424.288 229.351 423.845C229.794 423.403 230.394 423.154 231.019 423.154H258.399C259.025 423.154 259.625 423.403 260.067 423.845C260.509 424.288 260.758 424.888 260.758 425.513H260.757Z" fill="#ECE9E7"/>
<path d="M242.9 410.115V420.796C242.9 421.422 242.651 422.021 242.209 422.464C241.766 422.906 241.166 423.154 240.541 423.154H213.162C212.537 423.154 211.937 422.906 211.495 422.464C211.052 422.021 210.804 421.422 210.803 420.796V410.115C210.803 409.489 211.052 408.889 211.494 408.447C211.937 408.004 212.537 407.756 213.162 407.756H240.541C241.167 407.756 241.767 408.004 242.209 408.447C242.652 408.889 242.9 409.489 242.9 410.115ZM261.961 394.715V405.397C261.961 406.022 261.713 406.622 261.27 407.065C260.828 407.507 260.228 407.756 259.602 407.756H232.225C231.599 407.756 230.999 407.507 230.556 407.065C230.114 406.622 229.865 406.022 229.865 405.397V394.715C229.865 394.406 229.926 394.099 230.045 393.813C230.164 393.526 230.337 393.266 230.556 393.047C230.775 392.828 231.035 392.655 231.322 392.536C231.608 392.417 231.915 392.356 232.225 392.356H259.603C259.913 392.356 260.22 392.417 260.506 392.536C260.792 392.655 261.052 392.828 261.271 393.047C261.49 393.266 261.664 393.526 261.783 393.813C261.901 394.099 261.962 394.406 261.962 394.715H261.961ZM359.4 400.601V411.282C359.4 411.908 359.151 412.508 358.709 412.95C358.267 413.392 357.667 413.641 357.042 413.641H329.662C329.037 413.641 328.437 413.392 327.995 412.95C327.552 412.508 327.304 411.908 327.304 411.282V400.601C327.304 399.976 327.553 399.376 327.995 398.934C328.437 398.492 329.037 398.243 329.662 398.243H357.042C357.667 398.243 358.267 398.491 358.709 398.933C359.152 399.376 359.4 399.975 359.401 400.601H359.4ZM341.543 385.202V395.884C341.543 396.509 341.294 397.109 340.852 397.551C340.41 397.994 339.81 398.243 339.185 398.243H311.805C311.495 398.243 311.189 398.182 310.902 398.063C310.616 397.945 310.356 397.771 310.137 397.552C309.918 397.333 309.744 397.073 309.626 396.786C309.507 396.5 309.446 396.193 309.446 395.884V385.202C309.446 384.577 309.695 383.977 310.137 383.534C310.579 383.092 311.179 382.843 311.805 382.843H339.185C339.81 382.844 340.41 383.092 340.852 383.535C341.294 383.977 341.543 384.577 341.543 385.202ZM41.7362 497.49H526.43V500.004H41.7362V497.49ZM500.389 480.109L468.141 458.585H100.024L67.7771 480.109H500.389Z" fill="#ECE9E7"/>
<path d="M418.853 478.038C418.853 480.023 407.172 481.623 392.754 481.623C378.336 481.623 366.654 480.023 366.654 478.037C366.654 476.063 378.336 474.452 392.754 474.452C407.172 474.452 418.853 476.062 418.853 478.037V478.038Z" fill="#F4F3F2"/>
<path d="M75.5341 485.983H64.1088C54.8447 486.079 47.0073 478.574 47.0073 469.018V106.967C47.0073 97.6468 54.4575 90.2789 63.4168 90.0157H75.1053C66.1034 90.2382 58.5982 97.6193 58.5982 106.967V469.019C58.5982 478.518 66.3391 485.983 75.5341 485.983Z" fill="#FFBA90"/>
<path d="M240.274 128.017V447.971C240.274 456.416 234.063 463.576 225.702 464.767L77.9509 485.814C67.7326 487.27 58.5935 479.34 58.5935 469.018V106.97C58.5935 96.648 67.7326 88.7178 77.9509 90.1738L225.702 111.221C234.063 112.412 240.274 119.571 240.274 128.017Z" fill="#FCAB7A"/>
<path d="M75.5256 472.139C74.0422 472.139 72.4423 470.946 72.4423 469.018V106.97C72.4423 105.043 74.0441 103.848 75.5275 103.848C75.6827 103.848 75.837 103.861 75.9989 103.884L223.748 124.931C224.49 125.039 225.168 125.411 225.66 125.977C226.151 126.543 226.423 127.267 226.426 128.017V447.971C226.423 448.721 226.151 449.445 225.66 450.011C225.168 450.578 224.489 450.948 223.747 451.056L75.9989 472.104C75.838 472.126 75.6789 472.139 75.5256 472.139Z" fill="#FFBA90"/>
<path d="M104.311 267.677C104.311 273.729 102.317 278.95 99.4507 281.29V293.158C99.4507 293.948 99.1875 294.654 98.7445 295.235L98.6886 296.551H96.0569C95.6108 296.553 95.1689 296.466 94.7564 296.296C94.344 296.126 93.9693 295.876 93.6539 295.561C93.3385 295.246 93.0886 294.871 92.9187 294.459C92.7488 294.046 92.6623 293.604 92.664 293.158V281.318C89.7843 278.977 87.7764 273.756 87.7764 267.677C87.7764 259.409 91.4741 252.721 96.0436 252.721H98.6754L98.7038 253.524C101.971 255.518 104.311 261.099 104.311 267.677Z" fill="#F29861"/>
<path d="M283.411 105.768C293.841 105.768 302.297 97.3127 302.297 86.8822C302.297 76.4518 293.841 67.9962 283.411 67.9962C272.98 67.9962 264.525 76.4518 264.525 86.8822C264.525 97.3127 272.98 105.768 283.411 105.768Z" fill="#F4F3F2"/>
<path d="M359.519 117.532C358.818 113.505 357.075 109.65 354.196 106.772C350.985 103.562 346.459 101.709 341.918 101.746C337.378 101.783 332.883 103.708 329.725 106.97C327.289 98.086 318.366 91.4329 309.157 91.6335C299.949 91.8323 291.324 98.867 289.276 107.847C288.198 104.786 285.008 102.716 281.765 102.585C278.521 102.453 275.345 104.078 273.212 106.527C271.08 108.974 269.926 112.166 269.539 115.389C269.454 116.099 269.422 116.815 269.412 117.532H359.519Z" fill="#ECE9E7"/>
<path d="M490.131 441.471C490.131 441.471 493.381 445.357 492.694 446.953C491.196 450.429 480.889 454.847 477.334 453.531C475.779 452.955 474.432 449.133 475.129 448.039C475.825 446.946 490.131 441.471 490.131 441.471ZM469.428 477.579C470.496 479.951 473.166 480.848 476.626 479.865C481.454 478.497 488.609 472.047 491.002 469.783C491.533 469.276 492.167 468.89 492.861 468.651C495.423 467.733 501.918 465.234 503.754 462.606C504.886 461.004 502.729 457.736 500.571 455.108C502.173 457.33 503.37 459.659 502.472 460.94C500.636 463.568 494.142 466.088 491.6 466.985C490.9 467.234 490.26 467.627 489.721 468.138C487.328 470.402 480.173 476.853 475.345 478.22C472.867 478.925 470.796 478.669 469.428 477.579Z" fill="#51392A"/>
<path d="M502.49 460.956C502.382 461.108 502.26 461.251 502.127 461.383C499.948 463.839 494.01 466.125 491.596 467.001C490.896 467.239 490.255 467.625 489.717 468.132C487.324 470.397 480.169 476.847 475.342 478.214C474.038 478.578 472.863 478.685 471.817 478.535C468.186 478.044 466.477 474.54 468.613 468.88C468.805 468.346 469.082 467.834 469.381 467.343C471.347 464.138 475.128 461.767 476.11 459.332C476.708 457.836 476.083 452.361 476.083 452.361C477.255 453.342 493.407 445.933 492.61 445.5L493.454 446.559L495.761 449.656C495.761 449.656 504.519 458.051 502.49 460.956Z" fill="#D39671"/>
<path d="M477.973 459.127C478.058 459.221 478.14 459.323 478.185 459.441C478.231 459.559 478.231 459.702 478.158 459.807C478.032 459.988 477.763 459.978 477.548 459.93C477.049 459.822 476.571 459.628 476.138 459.357C475.911 459.215 475.695 459.05 475.539 458.835C475.382 458.619 475.291 458.347 475.334 458.084C475.368 457.874 475.547 457.554 475.792 457.552C476.029 457.552 476.36 457.813 476.555 457.933C477.084 458.258 477.564 458.662 477.973 459.127ZM476.742 461.077C476.827 461.172 476.908 461.273 476.954 461.392C476.998 461.511 476.999 461.653 476.926 461.758C476.801 461.938 476.533 461.928 476.317 461.881C475.817 461.772 475.34 461.579 474.906 461.308C474.679 461.166 474.463 461.001 474.307 460.785C474.151 460.569 474.059 460.298 474.103 460.035C474.137 459.824 474.316 459.504 474.561 459.503C474.797 459.503 475.129 459.764 475.324 459.883C475.852 460.209 476.332 460.612 476.742 461.077ZM475.172 462.993C475.256 463.088 475.339 463.188 475.383 463.307C475.428 463.426 475.429 463.568 475.357 463.673C475.23 463.854 474.962 463.843 474.746 463.796C474.247 463.688 473.769 463.494 473.336 463.223C473.109 463.081 472.893 462.916 472.736 462.7C472.58 462.485 472.488 462.213 472.532 461.95C472.566 461.74 472.745 461.42 472.99 461.42C473.227 461.418 473.558 461.679 473.753 461.798C474.281 462.124 474.761 462.527 475.172 462.993ZM474.723 473.366C474.728 474.406 474.463 475.429 473.954 476.336C473.444 477.242 472.707 478 471.816 478.535C468.186 478.044 466.477 474.54 468.613 468.88C468.805 468.346 469.082 467.834 469.381 467.343C472.372 467.684 474.722 470.247 474.722 473.366H474.723ZM502.49 460.956C502.382 461.108 502.26 461.251 502.127 461.383C501.849 461.404 501.55 461.426 501.251 461.426C496.018 461.426 491.767 457.176 491.767 451.942C491.767 449.955 492.386 448.097 493.454 446.559L495.761 449.656C495.761 449.656 504.519 458.051 502.49 460.956ZM422.991 448.379C422.991 448.379 424.549 453.113 423.341 454.32C420.71 456.953 409.683 457.246 406.912 454.75C405.7 453.659 405.858 449.676 406.892 448.929C407.925 448.182 422.991 448.379 422.991 448.379ZM390.944 473.857C391.058 476.413 393.173 478.202 396.694 478.563C401.603 479.068 410.486 475.773 413.497 474.573C414.166 474.302 414.887 474.179 415.608 474.214C418.283 474.306 425.127 474.382 427.761 472.648C429.378 471.595 428.594 467.825 427.577 464.639C428.234 467.252 428.481 469.815 427.195 470.66C424.562 472.393 417.71 472.337 415.061 472.233C414.33 472.206 413.602 472.332 412.923 472.603C409.914 473.804 401.028 477.099 396.12 476.594C393.599 476.338 391.798 475.349 390.944 473.857Z" fill="#51392A"/>
<path d="M427.206 470.681C427.054 470.778 426.909 470.857 426.718 470.939C423.835 472.392 417.576 472.323 415.051 472.246C414.324 472.209 413.598 472.329 412.921 472.598C409.912 473.797 401.027 477.093 396.118 476.587C394.796 476.445 393.682 476.116 392.781 475.599C389.64 473.83 389.352 470.008 393.361 465.61C393.731 465.192 394.171 464.825 394.623 464.484C397.583 462.27 401.901 461.477 403.685 459.609C404.774 458.459 406.193 453.227 406.193 453.227C406.908 454.549 424.365 453.648 423.792 452.964L424.18 454.238L425.163 457.907C425.163 457.907 430.116 468.763 427.206 470.681Z" fill="#D39671"/>
<path d="M405.463 460.098C405.552 460.348 405.607 460.639 405.384 460.786C405.203 460.906 404.962 460.799 404.781 460.677C404.363 460.397 403.998 460.046 403.7 459.641C403.546 459.429 403.407 459.2 403.343 458.946C403.279 458.692 403.294 458.41 403.428 458.186C403.537 458.006 403.816 457.779 404.041 457.867C404.258 457.952 404.466 458.311 404.599 458.491C404.965 458.98 405.257 459.523 405.463 460.098ZM403.628 461.434C403.718 461.684 403.773 461.973 403.549 462.122C403.369 462.241 403.127 462.134 402.946 462.013C402.529 461.732 402.163 461.381 401.865 460.976C401.711 460.764 401.573 460.535 401.508 460.281C401.444 460.026 401.459 459.745 401.594 459.521C401.702 459.341 401.982 459.113 402.206 459.201C402.424 459.287 402.631 459.646 402.765 459.826C403.13 460.316 403.422 460.858 403.628 461.433V461.434ZM401.496 462.612C401.586 462.863 401.641 463.154 401.417 463.302C401.238 463.422 400.995 463.314 400.815 463.193C400.398 462.912 400.032 462.561 399.734 462.155C399.579 461.944 399.441 461.715 399.376 461.461C399.312 461.207 399.327 460.924 399.462 460.7C399.571 460.52 399.85 460.293 400.075 460.381C400.292 460.466 400.499 460.826 400.634 461.006C400.998 461.495 401.291 462.038 401.496 462.612ZM397.315 471.93C396.942 472.883 396.328 473.722 395.533 474.365C394.738 475.008 393.789 475.433 392.78 475.599C389.64 473.83 389.352 470.008 393.361 465.61C393.731 465.192 394.171 464.825 394.623 464.484C397.232 465.883 398.448 469.08 397.315 471.93ZM427.206 470.681C427.054 470.778 426.909 470.857 426.718 470.939C426.457 470.858 426.176 470.769 425.902 470.66C421.119 468.757 418.779 463.328 420.681 458.545C421.38 456.785 422.601 455.281 424.18 454.237L425.163 457.907C425.163 457.907 430.116 468.763 427.206 470.681Z" fill="#51392A"/>
<path d="M398.375 290.851C398.375 290.851 372.131 327.193 378.976 364.222C384.959 396.592 399.852 439.435 403.507 449.708C403.734 450.348 404.181 450.887 404.767 451.23C405.353 451.573 406.041 451.698 406.71 451.583L422.834 448.818C423.55 448.696 424.193 448.308 424.635 447.732C425.077 447.156 425.285 446.434 425.218 445.711C423.882 431.313 418.033 362.476 426.306 341.978C435.563 319.044 444.874 306.901 439.811 288.872L398.375 290.851Z" fill="#FFBA90"/>
<path d="M418.936 449.843C418.865 449.843 418.797 449.822 418.739 449.782C418.681 449.742 418.637 449.686 418.612 449.62C394.702 386.633 416.109 305.327 420.641 289.667C421.102 288.083 421.375 287.236 421.375 287.236C421.404 287.149 421.466 287.077 421.548 287.035C421.629 286.993 421.724 286.985 421.812 287.012C421.899 287.041 421.971 287.103 422.013 287.185C422.055 287.266 422.063 287.361 422.035 287.449C422.033 287.452 421.761 288.291 421.307 289.859C416.784 305.482 395.428 386.593 419.258 449.374C419.279 449.426 419.286 449.483 419.279 449.539C419.272 449.594 419.252 449.647 419.221 449.694C419.189 449.74 419.146 449.778 419.097 449.804C419.047 449.83 418.992 449.843 418.936 449.843ZM421.564 147.39L420.563 159.926C420.442 161.434 426.688 161.535 426.809 160.026L427.877 147.244L421.563 147.39H421.564Z" fill="#51392A"/>
<path d="M383.564 132.857C383.733 133.277 389.053 139.678 396.192 139.644C397.222 139.639 396.296 137.269 396.108 135.526C394.784 135.505 393.566 135.505 392.515 135.567C389.007 135.757 385.225 134.223 383.564 132.857Z" fill="#5F4434"/>
<path d="M395.835 140.905C397.789 146.556 395.632 159.755 398.774 162.468C402.013 165.265 407.621 163.594 407.621 163.594V168.722C414.136 171.374 420.248 170.037 425.964 164.793C423.673 158.447 428.674 150.128 428.148 142.375C428.023 140.463 427.58 138.593 426.594 136.787C426.594 136.787 424.618 134.854 421.719 132.437H395.351C394.889 135.547 395.099 138.741 395.834 140.905H395.835Z" fill="#FFCEB0"/>
<path d="M416.971 145.37C418.44 145.919 423.862 136.504 428.149 142.375C428.023 140.463 427.581 138.593 426.594 136.787C426.594 136.787 424.618 134.854 421.719 132.437H417.202L417.139 132.459C415.851 135.623 415.025 144.645 416.971 145.371V145.37Z" fill="#5F4434"/>
<path d="M427.645 137.977C427.615 138.047 427.57 138.11 427.514 138.161C427.458 138.213 427.391 138.252 427.319 138.277C427.247 138.301 427.17 138.311 427.094 138.304C427.018 138.297 426.945 138.274 426.878 138.237C425.67 137.58 422.408 135.976 418.871 135.688C409.913 134.955 392.959 128.43 392.959 128.43C392.959 128.43 395.108 113.406 415.079 116.299C432.262 118.789 429.488 133.851 427.645 137.977Z" fill="#EB925C"/>
<path d="M427.646 137.981C427.615 138.052 427.57 138.116 427.512 138.168C427.455 138.22 427.388 138.259 427.314 138.283C427.241 138.307 427.163 138.315 427.086 138.306C427.009 138.298 426.935 138.273 426.869 138.234C425.671 137.583 422.415 135.986 418.864 135.691C417.914 135.598 416.968 135.472 416.027 135.313C417.582 131.195 419.137 120.46 409.283 115.942C411.027 115.879 412.96 115.984 415.082 116.299C432.268 118.779 429.495 133.843 427.646 137.981ZM411.278 133.876C411.278 133.876 411.969 135.37 408.829 135.708C405.689 136.048 397.223 135.317 392.513 135.571C387.804 135.826 382.577 132.963 382.728 131.596C382.944 129.655 393.212 128.51 393.212 128.51L411.278 133.876Z" fill="#FF6000"/>
<path d="M407.621 163.595C407.621 163.595 415.521 161.655 417.836 158.894C420.15 156.134 420.297 164.713 407.621 166.584V163.595ZM407.802 143.098C407.245 143.131 406.709 143.357 406.188 143.592C405.666 143.828 405.141 144.08 404.588 144.168C404.349 144.206 404.094 144.21 403.883 144.068C403.54 143.837 403.423 143.26 403.564 142.814C403.704 142.368 404.046 142.054 404.416 141.893C404.785 141.732 405.182 141.703 405.573 141.675L407.633 141.53C408.02 141.502 408.414 141.476 408.79 141.596C409.165 141.714 409.525 142.005 409.669 142.443C409.784 142.793 409.662 143.795 409.208 143.581C408.983 143.475 408.806 143.277 408.562 143.195C408.317 143.113 408.059 143.08 407.802 143.097V143.098Z" fill="#5F4434"/>
<path d="M405.738 148.195C406.319 148.195 406.79 147.621 406.79 146.913C406.79 146.205 406.319 145.631 405.738 145.631C405.157 145.631 404.686 146.205 404.686 146.913C404.686 147.621 405.157 148.195 405.738 148.195Z" fill="#5F4434"/>
<path d="M399.562 144.44C399.127 144.473 398.71 144.698 398.301 144.935C397.894 145.17 397.483 145.421 397.051 145.51C396.866 145.548 396.666 145.552 396.501 145.41C396.234 145.179 396.142 144.602 396.251 144.157C396.361 143.711 396.63 143.395 396.917 143.234C397.206 143.074 397.516 143.045 397.821 143.017C398.358 142.969 398.895 142.92 399.43 142.872C399.733 142.844 400.041 142.818 400.334 142.937C400.628 143.056 400.908 143.346 401.021 143.785C401.111 144.136 401.015 145.136 400.661 144.922C400.485 144.817 400.347 144.619 400.156 144.536C399.969 144.456 399.765 144.423 399.562 144.44Z" fill="#5F4434"/>
<path d="M399.15 149.177C399.731 149.177 400.202 148.603 400.202 147.895C400.202 147.187 399.731 146.613 399.15 146.613C398.569 146.613 398.098 147.187 398.098 147.895C398.098 148.603 398.569 149.177 399.15 149.177Z" fill="#5F4434"/>
<path d="M402.248 151.973C401.913 151.973 401.528 151.946 401.195 151.721C400.807 151.465 400.527 150.85 400.729 150.346C400.87 149.996 401.173 149.83 401.441 149.683C401.695 149.543 401.915 149.423 401.997 149.171C402.087 148.895 401.972 148.569 401.861 148.254L401.824 148.146C401.507 147.211 401.437 146.21 401.622 145.24C401.631 145.196 401.658 145.156 401.696 145.131C401.733 145.105 401.78 145.095 401.825 145.103C401.919 145.122 401.981 145.212 401.963 145.306C401.789 146.216 401.853 147.155 402.151 148.032L402.189 148.139C402.312 148.492 402.452 148.891 402.326 149.279C402.2 149.66 401.886 149.834 401.607 149.986C401.36 150.123 401.146 150.239 401.051 150.476C400.912 150.818 401.116 151.255 401.386 151.434C401.666 151.621 402.006 151.629 402.408 151.626H402.411C402.454 151.629 402.495 151.648 402.525 151.68C402.555 151.711 402.572 151.753 402.572 151.797C402.573 151.841 402.557 151.883 402.527 151.915C402.498 151.948 402.457 151.968 402.413 151.971C402.36 151.973 402.304 151.973 402.248 151.973ZM401.792 155.07C401.354 155.07 400.88 154.918 400.426 154.478C400.409 154.463 400.395 154.444 400.384 154.423C400.374 154.401 400.369 154.378 400.368 154.355C400.367 154.332 400.371 154.308 400.379 154.286C400.387 154.265 400.4 154.245 400.416 154.228C400.433 154.211 400.452 154.198 400.474 154.188C400.495 154.179 400.518 154.175 400.542 154.175C400.565 154.175 400.588 154.18 400.61 154.189C400.631 154.198 400.651 154.212 400.667 154.229C401.902 155.428 403.3 154.097 403.358 154.04C403.391 154.008 403.436 153.991 403.481 153.992C403.527 153.992 403.571 154.011 403.603 154.043C403.619 154.06 403.632 154.079 403.64 154.1C403.648 154.121 403.653 154.144 403.652 154.167C403.652 154.19 403.647 154.212 403.638 154.233C403.629 154.254 403.616 154.273 403.6 154.289C403.588 154.299 402.778 155.07 401.792 155.07Z" fill="#51392A"/>
<path d="M432.438 295.386C432.438 295.386 414.694 336.551 429.402 371.218C442.258 401.521 466.083 440.117 471.879 449.355C472.24 449.93 472.792 450.36 473.438 450.568C474.084 450.775 474.783 450.748 475.412 450.491L490.553 444.297C491.225 444.023 491.769 443.505 492.076 442.846C492.382 442.188 492.429 441.438 492.207 440.747C487.781 426.981 467.153 361.047 470.786 339.244C474.852 314.848 481.31 300.976 472.461 284.473L432.438 295.386Z" fill="#FCAB7A"/>
<path d="M423.924 332.029C423.915 332.029 423.905 332.029 423.896 332.027C423.851 332.024 423.806 332.011 423.766 331.991C423.725 331.97 423.689 331.942 423.66 331.907C423.63 331.872 423.608 331.832 423.594 331.789C423.58 331.745 423.575 331.7 423.579 331.654C425.217 311.455 432.052 295.409 432.121 295.249C432.157 295.165 432.225 295.099 432.31 295.065C432.396 295.031 432.491 295.032 432.575 295.068C432.659 295.105 432.726 295.173 432.76 295.258C432.793 295.343 432.792 295.439 432.756 295.523C432.69 295.683 425.897 311.629 424.269 331.711C424.262 331.798 424.223 331.878 424.159 331.937C424.095 331.996 424.011 332.029 423.924 332.029ZM486.892 446.15C486.835 446.15 486.778 446.135 486.728 446.108C486.678 446.081 486.635 446.042 486.603 445.995C449.612 389.689 452.887 305.674 453.919 289.404C454.024 287.756 454.108 286.871 454.108 286.871C454.125 286.682 454.297 286.532 454.485 286.559C454.676 286.578 454.815 286.746 454.797 286.938C454.797 286.94 454.714 287.818 454.608 289.446C453.579 305.68 450.313 389.493 487.182 445.613C487.216 445.665 487.236 445.726 487.238 445.788C487.241 445.851 487.227 445.913 487.197 445.968C487.167 446.023 487.123 446.069 487.07 446.101C487.016 446.133 486.954 446.15 486.892 446.15Z" fill="#51392A"/>
<path d="M453.784 315.344C453.722 315.344 453.661 315.327 453.607 315.295C453.554 315.263 453.51 315.217 453.48 315.162L443.341 296.545C443.319 296.505 443.305 296.462 443.3 296.416C443.296 296.371 443.3 296.326 443.313 296.282C443.326 296.238 443.347 296.198 443.376 296.163C443.404 296.127 443.439 296.098 443.479 296.076C443.519 296.054 443.563 296.041 443.608 296.036C443.653 296.031 443.699 296.035 443.743 296.048C443.786 296.061 443.827 296.083 443.862 296.111C443.897 296.14 443.927 296.175 443.948 296.215L454.089 314.832C454.118 314.885 454.132 314.944 454.131 315.004C454.129 315.064 454.113 315.123 454.082 315.174C454.051 315.226 454.008 315.268 453.955 315.298C453.903 315.328 453.844 315.344 453.784 315.344Z" fill="#51392A"/>
<path d="M409.275 288.414C409.275 288.414 400.107 294.868 392.587 293.095C390.76 292.666 389.028 291.766 387.547 290.159C379.986 281.961 384.306 204.784 385.871 191.171C386.827 182.82 394.318 177.876 399.955 175.3C403.514 173.666 406.339 172.987 406.339 172.987L409.274 288.414H409.275Z" fill="#EB925C"/>
<path d="M394.761 189.523C388.419 201.058 386.937 215.17 390.773 227.759C392.643 233.921 395.717 239.737 396.838 246.065C397.864 251.882 397.185 257.837 396.52 263.695C395.649 271.187 394.789 278.679 393.93 286.171C393.654 288.511 393.377 290.878 392.587 293.095C390.76 292.666 389.028 291.766 387.547 290.159C379.986 281.961 384.306 204.784 385.871 191.171C386.827 182.82 394.318 177.876 399.955 175.3C400.218 176.948 399.997 178.929 399.124 181.269C398.045 184.191 396.271 186.794 394.761 189.523Z" fill="#FF6000"/>
<path d="M425.657 163.328C421.208 165.119 419.197 168.323 406.985 167.743C406.134 167.702 405.311 168.131 404.943 168.9C404.34 170.154 403.811 172.323 405.037 175.219C405.037 175.219 395.132 285.177 398.187 291.157C401.243 297.137 434.488 293.309 434.488 293.309C434.488 293.309 428.244 167.392 428.458 167.392C428.672 167.392 428.186 162.31 425.657 163.328Z" fill="#5F4434"/>
<path d="M477.381 290.589C467.175 296.626 452.648 298.537 442.608 299.105C435.864 299.479 431.155 299.256 431.155 299.256C431.155 299.256 416.698 260.08 417.736 232.646C418.761 205.227 415.659 180.424 424.758 171.326L426.793 167.877C427.541 166.618 429.091 166.05 430.463 166.618C431.806 167.158 433.19 168.114 433.136 169.65C433.08 171.077 436.846 171.477 440.863 172.102C445.322 172.793 450.086 173.764 450.252 176.712C450.557 182.307 492.185 281.837 477.381 290.589Z" fill="#EB925C"/>
<path d="M440.863 172.101C445.322 172.794 450.086 173.764 450.252 176.713C450.557 182.308 492.185 281.836 477.381 290.588C467.175 296.626 452.648 298.537 442.608 299.105C442.497 298.249 442.414 297.39 442.359 296.529C441.833 289.203 442.58 281.85 442.815 274.51C443.324 258.301 441.325 242.11 436.889 226.512C434.589 218.465 431.626 210.517 431.058 202.166C430.601 195.45 431.903 188.664 434.575 182.488L440.863 172.101Z" fill="#FF6000"/>
<path d="M371.476 204.423V273.539C371.477 275.549 372.275 277.477 373.697 278.898C375.118 280.319 377.045 281.117 379.055 281.117H425.806C427.817 281.117 429.744 280.319 431.166 278.898C432.587 277.476 433.385 275.548 433.385 273.538V204.423C433.385 202.413 432.587 200.485 431.166 199.064C429.744 197.643 427.817 196.844 425.806 196.844H379.055C377.045 196.844 375.118 197.643 373.696 199.064C372.275 200.485 371.476 202.413 371.476 204.423Z" fill="#FCAB7A"/>
<path d="M318.33 204.423V273.546C318.331 275.554 319.13 277.479 320.55 278.899C321.969 280.319 323.895 281.117 325.903 281.117H379.049C377.041 281.117 375.115 280.319 373.695 278.899C372.275 277.48 371.476 275.554 371.475 273.546V204.422C371.476 202.414 372.274 200.488 373.694 199.068C375.115 197.648 377.04 196.85 379.049 196.85H325.903C323.894 196.85 321.968 197.648 320.548 199.069C319.128 200.489 318.33 202.415 318.33 204.423H318.33ZM398.614 196.85V216.481C398.614 217.246 398.918 217.979 399.459 218.52C399.999 219.06 400.732 219.364 401.497 219.364H410.008C410.772 219.364 411.505 219.06 412.046 218.52C412.587 217.979 412.89 217.246 412.89 216.481V196.85H398.614Z" fill="#FFBA90"/>
<path d="M324.691 205.64V217.4C324.691 218.485 325.571 219.364 326.655 219.364H360.95C362.035 219.364 362.915 218.485 362.915 217.4V205.64C362.915 204.555 362.034 203.675 360.95 203.675H326.654C325.57 203.675 324.69 204.556 324.69 205.64H324.691ZM324.267 263.065V274.596C324.267 275.655 325.126 276.514 326.185 276.514H336.019C337.078 276.514 337.937 275.655 337.937 274.596V263.065C337.937 262.006 337.078 261.147 336.019 261.147H326.185C325.676 261.147 325.188 261.35 324.829 261.709C324.469 262.069 324.267 262.557 324.267 263.065ZM339.634 263.065V274.596C339.634 275.655 340.493 276.514 341.552 276.514H351.386C352.446 276.514 353.304 275.655 353.304 274.596V263.065C353.304 262.006 352.445 261.147 351.386 261.147H341.552C340.493 261.147 339.634 262.006 339.634 263.065Z" fill="#FCAB7A"/>
<path d="M410.626 272.845C410.626 272.845 401.564 271.055 398.851 268.614C396.138 266.172 391.959 268.776 399.122 275.613C399.122 275.613 391.416 274.42 388.595 271C385.774 267.583 382.572 275.342 394.835 280.768C394.835 280.768 387.871 279.843 385.605 277.322C383.34 274.801 381.071 283.419 394.229 284.187C394.229 284.187 391.015 286.557 387.445 285.319C383.876 284.08 386.287 291.496 398.587 289.95C410.887 288.403 412.507 287.702 412.507 287.702L410.626 272.845Z" fill="#FFCEB0"/>
<path d="M395.359 290.335C389.593 290.335 386.758 288.12 386.018 286.753C385.702 286.164 385.68 285.639 385.96 285.308C386.131 285.109 386.552 284.826 387.501 285.154C390.187 286.086 392.707 284.897 393.69 284.324C387.109 283.816 384.244 281.216 383.764 278.909C383.563 277.943 383.821 277.069 384.389 276.782C384.812 276.571 385.3 276.723 385.734 277.206C387.356 279.012 391.52 279.995 393.614 280.388C387.731 277.482 385.724 273.966 385.829 271.744C385.87 270.874 386.245 270.24 386.831 270.045C387.426 269.846 388.12 270.153 388.728 270.891C391.041 273.693 396.788 274.993 398.596 275.343C394.802 271.582 394.456 269.13 395.434 268.075C396.217 267.228 397.768 267.406 398.968 268.485C401.612 270.868 410.569 272.658 410.66 272.676C410.695 272.683 410.728 272.701 410.753 272.728C410.778 272.755 410.793 272.789 410.798 272.825L412.678 287.681C412.683 287.718 412.675 287.755 412.657 287.788C412.638 287.82 412.609 287.846 412.575 287.861C412.508 287.89 410.792 288.589 398.609 290.121C397.531 290.26 396.446 290.332 395.359 290.335ZM386.721 285.35C386.498 285.35 386.327 285.412 386.223 285.532C386.044 285.744 386.081 286.139 386.324 286.587C387.151 288.119 390.783 290.762 398.565 289.778C409.107 288.452 411.77 287.757 412.316 287.584L410.47 272.991C409.332 272.759 401.312 271.062 398.735 268.742C397.681 267.794 396.343 267.603 395.687 268.31C394.829 269.237 395.244 271.673 399.242 275.488C399.269 275.513 399.287 275.546 399.293 275.583C399.3 275.619 399.294 275.657 399.278 275.69C399.246 275.757 399.183 275.809 399.095 275.784C398.779 275.735 391.293 274.541 388.46 271.109C387.949 270.49 387.395 270.218 386.939 270.374C386.503 270.52 386.209 271.051 386.175 271.761C386.068 274.014 388.29 277.682 394.906 280.61C394.944 280.627 394.975 280.657 394.992 280.695C395.01 280.733 395.013 280.775 395.002 280.815C394.98 280.897 394.917 280.964 394.813 280.94C394.526 280.903 387.757 279.978 385.478 277.439C385.15 277.075 384.821 276.956 384.544 277.09C384.183 277.274 383.916 277.933 384.103 278.839C384.57 281.08 387.476 283.619 394.238 284.014C394.274 284.016 394.308 284.029 394.336 284.052C394.364 284.074 394.385 284.104 394.395 284.138C394.405 284.172 394.404 284.209 394.393 284.242C394.382 284.276 394.36 284.305 394.332 284.327C394.299 284.349 390.999 286.732 387.388 285.482C387.174 285.401 386.949 285.357 386.721 285.35Z" fill="#51392A"/>
<path d="M413.362 270.411C413.362 270.411 410.286 271.472 409.836 272.383C408.261 275.578 410.23 286.783 413.031 289.059C414.974 290.637 422.267 286.957 422.267 286.957L413.362 270.411Z" fill="#775744"/>
<path d="M414.491 289.621C413.843 289.621 413.295 289.496 412.922 289.193C409.933 286.765 408.126 275.46 409.681 272.305C410.149 271.358 412.985 270.358 413.307 270.247C413.345 270.233 413.388 270.233 413.427 270.248C413.465 270.263 413.497 270.292 413.516 270.328L422.42 286.876C422.442 286.918 422.446 286.965 422.433 287.009C422.419 287.054 422.386 287.092 422.345 287.113C422.099 287.237 417.336 289.621 414.491 289.621ZM413.281 270.623C412.358 270.954 410.316 271.8 409.991 272.459C408.391 275.708 410.51 286.788 413.142 288.925C414.818 290.287 420.959 287.403 422.029 286.883L413.281 270.623Z" fill="#51392A"/>
<path d="M448.518 175.449C439.796 178.525 438.646 182.997 440.462 208.022C442.277 233.048 441.841 258.104 414.925 267.608C409.994 269.58 417.28 291.798 422.21 289.826C422.21 289.826 467.258 274.916 474.731 232.541C482.353 189.312 457.388 172.321 448.518 175.449Z" fill="#EB925C"/>
<path d="M421.577 290.123C420.688 290.123 419.707 289.499 418.704 288.281C417.598 286.937 416.498 284.94 415.523 282.503C412.983 276.151 412.008 268.589 414.86 267.448C441.62 257.998 442.096 232.916 440.29 208.035C438.472 182.994 439.618 178.404 448.46 175.286C448.568 175.248 448.677 175.212 448.791 175.18C448.833 175.171 448.878 175.179 448.915 175.201C448.953 175.224 448.98 175.26 448.992 175.302C449.004 175.344 449 175.389 448.98 175.428C448.96 175.467 448.926 175.497 448.885 175.512C448.781 175.542 448.678 175.576 448.576 175.612C439.947 178.654 438.835 183.197 440.635 208.01C442.451 233.024 441.965 258.243 414.983 267.772C413.788 268.249 413.266 270.165 413.521 273.163C413.752 275.901 414.6 279.259 415.845 282.375C416.793 284.744 417.904 286.763 418.971 288.06C419.785 289.048 421.004 290.126 422.146 289.664C422.256 289.628 432.218 286.282 443.392 278.495C453.697 271.314 467.168 258.777 472.827 239.834C472.856 239.744 472.947 239.695 473.044 239.718C473.134 239.746 473.187 239.843 473.161 239.936C467.469 258.976 453.935 271.571 443.581 278.787C432.369 286.599 422.364 289.957 422.265 289.99C422.043 290.079 421.813 290.123 421.577 290.123Z" fill="#51392A"/>
<path d="M406.705 123.924C406.705 125.479 405.444 126.761 403.889 126.761C403.137 126.76 402.416 126.461 401.884 125.929C401.353 125.398 401.054 124.676 401.053 123.924C401.054 123.553 401.128 123.186 401.271 122.843C401.414 122.5 401.623 122.189 401.887 121.928C402.15 121.666 402.463 121.459 402.806 121.319C403.15 121.178 403.518 121.107 403.889 121.109C404.636 121.109 405.352 121.406 405.88 121.934C406.408 122.462 406.705 123.178 406.705 123.924Z" fill="#FF6000"/>
<path d="M241.238 190.625C241.238 190.625 245.638 193.516 248.113 197.406C255.902 209.644 257.677 239.031 260.024 229.715C264.44 212.193 268.648 202.1 273.589 198.608C277.424 195.895 287.556 201.081 289.001 205.551C292.32 215.818 276.768 256.072 263.216 258.669C250.79 261.051 242.827 244.243 242.827 244.243L241.238 190.625Z" fill="#5F4434"/>
<path d="M276.361 198.674C276.361 198.674 268.598 181.413 273.023 179.408C276.549 177.81 279.73 184.027 279.73 184.027C279.73 184.027 281.782 169.297 285.434 168.395C289.086 167.493 286.335 178.764 286.335 178.764C286.335 178.764 291.803 168.909 294.054 169.681C297.738 170.946 291.385 181.067 291.385 181.067C291.385 181.067 298.216 174.625 300.041 177.259C301.252 179.005 295.397 185.887 295.397 185.887C295.397 185.887 300.492 184.851 302.115 185.121C303.739 185.391 304.819 187.885 296.569 192.019C296.569 192.019 296.102 203.11 287.499 203.606C284.617 204.312 277.576 200.335 276.361 198.674Z" fill="#FFCEB0"/>
<path d="M221.65 443.532C221.65 443.532 220.722 451.188 222.119 452.217C225.164 454.461 236.283 453.078 238.686 450.15C239.739 448.869 238.974 444.893 237.822 444.3C236.67 443.706 221.649 443.533 221.649 443.533L221.65 443.532ZM257.632 466.912C257.907 469.497 256.054 471.617 252.573 472.514C247.72 473.768 238.294 471.809 235.088 471.062C234.375 470.892 233.633 470.878 232.914 471.023C230.239 471.522 223.377 472.639 220.468 471.299C218.683 470.488 218.897 466.58 219.434 463.226C219.172 465.95 219.314 468.562 220.734 469.215C223.643 470.556 230.517 469.457 233.162 468.95C233.891 468.812 234.642 468.828 235.365 468.998C238.57 469.745 247.996 471.702 252.849 470.448C255.343 469.807 257.002 468.541 257.632 466.912Z" fill="#51392A"/>
<path d="M256.052 468.941C255.219 469.599 254.159 470.1 252.85 470.442C247.994 471.694 238.57 469.732 235.359 468.99C234.639 468.825 233.892 468.814 233.167 468.96C230.654 469.424 224.378 470.439 221.259 469.428C221.077 469.382 220.9 469.317 220.73 469.236C217.51 467.755 220.829 456.096 220.829 456.096L221.267 452.261L221.45 450.964C221.766 451.61 238.664 449.91 239.177 448.509C239.177 448.509 240.499 451.517 241.694 453.338C242.039 453.873 242.378 454.311 242.669 454.535C242.893 454.707 243.152 454.862 243.432 455.007C243.815 455.215 244.264 455.389 244.738 455.552C245.063 455.675 245.407 455.775 245.762 455.868C246.207 456.004 246.669 456.115 247.135 456.239C248.933 456.699 250.865 457.178 252.516 458.061C253.01 458.326 253.51 458.632 253.952 458.992C258.644 462.806 258.941 466.679 256.052 468.941Z" fill="#775744"/>
<path d="M242.669 454.535C242.663 454.551 242.669 454.564 242.658 454.569C242.415 455.024 242.106 455.427 241.73 455.779C241.563 455.93 241.336 456.068 241.139 455.981C240.908 455.863 240.893 455.547 240.96 455.296C241.074 454.693 241.29 454.096 241.573 453.552C241.613 453.489 241.649 453.416 241.694 453.338C242.039 453.873 242.378 454.311 242.669 454.535ZM244.738 455.552C244.737 455.581 244.725 455.615 244.707 455.637C244.47 456.089 244.154 456.494 243.774 456.835C243.608 456.986 243.386 457.136 243.184 457.037C243.077 456.991 242.999 456.86 242.984 456.742C242.951 456.617 242.975 456.493 242.999 456.369C243.089 455.89 243.236 455.439 243.432 455.007C243.815 455.215 244.264 455.389 244.738 455.552ZM247.135 456.239C247.113 456.335 247.066 456.414 247.02 456.492C246.787 456.949 246.473 457.359 246.092 457.702C245.938 457.848 245.704 458.003 245.502 457.905C245.252 457.776 245.273 457.478 245.323 457.219C245.408 456.757 245.565 456.301 245.762 455.868C246.207 456.004 246.669 456.115 247.135 456.239Z" fill="#51392A"/>
<path d="M250.94 465.947C251.459 466.846 252.203 467.595 253.1 468.121C253.996 468.646 255.013 468.929 256.052 468.942C258.939 466.687 258.646 462.804 253.95 458.996C253.514 458.633 253.017 458.33 252.511 458.057C250.103 459.859 249.368 463.255 250.94 465.947ZM220.727 469.238C220.895 469.314 221.051 469.37 221.255 469.424C221.506 469.301 221.774 469.17 222.033 469.018C226.548 466.38 228.072 460.57 225.434 456.056C224.465 454.395 223.009 453.071 221.264 452.262L220.835 456.096C220.835 456.096 217.512 467.755 220.727 469.238Z" fill="#5F4434"/>
<path d="M178.704 443.532C178.704 443.532 177.776 451.188 179.173 452.217C182.218 454.461 193.337 453.078 195.741 450.15C196.793 448.869 196.029 444.893 194.877 444.3C193.725 443.706 178.704 443.533 178.704 443.533V443.532ZM214.687 466.912C214.96 469.497 213.108 471.617 209.628 472.514C204.774 473.768 195.348 471.809 192.143 471.062C191.429 470.892 190.687 470.878 189.968 471.023C187.294 471.522 180.431 472.639 177.522 471.299C175.738 470.488 175.952 466.58 176.489 463.226C176.226 465.95 176.368 468.562 177.788 469.215C180.697 470.556 187.571 469.457 190.216 468.95C190.946 468.812 191.696 468.828 192.419 468.998C195.624 469.745 205.05 471.702 209.904 470.448C212.398 469.807 214.056 468.541 214.687 466.912Z" fill="#51392A"/>
<path d="M213.107 468.941C212.273 469.599 211.213 470.1 209.904 470.442C205.049 471.694 195.624 469.732 192.413 468.99C191.693 468.825 190.946 468.814 190.222 468.96C187.708 469.424 181.432 470.439 178.314 469.428C178.131 469.382 177.954 469.317 177.785 469.236C174.564 467.755 177.884 456.096 177.884 456.096L178.321 452.261L178.505 450.964C178.82 451.61 195.718 449.91 196.231 448.509C196.231 448.509 197.554 451.517 198.748 453.338C199.093 453.873 199.433 454.311 199.724 454.535C199.948 454.707 200.206 454.862 200.487 455.007C200.869 455.215 201.319 455.389 201.792 455.552C202.118 455.675 202.461 455.775 202.816 455.868C203.261 456.004 203.722 456.115 204.19 456.239C205.988 456.699 207.92 457.178 209.571 458.061C210.065 458.326 210.565 458.632 211.007 458.992C215.699 462.806 215.996 466.679 213.107 468.941Z" fill="#775744"/>
<path d="M199.724 454.535C199.718 454.551 199.724 454.564 199.712 454.569C199.47 455.024 199.16 455.427 198.783 455.779C198.618 455.93 198.391 456.068 198.194 455.981C197.963 455.863 197.948 455.547 198.015 455.296C198.128 454.693 198.344 454.096 198.627 453.552C198.667 453.489 198.703 453.416 198.747 453.338C199.093 453.873 199.433 454.311 199.724 454.535ZM201.792 455.552C201.791 455.581 201.78 455.615 201.762 455.637C201.52 456.092 201.211 456.495 200.828 456.835C200.663 456.986 200.44 457.136 200.239 457.037C200.008 456.937 200.006 456.618 200.054 456.369C200.144 455.89 200.291 455.439 200.487 455.007C200.869 455.215 201.319 455.389 201.792 455.552ZM204.19 456.239C204.167 456.335 204.121 456.414 204.074 456.492C203.842 456.949 203.527 457.359 203.147 457.702C202.992 457.848 202.759 458.003 202.557 457.905C202.306 457.776 202.328 457.478 202.377 457.219C202.462 456.757 202.619 456.301 202.816 455.868C203.261 456.004 203.722 456.115 204.19 456.239Z" fill="#51392A"/>
<path d="M207.995 465.947C208.514 466.846 209.258 467.595 210.154 468.121C211.05 468.646 212.068 468.929 213.107 468.942C215.992 466.687 215.7 462.804 211.004 458.996C210.569 458.633 210.072 458.33 209.565 458.057C207.158 459.859 206.422 463.255 207.995 465.947ZM177.782 469.238C177.949 469.314 178.105 469.37 178.31 469.424C178.561 469.301 178.829 469.17 179.087 469.018C183.603 466.38 185.127 460.57 182.489 456.056C181.519 454.395 180.064 453.071 178.318 452.262L177.89 456.096C177.89 456.096 174.567 467.755 177.782 469.238Z" fill="#5F4434"/>
<path d="M248.235 366.777C247.847 386.898 241.394 447 241.394 447C241.394 447.817 235.55 448.205 229.996 448.177C224.901 448.135 220.054 447.748 220.054 447V366.776C220.054 366.776 201.663 308.862 202.37 283.893H244.33C244.33 283.893 248.624 346.031 248.235 366.776V366.777Z" fill="#D39671"/>
<path d="M229.207 443.15C229.734 444.756 230.052 446.488 229.997 448.177C224.901 448.135 220.054 447.748 220.054 447V366.776C220.054 366.776 201.663 308.862 202.37 283.893H211.496C211.689 284.101 211.884 284.323 212.064 284.544C215.983 289.377 217.533 295.665 218.974 301.717C221.743 313.432 224.527 325.147 227.297 336.864C229 344.023 230.703 351.238 231.216 358.577C231.867 367.635 230.689 376.705 229.526 385.72C228.196 395.941 226.881 406.175 225.551 416.408C224.775 422.405 224.015 428.636 225.773 434.425C226.687 437.417 228.252 440.172 229.207 443.15Z" fill="#C78964"/>
<path d="M230.572 448.373C230.521 448.373 230.47 448.362 230.424 448.341C230.378 448.319 230.337 448.288 230.305 448.249C230.272 448.21 230.249 448.164 230.236 448.114C230.223 448.065 230.221 448.014 230.231 447.964C241.818 385.812 229.578 288.208 229.453 287.229C229.441 287.138 229.466 287.046 229.523 286.973C229.579 286.901 229.662 286.854 229.753 286.842C229.844 286.832 229.935 286.857 230.008 286.913C230.08 286.969 230.128 287.051 230.141 287.142C230.265 288.121 242.517 385.834 230.911 448.09C230.896 448.17 230.854 448.241 230.792 448.292C230.73 448.344 230.652 448.372 230.572 448.373Z" fill="#51392A"/>
<path d="M172.959 283.895C172.959 283.895 167.656 309.892 181.409 372.484L176.682 446.993C176.682 448.57 199.104 448.57 199.104 446.993L212.506 372.484C212.506 372.484 223.282 323.509 210.024 283.895H172.959Z" fill="#D39671"/>
<path d="M194.409 315.498C194.229 315.498 194.047 315.495 193.863 315.489C193.771 315.486 193.684 315.447 193.621 315.38C193.558 315.313 193.524 315.224 193.527 315.132C193.534 314.942 193.664 314.791 193.884 314.797C197.7 314.901 200.534 313.752 202.31 311.333C207.589 304.151 202.132 288.166 202.075 288.005C202.052 287.92 202.061 287.83 202.103 287.751C202.144 287.673 202.213 287.614 202.296 287.585C202.38 287.556 202.471 287.56 202.551 287.596C202.632 287.632 202.696 287.697 202.73 287.778C202.963 288.447 208.361 304.271 202.868 311.743C201.036 314.236 198.192 315.498 194.409 315.498Z" fill="#51392A"/>
<path d="M187.128 448.351C187.074 448.351 187.022 448.339 186.973 448.315C186.925 448.291 186.884 448.256 186.851 448.214C186.819 448.171 186.797 448.121 186.787 448.068C186.777 448.016 186.78 447.961 186.795 447.91C200.363 400.082 191.844 286.526 191.756 285.384C191.753 285.339 191.758 285.293 191.773 285.25C191.787 285.207 191.809 285.166 191.839 285.132C191.868 285.097 191.905 285.069 191.945 285.048C191.986 285.028 192.03 285.015 192.075 285.012C192.238 284.977 192.432 285.139 192.447 285.33C192.535 286.473 201.063 400.154 187.461 448.1C187.441 448.172 187.397 448.236 187.337 448.282C187.277 448.327 187.203 448.352 187.128 448.352V448.351Z" fill="#51392A"/>
<path d="M191.215 159.79C194.007 152.584 187.514 139.379 188.357 127.59C189.199 115.801 204.511 119.164 204.511 119.164C204.511 119.164 226.199 101.171 236.181 128.043C246.163 154.913 226.351 162.132 226.351 162.132C218.002 163.763 189.483 164.266 191.216 159.79H191.215Z" fill="#5F4434"/>
<path d="M221.822 128.155C221.822 128.155 196.704 124.692 202.228 156.259C202.228 156.259 203.27 172.172 200.454 178.405H219.812L219.454 167.959C219.454 167.959 231.058 171.495 233.98 149.47C236.43 130.995 221.822 128.155 221.822 128.155Z" fill="#FFCEB0"/>
<path d="M195.532 148.135C195.532 151.439 198.211 154.118 201.515 154.118C204.828 154.118 207.507 151.439 207.507 148.135C207.507 144.822 204.828 142.142 201.515 142.142C198.211 142.142 195.532 144.821 195.532 148.135Z" fill="#FFCEB0"/>
<path d="M234.755 135.454C234.755 135.454 227.007 137.433 217.452 129.6C217.452 129.6 212.262 143.88 201.943 142.163L196.458 131.355L220.911 120.847L234.755 135.454Z" fill="#5F4434"/>
<path d="M244.33 283.893C244.33 284.877 241.949 285.666 238.043 286.289C220.608 289.045 172.956 288.256 172.956 283.894C172.956 283.894 175.559 269.962 175.393 265.267C174.866 248.843 165.422 214.928 171.626 199.625C177.845 184.337 208.214 181.664 208.214 181.664C208.477 181.651 208.725 181.637 208.989 181.637C220.552 181.263 231.243 184.531 241.241 190.625L242.71 236.768L244.33 283.893Z" fill="#775744"/>
<path d="M238.043 286.289C220.608 289.045 172.956 288.256 172.956 283.894C172.956 283.894 175.559 269.962 175.393 265.267C174.866 248.843 165.422 214.928 171.626 199.625C177.845 184.337 208.214 181.664 208.214 181.664C208.477 181.651 208.725 181.637 208.989 181.637C210.146 183.247 210.965 185.075 211.399 187.01C212.84 193.519 209.806 200.069 207.355 206.273C204.918 212.477 203.09 219.858 206.621 225.509C211.662 233.61 225.067 233.915 228.862 242.681C233.237 252.79 220.704 264.242 224.54 274.56C226.66 280.265 232.767 282.909 238.043 286.289Z" fill="#5F4434"/>
<path d="M243.049 246.921C242.959 246.921 242.874 246.887 242.809 246.825C242.745 246.763 242.707 246.679 242.703 246.59C242.684 246.183 240.891 205.737 240.891 190.624C240.891 190.532 240.928 190.444 240.993 190.379C241.058 190.314 241.146 190.277 241.238 190.277C241.33 190.277 241.418 190.314 241.483 190.379C241.548 190.444 241.584 190.532 241.584 190.624C241.584 205.723 243.376 246.153 243.394 246.56C243.398 246.652 243.365 246.741 243.304 246.809C243.242 246.876 243.155 246.917 243.064 246.921H243.049Z" fill="#51392A"/>
<path d="M219.997 177.159C220.24 177.11 220.491 177.124 220.727 177.199C220.963 177.274 221.175 177.408 221.344 177.589C222.586 178.918 225.25 182.211 223.473 184.348C221.201 187.081 201.219 187.434 196.731 184.501C195.003 183.371 195.76 179.61 199.249 176.804C199.422 176.671 199.623 176.578 199.837 176.533C200.051 176.488 200.273 176.492 200.485 176.545C207.39 178.169 212.726 178.588 219.997 177.159Z" fill="#5F4434"/>
<path d="M210.291 186.868C204.534 186.868 198.677 186.187 196.542 184.79C196.121 184.517 195.811 184.097 195.643 183.579C195.615 183.492 195.623 183.397 195.665 183.315C195.706 183.234 195.779 183.172 195.866 183.143C195.953 183.116 196.047 183.124 196.129 183.166C196.21 183.207 196.272 183.279 196.301 183.366C196.422 183.738 196.63 184.022 196.92 184.211C201.467 187.183 221.188 186.555 223.206 184.128C223.586 183.671 223.753 183.138 223.715 182.501C223.71 182.41 223.741 182.319 223.802 182.251C223.863 182.182 223.949 182.14 224.041 182.135C224.132 182.131 224.221 182.164 224.289 182.224C224.357 182.285 224.399 182.37 224.406 182.461C224.453 183.271 224.23 183.981 223.738 184.571C222.476 186.089 216.44 186.868 210.291 186.868Z" fill="#51392A"/>
<path d="M227.901 265.421C227.901 265.421 244.718 258.104 246.617 262.293C248.128 265.632 242.242 268.642 242.242 268.642C242.242 268.642 256.188 270.585 257.041 274.042C257.895 277.499 247.224 274.895 247.224 274.895C247.224 274.895 256.555 280.071 255.823 282.202C254.625 285.69 245.045 279.676 245.045 279.676C245.045 279.676 251.144 286.141 248.651 287.87C246.997 289.015 240.481 283.475 240.481 283.475C240.481 283.475 241.463 288.297 241.207 289.833C240.952 291.37 238.592 292.393 234.677 284.584C234.677 284.584 224.178 284.141 223.708 275.998L227.902 265.421H227.901Z" fill="#FFCEB0"/>
<path d="M217.86 143.429C218.787 143.849 220.566 144.725 221.404 144.161C221.931 143.807 222.11 142.919 221.894 142.234C221.679 141.548 221.151 141.064 220.584 140.817C219.836 140.489 219.23 140.511 215.637 140.258C215.041 140.216 214.435 140.176 213.857 140.358C213.28 140.542 212.727 140.988 212.505 141.663C212.329 142.203 212.517 143.741 213.215 143.412C213.56 143.25 213.833 142.945 214.208 142.818C215.439 142.402 216.676 142.895 217.86 143.43V143.429Z" fill="#5F4434"/>
<path d="M218.551 150.508C219.444 150.508 220.168 149.625 220.168 148.537C220.168 147.448 219.444 146.566 218.551 146.566C217.658 146.566 216.934 147.448 216.934 148.537C216.934 149.625 217.658 150.508 218.551 150.508Z" fill="#5F4434"/>
<path d="M229.987 145.493C230.614 145.857 231.244 146.243 231.908 146.378C232.194 146.437 232.502 146.443 232.755 146.225C233.167 145.87 233.307 144.982 233.138 144.297C232.969 143.611 232.558 143.127 232.116 142.879C231.554 142.566 231.178 142.586 228.25 142.322C227.786 142.28 227.311 142.24 226.861 142.422C226.41 142.605 225.977 143.052 225.804 143.727C225.666 144.266 225.814 145.805 226.358 145.476C226.928 145.133 227.333 143.958 229.987 145.493Z" fill="#5F4434"/>
<path d="M228.682 152.018C229.575 152.018 230.299 151.135 230.299 150.047C230.299 148.958 229.575 148.076 228.682 148.076C227.789 148.076 227.065 148.958 227.065 150.047C227.065 151.135 227.789 152.018 228.682 152.018Z" fill="#5F4434"/>
<path d="M223.891 156.225L223.667 156.224C223.644 156.224 223.621 156.219 223.6 156.21C223.579 156.201 223.56 156.188 223.544 156.172C223.528 156.156 223.516 156.137 223.507 156.116C223.499 156.095 223.494 156.072 223.494 156.049C223.494 156.027 223.499 156.004 223.508 155.983C223.517 155.962 223.53 155.943 223.546 155.927C223.562 155.911 223.581 155.899 223.602 155.89C223.623 155.881 223.646 155.877 223.668 155.877H223.67C224.204 155.887 224.809 155.89 225.295 155.567C225.739 155.271 226.074 154.546 225.846 153.98C225.688 153.586 225.329 153.389 224.949 153.181C224.516 152.943 224.067 152.696 223.886 152.144C223.7 151.576 223.913 150.976 224.099 150.447L224.155 150.288C224.618 148.924 224.719 147.463 224.449 146.048C224.44 146.003 224.45 145.956 224.476 145.918C224.502 145.88 224.542 145.854 224.587 145.845C224.632 145.838 224.678 145.848 224.715 145.874C224.753 145.9 224.779 145.939 224.788 145.984C225.07 147.458 224.965 148.98 224.483 150.402L224.426 150.563C224.249 151.062 224.066 151.581 224.216 152.037C224.354 152.459 224.724 152.662 225.116 152.878C225.532 153.106 225.962 153.343 226.167 153.85C226.461 154.582 226.053 155.479 225.486 155.855C224.987 156.187 224.4 156.225 223.891 156.225ZM224.616 160.986C223.137 160.986 221.921 159.827 221.903 159.81C221.872 159.777 221.856 159.734 221.856 159.69C221.857 159.645 221.874 159.602 221.905 159.57C221.936 159.538 221.979 159.52 222.023 159.518C222.068 159.516 222.111 159.532 222.144 159.562C222.239 159.651 224.452 161.755 226.414 159.853C226.447 159.822 226.491 159.805 226.537 159.805C226.582 159.806 226.626 159.825 226.658 159.857C226.674 159.873 226.687 159.893 226.695 159.914C226.704 159.935 226.708 159.958 226.707 159.981C226.707 160.004 226.702 160.026 226.693 160.047C226.684 160.068 226.671 160.087 226.654 160.103C225.978 160.758 225.272 160.986 224.616 160.986ZM219.454 167.959C219.454 167.959 215.672 168.206 211.315 165.091C211.067 164.913 210.728 165.124 210.805 165.42C211.253 167.146 212.987 171.014 219.571 171.373L219.454 167.959Z" fill="#5F4434"/>
<path d="M173.761 194.617C160.959 204.348 161.858 249.287 175.014 260.038C191.954 273.88 215.593 280.405 222.163 279.079C223.952 278.72 232.035 264.822 229.199 262.711C221.127 256.704 201.468 250.121 191.778 242.974C184.781 237.815 199.313 193.592 178.752 193.592C178.752 193.592 175.087 193.609 173.761 194.617Z" fill="#775744"/>
<path d="M220.151 279.591C211.578 279.591 190.5 273.14 174.796 260.306C174.761 260.277 174.732 260.242 174.71 260.202C174.689 260.162 174.675 260.118 174.671 260.073C174.666 260.028 174.67 259.982 174.683 259.938C174.696 259.895 174.718 259.854 174.747 259.819C174.775 259.784 174.811 259.755 174.851 259.733C174.891 259.712 174.935 259.698 174.98 259.694C175.025 259.689 175.071 259.694 175.114 259.707C175.158 259.72 175.198 259.741 175.233 259.77C192.266 273.687 215.58 280.055 222.095 278.739C223.165 278.524 228.166 270.697 229.254 265.842C229.588 264.352 229.497 263.365 228.992 262.989C225.145 260.126 218.662 257.138 211.797 253.975C204.345 250.54 196.638 246.988 191.573 243.254C188.814 241.218 189.201 233.8 189.65 225.211C190.215 214.376 190.856 202.095 185.722 196.685C183.968 194.836 181.688 193.939 178.752 193.939C178.733 193.939 176.589 193.954 175.048 194.407C175.004 194.419 174.958 194.423 174.913 194.418C174.868 194.413 174.824 194.4 174.784 194.378C174.744 194.356 174.709 194.326 174.68 194.291C174.652 194.255 174.631 194.215 174.618 194.171C174.605 194.127 174.601 194.081 174.606 194.036C174.611 193.991 174.625 193.947 174.647 193.907C174.669 193.867 174.698 193.832 174.734 193.803C174.769 193.775 174.81 193.754 174.854 193.741C176.489 193.261 178.659 193.246 178.751 193.246C181.845 193.246 184.358 194.243 186.225 196.209C191.564 201.834 190.914 214.273 190.341 225.248C189.922 233.288 189.525 240.882 191.984 242.696C196.992 246.39 204.667 249.926 212.088 253.346C218.985 256.526 225.5 259.528 229.405 262.434C230.157 262.993 230.333 264.191 229.93 265.993C228.865 270.746 223.838 279.094 222.231 279.419C221.66 279.534 220.96 279.591 220.151 279.591Z" fill="#51392A"/>
<path d="M75.9507 485.969V485.983H75.5332C75.6727 485.983 75.8121 485.983 75.9507 485.969Z" fill="#F4F3F2"/>
<path d="M106.943 267.679C106.943 273.732 104.948 278.952 102.081 281.293V293.161C102.081 294.061 101.724 294.924 101.088 295.56C100.451 296.196 99.5885 296.554 98.6886 296.554C97.7888 296.554 96.9258 296.196 96.2895 295.56C95.6532 294.924 95.2958 294.061 95.2958 293.161V281.321C92.416 278.981 90.4072 273.76 90.4072 267.679C90.4072 259.412 94.1049 252.724 98.6744 252.724C103.245 252.724 106.943 259.412 106.943 267.679Z" fill="#FCAB7A"/>
</svg>
