<svg width="292" height="224" viewBox="0 0 292 224" fill="none" xmlns="http://www.w3.org/2000/svg">
<path d="M187.02 22.7448L184.232 22.1399L183.6 19.3559C183.589 19.3078 183.563 19.2648 183.524 19.234C183.486 19.2031 183.438 19.1863 183.389 19.1863C183.339 19.1863 183.292 19.2031 183.253 19.234C183.215 19.2648 183.188 19.3078 183.177 19.3559L182.541 22.1502L179.754 22.8136C179.705 22.8239 179.662 22.8509 179.631 22.8898C179.601 22.9287 179.584 22.9771 179.586 23.0267C179.587 23.0756 179.605 23.1226 179.636 23.1605C179.667 23.1984 179.71 23.225 179.757 23.2363L182.545 23.8412L183.177 26.6218C183.188 26.6699 183.215 26.7129 183.253 26.7437C183.292 26.7746 183.339 26.7914 183.389 26.7914C183.438 26.7914 183.486 26.7746 183.524 26.7437C183.563 26.7129 183.589 26.6699 183.6 26.6218L184.236 23.8275L187.023 23.1676C187.071 23.1569 187.114 23.1301 187.145 23.0917C187.176 23.0533 187.193 23.0055 187.193 22.9562C187.193 22.9069 187.176 22.8591 187.145 22.8207C187.114 22.7823 187.071 22.7555 187.023 22.7448H187.02ZM31.5661 34.8191L35.3984 33.9839L36.2852 30.1585C36.3011 30.0935 36.3384 30.0357 36.391 29.9944C36.4437 29.9531 36.5087 29.9307 36.5756 29.9307C36.6425 29.9307 36.7075 29.9531 36.7602 29.9944C36.8128 30.0357 36.8501 30.0935 36.866 30.1585L37.739 34.0011L41.5748 34.9119C41.6408 34.9269 41.6997 34.9641 41.7416 35.0172C41.7835 35.0704 41.8059 35.1364 41.805 35.2041C41.8032 35.2712 41.7793 35.3358 41.737 35.388C41.6948 35.4401 41.6366 35.477 41.5713 35.4928L37.7356 36.3245L36.866 40.15C36.8501 40.215 36.8128 40.2728 36.7602 40.3141C36.7075 40.3554 36.6425 40.3778 36.5756 40.3778C36.5087 40.3778 36.4437 40.3554 36.391 40.3141C36.3384 40.2728 36.3011 40.215 36.2852 40.15L35.4122 36.3074L31.5799 35.3965C31.514 35.3821 31.4551 35.3456 31.4129 35.2931C31.3707 35.2406 31.3477 35.1752 31.3477 35.1078C31.3477 35.0405 31.3707 34.9751 31.4129 34.9226C31.4551 34.8701 31.514 34.8336 31.5799 34.8191H31.5661ZM47.6789 2.5316L49.6587 2.10198L50.1089 0.122239C50.1163 0.0876368 50.1354 0.0566293 50.1629 0.034383C50.1904 0.0121366 50.2248 0 50.2602 0C50.2955 0 50.3299 0.0121366 50.3574 0.034383C50.3849 0.0566293 50.404 0.0876368 50.4114 0.122239L50.8616 2.10885L52.8448 2.57972C52.8806 2.58515 52.9132 2.60323 52.9368 2.63066C52.9603 2.65809 52.9733 2.69307 52.9733 2.72924C52.9733 2.76541 52.9603 2.80037 52.9368 2.8278C52.9132 2.85523 52.8806 2.87331 52.8448 2.87875L50.8651 3.31181L50.4148 5.29154C50.4074 5.32615 50.3883 5.35715 50.3608 5.3794C50.3333 5.40165 50.299 5.41378 50.2636 5.41378C50.2282 5.41378 50.1939 5.40165 50.1664 5.3794C50.1388 5.35715 50.1198 5.32615 50.1124 5.29154L49.6621 3.3015L47.6789 2.83063C47.6444 2.82341 47.6135 2.80435 47.5915 2.77673C47.5695 2.74911 47.5579 2.71468 47.5586 2.67939C47.5604 2.64519 47.5731 2.61244 47.5947 2.58587C47.6163 2.55931 47.6458 2.5403 47.6789 2.5316Z" fill="#C9713C"/>
<path d="M12.7617 95.1836L27.1835 222.093H201.503L215.925 95.1836H12.7617Z" fill="#FF6000"/>
<path d="M202.423 223.124H26.261L26.1579 222.209L11.6055 94.1523H217.068L216.937 95.3003L202.423 223.124ZM28.1032 221.061H200.57L214.758 96.2146H13.9152L28.1032 221.061Z" fill="#C9713C"/>
<path d="M215.924 81.1211H13.1256C6.55393 81.1211 1.22656 86.4477 1.22656 93.0184C1.22656 99.5891 6.55393 104.916 13.1256 104.916H215.924C222.496 104.916 227.823 99.5891 227.823 93.0184C227.823 86.4477 222.496 81.1211 215.924 81.1211Z" fill="#E09F77"/>
<path d="M215.926 105.948H13.1409C11.4254 105.976 9.72148 105.663 8.12842 105.025C6.53537 104.388 5.08505 103.44 3.86198 102.237C2.63891 101.034 1.66755 99.5992 1.00451 98.0168C0.341466 96.4343 0 94.7357 0 93.02C0 91.3042 0.341466 89.6056 1.00451 88.0232C1.66755 86.4407 2.63891 85.006 3.86198 83.8028C5.08505 82.5995 6.53537 81.6516 8.12842 81.0145C9.72148 80.3773 11.4254 80.0636 13.1409 80.0916H215.926C219.318 80.1469 222.553 81.5333 224.932 83.9518C227.312 86.3704 228.645 89.6272 228.645 93.02C228.645 96.4128 227.312 99.6696 224.932 102.088C222.553 104.507 219.318 105.893 215.926 105.948ZM13.1409 82.1538C11.6977 82.1281 10.2638 82.3902 8.92299 82.9248C7.58216 83.4593 6.36125 84.2556 5.33153 85.2672C4.30182 86.2788 3.48393 87.4853 2.92562 88.8164C2.36731 90.1475 2.07976 91.5765 2.07976 93.02C2.07976 94.4634 2.36731 95.8924 2.92562 97.2235C3.48393 98.5547 4.30182 99.7612 5.33153 100.773C6.36125 101.784 7.58216 102.581 8.92299 103.115C10.2638 103.65 11.6977 103.912 13.1409 103.886H215.926C218.774 103.836 221.489 102.668 223.486 100.636C225.482 98.6038 226.601 95.8689 226.601 93.02C226.601 90.1711 225.482 87.4361 223.486 85.4038C221.489 83.3716 218.774 82.2044 215.926 82.1538H13.1409Z" fill="#C9713C"/>
<path d="M95.9504 22.3927L54.713 90.8337C53.4865 92.8693 54.1424 95.5138 56.178 96.7403L64.0913 101.508C66.127 102.735 68.7715 102.079 69.998 100.043L111.235 31.6023C112.462 29.5667 111.806 26.9222 109.77 25.6957L101.857 20.9277C99.8214 19.7012 97.1769 20.3571 95.9504 22.3927Z" fill="#FF6000"/>
<path d="M66.3053 103.142C65.3359 103.142 64.3848 102.877 63.5557 102.375L55.6505 97.6079C54.439 96.8769 53.5673 95.6948 53.227 94.3214C52.8867 92.948 53.1056 91.4956 53.8357 90.2836L95.0527 21.8419C95.7836 20.6304 96.9658 19.7587 98.3392 19.4184C99.7126 19.0781 101.165 19.2971 102.377 20.0271L110.282 24.7909C110.883 25.1522 111.406 25.6284 111.822 26.1922C112.239 26.756 112.54 27.3964 112.708 28.0767C112.877 28.757 112.91 29.4639 112.805 30.1568C112.7 30.8498 112.459 31.5153 112.097 32.1152L70.8525 100.557C70.493 101.159 70.0173 101.684 69.4532 102.1C68.8892 102.517 68.2479 102.817 67.5667 102.983C67.154 103.086 66.7305 103.139 66.3053 103.142ZM99.6445 21.3401C99.377 21.3398 99.1103 21.3722 98.8506 21.4363C98.4329 21.5384 98.0398 21.7225 97.694 21.978C97.3482 22.2335 97.0567 22.5553 96.8365 22.9245L55.592 91.3662C55.3697 91.7342 55.2221 92.1424 55.1577 92.5674C55.0933 92.9925 55.1134 93.4261 55.2169 93.8434C55.3203 94.2607 55.5051 94.6535 55.7605 94.9992C56.016 95.345 56.3372 95.637 56.7056 95.8585L64.6108 100.626C65.3544 101.073 66.2451 101.207 67.0873 100.998C67.9295 100.789 68.6545 100.255 69.103 99.512L110.347 31.0703C110.795 30.3258 110.928 29.4343 110.719 28.5915C110.509 27.7487 109.974 27.0233 109.23 26.5747L101.325 21.811C100.818 21.4958 100.234 21.3269 99.6377 21.3229L99.6445 21.3401Z" fill="#C9713C"/>
<path d="M125.275 19.8755L117.372 24.6615C115.339 25.8926 114.689 28.5386 115.921 30.5714L157.313 98.9186C158.544 100.951 161.19 101.601 163.223 100.37L171.126 95.5843C173.158 94.3532 173.808 91.7072 172.577 89.6744L131.185 21.3272C129.953 19.2943 127.308 18.6444 125.275 19.8755Z" fill="#FF6000"/>
<path d="M160.58 103.141C159.658 103.144 158.752 102.908 157.949 102.455C157.147 102.003 156.476 101.35 156.001 100.56L114.757 32.1181C114.032 30.9058 113.817 29.4553 114.159 28.0847C114.502 26.7142 115.375 25.5356 116.585 24.8076L124.491 20.0438C125.091 19.6785 125.757 19.4353 126.452 19.3281C127.146 19.2209 127.855 19.2519 128.537 19.4192C129.219 19.5865 129.862 19.8869 130.428 20.3032C130.994 20.7194 131.472 21.2433 131.836 21.8448L173.08 90.2866C173.442 90.8868 173.682 91.5524 173.786 92.2455C173.891 92.9385 173.857 93.6453 173.689 94.3255C173.52 95.0057 173.219 95.6459 172.802 96.2097C172.386 96.7734 171.862 97.2495 171.262 97.6109L163.357 102.378C162.519 102.884 161.558 103.148 160.58 103.141ZM127.24 21.3396C126.647 21.3392 126.066 21.5021 125.56 21.8105L117.654 26.5742C116.911 27.0229 116.376 27.7482 116.166 28.591C115.957 29.4338 116.09 30.3253 116.537 31.0699L157.782 99.5116C158.231 100.255 158.957 100.789 159.799 100.998C160.642 101.207 161.533 101.073 162.277 100.625L170.183 95.858C170.551 95.6365 170.872 95.3445 171.128 94.9988C171.383 94.653 171.568 94.2602 171.671 93.8429C171.775 93.4256 171.795 92.992 171.731 92.567C171.666 92.1419 171.519 91.7337 171.296 91.3658L130.052 22.9241C129.831 22.5552 129.539 22.2337 129.194 21.9783C128.848 21.7228 128.455 21.5385 128.038 21.4358C127.778 21.3673 127.512 21.3304 127.244 21.3259L127.24 21.3396Z" fill="#C9713C"/>
<path d="M65.216 95.7211C68.1032 95.7211 70.4437 93.3806 70.4437 90.4934C70.4437 87.6062 68.1032 85.2656 65.216 85.2656C62.3288 85.2656 59.9883 87.6062 59.9883 90.4934C59.9883 93.3806 62.3288 95.7211 65.216 95.7211Z" fill="white"/>
<path d="M65.2198 96.7521C63.9819 96.7521 62.7718 96.385 61.7426 95.6973C60.7133 95.0095 59.9111 94.032 59.4374 92.8884C58.9636 91.7447 58.8397 90.4863 59.0812 89.2722C59.3227 88.0581 59.9188 86.9429 60.7941 86.0676C61.6694 85.1922 62.7846 84.5961 63.9987 84.3546C65.2128 84.1131 66.4713 84.2371 67.6149 84.7108C68.7586 85.1845 69.7361 85.9867 70.4238 87.016C71.1115 88.0453 71.4786 89.2553 71.4786 90.4932C71.4768 92.1526 70.8168 93.7435 69.6434 94.9169C68.4701 96.0902 66.8792 96.7503 65.2198 96.7521ZM65.2198 86.2966C64.3898 86.2966 63.5784 86.5427 62.8883 87.0039C62.1981 87.465 61.6602 88.1204 61.3426 88.8873C61.025 89.6541 60.9419 90.4979 61.1038 91.312C61.2657 92.126 61.6654 92.8738 62.2523 93.4607C62.8392 94.0476 63.587 94.4473 64.4011 94.6092C65.2151 94.7711 66.0589 94.688 66.8258 94.3704C67.5926 94.0528 68.248 93.5149 68.7092 92.8247C69.1703 92.1346 69.4164 91.3232 69.4164 90.4932C69.4146 89.3808 68.9719 88.3144 68.1852 87.5278C67.3986 86.7411 66.3322 86.2984 65.2198 86.2966Z" fill="#C9713C"/>
<path d="M161.122 95.3617C164.009 95.3617 166.35 93.0212 166.35 90.134C166.35 87.2468 164.009 84.9062 161.122 84.9062C158.235 84.9062 155.895 87.2468 155.895 90.134C155.895 93.0212 158.235 95.3617 161.122 95.3617Z" fill="white"/>
<path d="M161.122 96.3927C159.884 96.3927 158.674 96.0256 157.645 95.3379C156.616 94.6502 155.813 93.6726 155.34 92.529C154.866 91.3853 154.742 90.1269 154.984 88.9128C155.225 87.6987 155.821 86.5835 156.696 85.7082C157.572 84.8329 158.687 84.2368 159.901 83.9953C161.115 83.7538 162.374 83.8777 163.517 84.3514C164.661 84.8251 165.638 85.6274 166.326 86.6566C167.014 87.6859 167.381 88.896 167.381 90.1338C167.379 91.7932 166.719 93.3841 165.546 94.5575C164.372 95.7309 162.781 96.3909 161.122 96.3927ZM161.122 85.9372C160.292 85.9372 159.481 86.1834 158.791 86.6445C158.1 87.1056 157.563 87.761 157.245 88.5279C156.927 89.2947 156.844 90.1385 157.006 90.9526C157.168 91.7666 157.568 92.5144 158.155 93.1013C158.742 93.6882 159.489 94.0879 160.303 94.2498C161.117 94.4118 161.961 94.3287 162.728 94.011C163.495 93.6934 164.15 93.1555 164.611 92.4654C165.073 91.7752 165.319 90.9639 165.319 90.1338C165.317 89.0214 164.874 87.955 164.088 87.1684C163.301 86.3818 162.235 85.939 161.122 85.9372Z" fill="#C9713C"/>
<path d="M41.9648 116.992H54.2248V158.453H41.9648V116.992Z" fill="white"/>
<path d="M55.2557 159.488H40.9336V115.961H55.2557V159.488ZM42.9958 157.425H53.1935V118.023H42.9958V157.425Z" fill="#C9713C"/>
<path d="M75.8555 116.992H88.1154V158.453H75.8555V116.992Z" fill="white"/>
<path d="M89.1468 159.488H74.8281V115.961H89.1468V159.488ZM76.8903 157.425H87.0846V118.023H76.8903V157.425Z" fill="#C9713C"/>
<path d="M109.746 116.992H122.006V158.453H109.746V116.992Z" fill="white"/>
<path d="M123.033 159.488H108.711V115.961H123.033V159.488ZM110.773 157.425H120.971V118.023H110.773V157.425Z" fill="#C9713C"/>
<path d="M143.277 116.992H155.537V158.453H143.277V116.992Z" fill="white"/>
<path d="M156.575 159.488H142.242V115.961H156.575V159.488ZM144.318 157.425H154.512V118.023H144.304L144.318 157.425Z" fill="#C9713C"/>
<path d="M177.164 116.992H189.424V158.453H177.164V116.992Z" fill="white"/>
<path d="M190.455 159.488H176.133V115.961H190.455V159.488ZM178.195 157.425H188.393V118.023H178.195V157.425Z" fill="#C9713C"/>
<path d="M41.9648 167.832H54.2248V209.293H41.9648V167.832Z" fill="white"/>
<path d="M55.2557 210.324H40.9336V166.801H55.2557V210.324ZM42.9958 208.262H53.1935V168.863H42.9958V208.262Z" fill="#C9713C"/>
<path d="M75.8555 167.832H88.1154V209.293H75.8555V167.832Z" fill="white"/>
<path d="M89.1468 210.324H74.8281V166.801H89.1468V210.324ZM76.8903 208.262H87.0846V168.863H76.8903V208.262Z" fill="#C9713C"/>
<path d="M109.746 167.832H122.006V209.293H109.746V167.832Z" fill="white"/>
<path d="M123.033 210.324H108.711V166.801H123.033V210.324ZM110.773 208.262H120.971V168.863H110.773V208.262Z" fill="#C9713C"/>
<path d="M143.277 167.832H155.537V209.293H143.277V167.832Z" fill="white"/>
<path d="M156.575 210.324H142.242V166.801H156.575V210.324ZM144.318 208.262H154.512V168.863H144.304L144.318 208.262Z" fill="#C9713C"/>
<path d="M177.164 167.832H189.424V209.293H177.164V167.832Z" fill="white"/>
<path d="M190.455 210.324H176.133V166.801H190.455V210.324ZM178.195 208.262H188.393V168.863H178.195V208.262Z" fill="#C9713C"/>
<path d="M212.545 126.652C231.96 126.652 247.699 110.913 247.699 91.4978C247.699 72.0827 231.96 56.3438 212.545 56.3438C193.13 56.3438 177.391 72.0827 177.391 91.4978C177.391 110.913 193.13 126.652 212.545 126.652Z" fill="white"/>
<path d="M212.545 127.678C205.388 127.678 198.392 125.556 192.442 121.58C186.491 117.604 181.853 111.953 179.114 105.342C176.376 98.7301 175.659 91.4548 177.054 84.4357C178.45 77.4167 181.895 70.9691 186.955 65.9083C192.015 60.8474 198.462 57.4006 205.481 56.0036C212.5 54.6066 219.775 55.3222 226.387 58.0599C232.999 60.7976 238.651 65.4345 242.628 71.3842C246.605 77.3339 248.728 84.3293 248.73 91.4857C248.722 101.081 244.908 110.281 238.124 117.067C231.339 123.852 222.14 127.669 212.545 127.678ZM212.545 57.3731C205.795 57.3731 199.197 59.3747 193.586 63.1246C187.974 66.8745 183.6 72.2044 181.018 78.4401C178.436 84.6759 177.761 91.5374 179.078 98.1569C180.396 104.776 183.646 110.856 188.42 115.628C193.193 120.4 199.274 123.649 205.894 124.965C212.514 126.28 219.375 125.603 225.61 123.019C231.845 120.434 237.173 116.059 240.922 110.446C244.67 104.833 246.669 98.235 246.667 91.4857C246.655 82.4406 243.055 73.7698 236.658 67.3749C230.262 60.98 221.59 57.3831 212.545 57.3731ZM231.297 13.5234H233.359V49.5779H231.297V13.5234Z" fill="#C9713C"/>
<path d="M248.383 55.5195L273.981 30.6441L275.418 32.123L249.82 56.9985L248.383 55.5195Z" fill="#C9713C"/>
<path d="M255.582 71.4375H291.997V73.4997H255.582V71.4375Z" fill="#C9713C"/>
<path d="M205.152 107.085C202.989 105.694 201.286 103.664 200.044 100.994C198.802 98.3249 198.176 95.1548 198.164 91.4841C198.164 87.8179 198.786 84.6501 200.03 81.9807C201.275 79.3112 202.977 77.2811 205.138 75.8902C207.357 74.5266 209.911 73.8047 212.515 73.8047C215.12 73.8047 217.674 74.5266 219.893 75.8902C222.072 77.2834 223.784 79.3135 225.028 81.9807C226.272 84.6478 226.898 87.8156 226.905 91.4841C226.905 95.1502 226.284 98.3169 225.042 100.984C223.8 103.651 222.088 105.681 219.907 107.074C217.688 108.438 215.134 109.16 212.529 109.16C209.924 109.16 207.371 108.438 205.152 107.074V107.085ZM218.336 100.578C219.759 98.546 220.472 95.518 220.474 91.4944C220.476 87.4708 219.764 84.4416 218.336 82.4069C217.706 81.4457 216.84 80.6614 215.822 80.1284C214.804 79.5955 213.666 79.3315 212.517 79.3616C210.095 79.3616 208.172 80.3767 206.746 82.4069C205.321 84.437 204.61 87.4627 204.612 91.4841C204.612 95.51 205.323 98.538 206.746 100.568C207.393 101.507 208.258 102.275 209.268 102.806C210.277 103.337 211.401 103.614 212.541 103.614C213.682 103.614 214.805 103.337 215.814 102.806C216.824 102.275 217.689 101.507 218.336 100.568V100.578Z" fill="#FF6000"/>
<path d="M212.517 110.204C209.712 110.243 206.957 109.46 204.591 107.952C202.275 106.461 200.429 104.268 199.092 101.422C197.755 98.5762 197.133 95.2972 197.133 91.4856C197.133 87.6739 197.793 84.34 199.095 81.5457C200.398 78.7513 202.261 76.5173 204.595 75.0153C206.98 73.5445 209.728 72.7656 212.531 72.7656C215.333 72.7656 218.081 73.5445 220.467 75.0153C222.889 76.6187 224.798 78.8859 225.966 81.5457C227.269 84.34 227.929 87.6842 227.929 91.4856C227.929 95.2869 227.269 98.6277 225.966 101.422C224.663 104.216 222.79 106.454 220.467 107.952C218.091 109.458 215.329 110.24 212.517 110.204ZM212.517 74.8469C210.115 74.8143 207.755 75.4819 205.725 76.7682C203.742 78.0467 202.147 79.9509 200.996 82.429C199.845 84.9071 199.195 87.997 199.195 91.4856C199.195 94.9741 199.79 98.0331 200.965 100.552C202.141 103.072 203.715 104.931 205.694 106.21C207.748 107.468 210.109 108.133 212.517 108.133C214.925 108.133 217.286 107.468 219.339 106.21C221.336 104.935 222.938 103.031 224.093 100.556C225.248 98.0812 225.86 94.9845 225.86 91.489C225.86 87.9935 225.265 84.9586 224.093 82.4221C223.083 80.1198 221.433 78.1561 219.339 76.7647C217.299 75.4792 214.929 74.8131 212.517 74.8469ZM212.517 104.656C209.767 104.656 207.523 103.484 205.904 101.171C204.361 98.9749 203.577 95.72 203.577 91.4959C203.577 87.2718 204.361 84.0169 205.904 81.8172C206.647 80.7431 207.638 79.8652 208.795 79.2589C209.951 78.6525 211.237 78.3357 212.543 78.3357C213.848 78.3357 215.135 78.6525 216.291 79.2589C217.447 79.8652 218.439 80.7431 219.181 81.8172C220.721 84.0134 221.505 87.2718 221.505 91.4959C221.505 95.72 220.721 98.9749 219.181 101.171C218.458 102.27 217.466 103.166 216.3 103.776C215.134 104.386 213.832 104.689 212.517 104.656ZM212.517 80.3977C211.541 80.3713 210.575 80.5973 209.712 81.0537C208.849 81.5101 208.119 82.1815 207.592 83.003C206.296 84.8452 205.639 87.7048 205.639 91.4959C205.639 95.2869 206.296 98.1431 207.592 99.9888C208.144 100.792 208.883 101.449 209.746 101.903C210.608 102.356 211.568 102.593 212.543 102.593C213.517 102.593 214.477 102.356 215.34 101.903C216.203 101.449 216.942 100.792 217.494 99.9888C218.786 98.1431 219.443 95.2869 219.443 91.4959C219.443 87.7048 218.786 84.8452 217.494 83.003C216.958 82.1775 216.219 81.504 215.347 81.0476C214.475 80.5913 213.501 80.3674 212.517 80.3977Z" fill="#C9713C"/>
</svg>
