<svg width="190" height="190" viewBox="0 0 190 190" fill="none" xmlns="http://www.w3.org/2000/svg">
<circle cx="95" cy="95" r="95" fill="#FFEFE6"/>
<path d="M89.1154 127.638C68.1627 127.638 51.1172 110.593 51.1172 89.6413C51.1172 68.6721 68.164 51.6143 89.1154 51.6143C110.067 51.6143 127.112 68.6735 127.112 89.6413C127.112 90.3993 126.811 91.1262 126.275 91.6622C125.739 92.1982 125.012 92.4993 124.254 92.4993C123.496 92.4993 122.769 92.1982 122.233 91.6622C121.697 91.1262 121.396 90.3993 121.396 89.6413C121.396 71.825 106.915 57.3304 89.1154 57.3304C71.3156 57.3304 56.8333 71.825 56.8333 89.6413C56.8333 107.442 71.3156 121.922 89.1154 121.922C89.8734 121.922 90.6003 122.223 91.1363 122.759C91.6723 123.295 91.9734 124.022 91.9734 124.78C91.9734 125.538 91.6723 126.265 91.1363 126.801C90.6003 127.337 89.8734 127.638 89.1154 127.638Z" fill="#726760"/>
<path d="M87.0842 56.4321C92.1722 56.4321 96.9735 57.6184 101.261 59.7194C97.4072 58.1359 93.28 57.3251 89.1139 57.3332C71.321 57.3332 56.8305 71.8237 56.8305 89.6454C56.8305 102.364 64.2471 113.412 74.9799 118.657C63.161 113.869 54.8145 102.264 54.8145 88.7457C54.8145 70.9377 69.2913 56.4321 87.0842 56.4321ZM127.113 89.6454C127.111 90.4027 126.809 91.1284 126.274 91.6639C125.738 92.1995 125.013 92.5013 124.255 92.5034C123.441 92.5034 122.697 92.1606 122.169 91.6038H122.226C122.601 91.6051 122.974 91.5319 123.321 91.3887C123.669 91.2454 123.984 91.0348 124.25 90.769C124.516 90.5032 124.726 90.1875 124.869 89.84C125.012 89.4925 125.085 89.1202 125.084 88.7444C125.084 73.682 116.281 60.6205 103.548 54.4751C117.367 60.1624 127.113 73.7821 127.113 89.644V89.6454Z" fill="#65574F"/>
<path d="M115.516 88.8664L123.017 101.855C123.142 102.073 123.323 102.253 123.54 102.378C123.757 102.504 124.004 102.57 124.255 102.57C124.505 102.57 124.752 102.504 124.969 102.378C125.186 102.253 125.367 102.073 125.492 101.855L132.994 88.8664C133.12 88.6491 133.186 88.4024 133.186 88.1513C133.186 87.9002 133.12 87.6535 132.995 87.436C132.869 87.2185 132.688 87.038 132.471 86.9125C132.253 86.7871 132.007 86.7212 131.756 86.7215H116.753C115.654 86.7215 114.965 87.9133 115.516 88.8664Z" fill="#726760"/>
<path d="M132.988 88.8595L125.499 101.85C125.373 102.068 125.191 102.249 124.973 102.375C124.755 102.501 124.507 102.567 124.255 102.567C124.004 102.567 123.756 102.501 123.538 102.375C123.32 102.249 123.138 102.068 123.012 101.85L122.525 101.006C123.068 101.093 123.64 100.85 123.954 100.321L131.458 87.3304C131.569 87.1446 131.628 86.9324 131.629 86.716H131.758C132.858 86.716 133.546 87.916 132.988 88.8595Z" fill="#65574F"/>
<path d="M101.918 95.9169H96.5472V84.1117C96.5443 81.7457 95.6032 79.4774 93.9303 77.8042C92.2575 76.1311 89.9893 75.1897 87.6233 75.1864C85.2568 75.1889 82.988 76.1301 81.3145 77.8033C79.641 79.4765 78.6996 81.7452 78.6967 84.1117V95.9169H73.3262V84.1117C73.3262 76.2287 79.7403 69.8159 87.6233 69.8159C95.5063 69.8159 101.918 76.2287 101.918 84.1117V95.9169Z" fill="#DFD7D2"/>
<path d="M93.1237 77.0968C91.4604 75.7832 89.3813 75.1093 87.2636 75.1974C82.4129 75.3866 78.6922 79.6202 78.6922 84.4751V95.9183H73.3203V92.188C74.346 92.188 75.3297 91.7806 76.055 91.0553C76.7803 90.33 77.1877 89.3463 77.1877 88.3206V82.6017C77.1877 77.6742 81.1882 73.6737 86.102 73.6737C88.9491 73.6737 91.4863 75.0164 93.1237 77.0968ZM101.917 84.1048V95.9183H96.5468V92.188C97.0529 92.188 97.554 92.0883 98.0216 91.8947C98.4891 91.701 98.914 91.4171 99.2718 91.0593C99.6297 90.7014 99.9135 90.2766 100.107 89.809C100.301 89.3415 100.401 88.8404 100.401 88.3343V82.6017C100.401 79.0442 99.0977 75.7816 96.9363 73.2842C98.4988 74.6211 99.7532 76.2805 100.613 78.1485C101.473 80.0164 101.918 82.0485 101.917 84.1048Z" fill="#D4C8C1"/>
<path d="M104.542 95.8552C110.524 101.837 111.122 124.378 104.542 129.695C97.959 135.014 77.2751 135.014 70.695 129.695C64.1135 124.378 64.7115 101.837 70.695 95.8552C76.6772 89.8717 98.5583 89.8717 104.542 95.8552Z" fill="#F18D51"/>
<path d="M91.2416 91.5064C83.2023 90.8934 74.2085 92.3416 70.6935 95.8538C67.4364 99.1123 65.7797 107.278 66.0046 114.9H70.8663C82.1189 114.9 91.2416 105.777 91.2416 94.5249V91.5064Z" fill="#FFAE7D"/>
<path d="M104.544 129.695C97.9616 135.014 77.2777 135.014 70.6935 129.695C69.8775 129.04 69.1753 128.117 68.5801 126.993C76.4617 131.19 94.6578 130.832 100.754 125.903C106.689 121.105 106.781 102.298 102.347 94.2712C103.154 94.6903 103.895 95.2254 104.546 95.8593C110.527 101.84 111.12 124.378 104.544 129.695Z" fill="#F18340"/>
<path d="M89.8855 112.182L91.1705 118.833H84.0706L85.3556 112.182C84.4101 111.677 83.6603 110.871 83.2256 109.891C82.7909 108.911 82.6961 107.814 82.9563 106.775C83.2165 105.735 83.8169 104.812 84.6618 104.152C85.5068 103.493 86.548 103.135 87.6199 103.135C88.2514 103.133 88.877 103.256 89.461 103.496C90.0449 103.737 90.5757 104.09 91.0229 104.536C91.47 104.982 91.8248 105.511 92.0669 106.095C92.309 106.678 92.4336 107.303 92.4336 107.935C92.4336 109.786 91.4064 111.38 89.8855 112.182Z" fill="#4A3F39"/>
<path d="M135.301 139.386H99.1134C98.1634 139.386 97.2522 139.008 96.5804 138.337C95.9087 137.665 95.5312 136.754 95.5312 135.804V120.535C95.5313 119.585 95.9087 118.674 96.5804 118.002C97.2522 117.331 98.1634 116.953 99.1134 116.953H100.858V108.684C100.858 108.468 100.922 108.257 101.041 108.077C101.161 107.898 101.332 107.758 101.531 107.675C101.731 107.593 101.95 107.571 102.162 107.613C102.374 107.656 102.568 107.76 102.72 107.913L111.761 116.953H135.3C136.25 116.954 137.161 117.331 137.832 118.003C138.504 118.675 138.881 119.586 138.881 120.535V135.804C138.881 136.753 138.504 137.664 137.833 138.336C137.161 139.007 136.251 139.385 135.301 139.386Z" fill="#583119"/>
<path d="M125.966 116.953H111.761L102.72 107.913C102.568 107.76 102.373 107.656 102.162 107.613C101.95 107.571 101.73 107.593 101.531 107.675C101.331 107.758 101.161 107.898 101.041 108.078C100.921 108.258 100.857 108.469 100.858 108.685V116.955H99.1134C98.1636 116.955 97.2527 117.332 96.5809 118.003C95.9092 118.675 95.5316 119.586 95.5312 120.535V124.561H118.357C119.356 124.561 120.345 124.364 121.268 123.981C122.191 123.599 123.03 123.039 123.736 122.332C124.442 121.626 125.003 120.787 125.385 119.864C125.767 118.941 125.963 117.952 125.963 116.953H125.966Z" fill="#6F442A"/>
<path d="M135.904 117.015V123.499C135.904 126.753 134.611 129.875 132.31 132.176C130.009 134.477 126.888 135.77 123.634 135.771H95.5332V135.804C95.5332 136.754 95.9106 137.665 96.5824 138.337C97.2542 139.008 98.1653 139.386 99.1154 139.386H135.302C136.252 139.385 137.162 139.008 137.834 138.336C138.505 137.664 138.883 136.753 138.883 135.804V120.535C138.883 118.764 137.594 117.303 135.904 117.015Z" fill="#48240F"/>
<path d="M107.353 127.992L104.865 128.75L106.5 131.047L105.008 132.088L103.399 129.934L101.764 132.087L100.274 131.047L101.884 128.75L99.4219 127.992L99.965 126.264L102.38 127.069V124.252H104.393V127.069L106.784 126.264L107.353 127.992ZM116.567 127.992L114.08 128.75L115.714 131.047L114.222 132.088L112.614 129.934L110.979 132.087L109.488 131.047L111.098 128.75L108.637 127.992L109.18 126.264L111.595 127.069V124.252H113.608V127.069L115.998 126.264L116.567 127.992ZM125.782 127.992L123.294 128.75L124.929 131.047L123.437 132.088L121.828 129.934L120.194 132.087L118.703 131.047L120.313 128.75L117.851 127.992L118.394 126.264L120.811 127.069V124.252H122.823V127.069L125.213 126.264L125.782 127.992ZM134.997 127.992L132.51 128.75L134.145 131.047L132.653 132.088L131.043 129.934L129.408 132.087L127.917 131.047L129.527 128.75L127.066 127.992L127.609 126.264L130.025 127.069V124.252H132.037V127.069L134.428 126.264L134.997 127.992Z" fill="#F4EEEA"/>
<path d="M125.967 119.093C125.967 119.319 125.877 119.537 125.716 119.697C125.556 119.857 125.338 119.947 125.111 119.947H119.922C119.696 119.947 119.478 119.857 119.318 119.696C119.158 119.536 119.068 119.319 119.068 119.093C119.068 118.626 119.457 118.251 119.922 118.251H125.111C125.578 118.251 125.966 118.628 125.966 119.093H125.967ZM117.333 119.093C117.332 119.319 117.242 119.536 117.082 119.696C116.922 119.857 116.705 119.947 116.478 119.947H104.403C104.178 119.947 103.962 119.858 103.803 119.699C103.644 119.54 103.555 119.324 103.555 119.099C103.555 118.874 103.644 118.658 103.803 118.499C103.962 118.34 104.178 118.251 104.403 118.251H116.478C116.945 118.251 117.333 118.628 117.333 119.093Z" fill="#FF6000"/>
<circle cx="94.7921" cy="95.5338" r="83.2921" stroke="#FF8033"/>
</svg>
