<svg width="190" height="190" viewBox="0 0 190 190" fill="none" xmlns="http://www.w3.org/2000/svg">
<circle cx="95" cy="95" r="95" fill="#FFEFE6"/>
<path d="M115.688 94.275H74.3125V76.3C74.3125 64.9 83.6 55.625 95 55.625C106.412 55.625 115.688 64.9 115.688 76.3V94.275ZM82.125 86.475H107.888V76.3C107.888 69.2 102.112 63.425 95.0125 63.425C87.9 63.425 82.125 69.2 82.125 76.3V86.475Z" fill="#666666"/>
<path d="M123.175 107.438C123.175 123 110.575 135.625 95.0002 135.625C79.4502 135.625 66.8252 123 66.8252 107.438C66.8252 91.875 79.4502 79.2625 95.0002 79.2625C110.575 79.2625 123.175 91.875 123.175 107.438Z" fill="#FF6000"/>
<path d="M98.0249 107.663L99.1249 118.263H90.8874L91.9874 107.688C90.8573 107.03 89.9755 106.019 89.4788 104.81C88.982 103.6 88.898 102.261 89.2398 100.999C89.5816 99.7377 90.3301 98.6239 91.3692 97.8307C92.4084 97.0376 93.6801 96.6094 94.9874 96.6125C98.2749 96.6125 100.937 99.275 100.937 102.563C100.95 104.713 99.7624 106.638 98.0249 107.663Z" fill="#666666"/>
<circle cx="95.5324" cy="95.5338" r="83.2921" stroke="#FF8033"/>
<path d="M135 126.875C135 136.541 127.164 144.375 117.499 144.375C107.836 144.375 100 136.541 100 126.875C100 117.209 107.836 109.375 117.499 109.375C127.164 109.375 135 117.209 135 126.875Z" fill="#FF995C"/>
<path d="M129.852 139.228C122.99 146.091 111.864 146.091 105 139.228L129.854 114.375C136.716 121.238 136.715 132.365 129.852 139.228Z" fill="#FF6407"/>
<path d="M131.25 126.875C131.25 134.47 125.093 140.625 117.499 140.625C109.907 140.625 103.75 134.47 103.75 126.875C103.75 119.28 109.907 113.125 117.499 113.125C125.093 113.125 131.25 119.28 131.25 126.875Z" fill="#EFE9E5"/>
<path fill-rule="evenodd" clip-rule="evenodd" d="M116.25 124.375C116.25 123.685 116.81 123.125 117.5 123.125C118.19 123.125 118.75 123.685 118.75 124.375C118.75 125.065 118.19 125.625 117.5 125.625C116.81 125.625 116.25 126.185 116.25 126.875V128.125C116.25 128.815 116.81 129.375 117.5 129.375C118.19 129.375 118.75 128.815 118.75 128.125V127.911C120.206 127.396 121.25 126.006 121.25 124.375C121.25 122.305 119.57 120.625 117.5 120.625C115.43 120.625 113.75 122.305 113.75 124.375C113.75 125.065 114.31 125.625 115 125.625C115.69 125.625 116.25 125.065 116.25 124.375Z" fill="#A7ACB2"/>
<path fill-rule="evenodd" clip-rule="evenodd" d="M117.5 125.625C116.81 125.625 116.25 126.185 116.25 126.875V128.125C116.25 128.815 116.81 129.375 117.5 129.375V125.625ZM117.5 120.625C115.43 120.625 113.75 122.305 113.75 124.375C113.75 125.065 114.31 125.625 115 125.625C115.685 125.625 116.241 125.074 116.25 124.391V124.359C116.259 123.676 116.815 123.125 117.5 123.125V120.625Z" fill="#C3C6CA"/>
<path d="M117.5 133.125C118.19 133.125 118.75 132.565 118.75 131.875C118.75 131.185 118.19 130.625 117.5 130.625C116.81 130.625 116.25 131.185 116.25 131.875C116.25 132.565 116.81 133.125 117.5 133.125Z" fill="#A7ACB2"/>
<path fill-rule="evenodd" clip-rule="evenodd" d="M117.5 130.625V133.125C116.81 133.125 116.25 132.565 116.25 131.875C116.25 131.185 116.81 130.625 117.5 130.625Z" fill="#C3C6CA"/>
<path d="M131.25 126.471C131.25 134.289 124.914 140.625 117.103 140.625C112.739 140.625 108.84 138.653 106.25 135.551C108.701 137.57 111.842 138.779 115.256 138.779C123.067 138.779 129.404 132.442 129.404 124.625C129.404 121.204 128.195 118.069 126.176 115.625C129.277 118.215 131.25 122.114 131.25 126.471Z" fill="#DFD4CD"/>
</svg>
