<svg width="193" height="58" viewBox="0 0 193 58" fill="none" xmlns="http://www.w3.org/2000/svg">
<path d="M185.794 57.0944H7.45661C3.54882 57.0944 0.300781 53.8971 0.300781 49.9386V7.15583C0.300781 3.24804 3.49807 0 7.45661 0H185.845C189.753 0 193.001 3.19729 193.001 7.15583V49.9386C192.95 53.8971 189.753 57.0944 185.794 57.0944Z" fill="black"/>
<path d="M67.9518 14.6171C67.9518 15.8352 67.5965 16.7487 66.886 17.4592C66.074 18.3219 65.0083 18.7279 63.7395 18.7279C62.5215 18.7279 61.4557 18.3219 60.5929 17.4592C59.7302 16.5964 59.2734 15.5307 59.2734 14.2619C59.2734 12.9931 59.7302 11.9274 60.5929 11.0646C61.4557 10.2018 62.5215 9.79584 63.7395 9.79584C64.3485 9.79584 64.9575 9.89734 65.5158 10.1511C66.074 10.4048 66.5308 10.7093 66.8353 11.1154L66.074 11.8766C65.5158 11.2169 64.7038 10.8616 63.7395 10.8616C62.826 10.8616 62.0647 11.1661 61.405 11.8259C60.7452 12.4349 60.4407 13.2976 60.4407 14.3126C60.4407 15.3277 60.7452 16.1397 61.405 16.7994C62.0647 17.4084 62.826 17.7637 63.7395 17.7637C64.7038 17.7637 65.5158 17.4592 66.1248 16.7994C66.5308 16.3934 66.7845 15.7844 66.8353 15.0739H63.7395V14.0589H67.901C67.9518 14.2111 67.9518 14.4141 67.9518 14.6171Z" fill="white" stroke="white" stroke-width="0.2" stroke-miterlimit="10"/>
<path d="M74.5497 11.0648H70.6419V13.7546H74.1437V14.7696H70.6419V17.4594H74.5497V18.5251H69.5762V9.99902H74.5497V11.0648Z" fill="white" stroke="white" stroke-width="0.2" stroke-miterlimit="10"/>
<path d="M79.1678 18.5759H78.0513V11.0648H75.666V9.99902H81.5531V11.0648H79.1678V18.5759Z" fill="white" stroke="white" stroke-width="0.2" stroke-miterlimit="10"/>
<path d="M85.8164 18.5759V9.99902H86.9329V18.5759H85.8164Z" fill="white" stroke="white" stroke-width="0.2" stroke-miterlimit="10"/>
<path d="M91.8045 18.5759H90.688V11.0648H88.3027V9.99902H94.1898V11.0648H91.8045V18.5759Z" fill="white" stroke="white" stroke-width="0.2" stroke-miterlimit="10"/>
<path d="M105.355 17.4594C104.492 18.3222 103.477 18.7789 102.208 18.7789C100.94 18.7789 99.9245 18.3222 99.0617 17.4594C98.199 16.5966 97.793 15.5309 97.793 14.2621C97.793 12.9933 98.199 11.9276 99.0617 11.0648C99.9245 10.2021 100.94 9.7453 102.208 9.7453C103.477 9.7453 104.492 10.2021 105.355 11.0648C106.218 11.9276 106.624 12.9933 106.624 14.2114C106.624 15.5309 106.167 16.5966 105.355 17.4594ZM99.8737 16.7489C100.483 17.4086 101.295 17.7131 102.208 17.7131C103.122 17.7131 103.883 17.4086 104.543 16.7489C105.152 16.0891 105.507 15.2771 105.507 14.3129C105.507 13.2978 105.203 12.4858 104.543 11.8768C103.934 11.2171 103.122 10.9126 102.208 10.9126C101.295 10.9126 100.534 11.2171 99.8737 11.8768C99.2647 12.5366 98.9095 13.3486 98.9095 14.3129C98.9095 15.2771 99.2647 16.0891 99.8737 16.7489Z" fill="white" stroke="white" stroke-width="0.2" stroke-miterlimit="10"/>
<path d="M108.146 18.5761V9.99924H109.466L113.628 16.6476H113.678L113.628 14.9728V9.94849H114.744V18.5253H113.577L109.212 11.5218H109.161L109.212 13.1965V18.5253H108.146V18.5761Z" fill="white" stroke="white" stroke-width="0.2" stroke-miterlimit="10"/>
<path d="M97.5392 31.0596C94.1896 31.0596 91.4491 33.5971 91.4491 37.1497C91.4491 40.6514 94.1896 43.2397 97.5392 43.2397C100.889 43.2397 103.629 40.6514 103.629 37.1497C103.629 33.5971 100.889 31.0596 97.5392 31.0596ZM97.5392 40.8037C95.7121 40.8037 94.1389 39.2812 94.1389 37.1497C94.1389 34.9674 95.7121 33.4956 97.5392 33.4956C99.3662 33.4956 100.939 34.9674 100.939 37.1497C100.939 39.2812 99.3662 40.8037 97.5392 40.8037ZM84.2425 31.0596C80.893 31.0596 78.1524 33.5971 78.1524 37.1497C78.1524 40.6514 80.893 43.2397 84.2425 43.2397C87.592 43.2397 90.3326 40.6514 90.3326 37.1497C90.3326 33.5971 87.592 31.0596 84.2425 31.0596ZM84.2425 40.8037C82.4155 40.8037 80.8422 39.2812 80.8422 37.1497C80.8422 34.9674 82.4155 33.4956 84.2425 33.4956C86.0695 33.4956 87.6428 34.9674 87.6428 37.1497C87.6935 39.2812 86.0695 40.8037 84.2425 40.8037ZM68.4591 32.8866V35.4749H74.5999C74.3969 36.9467 73.9401 37.9617 73.1789 38.7229C72.2654 39.6364 70.8951 40.6007 68.4083 40.6007C64.602 40.6007 61.6585 37.5557 61.6585 33.7494C61.6585 29.9431 64.602 26.898 68.4083 26.898C70.4384 26.898 71.9609 27.71 73.0774 28.7251L74.9044 26.898C73.3819 25.4263 71.3011 24.3098 68.4591 24.3098C63.2825 24.3098 58.918 28.5221 58.918 33.7494C58.918 38.9259 63.2825 43.189 68.4591 43.189C71.2504 43.189 73.3819 42.2755 75.0567 40.5499C76.7822 38.8244 77.2897 36.4391 77.2897 34.5106C77.2897 33.9016 77.2389 33.3434 77.1374 32.8866H68.4591ZM133.065 34.9166C132.557 33.5464 131.035 31.0596 127.888 31.0596C124.741 31.0596 122.153 33.4956 122.153 37.1497C122.153 40.5499 124.741 43.2397 128.193 43.2397C130.984 43.2397 132.608 41.5142 133.268 40.5499L131.187 39.1797C130.476 40.1947 129.563 40.8544 128.193 40.8544C126.822 40.8544 125.858 40.2454 125.249 39.0274L133.369 35.6779L133.065 34.9166ZM124.792 36.9467C124.741 34.6121 126.619 33.3941 127.99 33.3941C129.055 33.3941 129.969 33.9016 130.223 34.6629L124.792 36.9467ZM118.195 42.8337H120.884V24.9695H118.195V42.8337ZM113.83 32.3791H113.729C113.12 31.6686 112.003 31.0088 110.531 31.0088C107.486 31.0088 104.695 33.6986 104.695 37.0989C104.695 40.4992 107.486 43.1382 110.531 43.1382C112.003 43.1382 113.12 42.4785 113.729 41.768H113.83V42.6307C113.83 44.9652 112.612 46.1833 110.582 46.1833C108.958 46.1833 107.943 45.016 107.537 44.001L105.203 44.9652C105.862 46.5893 107.639 48.5685 110.582 48.5685C113.729 48.5685 116.368 46.7415 116.368 42.2247V31.4148H113.83V32.3791ZM110.785 40.8037C108.958 40.8037 107.385 39.2812 107.385 37.1497C107.385 35.0181 108.907 33.4449 110.785 33.4449C112.612 33.4449 114.033 35.0181 114.033 37.1497C114.033 39.2304 112.612 40.8037 110.785 40.8037ZM145.6 24.9695H139.205V42.783H141.844V36.0331H145.549C148.493 36.0331 151.386 33.9016 151.386 30.5013C151.386 27.101 148.544 24.9695 145.6 24.9695ZM145.651 33.5971H141.844V27.507H145.651C147.63 27.507 148.747 29.1311 148.747 30.5521C148.747 31.9223 147.63 33.5971 145.651 33.5971ZM162.094 31.0088C160.165 31.0088 158.186 31.8716 157.323 33.7494L159.709 34.7136C160.216 33.7494 161.13 33.3941 162.145 33.3941C163.515 33.3941 164.936 34.2061 164.936 35.6779V35.8809C164.479 35.6271 163.413 35.1704 162.145 35.1704C159.607 35.1704 157.019 36.5914 157.019 39.1797C157.019 41.565 159.1 43.0875 161.434 43.0875C163.21 43.0875 164.225 42.2755 164.834 41.3619H164.936V42.7322H167.524V35.9316C167.524 32.7851 165.139 31.0088 162.094 31.0088ZM161.789 40.8037C160.927 40.8037 159.709 40.3469 159.709 39.2812C159.709 37.9109 161.231 37.3527 162.551 37.3527C163.718 37.3527 164.276 37.6064 164.987 37.9617C164.733 39.6364 163.312 40.8037 161.789 40.8037ZM176.862 31.4148L173.817 39.1289H173.716L170.569 31.4148H167.727L172.498 42.2247L169.808 48.2133H172.599L179.857 31.4148H176.862ZM152.908 42.8337H155.547V24.9695H152.908V42.8337Z" fill="white"/>
<path d="M15.2223 10.7582C14.8163 11.2149 14.5625 11.8747 14.5625 12.7882V44.3551C14.5625 45.2178 14.8163 45.9283 15.2223 46.3851L15.3238 46.4866L32.985 28.8254V28.6224V28.4194L15.3238 10.6567L15.2223 10.7582Z" fill="url(#paint0_linear_1557_75562)"/>
<path d="M38.8734 34.6621L32.9863 28.7751V28.5721V28.3691L38.8734 22.482L39.0256 22.5327L46.0292 26.4913C48.0085 27.6078 48.0085 29.4856 46.0292 30.6021L39.0256 34.5606L38.8734 34.6621Z" fill="url(#paint1_linear_1557_75562)"/>
<path d="M39.0247 34.5606L32.9854 28.5721L15.2227 46.3348C15.8824 47.0453 16.9482 47.096 18.1662 46.4363L39.0247 34.5606Z" fill="url(#paint2_linear_1557_75562)"/>
<path d="M39.0247 22.5325L18.1662 10.6568C16.9482 9.94633 15.8824 10.0478 15.2227 10.7583L32.9854 28.521L39.0247 22.5325Z" fill="url(#paint3_linear_1557_75562)"/>
<path opacity="0.2" d="M38.8724 34.4598L18.1662 46.2339C16.9989 46.8937 15.9839 46.8429 15.3242 46.2339L15.2227 46.3354L15.3242 46.4369C15.9839 47.0459 17.0497 47.0967 18.1662 46.4369L39.0247 34.612L38.8724 34.4598Z" fill="black"/>
<path opacity="0.12" d="M15.2223 46.1324C14.8163 45.6757 14.5625 45.0159 14.5625 44.1024V44.3054C14.5625 45.1682 14.8163 45.8787 15.2223 46.3354L15.3238 46.2339L15.2223 46.1324Z" fill="black"/>
<path opacity="0.12" d="M45.9781 30.3991L38.873 34.4592L39.0253 34.6114L46.0289 30.6529C47.0439 30.0946 47.5006 29.3333 47.5006 28.5721C47.3991 29.2318 46.8916 29.8916 45.9781 30.3991Z" fill="black"/>
<path opacity="0.25" d="M18.1658 10.9109L45.9771 26.7451C46.8906 27.2526 47.3981 27.9124 47.4489 28.5721C47.4489 27.8109 46.9414 27.1004 45.9771 26.4914L18.1658 10.6572C16.1865 9.54067 14.5625 10.4542 14.5625 12.738V12.941C14.5625 10.7079 16.1865 9.74367 18.1658 10.9109Z" fill="white"/>
<defs>
<linearGradient id="paint0_linear_1557_75562" x1="31.4167" y1="12.4356" x2="7.46935" y2="36.3829" gradientUnits="userSpaceOnUse">
<stop stop-color="#00A0FF"/>
<stop offset="0.00657445" stop-color="#00A1FF"/>
<stop offset="0.2601" stop-color="#00BEFF"/>
<stop offset="0.5122" stop-color="#00D2FF"/>
<stop offset="0.7604" stop-color="#00DFFF"/>
<stop offset="1" stop-color="#00E3FF"/>
</linearGradient>
<linearGradient id="paint1_linear_1557_75562" x1="48.5906" y1="28.5486" x2="14.0634" y2="28.5486" gradientUnits="userSpaceOnUse">
<stop stop-color="#FFE000"/>
<stop offset="0.4087" stop-color="#FFBD00"/>
<stop offset="0.7754" stop-color="#FFA500"/>
<stop offset="1" stop-color="#FF9C00"/>
</linearGradient>
<linearGradient id="paint2_linear_1557_75562" x1="35.7367" y1="31.8229" x2="3.26222" y2="64.2974" gradientUnits="userSpaceOnUse">
<stop stop-color="#FF3A44"/>
<stop offset="1" stop-color="#C31162"/>
</linearGradient>
<linearGradient id="paint3_linear_1557_75562" x1="10.7232" y1="0.259005" x2="25.2244" y2="14.7602" gradientUnits="userSpaceOnUse">
<stop stop-color="#32A071"/>
<stop offset="0.0685" stop-color="#2DA771"/>
<stop offset="0.4762" stop-color="#15CF74"/>
<stop offset="0.8009" stop-color="#06E775"/>
<stop offset="1" stop-color="#00F076"/>
</linearGradient>
</defs>
</svg>
