<svg width="32" height="32" viewBox="0 0 32 32" fill="none" xmlns="http://www.w3.org/2000/svg">
<g clip-path="url(#clip0_892_747)">
<mask id="mask0_892_747" style="mask-type:luminance" maskUnits="userSpaceOnUse" x="0" y="0" width="32" height="32">
<path d="M32 0H0V32H32V0Z" fill="white"/>
</mask>
<g mask="url(#mask0_892_747)">
<path d="M16.0005 32C24.837 32 32.0005 24.8366 32.0005 16C32.0005 7.16344 24.837 0 16.0005 0C7.16393 0 0.000488281 7.16344 0.000488281 16C0.000488281 24.8366 7.16393 32 16.0005 32Z" fill="#F0F0F0"/>
<path d="M3.30758 6.25898C2.05077 7.89417 1.10308 9.77888 0.55127 11.8263H8.8749L3.30758 6.25898ZM31.4489 11.8263C30.8971 9.77896 29.9493 7.89427 28.6926 6.25908L23.1254 11.8263H31.4489ZM0.55127 20.1742C1.10315 22.2215 2.05083 24.1062 3.30759 25.7413L8.87474 20.1742H0.55127ZM25.7412 3.30765C24.106 2.05083 22.2214 1.10314 20.1739 0.55127V8.8748L25.7412 3.30765ZM6.25899 28.6925C7.89417 29.9494 9.7789 30.897 11.8263 31.4489V23.1254L6.25899 28.6925ZM11.8262 0.55127C9.77882 1.10314 7.89411 2.05083 6.25899 3.30758L11.8262 8.8748V0.55127ZM20.1739 31.4489C22.2213 30.897 24.106 29.9494 25.7411 28.6926L20.1739 23.1254V31.4489ZM23.1254 20.1742L28.6926 25.7414C29.9493 24.1062 30.8971 22.2215 31.4489 20.1742H23.1254Z" fill="#0052B4"/>
<path d="M31.8651 13.913H18.0876L18.0875 0.135438C17.4043 0.0465 16.7078 0 16.0005 0C15.293 0 14.5967 0.0465 13.9136 0.135438V13.913L0.135926 13.913C0.0469883 14.5962 0.000488281 15.2927 0.000488281 16C0.000488281 16.7074 0.0469883 17.4038 0.135926 18.087H13.9134L13.9135 31.8646C14.5967 31.9535 15.293 32 16.0005 32C16.7078 32 17.4043 31.9536 18.0874 31.8646V18.087L31.8651 18.087C31.954 17.4038 32.0005 16.7074 32.0005 16C32.0005 15.2927 31.954 14.5962 31.8651 13.913Z" fill="#D80027"/>
<path d="M20.1741 20.1741L27.3139 27.3139C27.6423 26.9856 27.9555 26.6424 28.2544 26.2867L22.1417 20.174L20.1741 20.1741ZM11.8264 20.174L4.68653 27.3137C5.01477 27.6421 5.35797 27.9554 5.71371 28.2543L11.8264 22.1415V20.174ZM11.8264 11.8262L4.6866 4.68625C4.35822 5.01449 4.04497 5.35768 3.74609 5.71343L9.85876 11.8261L11.8264 11.8262ZM20.1741 11.8263L27.314 4.68635C26.9857 4.35797 26.6425 4.04473 26.2868 3.74591L20.1741 9.85857V11.8263Z" fill="#D80027"/>
<path opacity="0.25" d="M26.1488 5.53241C28.4836 9.58857 23.7114 14.1471 17.5846 17.6737C11.4579 21.2004 4.07383 22.8827 2.73941 19.1747C1.1546 14.7711 3.19173 7.12132 9.31848 3.59464C15.4452 0.0679575 23.814 1.47628 26.1488 5.53241Z" fill="white"/>
</g>
</g>
<defs>
<clipPath id="clip0_892_747">
<rect width="32" height="32" fill="white"/>
</clipPath>
</defs>
</svg>
