<svg width="32" height="32" viewBox="0 0 32 32" fill="none" xmlns="http://www.w3.org/2000/svg">
<g clip-path="url(#clip0_924_758)">
<path d="M16 31.7812C24.7157 31.7812 31.7812 24.7157 31.7812 16C31.7812 7.28426 24.7157 0.21875 16 0.21875C7.28426 0.21875 0.21875 7.28426 0.21875 16C0.21875 24.7157 7.28426 31.7812 16 31.7812Z" fill="#017543"/>
<path d="M27.4926 14.03C27.3989 12.8131 27.1745 10.3425 27.1745 10.3425H27.3157C27.3251 10.3425 27.3343 10.3402 27.3425 10.3358C27.3508 10.3315 27.3579 10.3252 27.3633 10.3176C27.3686 10.3099 27.372 10.3011 27.3732 10.2918C27.3744 10.2826 27.3733 10.2731 27.3701 10.2644C27.2982 10.0738 27.1039 9.57375 26.9095 9.18938C26.9046 9.17978 26.8972 9.17172 26.8881 9.16609C26.8789 9.16045 26.8684 9.15747 26.8576 9.15747C26.8469 9.15747 26.8363 9.16045 26.8272 9.16609C26.818 9.17172 26.8106 9.17978 26.8057 9.18938L26.5832 9.63438C26.5783 9.64422 26.5763 9.6553 26.5776 9.66625L26.9689 13.3294C26.9689 13.3294 27.2126 15.8363 26.5382 16.5169C26.0189 17.0425 25.6232 17.3831 25.4682 17.5119C25.4636 17.5158 25.4603 17.5211 25.459 17.5271C25.4576 17.533 25.4582 17.5392 25.4607 17.5448C25.4631 17.5503 25.4673 17.5549 25.4726 17.5579C25.478 17.5609 25.4841 17.5621 25.4901 17.5613C25.8407 17.5175 27.0814 17.2756 27.3295 16.0413C27.3295 16.0431 27.5864 15.2463 27.4926 14.03Z" fill="white"/>
<path d="M25.5469 15.7825C25.5469 15.7825 25.8306 16.005 25.7444 14.1256C26.205 14.8263 26.5831 15.4225 26.7319 15.7094C26.7348 15.7151 26.7394 15.7198 26.7452 15.7227C26.7509 15.7257 26.7574 15.7268 26.7638 15.7258C26.7701 15.7248 26.776 15.7219 26.7806 15.7173C26.7852 15.7128 26.7883 15.707 26.7894 15.7006C26.8137 15.5756 26.8362 15.3156 26.7269 14.9194C26.6644 14.7025 26.2175 13.9631 25.6825 13.1288L25.5094 10.4413L25.6875 10.5625C25.6915 10.5653 25.6963 10.5667 25.7012 10.5667C25.7061 10.5666 25.7109 10.565 25.7149 10.5622C25.7189 10.5593 25.7218 10.5553 25.7234 10.5506C25.725 10.546 25.7251 10.541 25.7237 10.5363L25.3275 9.13438C25.3263 9.13009 25.324 9.12621 25.3207 9.12318C25.3175 9.12015 25.3134 9.1181 25.3091 9.11726C25.3047 9.11641 25.3002 9.1168 25.2961 9.11839C25.2919 9.11998 25.2883 9.12271 25.2856 9.12625L24.9219 9.60063C24.9199 9.60303 24.9184 9.60583 24.9175 9.60885C24.9167 9.61186 24.9164 9.61502 24.9169 9.61813C24.9337 9.74313 25.1144 11.0556 25.2781 12.505C25.0244 12.1163 24.7681 11.7294 24.5387 11.385V10.3463L24.6519 10.4375C24.6568 10.4415 24.6629 10.4437 24.6692 10.4439C24.6755 10.4441 24.6817 10.4422 24.6868 10.4385C24.6919 10.4348 24.6957 10.4295 24.6975 10.4234C24.6993 10.4174 24.6991 10.4109 24.6969 10.405L24.2631 9.2175C24.2615 9.21292 24.2587 9.20883 24.2551 9.2056C24.2514 9.20238 24.247 9.20013 24.2423 9.19907C24.2376 9.19801 24.2326 9.19817 24.2279 9.19953C24.2233 9.2009 24.219 9.20342 24.2156 9.20688C24.1287 9.29563 23.8981 9.55813 23.9181 9.82063C23.9419 10.1438 24.0537 10.1894 24.0537 10.1894C24.0537 10.1894 24.0662 10.3925 24.0869 10.71C23.8537 10.3638 23.7037 10.1438 23.7037 10.1438H23.8481C23.8564 10.1439 23.8646 10.1415 23.8716 10.1371C23.8786 10.1326 23.8841 10.1262 23.8875 10.1186C23.8909 10.111 23.892 10.1026 23.8906 10.0944C23.8893 10.0862 23.8856 10.0786 23.88 10.0725L23.16 9.24313C23.1546 9.23698 23.1476 9.23248 23.1398 9.23016C23.1319 9.22784 23.1236 9.22779 23.1158 9.23002C23.1079 9.23224 23.1008 9.23665 23.0954 9.24274C23.0899 9.24882 23.0863 9.25632 23.085 9.26438C23.0436 9.53512 23.0227 9.80861 23.0225 10.0825C23.0225 10.1017 23.0284 10.1205 23.0394 10.1363C23.1306 10.2681 23.5894 10.93 24.1569 11.7613C24.2156 12.6519 24.2856 13.6794 24.3256 14.1469C24.4044 15.0588 24.4212 15.8931 23.9181 15.8931C23.9181 15.8931 23.6281 15.9125 23.2594 15.2719C22.8906 14.6313 22.1344 16.6881 22.1344 16.6881C22.1344 16.6881 21.5881 17.9313 21.405 15.4244C21.4047 15.4181 21.4023 15.412 21.3981 15.4073C21.3939 15.4026 21.3882 15.3994 21.382 15.3984C21.3757 15.3974 21.3693 15.3985 21.3639 15.4017C21.3584 15.4048 21.3541 15.4097 21.3519 15.4156C21.2169 15.7863 21.1469 16.1774 21.145 16.5719C21.1256 17.3844 21.7269 17.7938 22.0569 17.6969C22.3869 17.6 22.7081 16.2225 23.0225 15.9125C23.0225 15.9125 23.3975 16.6688 24.1906 16.5138C24.9837 16.3588 24.8306 14.7675 24.8306 14.7675L24.5887 12.3963C24.8562 12.7906 25.1331 13.2006 25.3962 13.595C25.4775 14.4375 25.5406 15.2363 25.5469 15.7825Z" fill="white"/>
<path d="M21.6281 14.4788C21.6281 14.4788 21.8606 15.7588 21.6668 16.4963C21.6668 16.4963 21.7056 16.6707 21.9168 16.3994C22.1281 16.1282 22.2074 15.41 22.1493 14.9444C22.0912 14.4788 21.6256 10.5794 21.6256 10.5794C21.6256 10.5794 21.9168 10.8294 22.0331 10.6957C22.1493 10.5619 21.6837 10.0644 21.5093 9.1769C21.5093 9.1769 21.3724 8.9894 21.1399 9.29878C20.9074 9.60815 21.0437 10.0944 21.0437 10.0944L21.6281 14.4788ZM20.1924 10.9094C20.2312 11.5688 20.4837 15.2544 20.4837 15.2544C20.4837 15.2544 20.7831 16.7594 18.7337 17.6638C18.7246 17.6677 18.717 17.6745 18.712 17.683C18.707 17.6916 18.7048 17.7015 18.7058 17.7113C18.7068 17.7212 18.7108 17.7305 18.7174 17.7379C18.724 17.7453 18.7328 17.7504 18.7424 17.7525C18.8793 17.7832 19.1293 17.8063 19.4924 17.7132C20.0743 17.5632 20.5718 17.0782 20.7787 16.1469C20.9856 15.2157 20.5787 10.4438 20.5787 10.4438C20.5787 10.4438 20.7143 10.6569 20.7724 10.56C20.8212 10.4788 20.5724 9.56878 20.4887 9.27065C20.4855 9.25923 20.4797 9.24871 20.4718 9.23991C20.4638 9.23112 20.454 9.22429 20.4429 9.21999C20.4319 9.21568 20.42 9.21401 20.4082 9.2151C20.3964 9.21619 20.385 9.22002 20.3749 9.22628C20.2349 9.31003 19.9737 9.49503 19.9418 9.71878C19.938 9.74457 19.9412 9.77092 19.9512 9.79503C20.0878 10.152 20.1692 10.5278 20.1924 10.9094Z" fill="white"/>
<path d="M18.0543 12.0231L18.3812 16.7606C18.3817 16.7694 18.3851 16.7777 18.3907 16.7845C18.3963 16.7913 18.4039 16.7961 18.4124 16.7983C18.4209 16.8005 18.4299 16.8 18.4381 16.7968C18.4463 16.7937 18.4532 16.788 18.458 16.7806C18.5637 16.6231 18.7518 16.2106 18.7374 15.2738C18.7293 14.7231 18.6968 13.8306 18.6618 12.985C19.2387 13.9169 19.8249 14.9225 20.1618 15.6688C20.1656 15.6769 20.172 15.6836 20.1799 15.6879C20.1879 15.6922 20.197 15.6937 20.2059 15.6924C20.2148 15.6911 20.2231 15.6869 20.2294 15.6805C20.2358 15.6741 20.2399 15.6658 20.2412 15.6569C20.2666 15.4323 20.2296 15.205 20.1343 15C19.993 14.6875 19.4593 13.4288 18.6168 11.9375C18.5868 11.2638 18.563 10.7738 18.563 10.7738H18.6255C18.6385 10.7738 18.6512 10.7707 18.6627 10.7648C18.6742 10.7588 18.6841 10.7503 18.6916 10.7398C18.6991 10.7293 18.704 10.7171 18.7059 10.7043C18.7078 10.6915 18.7066 10.6785 18.7024 10.6663C18.5912 10.3375 18.2562 9.36375 18.1755 9.29938C18.0787 9.22188 17.8262 9.5325 17.8262 9.72625C17.8322 9.86088 17.8653 9.99289 17.9237 10.1144L17.9743 10.8563C17.8399 10.6419 17.6999 10.4263 17.5549 10.2113C17.5549 10.2113 17.8843 10.3663 17.8262 10.2113C17.7743 10.0725 17.1774 9.39438 16.8587 9.15438C16.8494 9.14762 16.8385 9.14353 16.8271 9.14256C16.8157 9.14159 16.8042 9.14377 16.794 9.14886C16.7837 9.15396 16.775 9.16177 16.7689 9.17145C16.7628 9.18113 16.7595 9.1923 16.7593 9.20375V10.0163C16.7593 10.1906 16.973 10.3844 17.0093 10.4431C17.0274 10.4688 17.4818 11.1331 18.0543 12.0231Z" fill="white"/>
<path d="M11.7344 15.6425C11.7344 15.6425 11.6094 15.7562 11.3863 15.9331L11.4182 15.2456C11.4182 15.2403 11.4164 15.2351 11.4131 15.2309C11.4097 15.2267 11.4051 15.2237 11.3999 15.2225C11.3947 15.2213 11.3892 15.2218 11.3844 15.2241C11.3795 15.2264 11.3756 15.2302 11.3732 15.235L11.0169 16.0412C11.0169 16.0412 11.0044 16.1156 10.9938 16.2337C10.3888 16.6912 9.74225 17.0909 9.06256 17.4275C9.04499 17.4358 9.03053 17.4495 9.02127 17.4665C9.01202 17.4836 9.00846 17.5032 9.01111 17.5225C9.01376 17.5417 9.02248 17.5596 9.03601 17.5735C9.04953 17.5875 9.06716 17.5968 9.08631 17.6C9.15007 17.6045 9.21403 17.5951 9.27381 17.5725C9.86352 17.3679 10.437 17.1193 10.9894 16.8287C11.0301 17.3569 11.2301 17.9312 11.9319 17.7794C13.1732 17.5106 13.6969 16.0431 13.6969 16.0431C14.3369 17.6269 15.8307 17.7769 15.9863 17.7125C16.0951 17.6681 16.1738 17.3819 16.2138 17.2156C16.2208 17.1844 16.2155 17.1518 16.1991 17.1243C16.1827 17.0969 16.1564 17.0768 16.1257 17.0681C15.1488 16.7906 15.3757 16.3181 15.6951 16.1469C16.0251 15.9725 17.7319 15.4869 17.7319 15.4869C17.9351 15.3731 17.9969 15.1419 18.0157 14.9962C18.0178 14.98 18.0165 14.9636 18.0117 14.9479C18.007 14.9323 17.999 14.9178 17.9882 14.9055C17.9775 14.8932 17.9642 14.8833 17.9493 14.8766C17.9344 14.8698 17.9183 14.8663 17.9019 14.8662H15.1294C15.5062 14.6736 15.8949 14.5053 16.2932 14.3625H16.5001C16.5096 14.3624 16.5189 14.3598 16.5271 14.3549C16.5352 14.35 16.5419 14.343 16.5465 14.3347C16.551 14.3263 16.5532 14.3169 16.5529 14.3074C16.5525 14.2979 16.5496 14.2886 16.5444 14.2806L16.5088 14.2262C17.0907 14.0906 17.4013 13.6637 17.4207 13.3306C17.4401 12.9975 17.0319 12.6162 16.6832 12.48C16.3344 12.3437 16.0819 12.5387 15.8707 12.9456C15.6594 13.3525 15.8707 13.78 15.8707 13.78L14.3751 14.4375L14.1438 15.1331C14.1389 15.1473 14.1373 15.1625 14.1391 15.1774C14.141 15.1923 14.1462 15.2066 14.1544 15.2192C14.1626 15.2318 14.1735 15.2424 14.1864 15.2501C14.1993 15.2578 14.2138 15.2625 14.2288 15.2637L14.7438 15.3112C15.2094 15.2137 15.7332 15.5437 15.7332 15.5437C14.8219 15.99 15.0351 16.785 15.0351 16.785C13.9813 16.515 13.9288 14.9037 13.8907 14.3606C13.8588 13.9194 13.3907 12.8269 13.2169 12.4312C13.2124 12.4183 13.2039 12.4071 13.1927 12.3992C13.1815 12.3912 13.1682 12.387 13.1544 12.387C13.1407 12.387 13.1273 12.3912 13.1161 12.3992C13.1049 12.4071 13.0965 12.4183 13.0919 12.4312L12.9013 12.9231C12.8868 12.96 12.8846 13.0005 12.8951 13.0387L13.5388 15.4244C13.5388 15.4244 13.0151 16.6269 12.2194 17.015C11.4238 17.4031 11.3444 16.7819 11.3444 16.7819L11.3526 16.6131C11.5883 16.4757 11.8076 16.312 12.0063 16.125C12.7044 15.4269 12.9957 15.0387 12.5494 13.6031H12.6663C12.6785 13.6033 12.6905 13.6002 12.7011 13.5943C12.7118 13.5884 12.7207 13.5798 12.727 13.5694C12.7333 13.559 12.7368 13.5471 12.7371 13.5349C12.7374 13.5228 12.7346 13.5107 12.7288 13.5C12.6207 13.2994 12.3732 12.8675 12.1813 12.75C11.9313 12.595 11.8688 13.3019 11.8688 13.4431C11.8688 13.5844 12.0826 13.6037 12.0826 13.6037L12.4319 14.5156C12.4248 14.7481 12.3565 14.9747 12.2341 15.1725C12.1117 15.3703 11.9394 15.5324 11.7344 15.6425ZM16.4007 13.63C16.3769 13.635 16.3532 13.64 16.3307 13.6431C16.3307 13.6431 16.3244 13.615 16.3163 13.5731C16.3181 13.5824 16.3217 13.5912 16.3269 13.5991C16.3321 13.607 16.3389 13.6138 16.3467 13.6191C16.3545 13.6243 16.3633 13.628 16.3726 13.6299C16.3819 13.6318 16.3914 13.6318 16.4007 13.63Z" fill="white"/>
<path d="M12.9174 11.9375L13.383 10.6788C13.383 10.6788 13.2861 11.7819 13.558 12.1506C13.8299 12.5194 14.4699 12.6938 15.0711 11.7238C15.0711 11.7238 15.3643 12.2475 15.8674 12.2281C16.3705 12.2088 16.4299 11.6075 16.4299 11.2C16.4299 10.7925 16.2355 9.97815 16.2355 9.97815C16.2355 9.97815 16.7786 10.3269 16.643 9.97815C16.5074 9.6294 16.158 9.13565 16.0224 9.12065C15.9086 9.10752 15.7136 9.47127 15.653 9.59002C15.6471 9.60122 15.6438 9.61359 15.6433 9.62623C15.6427 9.63888 15.645 9.65148 15.6499 9.66315C15.7305 9.85065 16.0911 10.7431 16.0249 11.2775C15.9474 11.8788 15.5205 11.8206 15.3261 11.1806C15.1386 10.5556 15.3711 9.86815 14.9561 9.15065C14.952 9.14381 14.9462 9.1381 14.9393 9.134C14.9324 9.12989 14.9247 9.12752 14.9167 9.12709C14.9087 9.12666 14.9007 9.12818 14.8934 9.13152C14.8861 9.13487 14.8798 9.13993 14.8749 9.14627L14.6249 9.47377C14.6205 9.47972 14.6176 9.48656 14.6161 9.4938C14.6147 9.50104 14.615 9.5085 14.6168 9.51565C14.6643 9.69252 14.9668 10.8481 14.8236 11.2775C14.6686 11.7431 13.9318 12.2669 13.718 11.5275C13.5305 10.8756 13.7805 10.0575 13.843 9.87627C13.847 9.86464 13.8484 9.85226 13.847 9.84004C13.8456 9.82782 13.8414 9.81607 13.8349 9.80565L13.7018 9.59127C13.6954 9.58108 13.6869 9.57239 13.6769 9.5658C13.6668 9.55921 13.6555 9.55487 13.6436 9.55309C13.6317 9.55131 13.6196 9.55212 13.6081 9.55548C13.5965 9.55883 13.5858 9.56465 13.5768 9.57252C13.4105 9.72002 13.0205 10.1106 12.9449 10.5963C12.8474 11.2169 12.6949 11.76 12.4011 11.6244C12.1074 11.4888 12.0155 10.5619 12.1449 9.8269C12.1453 9.82417 12.145 9.82138 12.1438 9.81885C12.1427 9.81633 12.1409 9.81418 12.1386 9.81266C12.1363 9.81115 12.1336 9.81033 12.1308 9.8103C12.1281 9.81028 12.1254 9.81105 12.123 9.81252C12.083 9.84065 12.0043 9.93752 11.9355 10.2663C11.838 10.7319 11.838 11.5081 12.248 12.0513C12.658 12.5944 12.9174 11.9375 12.9174 11.9375ZM11.3705 10.3881C11.683 10.3881 11.5399 10.0756 11.5399 10.0756C11.6166 9.91636 11.661 9.74345 11.6705 9.5669C11.7011 9.29752 11.5368 9.21065 11.3968 9.1844C11.3335 9.17295 11.2682 9.18112 11.2096 9.20782C11.1511 9.23452 11.1021 9.27846 11.0693 9.33377C10.863 9.68252 11.1224 10.2088 11.1224 10.2088C11.1224 10.2088 10.653 10.9131 10.2349 11.1613C9.81677 11.4094 9.89615 11.5131 9.89615 11.5131C10.6136 11.5 11.3705 10.3881 11.3705 10.3881ZM11.3443 9.54627C11.4393 9.4969 11.4555 9.6044 11.4311 9.67127C11.4168 9.70927 11.4003 9.74641 11.3818 9.78252C11.3818 9.78252 11.3068 9.91127 11.2611 9.8119C11.238 9.76547 11.2337 9.71186 11.2492 9.66233C11.2647 9.61279 11.2988 9.5712 11.3443 9.54627Z" fill="white"/>
<path d="M9.50507 15.4944C9.4957 15.3194 9.4557 14.6963 9.40757 13.9525L9.47757 13.91C10.0219 14.5825 10.6138 13.8475 10.6138 13.8475C10.7901 14.1675 11.0944 14.1675 11.3344 14.0875C11.5744 14.0075 11.5582 13.0475 11.5101 12.8869C11.4707 12.7544 11.2551 12.9075 11.1819 12.9638C11.1748 12.9694 11.1693 12.9768 11.166 12.9853C11.1627 12.9937 11.1617 13.0029 11.1632 13.0119C11.1857 13.15 11.2638 13.7313 10.9757 13.7031C10.6876 13.675 10.7526 13.1581 10.7744 13.0081C10.7752 13.0032 10.7749 12.9982 10.7734 12.9935C10.772 12.9887 10.7695 12.9843 10.7661 12.9807C10.7628 12.977 10.7586 12.9742 10.754 12.9723C10.7494 12.9705 10.7444 12.9697 10.7394 12.97L10.6694 12.975C10.6627 12.9757 10.6563 12.9784 10.6511 12.9828C10.6458 12.9871 10.642 12.9929 10.6401 12.9994C10.3469 14.04 9.89007 13.7494 9.82757 13.4794C9.76507 13.2094 9.81195 12.9994 9.69945 12.9831C9.65882 12.9769 9.51757 13.0713 9.3557 13.1931C9.2757 11.9375 9.18757 10.645 9.18757 10.645C9.18757 10.645 9.57132 10.9656 9.49132 10.5331C9.42882 10.1844 9.18507 9.51565 9.09445 9.27002C9.09091 9.26065 9.08496 9.25237 9.07719 9.24603C9.06943 9.23969 9.06013 9.23552 9.05023 9.23393C9.04033 9.23235 9.03019 9.2334 9.02084 9.237C9.01148 9.24059 9.00324 9.2466 8.99695 9.2544L8.6632 9.6669C8.65704 9.67436 8.6529 9.68327 8.65115 9.69279C8.6494 9.7023 8.6501 9.71211 8.6532 9.72127C8.69955 9.84869 8.72856 9.98175 8.73945 10.1169C8.73945 10.2775 8.92695 12.8044 8.9757 13.19C8.98382 13.2525 8.99945 13.3419 9.01757 13.4581C8.85257 13.5919 8.7232 13.7019 8.7232 13.7019L8.6432 13.4781C8.6432 13.4781 8.22695 12.87 7.90695 12.9981C7.58695 13.1263 7.45882 13.4619 7.39507 13.9581C7.33132 14.4544 7.63507 14.63 7.85882 14.6694C8.08257 14.7088 8.48382 14.3425 8.48382 14.3425C8.53195 14.905 8.13132 15.27 8.13132 15.27C7.40382 15.745 7.13945 15.895 6.70757 15.7181C6.35132 15.5731 6.3432 14.6663 6.35132 14.3525C6.35182 14.3464 6.35014 14.3403 6.34658 14.3352C6.34301 14.3302 6.33779 14.3266 6.33182 14.325C6.32586 14.3234 6.31953 14.324 6.31396 14.3267C6.30838 14.3293 6.30391 14.3338 6.30132 14.3394C5.9682 14.9731 6.10632 15.9763 6.5632 16.3269C7.0432 16.695 7.42757 16.4706 8.22757 15.8944C9.02757 15.3181 8.8682 14.2781 8.8682 14.2781L9.1007 14.1369C9.1532 14.7813 9.13007 15.5744 8.7557 16.0431C8.1307 16.8225 7.20382 17.0469 6.77132 16.9806C6.33882 16.9144 5.65257 16.6613 5.95445 14.7931C5.9557 14.7891 5.9557 14.7847 5.95445 14.7806L5.90195 14.6969C5.90013 14.694 5.89753 14.6917 5.89444 14.6902C5.89136 14.6887 5.88792 14.6881 5.88452 14.6885C5.88112 14.6889 5.8779 14.6903 5.87523 14.6924C5.87256 14.6946 5.87056 14.6974 5.86945 14.7006C5.72621 15.088 5.64193 15.4946 5.61945 15.9069C5.6032 16.5319 5.82195 18.0738 7.56132 17.5981C9.3007 17.1225 9.53195 16.0063 9.50507 15.4944Z" fill="white"/>
<path d="M5.37127 12.3594C5.52439 12.0744 5.56877 10.9444 5.78814 10.6919C5.78814 10.6919 5.77689 11.1294 5.75502 11.3719C5.73314 11.6144 5.65626 12.7763 6.61064 12.7763L6.79001 15.0263C6.79056 15.0351 6.79365 15.0437 6.79891 15.0508C6.80418 15.058 6.8114 15.0635 6.81971 15.0667C6.82802 15.0698 6.83707 15.0705 6.84577 15.0687C6.85447 15.0668 6.86245 15.0625 6.86877 15.0563C6.94127 14.9869 7.04252 14.8688 7.05002 14.7494C7.06064 14.5619 6.91814 12.5331 6.91814 12.5331C6.91814 12.5331 7.14877 12.4019 7.31314 11.9625C7.31314 11.9625 7.43377 12.5994 7.93814 12.5875C8.44252 12.5756 8.58001 12.1706 8.61001 11.8413C8.64001 11.5119 8.38751 10.4806 8.38751 10.4806C8.38751 10.4806 8.71689 10.525 8.57501 10.2725C8.43314 10.02 8.25689 9.6875 8.16876 9.68938C8.08064 9.69125 7.84439 9.97625 7.85626 10.1738C7.86814 10.3713 8.12251 11.0488 8.17751 11.2706C8.23251 11.4925 8.37002 11.8631 8.08127 11.9075C7.79252 11.9519 7.49689 11.6656 7.47501 11.2381C7.45314 10.8106 7.41251 10.1406 7.41251 10.1406C7.41251 10.1406 7.23689 9.66563 7.12689 9.68938C7.01689 9.71313 6.93939 9.99813 6.97377 10.2069C7.00814 10.4156 7.18189 11.2725 7.16127 11.5075C7.15433 11.6084 7.1228 11.7062 7.06942 11.7921C7.01603 11.8781 6.94243 11.9497 6.85502 12.0006L6.73376 10.2506C6.73376 10.2506 6.94189 10.2175 6.84314 9.91063C6.74439 9.60375 6.72127 9.265 6.55189 9.17625C6.38252 9.0875 6.27252 9.38375 6.27252 9.5925C6.27252 9.80125 6.41501 10.3425 6.41501 10.3425L6.55002 12.0819C6.07064 12.1281 5.89752 11.1444 6.05377 10.8219C6.21002 10.4994 6.29939 9.92688 6.12189 9.8475C5.94439 9.76813 5.68064 10.0319 5.52689 10.405C5.37314 10.7781 5.41751 12.0175 5.04439 12.03C4.70689 12.04 4.73751 10.53 4.74689 10.2438C4.74705 10.2382 4.74562 10.2328 4.74278 10.2281C4.73994 10.2234 4.73581 10.2196 4.73087 10.2172C4.72594 10.2147 4.7204 10.2137 4.71493 10.2144C4.70946 10.215 4.70429 10.2172 4.70001 10.2206C4.65501 10.2588 4.58439 10.3594 4.51751 10.6256C4.40814 11.0631 4.63876 12.2275 4.82501 12.5006C5.01126 12.7738 5.21752 12.645 5.37127 12.3594Z" fill="white"/>
<path d="M6.21512 13.2444C5.97575 13.3156 5.157 13.605 4.75512 14.34C4.75232 14.3446 4.75119 14.3501 4.75192 14.3555C4.75265 14.3608 4.7552 14.3658 4.75914 14.3695C4.76309 14.3733 4.76819 14.3755 4.7736 14.3759C4.77901 14.3764 4.7844 14.3749 4.78887 14.3719C5.01262 14.2269 5.68762 13.8037 6.25012 13.6C6.26017 13.5964 6.26886 13.5898 6.27502 13.581C6.28117 13.5723 6.28448 13.5619 6.2845 13.5512V13.2944C6.28454 13.286 6.28259 13.2777 6.27879 13.2703C6.275 13.2628 6.26948 13.2564 6.26269 13.2515C6.25591 13.2466 6.24805 13.2434 6.23977 13.2421C6.2315 13.2409 6.22304 13.2417 6.21512 13.2444ZM5.43762 16.6931C5.26762 16.6931 5.30762 16.9231 5.11762 16.9631C4.92762 17.0031 4.96762 16.5631 4.97762 16.4006C4.98762 16.2381 5.06762 16.0106 5.10762 15.8006C5.12485 15.6633 5.11573 15.5239 5.08075 15.39C5.0789 15.3835 5.07514 15.3776 5.06995 15.3733C5.06475 15.3689 5.05837 15.3662 5.05163 15.3656C5.04488 15.3649 5.03809 15.3663 5.03214 15.3695C5.02618 15.3727 5.02134 15.3777 5.01825 15.3837C4.92197 15.5953 4.84519 15.8151 4.78887 16.0406C4.67887 16.4781 4.60887 17.47 5.05887 17.49C5.50887 17.51 5.607 16.6931 5.43762 16.6931ZM26.2189 11.2419C26.3514 11.2019 26.3651 10.77 26.3439 10.3706C26.3226 9.97123 26.1564 9.67248 26.0845 9.64623C26.0126 9.61998 25.8714 9.94498 25.8714 9.94498C25.9729 10.1352 26.0534 10.336 26.1114 10.5437C26.2064 10.8831 26.0857 11.2819 26.2189 11.2419ZM22.5257 12.0437C22.6226 12.0825 22.7095 11.9519 22.7095 11.9519C22.7095 11.9519 23.022 12.655 23.1026 12.6794C23.1026 12.6794 23.1801 12.7619 23.2045 12.5387C23.2289 12.3156 23.1657 11.6637 23.2382 11.5781C23.3107 11.4925 23.3745 11.5587 23.3982 11.5975C23.422 11.6362 23.5539 11.6656 23.5345 11.5006C23.5151 11.3356 23.4176 11.1175 23.2626 11.1806C23.1076 11.2437 23.0251 11.4812 23.0589 11.6806C23.0791 11.8691 23.0839 12.0589 23.0732 12.2481C23.0732 12.2481 22.8551 11.6131 22.7339 11.54C22.6126 11.4669 22.5064 11.4531 22.4964 11.5744C22.4864 11.6956 22.4282 12.005 22.5257 12.0437ZM23.722 12.8825C23.4995 13.0594 22.722 13.685 22.6664 13.8675C22.5982 14.0806 22.7914 13.9925 22.7914 13.9925C22.7914 13.9925 23.8295 13.3712 23.8682 13.1969C23.8837 13.0967 23.8666 12.9941 23.8195 12.9044C23.8155 12.8955 23.8095 12.8877 23.802 12.8816C23.7945 12.8755 23.7857 12.8712 23.7762 12.8691C23.7668 12.867 23.7569 12.8671 23.7475 12.8694C23.7381 12.8717 23.7294 12.8762 23.722 12.8825ZM23.707 14.8281C23.9626 14.7394 23.9251 14.365 23.8764 14.1975C23.8276 14.03 23.6945 13.6831 23.5364 13.8381C23.3782 13.9931 23.4032 14.0612 23.607 14.2756C23.7751 14.4512 23.712 14.7194 23.6851 14.8081C23.6844 14.8111 23.6845 14.8141 23.6854 14.817C23.6862 14.8199 23.6879 14.8226 23.6901 14.8246C23.6924 14.8267 23.6951 14.8281 23.6981 14.8287C23.701 14.8293 23.7041 14.8291 23.707 14.8281ZM19.2945 9.92373C19.3345 10.0962 19.3007 10.3731 19.3057 10.5094C19.3061 10.5173 19.3088 10.5249 19.3134 10.5314C19.3181 10.5378 19.3245 10.5428 19.3319 10.5457C19.3393 10.5486 19.3473 10.5493 19.3551 10.5478C19.3629 10.5462 19.3701 10.5424 19.3757 10.5369C19.4838 10.4248 19.55 10.2789 19.5632 10.1237C19.6051 9.78248 19.3801 9.19686 19.2551 9.17686C19.1301 9.15686 18.9632 9.30748 19.0464 9.53248C19.1295 9.75748 19.2439 9.70748 19.2945 9.92373ZM19.5282 11.1694C19.5282 11.0737 19.5195 10.9937 19.4445 11.0275C19.3695 11.0612 19.4195 11.3237 19.2945 11.3987C19.1695 11.4737 19.1782 10.9906 19.1282 11.1319C19.0782 11.2731 19.1364 11.5906 19.2614 11.6256C19.3864 11.6606 19.4695 11.4319 19.4695 11.4319C19.4695 11.4319 19.6026 11.6031 19.7526 11.5781C19.9026 11.5531 19.8526 10.9737 19.8526 10.9737C19.8526 10.9737 19.7526 10.8987 19.7307 11.0325C19.7089 11.1662 19.7276 11.2987 19.6282 11.3406C19.5289 11.3825 19.5282 11.2656 19.5282 11.1694ZM15.2382 12.8169C15.2157 12.95 15.2382 13.0831 15.1357 13.125C15.0332 13.1669 15.0357 13.05 15.0357 12.9537C15.0357 12.8575 15.027 12.7781 14.952 12.8119C14.877 12.8456 14.927 13.1081 14.802 13.1831C14.677 13.2581 14.6857 12.775 14.6357 12.9169C14.5857 13.0587 14.6439 13.375 14.7689 13.41C14.8939 13.445 14.977 13.2169 14.977 13.2169C14.977 13.2169 15.1101 13.3875 15.2601 13.3625C15.4101 13.3375 15.3601 12.7581 15.3601 12.7581C15.3601 12.7581 15.2607 12.6831 15.2382 12.8169ZM7.4245 9.71436C7.5745 9.73936 7.70762 9.56873 7.70762 9.56873C7.70762 9.56873 7.79075 9.79748 7.91575 9.76248C8.04075 9.72748 8.09887 9.41061 8.04887 9.26873C7.99887 9.12686 8.00825 9.61061 7.88262 9.53561C7.757 9.46061 7.80762 9.19686 7.73262 9.16373C7.65762 9.13061 7.64887 9.20998 7.64887 9.30623C7.64887 9.40248 7.64887 9.51873 7.54887 9.47686C7.44887 9.43498 7.46887 9.30186 7.44637 9.16873C7.42387 9.03561 7.32137 9.11061 7.32137 9.11061C7.32137 9.11061 7.2745 9.68748 7.4245 9.71436ZM24.5239 17.1725C24.5239 17.1725 24.502 17.1287 24.567 17.0125C24.632 16.8962 24.6764 16.7725 24.5201 16.7069C24.3639 16.6412 24.1089 16.6444 24.167 16.8231C24.2251 17.0019 24.3545 16.9181 24.327 17.0731C24.2995 17.2281 24.2739 17.2262 24.1589 17.3569C24.0439 17.4875 23.9901 17.6406 24.1589 17.6694C24.3276 17.6981 24.6689 17.6037 24.7564 17.4437C24.8439 17.2837 24.7801 17.1137 24.5239 17.1725ZM17.0001 17.4469C17.0832 17.6575 17.447 17.5362 17.6064 17.4469C17.7657 17.3575 18.2314 17.045 18.0232 17.0131C17.8151 16.9812 17.3982 17.2631 17.3001 17.23C17.202 17.1969 17.1407 17.0619 17.1982 16.8969C17.2557 16.7319 17.3576 16.6044 17.2107 16.6044C17.0639 16.6044 16.5595 16.9169 16.6939 17.0131C16.6939 17.0131 16.9745 16.815 17.0001 16.9362C17.0257 17.0575 16.9139 17.2362 17.0001 17.4469ZM11.0914 11.2331C11.0182 11.2012 10.8657 11.4562 10.7826 11.5837C10.6995 11.7112 10.5951 12.2475 10.9501 12.2862C11.2089 12.3137 11.4695 11.935 11.4745 11.8075C11.4795 11.68 11.397 11.6981 11.3145 11.8162C11.232 11.9344 11.132 12.0719 10.977 11.985C10.822 11.8981 10.9545 11.5019 11.0639 11.3787C11.0626 11.3787 11.1645 11.265 11.0914 11.2331ZM10.4795 15.75C10.592 15.75 10.6264 15.545 10.667 15.4425C10.7076 15.34 10.7826 14.7656 10.5776 14.6694C10.3726 14.5731 10.2495 14.7106 10.2426 14.9431C10.2357 15.1756 10.5095 15.12 10.5095 15.12C10.5714 15.5225 10.3664 15.75 10.4795 15.75ZM5.14825 9.42748C5.23887 9.49686 5.232 9.36498 5.322 9.35873C5.412 9.35248 5.3845 9.58811 5.3845 9.58811C5.3845 9.65811 5.33325 9.92561 5.31137 10.0412C5.31068 10.0452 5.31132 10.0494 5.31319 10.053C5.31506 10.0566 5.31805 10.0595 5.32173 10.0613C5.3254 10.0631 5.32955 10.0636 5.33354 10.0628C5.33754 10.062 5.34117 10.0599 5.34387 10.0569C5.49075 9.89061 5.53887 9.46561 5.55137 9.33873C5.56512 9.20061 5.517 8.99061 5.322 9.08873C5.127 9.18686 5.05825 9.35873 5.14825 9.42748ZM14.2701 10.6175C14.2761 10.6231 14.2834 10.627 14.2914 10.6289C14.2993 10.6307 14.3077 10.6304 14.3155 10.628C14.3233 10.6256 14.3303 10.6211 14.3359 10.6151C14.3414 10.6091 14.3452 10.6017 14.347 10.5937C14.4237 10.3187 14.4374 10.0298 14.387 9.74873C14.297 9.31123 14.2882 9.29936 14.1895 9.28686C14.0907 9.27436 14.002 9.33686 14.0282 9.44436C14.0545 9.55186 14.3051 10.0087 14.2701 10.6175ZM23.0289 20.4156C22.6439 20.4231 22.0707 20.6194 21.8745 20.6494C21.6782 20.6794 21.437 20.6575 21.4064 20.5137C21.3757 20.37 21.4595 20.2569 21.5276 20.3175C21.5957 20.3781 21.8289 20.4006 21.7464 20.1819C21.6639 19.9631 21.3389 19.8269 21.3389 19.8269C21.3367 19.7318 21.3057 19.6396 21.2501 19.5625C21.1595 19.4487 21.0001 19.4419 21.0001 19.5925C20.9956 19.6718 20.9752 19.7493 20.9402 19.8206C20.9052 19.8919 20.8563 19.9554 20.7964 20.0075C20.6751 20.1206 20.532 20.4531 20.7126 20.5131C20.8932 20.5731 21.0295 20.3469 21.0295 20.3469C21.0295 20.3469 21.1657 20.5344 20.8939 20.7019C20.622 20.8694 19.2139 20.9475 19.2139 20.9475C18.5151 21.1219 14.2376 21.2094 12.317 21.1219C10.4164 21.0362 7.91262 20.0944 7.86012 20.0756C7.897 20.105 9.07325 21.0544 9.77137 21.3581C10.3776 21.6225 12.1407 21.9012 12.1407 21.9012C12.1407 21.9012 15.9364 21.9919 17.3701 21.985C18.8039 21.9781 20.5545 21.8037 20.7282 21.7656C20.902 21.7275 21.2789 21.7812 21.3314 21.8562C21.3453 21.8775 21.3547 21.9014 21.359 21.9264C21.3634 21.9514 21.3627 21.9771 21.3568 22.0018C21.351 22.0265 21.3402 22.0498 21.325 22.0702C21.3099 22.0907 21.2908 22.1078 21.2689 22.1206C21.1632 22.1831 21.012 21.8944 20.967 22.0675C20.922 22.2406 21.0876 22.38 21.2764 22.5431C21.4651 22.7062 21.4426 22.9281 21.6164 22.935C21.7901 22.9419 21.767 22.7844 21.7589 22.6787C21.7507 22.5731 21.8426 22.4825 21.9464 22.4375C22.0501 22.3925 22.0895 22.1506 22.0895 22.0375C22.0895 21.9244 21.9607 21.9319 21.8857 22.0144C21.8684 22.0376 21.8454 22.056 21.8189 22.068C21.7925 22.0799 21.7634 22.0849 21.7345 22.0825C21.7376 21.9279 21.7877 21.7779 21.8782 21.6525C22.0214 21.4794 22.0657 21.63 22.4064 21.675C22.747 21.72 22.7082 21.645 22.882 21.4412C23.0557 21.2375 23.1232 21.4037 23.1232 21.4037C23.1232 21.4037 23.2664 21.9544 23.6289 21.7356C23.9914 21.5169 23.9457 21.1169 23.9007 20.8906C23.8557 20.6644 23.4139 20.4081 23.0289 20.4156ZM21.0426 21.2906C21.0179 21.2906 20.9942 21.2808 20.9768 21.2633C20.9593 21.2459 20.9495 21.2222 20.9495 21.1975C20.9495 21.1726 20.9594 21.1488 20.977 21.1312C20.9945 21.1136 21.0184 21.1037 21.0432 21.1037C21.0681 21.1037 21.092 21.1136 21.1095 21.1312C21.1271 21.1488 21.137 21.1726 21.137 21.1975C21.1369 21.2097 21.1344 21.2219 21.1296 21.2331C21.1248 21.2444 21.1178 21.2546 21.109 21.2632C21.1002 21.2717 21.0898 21.2784 21.0785 21.2829C21.0671 21.2874 21.0549 21.2896 21.0426 21.2894V21.2906ZM21.2451 21.5712C21.2266 21.5714 21.2084 21.566 21.1929 21.5557C21.1774 21.5455 21.1653 21.5309 21.1581 21.5138C21.1509 21.4967 21.1489 21.4778 21.1525 21.4596C21.156 21.4414 21.1649 21.4246 21.178 21.4114C21.1911 21.3982 21.2078 21.3892 21.226 21.3856C21.2442 21.3819 21.2631 21.3837 21.2802 21.3908C21.2974 21.3979 21.3121 21.4099 21.3224 21.4253C21.3327 21.4408 21.3382 21.4589 21.3382 21.4775C21.3379 21.502 21.328 21.5255 21.3106 21.5427C21.2932 21.56 21.2697 21.5698 21.2451 21.57V21.5712ZM21.267 20.9462C21.2486 20.9461 21.2307 20.9405 21.2154 20.9302C21.2002 20.9199 21.1884 20.9053 21.1814 20.8883C21.1745 20.8713 21.1727 20.8526 21.1764 20.8346C21.18 20.8165 21.1889 20.8 21.202 20.787C21.215 20.7741 21.2316 20.7653 21.2497 20.7617C21.2677 20.7582 21.2864 20.7601 21.3034 20.7671C21.3204 20.7742 21.3349 20.7861 21.3451 20.8014C21.3553 20.8167 21.3607 20.8347 21.3607 20.8531C21.3604 20.8777 21.3504 20.9012 21.3328 20.9184C21.3152 20.9356 21.2916 20.9451 21.267 20.945V20.9462ZM21.5901 21.4781C21.5712 21.478 21.5528 21.4722 21.5373 21.4614C21.5218 21.4507 21.5099 21.4355 21.5031 21.4179C21.4964 21.4003 21.4951 21.381 21.4995 21.3627C21.5038 21.3443 21.5137 21.3277 21.5276 21.315C21.518 21.3238 21.5103 21.3345 21.505 21.3465C21.4998 21.3584 21.497 21.3713 21.497 21.3844C21.4971 21.4019 21.5022 21.4191 21.5117 21.4339C21.5212 21.4488 21.5347 21.4606 21.5506 21.468C21.5665 21.4755 21.5843 21.4783 21.6017 21.4761C21.6192 21.4739 21.6356 21.4668 21.6492 21.4557C21.6628 21.4445 21.673 21.4297 21.6785 21.413C21.684 21.3963 21.6847 21.3784 21.6805 21.3613C21.6763 21.3443 21.6673 21.3287 21.6547 21.3166C21.642 21.3044 21.6261 21.296 21.6089 21.2925C21.6337 21.295 21.6566 21.3072 21.6724 21.3266C21.6882 21.3459 21.6957 21.3707 21.6932 21.3956C21.6908 21.4205 21.6785 21.4433 21.6592 21.4592C21.6398 21.475 21.615 21.4825 21.5901 21.48V21.4781ZM21.6214 21.1331C21.6028 21.1331 21.5847 21.1276 21.5693 21.1173C21.5539 21.107 21.5419 21.0924 21.5348 21.0752C21.5277 21.0581 21.5258 21.0393 21.5294 21.0211C21.533 21.0029 21.542 20.9862 21.5551 20.9731C21.5682 20.96 21.5849 20.951 21.6031 20.9474C21.6213 20.9438 21.6401 20.9456 21.6572 20.9527C21.6744 20.9598 21.689 20.9719 21.6993 20.9873C21.7096 21.0027 21.7151 21.0208 21.7151 21.0394C21.7148 21.064 21.7048 21.0875 21.6872 21.1048C21.6697 21.1222 21.646 21.1319 21.6214 21.1319V21.1331ZM22.2601 21.1331C22.2307 21.1331 22.2019 21.1244 22.1775 21.108C22.153 21.0917 22.134 21.0685 22.1227 21.0413C22.1114 21.0141 22.1085 20.9842 22.1142 20.9553C22.12 20.9265 22.1341 20.9 22.1549 20.8792C22.1757 20.8584 22.2022 20.8442 22.2311 20.8385C22.26 20.8327 22.2899 20.8357 22.317 20.8469C22.3442 20.8582 22.3675 20.8773 22.3838 20.9017C22.4001 20.9262 22.4089 20.9549 22.4089 20.9844C22.409 21.0039 22.4052 21.0234 22.3977 21.0415C22.3903 21.0596 22.3793 21.0761 22.3655 21.0899C22.3517 21.1038 22.3353 21.1148 22.3172 21.1223C22.2991 21.1299 22.2797 21.1337 22.2601 21.1337V21.1331ZM23.0989 21.0737C23.0694 21.0739 23.0406 21.0652 23.016 21.0489C22.9914 21.0326 22.9723 21.0094 22.9609 20.9822C22.9496 20.955 22.9466 20.925 22.9523 20.8961C22.958 20.8672 22.9722 20.8406 22.9931 20.8198C23.0139 20.799 23.0405 20.7848 23.0694 20.7791C23.0983 20.7733 23.1283 20.7763 23.1555 20.7877C23.1827 20.799 23.2059 20.8182 23.2222 20.8427C23.2385 20.8673 23.2471 20.8961 23.247 20.9256C23.247 20.9649 23.2314 21.0027 23.2036 21.0306C23.1759 21.0584 23.1382 21.0742 23.0989 21.0744V21.0737Z" fill="white"/>
<path opacity="0.12" d="M24.7938 4.77498C22.1428 2.68929 18.838 1.61124 15.467 1.73248C7.73822 1.99186 1.55759 8.46936 1.64197 16.2025C1.65548 17.592 1.87215 18.972 2.28509 20.2987C2.36892 20.5718 2.54013 20.8099 2.7724 20.9762C3.00468 21.1425 3.28516 21.228 3.57072 21.2194C19.2663 20.6875 24.0738 9.71123 25.2163 6.17561C25.2972 5.92692 25.3 5.65946 25.2245 5.40911C25.149 5.15875 24.9987 4.93748 24.7938 4.77498Z" fill="white"/>
</g>
<defs>
<clipPath id="clip0_924_758">
<rect width="32" height="32" fill="white"/>
</clipPath>
</defs>
</svg>
