<svg width="70" height="56" viewBox="0 0 70 56" fill="none" xmlns="http://www.w3.org/2000/svg">
<path d="M58.6178 22.7618H51.4717L46.5834 16.89C44.0759 13.8779 44.3333 9.40018 47.1697 6.69598L47.1906 6.67654C48.6244 5.30966 50.4935 4.57647 52.4575 4.60679V0H58.6178C64.8932 0 69.9991 5.10518 69.9991 11.3805C69.9991 17.6566 64.8932 22.7618 58.6178 22.7618ZM57.1973 18.1014H58.6178C62.3235 18.1014 65.3379 15.0869 65.3379 11.3813C65.3379 7.67565 62.3235 4.66121 58.6178 4.66121H53.2654C55.0063 4.87114 56.6017 5.67821 57.8146 6.97511C60.2833 9.61478 60.5111 13.6369 58.3574 16.5386L57.1973 18.1014ZM52.3526 9.26723C51.6264 9.26723 50.9398 9.54169 50.4127 10.0447L50.3917 10.0642C49.3179 11.0882 49.2215 12.7738 50.1654 13.9082L52.4591 16.663L54.6144 13.7597C55.4253 12.6673 55.3398 11.1527 54.4099 10.1583C53.8928 9.60545 53.1915 9.289 52.4342 9.26723C52.4078 9.268 52.3806 9.26723 52.3526 9.26723Z" fill="#FF6000"/>
<path d="M25.1824 50.2113C24.9585 49.6966 24.6522 49.2682 24.2704 48.9253C23.8863 48.5824 23.4385 48.3157 22.9261 48.1244C22.4137 47.9316 21.8679 47.836 21.2933 47.836H18.4297V55.9447H21.2941C21.8686 55.9447 22.4145 55.8491 22.9268 55.6562C23.4392 55.465 23.8871 55.1983 24.2712 54.8554C24.6529 54.5125 24.9593 54.0841 25.1832 53.5694C25.4071 53.0547 25.5206 52.4941 25.5206 51.8899C25.5199 51.2866 25.4071 50.7252 25.1824 50.2113ZM23.2441 52.8533C23.1313 53.1379 22.9789 53.3657 22.7846 53.5375C22.5917 53.7093 22.3678 53.8392 22.112 53.9333C21.8585 54.025 21.5856 54.0717 21.2941 54.0717H20.4209V49.7168H21.2941C21.9021 49.7168 22.4082 49.9042 22.8102 50.2782C23.2114 50.6545 23.412 51.1902 23.412 51.8915C23.412 52.2492 23.3568 52.5687 23.2441 52.8533Z" fill="#34373B"/>
<path d="M28.4635 49.7161V50.8949H31.4118V52.7749H28.4635V54.071H31.6319V55.9456H26.4707V47.8361H31.6319V49.7161H28.4635Z" fill="#34373B"/>
<path d="M38.0324 54.071V55.9456H32.645V47.8361H34.6362V54.071H38.0324Z" fill="#34373B"/>
<path d="M40.8089 47.8361H38.8176V55.9448H40.8089V47.8361Z" fill="#34373B"/>
<path d="M45.422 53.4218L45.3948 53.4996H45.4492L45.422 53.4218Z" fill="#34373B"/>
<path d="M49.4596 47.8361L46.4452 56H44.3995L41.3835 47.8361H43.5031L45.422 53.4218L45.3948 53.5003H45.45L45.422 53.4218L47.4583 47.8361H49.4596Z" fill="#34373B"/>
<path d="M52.0269 49.7161V50.8949H54.9752V52.7749H52.0269V54.071H55.1952V55.9456H50.0356V47.8361H55.1952V49.7161H52.0269Z" fill="#34373B"/>
<path d="M60.6721 53.0696C61.1145 52.9141 61.4923 52.6295 61.8057 52.212C62.119 51.7952 62.2753 51.2533 62.2753 50.5908C62.2753 50.1858 62.2131 49.8211 62.0879 49.4977C61.9612 49.1765 61.7956 48.9114 61.5888 48.7069C61.3819 48.5024 61.1386 48.3345 60.8602 48.2C60.5795 48.0678 60.295 47.9737 60.0065 47.9193C59.7204 47.8625 59.4203 47.8353 59.1061 47.8353H56.2068V55.9441H58.198V53.3394H58.2913L60.3875 55.9441H62.9984L60.6721 53.0696ZM58.1996 49.7161H59.0626C59.4133 49.7161 59.6862 49.7861 59.8806 49.9245C60.0757 50.0629 60.1745 50.2853 60.1745 50.5908C60.1745 50.8964 60.0749 51.1188 59.8806 51.2572C59.6854 51.3956 59.4133 51.464 59.0626 51.464H58.1996V49.7161Z" fill="#34373B"/>
<path d="M66.0401 50.8171L66.0261 50.8404H66.0533L66.0401 50.8171Z" fill="#34373B"/>
<path d="M69.9992 47.8361L67.0337 52.5432V55.9456H65.048V52.5432L62.0825 47.8361H64.2782L66.0401 50.8171L66.0261 50.8404H66.0533L66.0401 50.8171L67.8968 47.8361H69.9992Z" fill="#34373B"/>
<path d="M53.1568 38.3418H50.119C49.5475 38.3418 49.1456 38.1389 48.917 37.7408C48.6845 37.3388 48.5702 36.7339 48.5702 35.9339V26.543H47.4249H44.8023H44.7689V35.9339C44.7689 36.7339 44.6546 37.3388 44.4221 37.7408C44.1935 38.1389 43.7916 38.3418 43.2201 38.3418H41.543H40.6411C40.8588 37.789 40.9653 37.0955 40.9653 36.2589C40.9653 34.5336 40.4125 33.1651 39.3061 32.1481C38.1997 31.1343 36.8025 30.6258 35.1137 30.6258C33.4249 30.6258 32.0277 31.1343 30.9213 32.1481C29.8149 33.1659 29.2621 34.5336 29.2621 36.2589C29.2621 37.0955 29.3694 37.789 29.5863 38.3418H26.9607C26.3892 38.3418 25.9872 38.135 25.7547 37.7299C25.5261 37.321 25.4118 36.716 25.4118 35.9121V31.5728H21.644V40.2032C21.644 41.0072 21.5258 41.822 21.2972 42.231C21.0686 42.6368 20.6666 42.839 20.0952 42.832L18.429 42.8102V46.3899H20.0952C21.581 46.3899 22.7753 45.9957 23.6788 45.2026C24.5822 44.4096 25.1242 43.101 25.3045 41.689C25.6956 41.7925 26.1155 41.8547 26.5727 41.8772C26.6209 41.8803 26.6722 41.8795 26.7212 41.8811V41.8881H26.9591H27.1076H41.5399H43.217H43.2504C45.0162 41.8881 46.2664 41.6152 46.9965 41.0733C47.7336 41.56 48.6448 41.829 49.7287 41.8772V41.8881H50.1159H56.9223V31.572H53.1544V38.3418H53.1568ZM36.8095 37.258C36.6913 37.5418 36.5366 37.7556 36.3453 37.9072C36.1532 38.058 35.9511 38.1653 35.7404 38.2353C35.5336 38.3053 35.3236 38.3426 35.1137 38.3426C34.9038 38.3426 34.6931 38.3061 34.487 38.2353C34.2771 38.1653 34.078 38.058 33.8821 37.9072C33.6901 37.7564 33.5353 37.5425 33.4179 37.258C33.2997 36.9742 33.2407 36.6422 33.2407 36.2589C33.2407 35.8755 33.2997 35.5397 33.4179 35.2598C33.5361 34.976 33.6908 34.7583 33.8821 34.6105C34.0773 34.4597 34.2763 34.3485 34.487 34.2785C34.6938 34.2086 34.9038 34.1751 35.1137 34.1751C35.3236 34.1751 35.5343 34.2086 35.7404 34.2785C35.9503 34.3485 36.1532 34.4589 36.3453 34.6105C36.5373 34.7583 36.6921 34.9752 36.8095 35.2598C36.9276 35.5397 36.9867 35.8755 36.9867 36.2589C36.9867 36.6422 36.9276 36.9734 36.8095 37.258Z" fill="#34373B"/>
<path d="M35.0779 29.7363C35.5459 29.7363 35.9409 29.5706 36.2612 29.2456C36.5824 28.9214 36.7402 28.5264 36.7402 28.0584C36.7402 27.5903 36.5816 27.1992 36.2612 26.875C35.9401 26.5539 35.5459 26.396 35.0779 26.396C34.6098 26.396 34.2148 26.5547 33.8945 26.875C33.5734 27.1992 33.4155 27.5903 33.4155 28.0584C33.4155 28.5264 33.5741 28.9214 33.8945 29.2456C34.2148 29.5706 34.6098 29.7363 35.0779 29.7363Z" fill="#34373B"/>
<path d="M50.5954 43.0497C50.1313 43.0497 49.7363 43.2122 49.4159 43.5364C49.0948 43.8606 48.9331 44.2556 48.9331 44.7236C48.9331 45.1917 49.0956 45.5867 49.4159 45.907C49.7371 46.2281 50.1313 46.3899 50.5954 46.3899C51.0635 46.3899 51.4616 46.2274 51.7866 45.907C52.1108 45.5859 52.2733 45.1917 52.2733 44.7236C52.2733 44.2556 52.1108 43.8606 51.7866 43.5364C51.4616 43.2122 51.0635 43.0497 50.5954 43.0497Z" fill="#34373B"/>
<path d="M54.56 43.0497C54.0959 43.0497 53.7009 43.2122 53.3805 43.5364C53.0594 43.8606 52.8977 44.2556 52.8977 44.7236C52.8977 45.1917 53.0602 45.5867 53.3805 45.907C53.7017 46.2281 54.0959 46.3899 54.56 46.3899C55.0281 46.3899 55.4231 46.2274 55.7434 45.907C56.0645 45.5859 56.2263 45.1917 56.2263 44.7236C56.2263 44.2556 56.0638 43.8606 55.7434 43.5364C55.4231 43.2122 55.0281 43.0497 54.56 43.0497Z" fill="#34373B"/>
<path d="M8.10887 47.836C7.64469 47.836 7.24971 47.9985 6.92937 48.3228C6.60826 48.647 6.44653 49.042 6.44653 49.51C6.44653 49.9781 6.60903 50.3731 6.92937 50.6934C7.25049 51.0145 7.64469 51.1763 8.10887 51.1763C8.57693 51.1763 8.97502 51.0138 9.30002 50.6934C9.62425 50.3723 9.78675 49.9781 9.78675 49.51C9.78675 49.042 9.62425 48.647 9.30002 48.3228C8.97502 47.9985 8.57693 47.836 8.10887 47.836Z" fill="#34373B"/>
<path d="M12.0735 47.836C11.6093 47.836 11.2143 47.9985 10.894 48.3228C10.5729 48.647 10.4111 49.042 10.4111 49.51C10.4111 49.9781 10.5736 50.3731 10.894 50.6934C11.2151 51.0145 11.6093 51.1763 12.0735 51.1763C12.5415 51.1763 12.9365 51.0138 13.2568 50.6934C13.578 50.3723 13.7397 49.9781 13.7397 49.51C13.7397 49.042 13.5772 48.647 13.2568 48.3228C12.9365 47.9985 12.5415 47.836 12.0735 47.836Z" fill="#34373B"/>
<path d="M68.3843 32.1435C67.3114 31.1335 65.9328 30.6242 64.251 30.6242C62.4589 30.6242 60.9808 31.2105 59.8231 32.3752L62.5771 35.2217C62.8204 34.801 63.0855 34.525 63.3771 34.3851C63.6648 34.2451 63.9595 34.1751 64.251 34.1751C64.4866 34.1751 64.7191 34.2086 64.9407 34.2785C65.1654 34.3485 65.3761 34.4589 65.5752 34.6105C65.7742 34.7583 65.9328 34.9752 66.051 35.252C66.1723 35.5319 66.2314 35.8678 66.2314 36.2589V38.3418H58.946V41.8889H70V36.2589C69.9992 34.5258 69.4604 33.1581 68.3843 32.1435Z" fill="#34373B"/>
<path d="M17.7695 38.341V41.1837L17.7656 41.1945C17.7586 41.5118 17.7251 41.8251 17.6583 42.1307C17.5844 42.4697 17.4592 42.8203 17.282 43.1811C17.1016 43.5387 16.88 43.8739 16.611 44.1841C16.3419 44.4974 15.9991 44.789 15.5784 45.058C15.1617 45.3309 14.6897 45.5665 14.1664 45.7656C13.6432 45.9646 13.0274 46.1193 12.3121 46.2266C11.6045 46.3339 10.8262 46.3891 9.98962 46.3891C7.00318 46.3891 4.67685 45.6738 3.00285 44.2432C1.33275 42.8125 0.495361 40.8991 0.495361 38.5059C0.495361 38.4507 0.495361 38.3955 0.499249 38.3403H4.4778C4.47392 38.3955 4.47392 38.4507 4.47392 38.5059C4.47392 41.3967 6.31352 42.8382 9.98962 42.8382C10.771 42.8382 11.4241 42.7939 11.9474 42.7053C12.4707 42.6127 12.8618 42.4875 13.116 42.3328C13.3555 42.1851 13.525 42.0381 13.6245 41.8865H6.71472V36.2565C6.71472 34.5234 7.25276 33.1558 8.32962 32.1419C9.4026 31.1319 10.7811 30.6226 12.4629 30.6226C14.2551 30.6226 15.7331 31.2089 16.8909 32.3736L14.1369 35.2201C13.8935 34.7995 13.6284 34.5234 13.3368 34.3835C13.0492 34.2435 12.7545 34.1736 12.4629 34.1736C12.2273 34.1736 11.9948 34.207 11.7732 34.277C11.5485 34.3469 11.3378 34.4574 11.1388 34.609C10.9397 34.7567 10.7811 34.9736 10.663 35.2504C10.5417 35.5303 10.4826 35.8662 10.4826 36.2573V38.3403H17.7695V38.341Z" fill="#34373B"/>
<path d="M2.51146 26.543C1.39961 26.543 0.495361 27.4473 0.495361 28.5591C0.495361 29.671 1.39961 30.5752 2.51146 30.5752C3.62331 30.5752 4.52757 29.671 4.52757 28.5591C4.52757 27.4473 3.62331 26.543 2.51146 26.543ZM2.51146 30.0955C1.66319 30.0955 0.975089 29.4074 0.975089 28.5591C0.975089 27.7108 1.66319 27.0227 2.51146 27.0227C3.35974 27.0227 4.04784 27.7108 4.04784 28.5591C4.04784 29.4082 3.36051 30.0955 2.51146 30.0955Z" fill="#34373B"/>
<path d="M3.19035 28.6368C3.26577 28.5365 3.30386 28.4059 3.30386 28.2458C3.30386 28.1478 3.28909 28.0599 3.25877 27.9822C3.22844 27.9044 3.18801 27.8407 3.13825 27.7917C3.08849 27.7427 3.0294 27.7023 2.96253 27.6696C2.89489 27.6377 2.82647 27.6152 2.75649 27.602C2.68729 27.588 2.61498 27.5818 2.53956 27.5818H1.84058V29.538H2.32108V28.9098H2.34363L2.84902 29.538H3.47881L2.91744 28.8444C3.02318 28.8056 3.11493 28.7371 3.19035 28.6368ZM2.72617 28.4067C2.67952 28.4401 2.61343 28.4565 2.52868 28.4565H2.3203V28.0351H2.52868C2.61343 28.0351 2.67874 28.0522 2.72617 28.0856C2.77282 28.119 2.79692 28.1727 2.79692 28.2465C2.79692 28.3196 2.77282 28.3733 2.72617 28.4067Z" fill="#34373B"/>
</svg>
