<svg width="239" height="183" viewBox="0 0 239 183" fill="none" xmlns="http://www.w3.org/2000/svg">
<path d="M153.067 18.6163L150.785 18.1212L150.268 15.8425C150.259 15.8031 150.237 15.7679 150.206 15.7427C150.174 15.7175 150.135 15.7037 150.095 15.7037C150.054 15.7037 150.015 15.7175 149.984 15.7427C149.952 15.7679 149.93 15.8031 149.922 15.8425L149.401 18.1296L147.12 18.6725C147.08 18.681 147.045 18.7031 147.019 18.7349C146.994 18.7668 146.981 18.8064 146.982 18.847C146.983 18.887 146.998 18.9255 147.023 18.9565C147.049 18.9875 147.084 19.0093 147.123 19.0186L149.404 19.5137L149.922 21.7895C149.93 21.8289 149.952 21.8641 149.984 21.8893C150.015 21.9146 150.054 21.9283 150.095 21.9283C150.135 21.9283 150.174 21.9146 150.206 21.8893C150.237 21.8641 150.259 21.8289 150.268 21.7895L150.788 19.5024L153.07 18.9623C153.109 18.9536 153.144 18.9316 153.169 18.9002C153.195 18.8687 153.208 18.8296 153.208 18.7893C153.208 18.749 153.195 18.7098 153.169 18.6784C153.144 18.6469 153.109 18.625 153.07 18.6163H153.067ZM25.8303 28.4989L28.967 27.8153L29.6928 24.6843C29.7058 24.6311 29.7363 24.5838 29.7794 24.55C29.8225 24.5162 29.8757 24.4978 29.9305 24.4978C29.9853 24.4978 30.0385 24.5162 30.0815 24.55C30.1246 24.5838 30.1552 24.6311 30.1682 24.6843L30.8827 27.8294L34.0222 28.5749C34.0763 28.5871 34.1245 28.6175 34.1588 28.6611C34.1931 28.7046 34.2114 28.7586 34.2107 28.814C34.2092 28.8689 34.1896 28.9218 34.155 28.9645C34.1205 29.0072 34.0728 29.0374 34.0194 29.0503L30.8799 29.7311L30.1682 32.8621C30.1552 32.9153 30.1246 32.9626 30.0815 32.9964C30.0385 33.0303 29.9853 33.0486 29.9305 33.0486C29.8757 33.0486 29.8225 33.0303 29.7794 32.9964C29.7363 32.9626 29.7058 32.9153 29.6928 32.8621L28.9782 29.717L25.8415 28.9715C25.7877 28.9597 25.7395 28.9298 25.7049 28.8869C25.6703 28.8439 25.6515 28.7904 25.6515 28.7352C25.6515 28.6801 25.6703 28.6266 25.7049 28.5836C25.7395 28.5406 25.7877 28.5107 25.8415 28.4989H25.8303ZM39.0184 2.07208L40.6388 1.72043L41.0073 0.100051C41.0134 0.0717294 41.029 0.0463502 41.0515 0.0281419C41.074 0.00993366 41.1021 0 41.1311 0C41.16 0 41.1881 0.00993366 41.2107 0.0281419C41.2332 0.0463502 41.2488 0.0717294 41.2549 0.100051L41.6234 1.72606L43.2466 2.11146C43.2758 2.11591 43.3025 2.13071 43.3218 2.15316C43.3411 2.17561 43.3517 2.20424 43.3517 2.23384C43.3517 2.26344 43.3411 2.29206 43.3218 2.31451C43.3025 2.33697 43.2758 2.35176 43.2466 2.35621L41.6262 2.71066L41.2577 4.33105C41.2516 4.35937 41.236 4.38475 41.2135 4.40296C41.1909 4.42116 41.1629 4.4311 41.1339 4.4311C41.1049 4.4311 41.0768 4.42116 41.0543 4.40296C41.0318 4.38475 41.0162 4.35937 41.0101 4.33105L40.6416 2.70222L39.0184 2.31682C38.9901 2.31092 38.9648 2.29532 38.9468 2.27271C38.9288 2.25011 38.9193 2.22192 38.9199 2.19304C38.9214 2.16505 38.9317 2.13824 38.9494 2.1165C38.9671 2.09476 38.9913 2.0792 39.0184 2.07208Z" fill="url(#paint0_linear_3442_61818)"/>
<path d="M10.4445 77.9082L22.2485 181.781H164.926L176.73 77.9082H10.4445Z" fill="#FFCEB0"/>
<path d="M165.68 182.626H21.4941L21.4097 181.878L9.49878 77.0654H177.667L177.56 78.005L165.68 182.626ZM23.0019 180.939H164.164L175.776 78.7533H11.3892L23.0019 180.939Z" fill="url(#paint1_linear_3442_61818)"/>
<path d="M176.728 66.4004H10.7406C5.36184 66.4004 1.00146 70.7601 1.00146 76.1382C1.00146 81.5162 5.36184 85.8759 10.7406 85.8759H176.728C182.107 85.8759 186.468 81.5162 186.468 76.1382C186.468 70.7601 182.107 66.4004 176.728 66.4004Z" fill="#FF9454"/>
<path d="M176.73 86.7195H10.7537C9.34957 86.7424 7.95493 86.4856 6.65103 85.9641C5.34714 85.4426 4.16008 84.6668 3.15902 83.682C2.15796 82.6971 1.36292 81.5228 0.820224 80.2276C0.277532 78.9324 -0.00195312 77.5421 -0.00195312 76.1378C-0.00195312 74.7335 0.277532 73.3432 0.820224 72.048C1.36292 70.7528 2.15796 69.5785 3.15902 68.5937C4.16008 67.6088 5.34714 66.833 6.65103 66.3115C7.95493 65.79 9.34957 65.5332 10.7537 65.5561H176.73C179.507 65.6014 182.154 66.7361 184.102 68.7157C186.049 70.6952 187.141 73.3609 187.141 76.1378C187.141 78.9147 186.049 81.5804 184.102 83.5599C182.154 85.5395 179.507 86.6742 176.73 86.7195ZM10.7537 67.244C9.57244 67.223 8.39882 67.4375 7.30138 67.875C6.20393 68.3126 5.20463 68.9643 4.36182 69.7923C3.51902 70.6202 2.84959 71.6078 2.39262 72.6973C1.93565 73.7868 1.7003 74.9564 1.7003 76.1378C1.7003 77.3193 1.93565 78.4889 2.39262 79.5784C2.84959 80.6679 3.51902 81.6554 4.36182 82.4834C5.20463 83.3113 6.20393 83.9631 7.30138 84.4006C8.39882 84.8381 9.57244 85.0526 10.7537 85.0316H176.73C179.062 84.9902 181.283 84.0349 182.918 82.3715C184.552 80.7081 185.467 78.4696 185.467 76.1378C185.467 73.8061 184.552 71.5675 182.918 69.9041C181.283 68.2407 179.062 67.2855 176.73 67.244H10.7537Z" fill="url(#paint2_linear_3442_61818)"/>
<path d="M78.5371 18.3296L44.785 74.3475C43.7811 76.0136 44.318 78.1781 45.9841 79.182L52.461 83.0845C54.1271 84.0883 56.2916 83.5515 57.2955 81.8854L91.0477 25.8675C92.0515 24.2014 91.5147 22.0369 89.8485 21.033L83.3716 17.1305C81.7055 16.1266 79.541 16.6635 78.5371 18.3296Z" fill="#FFCEB0"/>
<path d="M54.2695 84.4239C53.4761 84.4247 52.6976 84.2077 52.019 83.7965L45.5487 79.8947C44.5571 79.2964 43.8437 78.3288 43.5651 77.2047C43.2866 76.0806 43.4658 74.8919 44.0634 73.8998L77.7988 17.8814C78.3971 16.8898 79.3646 16.1763 80.4888 15.8978C81.6129 15.6192 82.8016 15.7985 83.7936 16.396L90.2639 20.295C90.7555 20.5908 91.1839 20.9805 91.5246 21.442C91.8654 21.9035 92.1118 22.4276 92.2498 22.9845C92.3877 23.5413 92.4145 24.1198 92.3286 24.687C92.2428 25.2542 92.0459 25.7989 91.7493 26.2899L57.9913 82.3084C57.6971 82.8012 57.3078 83.2305 56.8461 83.5715C56.3844 83.9125 55.8595 84.1582 55.3019 84.2945C54.9641 84.3784 54.6176 84.4218 54.2695 84.4239ZM81.5572 17.4706C81.3382 17.4704 81.12 17.4969 80.9073 17.5494C80.5655 17.633 80.2437 17.7837 79.9607 17.9928C79.6777 18.2019 79.4391 18.4653 79.2588 18.7675L45.5009 74.786C45.3189 75.0871 45.1981 75.4212 45.1454 75.7691C45.0927 76.117 45.1091 76.4719 45.1938 76.8135C45.2785 77.155 45.4297 77.4765 45.6388 77.7595C45.8479 78.0425 46.1108 78.2815 46.4123 78.4628L52.8826 82.3646C53.4912 82.7307 54.2202 82.8403 54.9096 82.6695C55.5989 82.4986 56.1923 82.0611 56.5594 81.4532L90.3174 25.4347C90.6833 24.8253 90.7926 24.0957 90.6212 23.4058C90.4498 22.716 90.0117 22.1223 89.4031 21.7551L82.9328 17.856C82.518 17.5981 82.04 17.4599 81.5516 17.4566L81.5572 17.4706Z" fill="url(#paint3_linear_3442_61818)"/>
<path d="M102.532 16.271L96.0637 20.1882C94.3998 21.1958 93.8679 23.3615 94.8756 25.0254L128.755 80.9665C129.762 82.6303 131.928 83.1623 133.592 82.1546L140.06 78.2374C141.724 77.2298 142.256 75.0641 141.248 73.4002L107.369 17.4591C106.361 15.7952 104.196 15.2633 102.532 16.271Z" fill="#FFCEB0"/>
<path d="M131.427 84.4203C130.672 84.4227 129.931 84.2293 129.274 83.8589C128.617 83.4886 128.068 82.954 127.679 82.3076L93.9214 26.2891C93.3277 25.2969 93.1518 24.1096 93.4324 22.9878C93.7129 21.8661 94.4271 20.9014 95.418 20.3055L101.888 16.4065C102.38 16.1075 102.925 15.9084 103.493 15.8207C104.062 15.7329 104.642 15.7583 105.2 15.8952C105.759 16.0322 106.285 16.2781 106.748 16.6187C107.211 16.9594 107.603 17.3883 107.9 17.8806L141.658 73.8991C141.954 74.3904 142.151 74.9352 142.236 75.5024C142.321 76.0696 142.294 76.6481 142.156 77.2049C142.018 77.7616 141.771 78.2856 141.431 78.747C141.09 79.2084 140.661 79.5982 140.17 79.8939L133.7 83.7958C133.014 84.21 132.227 84.4262 131.427 84.4203ZM104.139 17.467C103.654 17.4667 103.178 17.6001 102.763 17.8525L96.2929 21.7515C95.6843 22.1187 95.2462 22.7124 95.0748 23.4022C94.9034 24.0921 95.0127 24.8217 95.3787 25.4311L129.137 81.4496C129.504 82.0577 130.098 82.4952 130.788 82.6661C131.478 82.837 132.207 82.7273 132.816 82.3611L139.286 78.4592C139.588 78.2779 139.851 78.039 140.06 77.7559C140.269 77.4729 140.42 77.1514 140.505 76.8099C140.59 76.4684 140.606 76.1135 140.553 75.7656C140.501 75.4176 140.38 75.0836 140.198 74.7824L106.44 18.7639C106.259 18.462 106.021 18.1989 105.738 17.9898C105.455 17.7807 105.133 17.6298 104.792 17.5458C104.579 17.4897 104.361 17.4595 104.142 17.4558L104.139 17.467Z" fill="url(#paint4_linear_3442_61818)"/>
<path d="M53.3763 78.3516C55.7395 78.3516 57.6552 76.4359 57.6552 74.0728C57.6552 71.7096 55.7395 69.7939 53.3763 69.7939C51.0132 69.7939 49.0975 71.7096 49.0975 74.0728C49.0975 76.4359 51.0132 78.3516 53.3763 78.3516Z" fill="white"/>
<path d="M53.3777 79.1928C52.3645 79.1928 51.374 78.8924 50.5316 78.3295C49.6892 77.7666 49.0326 76.9665 48.6448 76.0304C48.2571 75.0944 48.1557 74.0643 48.3533 73.0706C48.551 72.0769 49.0389 71.1641 49.7553 70.4477C50.4717 69.7313 51.3845 69.2434 52.3782 69.0457C53.372 68.848 54.402 68.9495 55.3381 69.3372C56.2741 69.7249 57.0742 70.3815 57.6371 71.224C58.2 72.0664 58.5004 73.0568 58.5004 74.07C58.4989 75.4282 57.9587 76.7303 56.9984 77.6907C56.038 78.6511 54.7358 79.1913 53.3777 79.1928ZM53.3777 70.6352C52.6983 70.6352 52.0342 70.8366 51.4693 71.2141C50.9045 71.5915 50.4642 72.1279 50.2042 72.7556C49.9443 73.3832 49.8762 74.0739 50.0088 74.7402C50.1413 75.4065 50.4685 76.0185 50.9488 76.4989C51.4292 76.9792 52.0412 77.3064 52.7075 77.4389C53.3738 77.5714 54.0645 77.5034 54.6921 77.2434C55.3198 76.9835 55.8562 76.5432 56.2336 75.9783C56.6111 75.4135 56.8125 74.7494 56.8125 74.07C56.811 73.1595 56.4487 72.2867 55.8048 71.6429C55.161 70.999 54.2882 70.6366 53.3777 70.6352Z" fill="url(#paint5_linear_3442_61818)"/>
<path d="M131.873 78.0557C134.236 78.0557 136.151 76.14 136.151 73.7769C136.151 71.4137 134.236 69.498 131.873 69.498C129.509 69.498 127.594 71.4137 127.594 73.7769C127.594 76.14 129.509 78.0557 131.873 78.0557Z" fill="white"/>
<path d="M131.874 78.8969C130.861 78.8969 129.87 78.5965 129.028 78.0336C128.185 77.4707 127.529 76.6706 127.141 75.7345C126.753 74.7985 126.652 73.7685 126.85 72.7747C127.047 71.781 127.535 70.8682 128.252 70.1518C128.968 69.4354 129.881 68.9475 130.874 68.7498C131.868 68.5521 132.898 68.6536 133.834 69.0413C134.77 69.429 135.57 70.0856 136.133 70.9281C136.696 71.7705 136.997 72.761 136.997 73.7741C136.995 75.1323 136.455 76.4344 135.495 77.3948C134.534 78.3552 133.232 78.8954 131.874 78.8969ZM131.874 70.3393C131.194 70.3393 130.53 70.5407 129.966 70.9182C129.401 71.2956 128.96 71.832 128.7 72.4597C128.44 73.0873 128.372 73.7779 128.505 74.4442C128.638 75.1105 128.965 75.7226 129.445 76.203C129.925 76.6833 130.537 77.0105 131.204 77.143C131.87 77.2755 132.561 77.2075 133.188 76.9475C133.816 76.6876 134.352 76.2473 134.73 75.6824C135.107 75.1176 135.309 74.4535 135.309 73.7741C135.307 72.8636 134.945 71.9908 134.301 71.347C133.657 70.7031 132.784 70.3408 131.874 70.3393Z" fill="url(#paint6_linear_3442_61818)"/>
<path d="M34.3477 95.7617H44.3822V129.697H34.3477V95.7617Z" fill="white"/>
<path d="M45.2211 130.542H33.4987V94.916H45.2211V130.542ZM35.1866 128.854H43.5332V96.6039H35.1866V128.854Z" fill="url(#paint7_linear_3442_61818)"/>
<path d="M62.0848 95.7617H72.1194V129.697H62.0848V95.7617Z" fill="white"/>
<path d="M72.9618 130.542H61.2422V94.916H72.9618V130.542ZM62.9301 128.854H71.2739V96.6039H62.9301V128.854Z" fill="url(#paint8_linear_3442_61818)"/>
<path d="M89.8219 95.7617H99.8564V129.697H89.8219V95.7617Z" fill="white"/>
<path d="M100.702 130.542H88.9792V94.916H100.702V130.542ZM90.6671 128.854H99.0138V96.6039H90.6671V128.854Z" fill="url(#paint9_linear_3442_61818)"/>
<path d="M117.27 95.7617H127.304V129.697H117.27V95.7617Z" fill="white"/>
<path d="M128.158 130.542H116.427V94.916H128.158V130.542ZM118.126 128.854H126.47V96.6039H118.115L118.126 128.854Z" fill="url(#paint10_linear_3442_61818)"/>
<path d="M145.007 95.7617H155.041V129.697H145.007V95.7617Z" fill="white"/>
<path d="M155.886 130.542H144.164V94.916H155.886V130.542ZM145.852 128.854H154.198V96.6039H145.852V128.854Z" fill="url(#paint11_linear_3442_61818)"/>
<path d="M34.3477 137.37H44.3822V171.305H34.3477V137.37Z" fill="white"/>
<path d="M45.2211 172.147H33.4987V136.524H45.2211V172.147ZM35.1866 170.46H43.5332V138.212H35.1866V170.46Z" fill="url(#paint12_linear_3442_61818)"/>
<path d="M62.0848 137.37H72.1194V171.305H62.0848V137.37Z" fill="white"/>
<path d="M72.9618 172.147H61.2422V136.524H72.9618V172.147ZM62.9301 170.46H71.2739V138.212H62.9301V170.46Z" fill="url(#paint13_linear_3442_61818)"/>
<path d="M89.8219 137.37H99.8564V171.305H89.8219V137.37Z" fill="white"/>
<path d="M100.702 172.147H88.9792V136.524H100.702V172.147ZM90.6671 170.46H99.0138V138.212H90.6671V170.46Z" fill="url(#paint14_linear_3442_61818)"/>
<path d="M117.27 137.37H127.304V171.305H117.27V137.37Z" fill="white"/>
<path d="M128.158 172.147H116.427V136.524H128.158V172.147ZM118.126 170.46H126.47V138.212H118.115L118.126 170.46Z" fill="url(#paint15_linear_3442_61818)"/>
<path d="M145.007 137.37H155.041V171.305H145.007V137.37Z" fill="white"/>
<path d="M155.886 172.147H144.164V136.524H155.886V172.147ZM145.852 170.46H154.198V138.212H145.852V170.46Z" fill="url(#paint16_linear_3442_61818)"/>
<path d="M173.962 103.661C189.853 103.661 202.735 90.7792 202.735 74.8883C202.735 58.9974 189.853 46.1152 173.962 46.1152C158.071 46.1152 145.189 58.9974 145.189 74.8883C145.189 90.7792 158.071 103.661 173.962 103.661Z" fill="white"/>
<path d="M173.963 104.502C168.106 104.502 162.38 102.765 157.51 99.5109C152.639 96.2568 148.843 91.6316 146.601 86.2202C144.36 80.8087 143.773 74.854 144.915 69.109C146.057 63.364 148.877 58.0868 153.019 53.9446C157.16 49.8023 162.437 46.9811 168.182 45.8377C173.927 44.6943 179.881 45.28 185.293 47.5208C190.705 49.7616 195.331 53.5568 198.586 58.4265C201.841 63.2963 203.579 69.0219 203.58 74.8793C203.574 82.7329 200.452 90.2632 194.899 95.8171C189.347 101.371 181.817 104.494 173.963 104.502ZM173.963 46.9587C168.439 46.9587 163.039 48.5969 158.446 51.6662C153.853 54.7354 150.273 59.0978 148.159 64.2017C146.046 69.3056 145.493 74.9216 146.571 80.3395C147.65 85.7575 150.311 90.7339 154.217 94.6396C158.124 98.5452 163.102 101.204 168.52 102.281C173.938 103.358 179.554 102.804 184.657 100.688C189.76 98.5732 194.122 94.9922 197.19 90.3982C200.257 85.8041 201.894 80.4035 201.892 74.8793C201.882 67.476 198.936 60.3791 193.7 55.145C188.464 49.9108 181.367 46.9669 173.963 46.9587ZM189.312 11.0684H191V40.5784H189.312V11.0684Z" fill="url(#paint17_linear_3442_61818)"/>
<path d="M203.294 45.4404L224.245 25.0803L225.422 26.2908L204.47 46.6509L203.294 45.4404Z" fill="url(#paint18_linear_3442_61818)"/>
<path d="M209.193 58.4688H238.998V60.1566H209.193V58.4688Z" fill="url(#paint19_linear_3442_61818)"/>
<path d="M167.916 87.6474C166.145 86.5091 164.752 84.8474 163.735 82.6625C162.719 80.4776 162.206 77.883 162.197 74.8785C162.197 71.8778 162.706 69.285 163.724 67.1001C164.743 64.9152 166.136 63.2536 167.905 62.1152C169.721 60.9991 171.811 60.4082 173.943 60.4082C176.075 60.4082 178.165 60.9991 179.981 62.1152C181.765 63.2555 183.166 64.9171 184.184 67.1001C185.203 69.2831 185.715 71.8759 185.72 74.8785C185.72 77.8792 185.212 80.4711 184.196 82.6541C183.179 84.8371 181.778 86.4987 179.993 87.639C178.176 88.7551 176.086 89.346 173.954 89.346C171.822 89.346 169.732 88.7551 167.916 87.639V87.6474ZM178.707 82.3221C179.872 80.6586 180.455 78.1802 180.457 74.887C180.459 71.5937 179.875 69.1143 178.707 67.449C178.191 66.6622 177.483 66.0203 176.649 65.5841C175.816 65.1479 174.885 64.9319 173.944 64.9565C171.962 64.9565 170.388 65.7873 169.221 67.449C168.055 69.1106 167.472 71.5871 167.474 74.8785C167.474 78.1737 168.056 80.652 169.221 82.3137C169.75 83.0825 170.459 83.7111 171.285 84.1454C172.111 84.5796 173.031 84.8065 173.964 84.8065C174.898 84.8065 175.817 84.5796 176.643 84.1454C177.469 83.7111 178.178 83.0825 178.707 82.3137V82.3221Z" fill="#FFCEB0"/>
<path d="M173.946 90.1991C171.65 90.2309 169.395 89.5904 167.459 88.3565C165.562 87.1356 164.052 85.3408 162.958 83.0115C161.863 80.6822 161.354 77.9984 161.354 74.8786C161.354 71.7588 161.894 69.0301 162.96 66.743C164.027 64.4559 165.551 62.6273 167.461 61.398C169.414 60.1941 171.663 59.5566 173.957 59.5566C176.251 59.5566 178.5 60.1941 180.453 61.398C182.435 62.7104 183.998 64.566 184.954 66.743C186.02 69.0301 186.56 71.7673 186.56 74.8786C186.56 77.99 186.02 80.7244 184.954 83.0115C183.887 85.2986 182.354 87.1299 180.453 88.3565C178.508 89.5885 176.247 90.2287 173.946 90.1991ZM173.946 61.2601C171.979 61.2335 170.048 61.7799 168.387 62.8327C166.764 63.8792 165.458 65.4377 164.516 67.4659C163.574 69.4942 163.042 72.0233 163.042 74.8786C163.042 77.734 163.529 80.2377 164.491 82.2997C165.453 84.3618 166.741 85.8837 168.362 86.9302C170.042 87.9598 171.975 88.5046 173.946 88.5046C175.917 88.5046 177.849 87.9598 179.53 86.9302C181.164 85.8865 182.475 84.328 183.42 82.3026C184.366 80.2771 184.866 77.7424 184.866 74.8814C184.866 72.0204 184.38 69.5364 183.42 67.4603C182.594 65.5759 181.244 63.9687 179.53 62.8298C177.859 61.7777 175.92 61.2324 173.946 61.2601ZM173.946 85.6587C171.695 85.6587 169.858 84.6994 168.533 82.8061C167.27 81.0085 166.629 78.3444 166.629 74.8871C166.629 71.4297 167.27 68.7656 168.533 66.9652C169.141 66.0861 169.953 65.3676 170.899 64.8713C171.845 64.3749 172.898 64.1157 173.967 64.1157C175.035 64.1157 176.088 64.3749 177.035 64.8713C177.981 65.3676 178.793 66.0861 179.4 66.9652C180.661 68.7628 181.302 71.4297 181.302 74.8871C181.302 78.3444 180.661 81.0085 179.4 82.8061C178.808 83.7055 177.997 84.4393 177.042 84.9383C176.088 85.4374 175.022 85.6853 173.946 85.6587ZM173.946 65.8034C173.147 65.7818 172.356 65.9668 171.65 66.3403C170.944 66.7139 170.346 67.2634 169.914 67.9357C168.854 69.4436 168.317 71.7841 168.317 74.8871C168.317 77.99 168.854 80.3277 169.914 81.8384C170.366 82.4958 170.971 83.0334 171.677 83.4048C172.383 83.7762 173.169 83.9702 173.967 83.9702C174.765 83.9702 175.55 83.7762 176.256 83.4048C176.962 83.0334 177.567 82.4958 178.019 81.8384C179.077 80.3277 179.614 77.99 179.614 74.8871C179.614 71.7841 179.077 69.4436 178.019 67.9357C177.581 67.2601 176.976 66.7089 176.262 66.3353C175.549 65.9618 174.751 65.7786 173.946 65.8034Z" fill="url(#paint20_linear_3442_61818)"/>
<defs>
<linearGradient id="paint0_linear_3442_61818" x1="89.4299" y1="-9.98344" x2="89.4299" y2="33.0486" gradientUnits="userSpaceOnUse">
<stop offset="0.15" stop-color="#FF9454"/>
<stop offset="1" stop-color="#E85700"/>
</linearGradient>
<linearGradient id="paint1_linear_3442_61818" x1="93.5828" y1="45.1772" x2="93.5827" y2="182.626" gradientUnits="userSpaceOnUse">
<stop offset="0.15" stop-color="#FF9454"/>
<stop offset="1" stop-color="#E85700"/>
</linearGradient>
<linearGradient id="paint2_linear_3442_61818" x1="93.5694" y1="59.1607" x2="93.5694" y2="86.7209" gradientUnits="userSpaceOnUse">
<stop offset="0.15" stop-color="#FF9454"/>
<stop offset="1" stop-color="#E85700"/>
</linearGradient>
<linearGradient id="paint3_linear_3442_61818" x1="67.9074" y1="-4.9698" x2="67.9073" y2="84.4239" gradientUnits="userSpaceOnUse">
<stop offset="0.15" stop-color="#FF9454"/>
<stop offset="1" stop-color="#E85700"/>
</linearGradient>
<linearGradient id="paint4_linear_3442_61818" x1="117.793" y1="-4.96875" x2="117.793" y2="84.4204" gradientUnits="userSpaceOnUse">
<stop offset="0.15" stop-color="#FF9454"/>
<stop offset="1" stop-color="#E85700"/>
</linearGradient>
<linearGradient id="paint5_linear_3442_61818" x1="53.3777" y1="65.8523" x2="53.3776" y2="79.1928" gradientUnits="userSpaceOnUse">
<stop offset="0.15" stop-color="#FF9454"/>
<stop offset="1" stop-color="#E85700"/>
</linearGradient>
<linearGradient id="paint6_linear_3442_61818" x1="131.874" y1="65.5564" x2="131.874" y2="78.8969" gradientUnits="userSpaceOnUse">
<stop offset="0.15" stop-color="#FF9454"/>
<stop offset="1" stop-color="#E85700"/>
</linearGradient>
<linearGradient id="paint7_linear_3442_61818" x1="39.3599" y1="84.154" x2="39.3598" y2="130.542" gradientUnits="userSpaceOnUse">
<stop offset="0.15" stop-color="#FF9454"/>
<stop offset="1" stop-color="#E85700"/>
</linearGradient>
<linearGradient id="paint8_linear_3442_61818" x1="67.102" y1="84.154" x2="67.1019" y2="130.542" gradientUnits="userSpaceOnUse">
<stop offset="0.15" stop-color="#FF9454"/>
<stop offset="1" stop-color="#E85700"/>
</linearGradient>
<linearGradient id="paint9_linear_3442_61818" x1="94.8405" y1="84.154" x2="94.8404" y2="130.542" gradientUnits="userSpaceOnUse">
<stop offset="0.15" stop-color="#FF9454"/>
<stop offset="1" stop-color="#E85700"/>
</linearGradient>
<linearGradient id="paint10_linear_3442_61818" x1="122.292" y1="84.154" x2="122.292" y2="130.542" gradientUnits="userSpaceOnUse">
<stop offset="0.15" stop-color="#FF9454"/>
<stop offset="1" stop-color="#E85700"/>
</linearGradient>
<linearGradient id="paint11_linear_3442_61818" x1="150.025" y1="84.154" x2="150.025" y2="130.542" gradientUnits="userSpaceOnUse">
<stop offset="0.15" stop-color="#FF9454"/>
<stop offset="1" stop-color="#E85700"/>
</linearGradient>
<linearGradient id="paint12_linear_3442_61818" x1="39.3599" y1="125.763" x2="39.3598" y2="172.147" gradientUnits="userSpaceOnUse">
<stop offset="0.15" stop-color="#FF9454"/>
<stop offset="1" stop-color="#E85700"/>
</linearGradient>
<linearGradient id="paint13_linear_3442_61818" x1="67.102" y1="125.763" x2="67.1019" y2="172.147" gradientUnits="userSpaceOnUse">
<stop offset="0.15" stop-color="#FF9454"/>
<stop offset="1" stop-color="#E85700"/>
</linearGradient>
<linearGradient id="paint14_linear_3442_61818" x1="94.8405" y1="125.763" x2="94.8404" y2="172.147" gradientUnits="userSpaceOnUse">
<stop offset="0.15" stop-color="#FF9454"/>
<stop offset="1" stop-color="#E85700"/>
</linearGradient>
<linearGradient id="paint15_linear_3442_61818" x1="122.292" y1="125.763" x2="122.292" y2="172.147" gradientUnits="userSpaceOnUse">
<stop offset="0.15" stop-color="#FF9454"/>
<stop offset="1" stop-color="#E85700"/>
</linearGradient>
<linearGradient id="paint16_linear_3442_61818" x1="150.025" y1="125.763" x2="150.025" y2="172.147" gradientUnits="userSpaceOnUse">
<stop offset="0.15" stop-color="#FF9454"/>
<stop offset="1" stop-color="#E85700"/>
</linearGradient>
<linearGradient id="paint17_linear_3442_61818" x1="173.963" y1="-17.1564" x2="173.963" y2="104.502" gradientUnits="userSpaceOnUse">
<stop offset="0.15" stop-color="#FF9454"/>
<stop offset="1" stop-color="#E85700"/>
</linearGradient>
<linearGradient id="paint18_linear_3442_61818" x1="213.414" y1="34.8947" x2="214.946" y2="36.4708" gradientUnits="userSpaceOnUse">
<stop offset="0.15" stop-color="#FF9454"/>
<stop offset="1" stop-color="#E85700"/>
</linearGradient>
<linearGradient id="paint19_linear_3442_61818" x1="224.095" y1="57.9589" x2="224.095" y2="60.1566" gradientUnits="userSpaceOnUse">
<stop offset="0.15" stop-color="#FF9454"/>
<stop offset="1" stop-color="#E85700"/>
</linearGradient>
<linearGradient id="paint20_linear_3442_61818" x1="173.957" y1="50.2997" x2="173.957" y2="90.2002" gradientUnits="userSpaceOnUse">
<stop offset="0.15" stop-color="#FF9454"/>
<stop offset="1" stop-color="#E85700"/>
</linearGradient>
</defs>
</svg>
