<svg width="187" height="187" viewBox="0 0 187 187" fill="none" xmlns="http://www.w3.org/2000/svg">
<g clip-path="url(#clip0_3458_64380)">
<g opacity="0.25">
<path d="M166.322 145.065H166.69C155.266 145.065 146.006 137.37 146.006 127.876C146.006 123.13 148.323 118.835 152.065 115.725C152.581 115.295 153.125 114.887 153.695 114.508C152.652 114.051 151.831 113.367 151.233 112.456C150.451 111.267 150.251 109.963 150.634 108.54C151.019 107.119 151.846 106.091 153.119 105.455C154.393 104.821 155.797 104.709 157.334 105.124C158.87 105.537 160.029 106.339 160.811 107.529C161.559 108.662 161.776 109.9 161.458 111.246C163.129 110.884 164.884 110.689 166.692 110.689H166.323C172.033 110.689 177.203 108.767 180.943 105.655C184.685 102.545 187.002 98.2479 187.002 93.5C187.002 87.0055 182.669 81.3525 176.274 78.4296C177.723 80.9018 177.998 83.8078 177.098 87.1476C176.668 88.7408 175.961 90.1078 174.974 91.241C173.989 92.378 172.61 93.4383 170.843 94.4238L166.699 96.6135C165.516 97.2624 164.612 98.0142 163.992 98.865C163.866 99.0389 163.743 99.224 163.623 99.4223C162.634 101.077 160.639 101.842 158.778 101.339C156.095 100.617 154.722 97.5822 156.031 95.1287C156.31 94.6014 156.605 94.132 156.912 93.715C157.983 92.2639 159.389 91.1344 161.13 90.3247C162.873 89.5169 164.248 88.7184 165.254 87.9274C166.258 87.1382 166.922 86.1471 167.243 84.9559C168.025 82.0556 167.169 80.2697 164.67 79.5984C163.517 79.288 162.471 79.4581 161.534 80.1126C161.222 80.3296 160.936 80.5914 160.682 80.8962C159.588 82.194 157.882 82.8054 156.242 82.3641L154.915 82.0051C151.775 81.1598 150.638 77.3132 152.766 74.9084C149.299 73.6649 146.322 71.6528 144.149 69.1339C144.188 69.966 144.207 70.8019 144.207 71.6434C144.207 84.6511 139.526 96.5612 131.751 105.786L136.222 114.132C138.114 117.662 136.785 122.059 133.254 123.949L132.009 124.619L147.923 154.32C149.813 157.852 148.482 162.249 144.953 164.141L138.672 167.503C135.141 169.398 130.743 168.066 128.852 164.536L112.941 134.829L111.695 135.496C108.165 137.387 103.768 136.057 101.878 132.529L97.4644 124.291C95.4037 124.534 93.3074 124.662 91.1831 124.662C61.9026 124.662 38.1686 100.924 38.1686 71.6415C38.1686 71.3723 38.1704 71.103 38.1742 70.8356C38.0078 70.9852 37.8395 71.1273 37.6693 71.2694C34.6361 73.792 30.6661 75.533 26.2342 76.1034C26.5203 81.7769 31.4646 88.4715 33.5291 91.0372C33.9087 91.5103 33.6263 92.2153 33.0223 92.2957L13.3705 94.8856C13.0526 94.9268 12.7422 94.7716 12.5888 94.4911C11.7137 92.8978 9.01714 87.2691 9.43041 79.0711C8.21304 79.7293 7.08169 80.4904 6.0588 81.3412C2.31693 84.4567 0 88.7539 0 93.5C0 101.784 7.0499 108.697 16.4354 110.324C18.0249 108.415 20.325 106.856 23.332 105.64C27.4441 103.981 31.014 103.647 34.0415 104.634C37.0653 105.623 39.2887 107.871 40.7006 111.373C41.3176 112.905 41.5738 114.422 41.471 115.921C41.3868 117.169 41.0521 118.537 40.4743 120.03C41.9273 122.382 42.7482 125.049 42.7482 127.876C42.7482 131.345 41.514 134.576 39.3822 137.277C39.5823 137.323 39.7786 137.381 39.9769 137.452C41.3176 137.929 42.262 138.851 42.8118 140.216C43.3616 141.581 43.3223 142.9 42.6884 144.175C42.0544 145.45 40.9998 146.385 39.5262 146.978C38.0489 147.575 36.6427 147.633 35.3019 147.154C33.9592 146.675 33.0149 145.753 32.4651 144.388C32.2631 143.889 32.1416 143.395 32.1004 142.907C29.1309 144.282 25.7088 145.061 22.0697 145.061H20.6822C14.9731 145.061 9.80254 146.988 6.06254 150.097C2.31693 153.213 0 157.51 0 162.256C0 171.746 9.26024 179.443 20.6785 179.443H166.32C172.029 179.443 177.199 177.521 180.939 174.409C184.681 171.299 186.998 167.004 186.998 162.258C186.998 152.764 177.738 145.067 166.32 145.067L166.322 145.065ZM88.2771 133.793L83.9293 159.604C83.8602 160.014 83.4805 160.298 83.0654 160.248C80.1781 159.9 69.4967 158.284 63.1798 152.972C56.8835 147.678 54.6283 143.421 54.1085 142.307C54.0262 142.129 54.0168 141.926 54.0767 141.739L59.7372 124.68C59.898 124.2 60.4702 123.996 60.8965 124.273C62.7909 125.494 67.6977 128.452 73.5452 130.401C79.5087 132.39 85.3655 132.802 87.5403 132.888C88.0078 132.906 88.3556 133.331 88.2771 133.793ZM166.322 7.55664H20.6785C14.9694 7.55664 9.7988 9.479 6.0588 12.5907C2.31693 15.7024 0 19.9959 0 24.7438C0 34.2378 9.26024 41.9347 20.6785 41.9347H23.0478C31.4384 41.9347 38.6604 46.0899 41.9048 52.0589C49.6971 32.4763 68.8216 18.6308 91.1831 18.6308C113.545 18.6308 133.939 33.4038 141.204 54.0187C142.21 51.3259 143.994 48.9154 146.335 46.9706C147.135 46.3049 147.999 45.6934 148.921 45.1474C148.19 45.2727 147.524 45.1717 146.926 44.8426C146.268 44.4835 145.854 43.9263 145.682 43.1708C145.508 42.4153 145.641 41.7328 146.075 41.1231C146.509 40.5135 147.135 40.1152 147.953 39.9282C148.77 39.7412 149.507 39.8272 150.163 40.1881C150.821 40.5472 151.236 41.1044 151.408 41.8599C151.58 42.6154 151.449 43.298 151.016 43.9076C150.96 43.9861 150.9 44.0609 150.84 44.132C153.83 42.7313 157.284 41.9347 160.958 41.9347H166.323C172.033 41.9347 177.203 40.0086 180.943 36.8988C184.685 33.789 187.002 29.4917 187.002 24.7438C187.002 15.2536 177.742 7.55664 166.323 7.55664H166.322ZM152.73 29.1159C152.553 29.8882 152.173 30.7203 151.593 31.6161L150.208 33.6581C149.817 34.2528 149.581 34.825 149.505 35.3748C149.49 35.487 149.477 35.6029 149.471 35.7226C149.447 36.2312 149.248 36.695 148.932 37.0634C148.616 37.4318 148.186 37.6992 147.691 37.8132C146.264 38.1386 144.876 37.0652 144.88 35.601C144.88 35.2887 144.901 34.997 144.942 34.7277C145.08 33.7871 145.456 32.9157 146.066 32.1079C146.677 31.3038 147.119 30.5913 147.392 29.9761C147.665 29.3608 147.73 28.7363 147.584 28.1023C147.231 26.5633 146.391 25.9425 145.063 26.2454C144.45 26.3857 144.007 26.7241 143.732 27.259C143.642 27.4366 143.573 27.6292 143.528 27.8349C143.341 28.7082 142.698 29.4113 141.826 29.6114L141.121 29.7722C139.423 30.1612 137.926 28.5941 138.393 26.9186C138.565 26.2997 138.84 25.7237 139.214 25.1907C140.22 23.7621 141.868 22.7878 144.153 22.2642C146.428 21.7425 148.313 21.8659 149.804 22.6326C151.294 23.3974 152.261 24.7494 152.706 26.6886C152.899 27.5376 152.908 28.3454 152.729 29.1159H152.73Z" fill="#FF6000"/>
<path d="M158.868 69.5187C165.073 69.5187 170.103 64.4887 170.103 58.2838C170.103 52.0789 165.073 47.0488 158.868 47.0488C152.663 47.0488 147.633 52.0789 147.633 58.2838C147.633 64.4887 152.663 69.5187 158.868 69.5187Z" fill="#FF6000"/>
<path d="M34.9652 133.587C32.9512 136.609 29.5122 138.599 25.6114 138.599C19.4068 138.599 14.3765 133.569 14.3765 127.362C14.3765 124.839 15.2086 122.511 16.6149 120.636C17.6078 121.043 18.7672 121.094 19.8948 120.638L21.172 120.121C22.7466 119.488 23.7414 117.973 23.8312 116.277V116.271C24.4109 116.179 25.0055 116.131 25.6096 116.131C27.9396 116.131 30.105 116.841 31.9002 118.057C31.8759 118.414 31.8123 118.773 31.717 119.136C31.3897 120.374 30.7745 121.836 29.8713 123.532C28.9662 125.227 28.5249 126.977 28.5455 128.781C28.5492 129.298 28.5997 129.851 28.6932 130.44C29.127 133.185 32.0498 134.782 34.6286 133.743C34.7445 133.696 34.8548 133.645 34.9652 133.591V133.587Z" fill="#FF6000"/>
</g>
<g opacity="0.25">
<path d="M127.388 71.6466C127.388 91.6407 111.179 107.85 91.185 107.85C71.1909 107.85 54.9836 91.6407 54.9836 71.6466C54.9836 51.6526 71.1891 35.4453 91.185 35.4453C111.181 35.4453 127.388 51.6507 127.388 71.6466Z" fill="#FF6000"/>
</g>
<path d="M91.185 108.411C70.9142 108.411 54.4246 91.9198 54.4246 71.6471C54.4246 51.3744 70.9161 34.8848 91.185 34.8848C111.454 34.8848 127.949 51.3763 127.949 71.6471C127.949 91.9179 111.458 108.411 91.185 108.411ZM91.185 36.0068C71.5332 36.0068 55.5466 51.9953 55.5466 71.6471C55.5466 91.2989 71.5351 107.289 91.185 107.289C110.835 107.289 126.827 91.3008 126.827 71.6471C126.827 51.9934 110.839 36.0068 91.185 36.0068Z" fill="#FF6000"/>
<g opacity="0.5">
<path d="M91.1851 18.6299C61.9046 18.6299 38.1687 42.3658 38.1687 71.6463C38.1687 100.927 61.9046 124.666 91.1851 124.666C93.3094 124.666 95.4057 124.539 97.4645 124.296C111.181 122.68 123.297 115.825 131.751 105.789C139.526 96.5659 144.207 84.6521 144.207 71.6463C144.207 42.3658 120.469 18.6299 91.1851 18.6299ZM91.1851 107.849C71.191 107.849 54.9837 91.6403 54.9837 71.6463C54.9837 51.6522 71.1892 35.4449 91.1851 35.4449C111.181 35.4449 127.388 51.6503 127.388 71.6463C127.388 91.6422 111.179 107.849 91.1851 107.849Z" fill="#FF6000"/>
</g>
<path d="M91.1849 125.228C76.8738 125.228 63.4192 119.655 53.2987 109.535C43.1802 99.4143 37.6057 85.9597 37.6057 71.6486C37.6057 57.3375 43.1783 43.8828 53.2987 33.7624C63.4173 23.6438 76.872 18.0693 91.1849 18.0693C105.498 18.0693 118.954 23.6419 129.075 33.7624C139.195 43.8809 144.77 57.3356 144.77 71.6486C144.77 84.2673 140.299 96.5214 132.181 106.152C123.364 116.618 111.057 123.262 97.5317 124.856C95.428 125.104 93.2924 125.23 91.1868 125.23L91.1849 125.228ZM91.1849 19.1913C62.2617 19.1913 38.7296 42.7234 38.7296 71.6467C38.7296 100.57 62.2617 124.106 91.1849 124.106C93.2476 124.106 95.3382 123.982 97.399 123.739C110.64 122.18 122.689 115.676 131.323 105.426C139.27 95.9978 143.646 84.0018 143.646 71.6467C143.646 42.7215 120.112 19.1913 91.1849 19.1913Z" fill="#FF6000"/>
<g opacity="0.75">
<path d="M144.953 164.145L138.67 167.509C135.139 169.401 130.743 168.072 128.852 164.539L112.94 134.834L132.007 124.622L147.921 154.325C149.811 157.858 148.482 162.254 144.951 164.145H144.953Z" fill="#FF6000"/>
</g>
<path d="M135.255 168.933C134.496 168.933 133.731 168.821 132.983 168.595C130.984 167.991 129.342 166.644 128.357 164.804L112.181 134.604L132.237 123.862L148.416 154.059C150.449 157.859 149.015 162.605 145.217 164.638L138.934 168.002C137.784 168.619 136.525 168.933 135.255 168.933ZM113.7 135.064L129.346 164.275C130.189 165.851 131.598 167.005 133.309 167.521C135.02 168.039 136.83 167.858 138.404 167.014L144.688 163.65C147.94 161.909 149.168 157.844 147.427 154.59L131.779 125.381L113.702 135.064H113.7Z" fill="#FF6000"/>
<path d="M133.254 123.952L132.007 124.622L112.94 134.834L111.693 135.503C108.163 137.394 103.766 136.064 101.876 132.534L97.4644 124.298C100.501 123.939 103.46 123.326 106.319 122.475C113.393 120.373 119.852 116.831 125.35 112.192C127.661 110.243 129.802 108.102 131.751 105.789L136.22 114.135C138.113 117.665 136.783 122.062 133.254 123.952Z" fill="#FF6000"/>
<path d="M80.5091 68.5626C82.3309 68.5626 83.8078 66.4436 83.8078 63.8296C83.8078 61.2157 82.3309 59.0967 80.5091 59.0967C78.6873 59.0967 77.2104 61.2157 77.2104 63.8296C77.2104 66.4436 78.6873 68.5626 80.5091 68.5626Z" fill="#FF6000"/>
<path d="M101.863 68.5626C103.684 68.5626 105.161 66.4436 105.161 63.8296C105.161 61.2157 103.684 59.0967 101.863 59.0967C100.041 59.0967 98.564 61.2157 98.564 63.8296C98.564 66.4436 100.041 68.5626 101.863 68.5626Z" fill="#FF6000"/>
<path d="M81.059 84.7045C81.2554 84.2875 81.4742 83.8817 81.7135 83.4871C81.8332 83.2908 81.9585 83.0963 82.0875 82.9056C82.153 82.8102 82.2184 82.7167 82.2857 82.6232C82.3474 82.5372 82.454 82.4418 82.4914 82.3446L82.3998 82.4624C82.4279 82.4269 82.4559 82.3895 82.4858 82.3539C82.5139 82.3184 82.5438 82.281 82.5718 82.2455C82.6448 82.1557 82.7177 82.0678 82.7925 81.9799C82.9421 81.8041 83.0973 81.6321 83.2544 81.4657C83.5723 81.1309 83.9052 80.8112 84.2548 80.5082C84.4231 80.3624 84.6401 80.2333 84.7897 80.0688C84.6326 80.239 84.6569 80.1698 84.728 80.1174C84.7841 80.0763 84.8383 80.0351 84.8944 79.994C84.9879 79.9267 85.0814 79.8593 85.1749 79.7939C85.5526 79.5321 85.9435 79.289 86.3474 79.0665C86.5475 78.9561 86.7532 78.8495 86.9589 78.7504C87.0524 78.7056 87.1459 78.6607 87.2394 78.6195C87.2917 78.5952 87.3441 78.5728 87.3964 78.5485C87.4862 78.5092 87.6545 78.4886 87.3815 78.5541C87.5965 78.5017 87.8135 78.382 88.0229 78.3091C88.2323 78.2362 88.4567 78.1633 88.6755 78.0997C89.115 77.9725 89.5619 77.8697 90.0126 77.793C90.1248 77.7743 90.2407 77.7631 90.3529 77.7406C89.992 77.8117 90.3735 77.7406 90.4651 77.7313C90.6933 77.7088 90.9233 77.692 91.1533 77.6827C91.6039 77.664 92.0565 77.6752 92.5053 77.7145C92.6175 77.7238 92.7297 77.735 92.84 77.7481C92.8849 77.7537 92.9298 77.7612 92.9747 77.7649C92.6287 77.7369 92.8643 77.7518 92.9429 77.7649C93.1654 77.7986 93.3861 77.8416 93.6048 77.8884C94.0443 77.9837 94.4781 78.1072 94.9045 78.253C95.1177 78.3259 95.3271 78.4082 95.5366 78.4905C95.6114 78.5204 95.6843 78.5877 95.4561 78.455C95.5048 78.483 95.5609 78.4999 95.6114 78.5223C95.7236 78.5728 95.8376 78.6251 95.948 78.6794C96.3538 78.8757 96.7465 79.0945 97.1279 79.3357C97.3074 79.4498 97.4851 79.5695 97.659 79.6929C97.7413 79.7509 97.8217 79.8126 97.904 79.8724C98.1003 80.0164 97.7001 79.7079 97.8909 79.8612C97.9432 79.9042 97.9956 79.9454 98.048 79.9884C98.4294 80.3007 98.7903 80.6354 99.1288 80.9926C99.3046 81.1796 99.4748 81.3722 99.6375 81.5704C99.673 81.6134 99.7067 81.6564 99.7422 81.7013C99.8955 81.8883 99.587 81.49 99.731 81.6863C99.8095 81.7948 99.8899 81.9014 99.9666 82.0117C100.247 82.4138 100.498 82.8364 100.716 83.274C100.776 83.3936 100.834 83.5152 100.888 83.6367C100.907 83.6779 100.924 83.719 100.943 83.7602C100.801 83.4684 100.903 83.6667 100.933 83.7396C101.034 83.9902 101.122 84.2426 101.203 84.5007C101.377 85.0598 101.994 85.475 102.583 85.2842C103.172 85.0935 103.551 84.5044 103.366 83.9042C102.158 79.9996 98.8128 77.0263 94.9269 75.9099C90.9868 74.7786 86.7139 75.7996 83.4919 78.268C81.6537 79.6761 80.1184 81.475 79.1254 83.5769C78.8749 84.1061 78.9609 84.813 79.5275 85.1122C80.0268 85.3758 80.7953 85.2767 81.0628 84.7101L81.059 84.7045Z" fill="#FF6000"/>
<g opacity="0.75">
<path d="M34.6285 133.739C32.0498 134.778 29.1288 133.183 28.6931 130.436C28.5996 129.847 28.551 129.294 28.5454 128.776C28.5248 126.971 28.9661 125.223 29.8712 123.528C30.7744 121.834 31.3897 120.37 31.7169 119.132C32.0442 117.896 31.9768 116.707 31.515 115.562C30.3911 112.778 28.6295 111.867 26.2322 112.836C25.1252 113.283 24.394 114.049 24.0387 115.136C23.9209 115.499 23.8498 115.878 23.8293 116.275C23.7395 117.971 22.7465 119.485 21.172 120.121L19.8948 120.636C16.828 121.873 13.5443 119.383 13.9201 116.097C14.0585 114.885 14.4007 113.722 14.9449 112.611C16.4016 109.632 19.1973 107.308 23.33 105.642C27.444 103.983 31.0138 103.647 34.0395 104.636C37.0651 105.625 39.2848 107.871 40.6985 111.375C41.3156 112.907 41.5737 114.422 41.4708 115.921C41.368 117.421 40.908 119.098 40.0889 120.95L38.1011 125.195C37.5476 126.427 37.2783 127.569 37.297 128.624C37.3007 128.837 37.3138 129.06 37.34 129.288C37.5457 131.205 36.4162 133.019 34.6266 133.739H34.6285ZM32.463 144.392C31.9133 143.027 31.9544 141.707 32.5865 140.433C33.2204 139.16 34.2732 138.225 35.7505 137.628C37.2278 137.032 38.634 136.976 39.9748 137.452C41.3156 137.931 42.26 138.853 42.8116 140.216C43.3633 141.581 43.3203 142.902 42.6882 144.175C42.0543 145.45 40.9996 146.384 39.5242 146.98C38.0487 147.575 36.6406 147.635 35.2998 147.156C33.959 146.679 33.0147 145.757 32.463 144.392Z" fill="#FF6000"/>
</g>
<g opacity="0.75">
<path d="M158.778 101.34C156.093 100.616 154.722 97.5832 156.031 95.1298C156.311 94.6024 156.605 94.1312 156.912 93.7161C157.983 92.2649 159.389 91.1336 161.13 90.3257C162.871 89.5179 164.246 88.7194 165.252 87.9284C166.258 87.1393 166.922 86.1482 167.242 84.957C168.023 82.0566 167.165 80.2708 164.668 79.5976C163.516 79.2871 162.471 79.4592 161.532 80.1118C161.22 80.3306 160.936 80.5905 160.68 80.8953C159.586 82.195 157.882 82.8065 156.242 82.3633L154.913 82.0061C151.719 81.1459 150.599 77.1796 152.878 74.7842C153.72 73.8997 154.692 73.1778 155.795 72.6187C158.754 71.119 162.383 70.9488 166.686 72.1063C170.968 73.2601 174.02 75.1432 175.84 77.7556C177.659 80.368 178.078 83.4984 177.095 87.1467C176.664 88.7419 175.958 90.1051 174.972 91.2402C173.987 92.3753 172.608 93.4356 170.839 94.421L166.695 96.6108C165.512 97.2597 164.609 98.0114 163.988 98.8623C163.862 99.0343 163.739 99.2195 163.621 99.4177C162.63 101.073 160.637 101.837 158.774 101.336L158.778 101.34ZM150.632 108.54C151.016 107.118 151.842 106.09 153.116 105.454C154.389 104.818 155.793 104.708 157.331 105.121C158.868 105.534 160.025 106.337 160.809 107.526C161.59 108.715 161.79 110.021 161.407 111.442C161.024 112.863 160.195 113.891 158.924 114.527C157.65 115.163 156.246 115.273 154.709 114.86C153.172 114.447 152.012 113.645 151.232 112.455C150.451 111.266 150.251 109.961 150.634 108.54H150.632Z" fill="#FF6000"/>
</g>
<g opacity="0.75">
<path d="M147.691 37.8094C146.264 38.1366 144.878 37.0632 144.88 35.599C144.88 35.2849 144.901 34.9931 144.94 34.7239C145.08 33.7851 145.454 32.9118 146.066 32.1059C146.677 31.2999 147.119 30.5893 147.392 29.9741C147.665 29.3588 147.728 28.7342 147.584 28.1022C147.231 26.5613 146.391 25.9423 145.065 26.2453C144.452 26.3855 144.009 26.724 143.734 27.2588C143.642 27.4365 143.575 27.6291 143.53 27.8329C143.343 28.7081 142.7 29.4112 141.828 29.6113L141.121 29.7721C139.423 30.1611 137.924 28.5921 138.393 26.9166C138.567 26.2976 138.84 25.7217 139.216 25.1887C140.222 23.7619 141.868 22.7858 144.155 22.2622C146.43 21.7423 148.315 21.8639 149.806 22.6287C151.296 23.3935 152.265 24.7474 152.708 26.6866C152.902 27.5337 152.91 28.3434 152.732 29.1139C152.555 29.8843 152.175 30.7183 151.595 31.614L150.21 33.6561C149.819 34.2507 149.585 34.823 149.506 35.3727C149.49 35.4849 149.48 35.6009 149.473 35.7206C149.42 36.7341 148.682 37.5831 147.693 37.8094H147.691ZM145.68 43.1669C145.508 42.4114 145.639 41.7289 146.075 41.1193C146.511 40.5096 147.135 40.1113 147.953 39.9243C148.77 39.7373 149.506 39.8252 150.163 40.1843C150.819 40.5452 151.234 41.1024 151.408 41.8579C151.582 42.6134 151.449 43.2959 151.016 43.9056C150.58 44.5152 149.955 44.9135 149.138 45.1005C148.321 45.2875 147.584 45.2015 146.928 44.8405C146.271 44.4815 145.856 43.9224 145.682 43.1669H145.68Z" fill="#FF6000"/>
</g>
<g opacity="0.25">
<path d="M59.7389 124.682C59.8997 124.2 60.47 123.998 60.8983 124.272C62.7926 125.494 67.6976 128.454 73.5469 130.402C79.5085 132.39 85.3653 132.802 87.5401 132.888C88.0095 132.906 88.3555 133.331 88.2769 133.795L83.9273 159.606C83.8581 160.016 83.4785 160.298 83.0652 160.249C80.1761 159.9 69.4965 158.286 63.1797 152.973C56.8628 147.661 54.6281 143.423 54.1102 142.309C54.0279 142.129 54.0167 141.925 54.0784 141.738L59.7389 124.68V124.682Z" fill="#FF6000"/>
</g>
<path d="M83.1626 160.816C83.1084 160.816 83.0541 160.812 82.9999 160.806C79.8826 160.429 69.2161 158.781 62.8207 153.403C56.4683 148.062 54.1589 143.743 53.6035 142.546C53.4595 142.237 53.4408 141.888 53.5493 141.562L59.2098 124.504C59.3407 124.108 59.6417 123.801 60.0363 123.663C60.429 123.524 60.8554 123.575 61.205 123.801C63.0358 124.981 67.9221 127.936 73.7266 129.871C79.5984 131.827 85.3598 132.24 87.5646 132.328C87.9498 132.343 88.3088 132.523 88.5519 132.822C88.795 133.121 88.896 133.508 88.8324 133.888L84.4828 159.699C84.3725 160.352 83.8096 160.816 83.1645 160.816H83.1626ZM60.2719 124.858L54.6114 141.916C54.5946 141.968 54.5965 142.024 54.6189 142.071C55.15 143.215 57.3659 147.35 63.5407 152.543C69.6986 157.721 80.0939 159.324 83.1327 159.69C83.2505 159.705 83.3552 159.625 83.3739 159.511L87.7235 133.699C87.7385 133.615 87.7011 133.555 87.6786 133.527C87.6562 133.499 87.6038 133.45 87.5178 133.446C85.2645 133.359 79.3758 132.936 73.3694 130.933C67.4434 128.958 62.4617 125.946 60.5936 124.742C60.5169 124.691 60.4421 124.706 60.4047 124.719C60.3673 124.732 60.3 124.768 60.27 124.856L60.2719 124.858Z" fill="#FF6000"/>
<path d="M62.1904 146.017C62.1343 146.017 62.0782 146.009 62.0221 145.991C61.7267 145.897 61.5621 145.583 61.6556 145.287L65.7977 132.154C65.8912 131.859 66.2072 131.694 66.5008 131.788C66.7962 131.881 66.9608 132.196 66.8673 132.491L62.7253 145.624C62.6505 145.863 62.4279 146.017 62.1904 146.017ZM66.871 148.038C66.8093 148.038 66.7458 148.027 66.684 148.006C66.3923 147.904 66.239 147.584 66.3418 147.29L69.0159 139.696C69.1188 139.404 69.4386 139.251 69.7321 139.354C70.0239 139.457 70.1772 139.777 70.0744 140.07L67.4003 147.664C67.3198 147.894 67.1029 148.038 66.871 148.038Z" fill="#FF6000"/>
<g opacity="0.5">
<path d="M14.2251 63.0986L29.604 58.8014C30.2417 58.6237 30.7952 59.2707 30.5203 59.8729C29.0692 63.0556 25.9762 70.545 26.2324 76.0633C26.4961 81.7444 31.459 88.4689 33.5291 91.0402C33.9087 91.5133 33.6245 92.2183 33.0242 92.2968L13.3724 94.8868C13.0545 94.9279 12.7441 94.7727 12.5907 94.4922C11.235 92.0219 5.50905 79.8725 13.7408 63.4951C13.8399 63.2987 14.0175 63.1547 14.227 63.0949L14.2251 63.0986Z" fill="#FF6000"/>
</g>
<path d="M13.2639 95.457C12.7795 95.457 12.3345 95.1971 12.0951 94.7651C10.8142 92.4313 4.84326 79.9397 13.234 63.2462C13.4041 62.9096 13.7089 62.6591 14.0717 62.5581L29.4506 58.2608C29.9574 58.1187 30.4866 58.2795 30.8288 58.6797C31.171 59.0799 31.2477 59.6259 31.0289 60.1065C29.6713 63.0854 26.539 70.6009 26.7915 76.0389C27.0476 81.5386 31.8928 88.1172 33.9648 90.6904C34.2715 91.0718 34.3463 91.5711 34.1649 92.0255C33.9816 92.4818 33.5833 92.7904 33.0971 92.8558L13.4453 95.4458C13.3854 95.4533 13.3256 95.457 13.2657 95.457H13.2639ZM29.8171 59.3323C29.7984 59.3323 29.776 59.3342 29.7535 59.3417L14.3747 63.6389C14.3148 63.6558 14.2662 63.6969 14.2381 63.7511C6.0999 79.9435 11.8445 91.9769 13.0787 94.2247C13.1218 94.3032 13.2059 94.3443 13.2957 94.3331L32.9475 91.7432C33.0578 91.7282 33.1027 91.6534 33.1214 91.6085C33.1382 91.5655 33.1588 91.4795 33.0896 91.3935C30.9485 88.7343 25.9406 81.9201 25.6695 76.0894C25.4058 70.4083 28.6147 62.6927 30.0079 59.6409C30.0583 59.5305 30.0079 59.4483 29.9761 59.409C29.9499 59.3772 29.8975 59.3323 29.8171 59.3323Z" fill="#FF6000"/>
</g>
<defs>
<clipPath id="clip0_3458_64380">
<rect width="187" height="187" fill="white"/>
</clipPath>
</defs>
</svg>
