<svg width="241" height="240" viewBox="0 0 241 240" fill="none" xmlns="http://www.w3.org/2000/svg">
<path d="M39.4336 207.85C39.4336 209.086 34.6576 210.09 28.7656 210.09C22.8776 210.09 18.1016 209.086 18.1016 207.85C18.1016 206.614 22.8776 205.61 28.7656 205.61C34.6576 205.61 39.4336 206.614 39.4336 207.85Z" fill="#F4F3F2"/>
<path d="M199.215 210.492C206.169 210.492 211.806 209.309 211.806 207.849C211.806 206.389 206.169 205.206 199.215 205.206C192.262 205.206 186.625 206.389 186.625 207.849C186.625 209.309 192.262 210.492 199.215 210.492Z" fill="#F4F3F2"/>
<path d="M85.0756 211.79C97.2115 211.79 107.05 210.026 107.05 207.849C107.05 205.672 97.2115 203.907 85.0756 203.907C72.9397 203.907 63.1016 205.672 63.1016 207.849C63.1016 210.026 72.9397 211.79 85.0756 211.79Z" fill="#F4F3F2"/>
<path d="M152.935 211.79C165.071 211.79 174.909 210.026 174.909 207.849C174.909 205.672 165.071 203.907 152.935 203.907C140.799 203.907 130.961 205.672 130.961 207.849C130.961 210.026 140.799 211.79 152.935 211.79Z" fill="#F4F3F2"/>
<path d="M53.2626 168.057C53.206 168.095 53.1381 168.113 53.0702 168.107C53.0603 168.181 53.024 168.248 52.9682 168.297C52.9123 168.346 52.8406 168.373 52.7662 168.374H52.7598C52.5058 168.374 35.4534 168.144 34.7462 144.399C34.7462 144.318 34.6842 137.204 31.5394 134.418C30.553 133.55 29.3498 133.19 27.9666 133.358C21.1494 134.17 18.7178 139.542 18.693 139.592C18.6641 139.659 18.6121 139.715 18.5461 139.748C18.4802 139.781 18.4046 139.789 18.333 139.772C18.1842 139.728 18.085 139.585 18.1038 139.436C18.1158 139.337 19.4062 129.326 32.5566 128.072C45.8062 126.807 59.0686 138.047 60.6378 148.127C62.0583 157.239 59.577 163.945 53.2626 168.057ZM94.9903 160.303C94.9864 160.377 94.9571 160.447 94.9073 160.501C94.8576 160.556 94.7904 160.591 94.7175 160.601C94.5563 160.626 94.4194 160.527 94.3763 160.378C94.3703 160.341 93.1359 156.197 88.2603 154.926C87.2863 154.671 86.3931 154.808 85.5991 155.335C83.0371 157.041 82.2803 162.22 82.2743 162.27C79.8115 176.965 70.4698 178.168 67.4798 178.168C66.9154 178.168 66.5742 178.125 66.5558 178.119C66.4936 178.11 66.4355 178.083 66.3889 178.041C66.3424 177.999 66.3096 177.944 66.295 177.883C66.2518 177.871 66.2117 177.85 66.1774 177.821C61.9342 174.142 60.7806 168.95 62.747 162.375C64.9242 155.105 75.835 148.164 85.4622 150.428C95.0462 152.686 94.9903 160.229 94.9903 160.303Z" fill="#F4F3F2"/>
<path d="M94.9904 160.303C94.9866 160.377 94.9573 160.447 94.9075 160.501C94.8578 160.556 94.7906 160.591 94.7176 160.601C94.5564 160.626 94.4196 160.527 94.3764 160.378C94.3704 160.341 93.136 156.197 88.2604 154.926C87.9329 154.837 87.5945 154.795 87.2552 154.802C88.0308 154.113 89.4636 153.145 91.3433 153.189C95.0217 156.241 94.9904 160.247 94.9904 160.303ZM63.8665 200.498H64.6436C64.65 200.469 64.6608 200.442 64.6608 200.41C64.6584 199.973 64.6101 156.656 83.9141 152.17C84.0177 152.145 84.107 152.08 84.1628 151.989C84.2186 151.898 84.2363 151.788 84.2121 151.684C84.1879 151.58 84.1238 151.49 84.0335 151.433C83.9433 151.376 83.8343 151.357 83.73 151.38C63.7968 156.012 63.8372 198.605 63.8493 200.416C63.8493 200.445 63.8601 200.471 63.8665 200.498ZM28.6564 131.042C58.0824 140.862 53.586 193.025 52.7816 200.498H53.6C53.992 196.874 55.1548 183.866 53.4264 170.036C50.7308 148.475 42.2552 134.724 28.9136 130.272C28.8115 130.239 28.7002 130.247 28.604 130.295C28.5077 130.343 28.4343 130.427 28.3996 130.528C28.3657 130.631 28.3737 130.742 28.4218 130.838C28.47 130.935 28.5543 131.008 28.6564 131.042Z" fill="#CECDCC"/>
<path d="M31.2478 134.182C30.3174 133.488 29.2134 133.209 27.9666 133.358C21.1494 134.17 18.7178 139.542 18.693 139.592C18.6641 139.659 18.6121 139.715 18.5461 139.748C18.4802 139.781 18.4046 139.789 18.333 139.772C18.1842 139.728 18.085 139.585 18.1038 139.436C18.1158 139.35 19.0958 131.738 28.047 128.953C29.021 129.933 30.1562 131.54 31.2478 134.182ZM59.0054 200.498H59.8434C59.8978 200.292 59.9486 200.082 60.0026 199.876C61.8106 192.976 63.5186 186.459 61.8734 181.092C61.8419 180.989 61.7708 180.902 61.6757 180.852C61.5806 180.801 61.4693 180.79 61.3662 180.822C61.2632 180.853 61.177 180.925 61.1264 181.02C61.0758 181.115 61.0651 181.226 61.0966 181.329C62.675 186.476 60.995 192.885 59.2166 199.67C59.1446 199.944 59.077 200.224 59.0054 200.498Z" fill="#CECDCC"/>
<path d="M59.3303 170.222C59.3096 170.276 59.2742 170.324 59.2281 170.359C59.1821 170.394 59.1271 170.415 59.0695 170.421C53.6107 171.004 50.4783 174.782 46.1795 185.966C42.9663 194.327 41.2047 197.417 37.9479 197.417C37.7073 197.417 37.467 197.402 37.2283 197.373C35.7459 197.193 34.3563 196.492 33.1159 195.332C31.8751 194.172 30.7775 192.553 29.8903 190.531C27.1299 184.247 26.9563 175.588 29.5183 172.003C33.2711 166.755 39.0275 168.361 39.9639 168.665C52.5067 162.729 59.1999 169.832 59.2679 169.9C59.3049 169.944 59.3301 169.997 59.3409 170.053C59.3518 170.109 59.348 170.168 59.3299 170.222H59.3303Z" fill="#F4F3F2"/>
<path d="M61.812 181.456C61.7901 181.498 61.7585 181.535 61.7197 181.563C61.6809 181.591 61.636 181.61 61.5888 181.617H61.5392C61.4584 181.617 61.3809 181.586 61.322 181.53C61.26 181.474 55.026 175.532 50.498 176.456C50.4388 176.469 50.3773 176.464 50.321 176.442C50.2646 176.42 50.216 176.382 50.1812 176.332C50.1469 176.282 50.128 176.223 50.1269 176.163C50.1259 176.102 50.1426 176.042 50.1752 175.991C52.65 172.046 55.2928 170.198 59.0084 169.807C59.0747 169.8 59.1415 169.813 59.2004 169.844C59.2624 169.887 65.8124 173.907 61.812 181.456ZM35.1888 186.066C35.0128 186.066 34.8508 185.951 34.7988 185.774C30.74 171.857 39.7644 168.646 39.8564 168.616C39.9575 168.584 40.0667 168.594 40.1608 168.642C40.2549 168.691 40.3265 168.774 40.3602 168.874C40.394 168.974 40.3873 169.084 40.3416 169.179C40.2959 169.274 40.2148 169.348 40.1156 169.385C39.7724 169.502 31.746 172.405 35.5788 185.546C35.5964 185.606 35.5997 185.67 35.5884 185.732C35.5771 185.794 35.5515 185.853 35.5137 185.903C35.4759 185.954 35.4268 185.995 35.3704 186.023C35.314 186.051 35.2518 186.066 35.1888 186.066Z" fill="#CECDCC"/>
<path d="M222.904 188.744C221.428 188.283 219.863 188.021 218.234 188.021L217.826 187.983C217.156 173.227 205.844 161.251 191.381 159.542C187.803 146.947 176.223 137.727 162.487 137.727C152.118 137.727 142.967 142.987 137.579 150.984C122.573 152.432 110.795 164.918 110.47 180.216C103.271 182.964 98.1562 189.935 98.1562 198.097C98.1562 198.985 98.2178 199.86 98.3354 200.717H222.904V188.744Z" fill="#EAE6E4"/>
<path d="M37.7249 178.272V200.256C37.7247 200.526 37.6172 200.786 37.426 200.977C37.2347 201.168 36.9753 201.275 36.7049 201.275H30.0513C29.7807 201.275 29.5213 201.168 29.33 200.977C29.1387 200.785 29.0312 200.526 29.0312 200.255V178.271C29.0312 177.957 29.1773 177.659 29.4265 177.466L32.7533 174.887C32.9321 174.748 33.1518 174.673 33.3781 174.673C33.6043 174.673 33.824 174.748 34.0029 174.887L37.3297 177.466C37.4526 177.561 37.5522 177.683 37.6207 177.823C37.6892 177.963 37.7248 178.116 37.7249 178.272ZM54.3881 178.272V200.256C54.3879 200.526 54.2804 200.786 54.0892 200.977C53.8979 201.168 53.6385 201.275 53.3681 201.275H46.7145C46.4439 201.275 46.1845 201.168 45.9932 200.977C45.8019 200.785 45.6945 200.526 45.6945 200.255V178.271C45.6945 177.957 45.8405 177.659 46.0897 177.466L49.4165 174.887C49.5953 174.748 49.815 174.673 50.0413 174.673C50.2675 174.673 50.4873 174.748 50.6661 174.887L53.9929 177.466C54.1158 177.561 54.2154 177.683 54.2839 177.823C54.3524 177.963 54.388 178.116 54.3881 178.272ZM71.0513 178.272V200.256C71.0511 200.526 70.9436 200.786 70.7524 200.977C70.5611 201.168 70.3017 201.275 70.0312 201.275H63.3777C63.1071 201.275 62.8477 201.168 62.6564 200.977C62.4651 200.785 62.3577 200.526 62.3577 200.255V178.271C62.3577 177.957 62.5037 177.659 62.7528 177.466L66.0797 174.887C66.2585 174.748 66.4782 174.673 66.7044 174.673C66.9307 174.673 67.1505 174.748 67.3293 174.887L70.6565 177.466C70.7794 177.561 70.8788 177.683 70.9473 177.823C71.0157 177.963 71.0513 178.116 71.0513 178.272ZM87.7145 178.272V200.256C87.7143 200.526 87.6068 200.786 87.4156 200.977C87.2243 201.168 86.9649 201.275 86.6945 201.275H80.0413C79.7707 201.275 79.5113 201.168 79.32 200.977C79.1287 200.785 79.0213 200.526 79.0213 200.255V178.271C79.0213 177.957 79.1673 177.659 79.4165 177.466L82.7437 174.887C82.9224 174.748 83.1421 174.673 83.3683 174.673C83.5944 174.673 83.8141 174.748 83.9929 174.887L87.32 177.466C87.443 177.561 87.5424 177.683 87.6109 177.823C87.6793 177.963 87.7145 178.116 87.7145 178.272ZM104.378 178.272V200.256C104.378 200.526 104.27 200.786 104.079 200.977C103.887 201.168 103.628 201.275 103.358 201.275H96.7041C96.4335 201.275 96.1741 201.168 95.9828 200.977C95.7915 200.785 95.6841 200.526 95.6841 200.255V178.271C95.6841 177.957 95.8301 177.659 96.0793 177.466L99.4065 174.887C99.5853 174.748 99.805 174.673 100.031 174.673C100.257 174.673 100.477 174.748 100.656 174.887L103.983 177.466C104.106 177.561 104.205 177.683 104.274 177.823C104.342 177.963 104.378 178.116 104.378 178.272ZM121.041 178.272V200.256C121.041 200.526 120.934 200.786 120.742 200.977C120.551 201.168 120.292 201.275 120.021 201.275H113.368C113.234 201.275 113.101 201.249 112.977 201.198C112.854 201.147 112.741 201.071 112.646 200.977C112.552 200.882 112.477 200.769 112.425 200.646C112.374 200.522 112.348 200.389 112.348 200.255V178.271C112.348 177.957 112.494 177.659 112.743 177.466L116.07 174.887C116.248 174.748 116.468 174.673 116.694 174.673C116.921 174.673 117.14 174.748 117.319 174.887L120.646 177.466C120.769 177.561 120.869 177.683 120.937 177.823C121.006 177.963 121.041 178.116 121.041 178.272ZM137.704 178.272V200.256C137.704 200.526 137.597 200.786 137.406 200.977C137.214 201.168 136.955 201.275 136.684 201.275H130.031C129.76 201.275 129.501 201.168 129.31 200.977C129.118 200.785 129.011 200.526 129.011 200.255V178.271C129.011 177.957 129.157 177.659 129.406 177.466L132.733 174.887C132.912 174.748 133.131 174.673 133.358 174.673C133.584 174.673 133.804 174.748 133.982 174.887L137.309 177.466C137.432 177.561 137.532 177.683 137.6 177.823C137.669 177.963 137.704 178.116 137.704 178.272ZM154.368 178.272V200.256C154.368 200.526 154.26 200.786 154.069 200.977C153.877 201.168 153.618 201.275 153.348 201.275H146.694C146.424 201.275 146.164 201.168 145.973 200.977C145.782 200.785 145.674 200.526 145.674 200.255V178.271C145.674 177.957 145.82 177.659 146.069 177.466L149.396 174.887C149.575 174.748 149.795 174.673 150.021 174.673C150.247 174.673 150.467 174.748 150.646 174.887L153.972 177.466C154.095 177.561 154.195 177.683 154.263 177.823C154.332 177.963 154.368 178.116 154.368 178.272ZM171.031 178.272V200.256C171.031 200.526 170.923 200.786 170.732 200.977C170.541 201.168 170.281 201.275 170.011 201.275H163.357C163.087 201.275 162.827 201.168 162.636 200.977C162.445 200.785 162.337 200.526 162.337 200.255V178.271C162.337 177.957 162.483 177.659 162.732 177.466L166.059 174.887C166.238 174.748 166.458 174.673 166.684 174.673C166.91 174.673 167.13 174.748 167.309 174.887L170.636 177.466C170.759 177.561 170.858 177.683 170.927 177.823C170.995 177.963 171.031 178.116 171.031 178.272ZM187.694 178.272V200.256C187.694 200.526 187.586 200.786 187.395 200.977C187.204 201.168 186.945 201.275 186.674 201.275H180.02C179.75 201.275 179.49 201.168 179.299 200.977C179.108 200.785 179 200.526 179 200.255V178.271C179 177.957 179.146 177.659 179.396 177.466L182.722 174.887C182.901 174.748 183.121 174.673 183.347 174.673C183.573 174.673 183.793 174.748 183.972 174.887L187.299 177.466C187.422 177.561 187.522 177.683 187.59 177.823C187.658 177.963 187.694 178.116 187.694 178.272ZM204.357 178.272V200.256C204.357 200.526 204.25 200.786 204.058 200.977C203.867 201.168 203.608 201.275 203.337 201.275H196.684C196.413 201.275 196.154 201.168 195.962 200.977C195.771 200.785 195.664 200.526 195.664 200.255V178.271C195.664 177.957 195.81 177.659 196.059 177.466L199.386 174.887C199.565 174.748 199.785 174.673 200.011 174.673C200.237 174.673 200.456 174.748 200.635 174.887L203.962 177.466C204.085 177.561 204.185 177.683 204.253 177.823C204.322 177.963 204.357 178.116 204.357 178.272ZM221.02 178.272V200.256C221.02 200.526 220.913 200.786 220.722 200.977C220.53 201.168 220.271 201.275 220 201.275H213.347C213.076 201.275 212.817 201.168 212.626 200.977C212.434 200.785 212.327 200.526 212.327 200.255V178.271C212.327 177.957 212.473 177.659 212.722 177.466L216.049 174.887C216.228 174.748 216.448 174.673 216.674 174.673C216.9 174.673 217.12 174.748 217.299 174.887L220.626 177.466C220.749 177.561 220.848 177.683 220.916 177.823C220.985 177.963 221.02 178.116 221.02 178.272Z" fill="#DAD9D8"/>
<path d="M32.4219 186.51H219.316V194.037H32.4219V186.51Z" fill="#FFE4D4"/>
<path d="M36.928 178.272V200.256C36.9279 200.526 36.8204 200.786 36.6291 200.977C36.4378 201.168 36.1784 201.275 35.908 201.275H29.2544C28.9839 201.275 28.7244 201.168 28.5331 200.977C28.3418 200.785 28.2344 200.526 28.2344 200.255V178.271C28.2344 177.957 28.3804 177.659 28.6296 177.466L31.9568 174.887C32.1356 174.748 32.3554 174.673 32.5816 174.673C32.8078 174.673 33.0276 174.748 33.2064 174.887L36.5332 177.466C36.6561 177.561 36.7556 177.683 36.824 177.823C36.8924 177.963 36.928 178.116 36.928 178.272ZM53.5912 178.272V200.256C53.5911 200.526 53.4836 200.785 53.2924 200.977C53.1012 201.168 52.842 201.275 52.5716 201.275H45.9176C45.6471 201.275 45.3878 201.168 45.1966 200.977C45.0054 200.785 44.898 200.526 44.898 200.255V178.271C44.898 177.957 45.044 177.659 45.2932 177.466L48.62 174.887C48.7988 174.748 49.0186 174.673 49.2448 174.673C49.471 174.673 49.6908 174.748 49.8696 174.887L53.1964 177.466C53.3193 177.561 53.4188 177.683 53.4872 177.823C53.5556 177.963 53.5912 178.116 53.5912 178.272ZM70.2544 178.272V200.256C70.2543 200.526 70.1468 200.785 69.9556 200.977C69.7644 201.168 69.5052 201.275 69.2348 201.275H62.5812C62.3107 201.275 62.0512 201.168 61.8599 200.977C61.6686 200.785 61.5612 200.526 61.5612 200.255V178.271C61.5612 177.957 61.7072 177.659 61.9564 177.466L65.2832 174.887C65.462 174.748 65.6818 174.673 65.908 174.673C66.1342 174.673 66.354 174.748 66.5328 174.887L69.8596 177.466C69.9826 177.561 70.0821 177.683 70.1506 177.823C70.2191 177.963 70.2543 178.116 70.2544 178.272ZM86.918 178.272V200.256C86.9179 200.526 86.8104 200.786 86.6191 200.977C86.4278 201.168 86.1684 201.275 85.898 201.275H79.2444C78.9739 201.275 78.7144 201.168 78.5231 200.977C78.3318 200.785 78.2244 200.526 78.2244 200.255V178.271C78.2244 177.957 78.3704 177.659 78.6196 177.466L81.9464 174.887C82.1252 174.748 82.345 174.673 82.5712 174.673C82.7974 174.673 83.0172 174.748 83.196 174.887L86.5228 177.466C86.6458 177.561 86.7453 177.683 86.8138 177.823C86.8823 177.963 86.9179 178.116 86.918 178.272ZM103.581 178.272V200.256C103.581 200.526 103.474 200.786 103.282 200.977C103.091 201.168 102.832 201.275 102.561 201.275H95.9076C95.6371 201.275 95.3776 201.168 95.1863 200.977C94.995 200.785 94.8876 200.526 94.8876 200.255V178.271C94.8876 177.957 95.0336 177.659 95.2828 177.466L98.6096 174.887C98.7884 174.748 99.0082 174.673 99.2344 174.673C99.4606 174.673 99.6804 174.748 99.8592 174.887L103.186 177.466C103.309 177.561 103.409 177.683 103.477 177.823C103.546 177.963 103.581 178.116 103.581 178.272ZM120.244 178.272V200.256C120.244 200.526 120.137 200.786 119.945 200.977C119.754 201.168 119.495 201.275 119.224 201.275H112.571C112.437 201.275 112.304 201.249 112.18 201.198C112.057 201.147 111.944 201.071 111.85 200.977C111.755 200.882 111.68 200.769 111.628 200.646C111.577 200.522 111.551 200.389 111.551 200.255V178.271C111.551 177.957 111.697 177.659 111.946 177.466L115.273 174.887C115.452 174.748 115.671 174.673 115.898 174.673C116.124 174.673 116.344 174.748 116.522 174.887L119.85 177.466C119.972 177.561 120.072 177.683 120.14 177.823C120.209 177.963 120.244 178.116 120.244 178.272ZM136.908 178.272V200.256C136.907 200.526 136.8 200.786 136.609 200.977C136.417 201.168 136.158 201.275 135.888 201.275H129.234C128.964 201.275 128.704 201.168 128.513 200.977C128.322 200.785 128.214 200.526 128.214 200.255V178.271C128.214 177.957 128.36 177.659 128.61 177.466L131.937 174.887C132.116 174.748 132.335 174.673 132.561 174.673C132.787 174.673 133.007 174.748 133.186 174.887L136.513 177.466C136.636 177.561 136.736 177.683 136.804 177.823C136.872 177.963 136.908 178.116 136.908 178.272H136.908ZM153.571 178.272V200.256C153.571 200.526 153.463 200.786 153.272 200.977C153.081 201.168 152.821 201.275 152.551 201.275H145.897C145.627 201.275 145.367 201.168 145.176 200.977C144.985 200.785 144.877 200.526 144.877 200.255V178.271C144.877 177.957 145.023 177.659 145.272 177.466L148.6 174.887C148.778 174.748 148.998 174.673 149.224 174.673C149.451 174.673 149.67 174.748 149.849 174.887L153.176 177.466C153.299 177.561 153.398 177.683 153.467 177.823C153.535 177.963 153.571 178.116 153.571 178.272ZM170.234 178.272V200.256C170.234 200.526 170.127 200.786 169.935 200.977C169.744 201.168 169.485 201.275 169.214 201.275H162.561C162.29 201.275 162.031 201.168 161.84 200.977C161.648 200.785 161.541 200.526 161.541 200.255V178.271C161.541 177.957 161.687 177.659 161.936 177.466L165.263 174.887C165.442 174.748 165.661 174.673 165.888 174.673C166.114 174.673 166.334 174.748 166.512 174.887L169.839 177.466C169.962 177.561 170.062 177.683 170.13 177.823C170.198 177.963 170.234 178.116 170.234 178.272ZM186.898 178.272V200.256C186.897 200.526 186.79 200.786 186.599 200.977C186.407 201.168 186.148 201.275 185.878 201.275H179.224C178.953 201.275 178.694 201.168 178.503 200.977C178.311 200.785 178.204 200.526 178.204 200.255V178.271C178.204 177.957 178.35 177.659 178.599 177.466L181.926 174.887C182.105 174.748 182.325 174.673 182.551 174.673C182.777 174.673 182.997 174.748 183.176 174.887L186.502 177.466C186.625 177.561 186.725 177.683 186.793 177.823C186.862 177.963 186.898 178.116 186.898 178.272ZM203.561 178.272V200.256C203.561 200.526 203.453 200.786 203.262 200.977C203.071 201.168 202.811 201.275 202.541 201.275H195.887C195.617 201.275 195.357 201.168 195.166 200.977C194.975 200.785 194.867 200.526 194.867 200.255V178.271C194.867 177.957 195.013 177.659 195.262 177.466L198.589 174.887C198.768 174.748 198.988 174.673 199.214 174.673C199.44 174.673 199.66 174.748 199.839 174.887L203.166 177.466C203.289 177.561 203.388 177.683 203.457 177.823C203.525 177.963 203.561 178.116 203.561 178.272ZM220.224 178.272V200.256C220.224 200.526 220.116 200.786 219.925 200.977C219.734 201.168 219.474 201.275 219.204 201.275H212.55C212.28 201.275 212.02 201.168 211.829 200.977C211.638 200.785 211.53 200.526 211.53 200.255V178.271C211.53 177.957 211.676 177.659 211.926 177.466L215.252 174.887C215.431 174.748 215.651 174.673 215.877 174.673C216.103 174.673 216.323 174.748 216.502 174.887L219.829 177.466C219.952 177.561 220.051 177.683 220.12 177.823C220.188 177.963 220.224 178.116 220.224 178.272Z" fill="white"/>
<path d="M31.625 186.51H218.519V194.037H31.625V186.51Z" fill="white"/>
<path d="M24.5859 200.246H222.899V201.275H24.5859V200.246Z" fill="#DAD9D8"/>
<path d="M216.447 155.81C216.225 155.809 216.012 155.721 215.855 155.564C215.698 155.407 215.609 155.194 215.609 154.972V149.559C215.609 149.097 215.985 148.722 216.447 148.722H218.749C219.211 148.722 219.586 149.097 219.586 149.559V154.972C219.586 155.194 219.498 155.407 219.341 155.564C219.184 155.721 218.971 155.81 218.749 155.81H216.447Z" fill="#FCFCFC"/>
<path d="M94.139 190.179C94.139 200.444 91.8974 208.767 89.1298 208.767C86.3666 208.767 84.125 200.444 84.125 190.179C84.125 179.915 86.3666 171.592 89.1298 171.592C91.8974 171.592 94.139 179.915 94.139 190.179Z" fill="#775744"/>
<path d="M89.1331 202.283C87.1227 202.283 85.9219 196.495 85.9219 190.9C85.9219 185.306 87.1227 179.518 89.1327 179.518C91.1447 179.518 92.3463 185.306 92.3463 190.9C92.3463 196.495 91.1443 202.283 89.1327 202.283H89.1331ZM89.1331 179.918C87.7755 179.918 86.3219 184.331 86.3219 190.9C86.3219 197.47 87.7755 201.883 89.1327 201.883C90.4915 201.883 91.9463 197.47 91.9463 190.9C91.9463 184.331 90.4915 179.918 89.1327 179.918H89.1331Z" fill="#775744"/>
<path d="M89.1331 208.766H78.6943C76.5135 208.766 74.6563 203.579 73.9727 196.341H84.4115C85.0955 203.579 86.9523 208.766 89.1331 208.766Z" fill="#5F4434"/>
<path d="M106.729 190.179C106.729 200.444 104.487 208.767 101.72 208.767C98.9564 208.767 96.7148 200.444 96.7148 190.179C96.7148 179.915 98.9564 171.592 101.72 171.592C104.488 171.592 106.729 179.915 106.729 190.179Z" fill="#775744"/>
<path d="M104.735 190.9C104.735 197.075 103.387 202.082 101.722 202.082C100.059 202.082 98.7109 197.075 98.7109 190.9C98.7109 184.724 100.059 179.718 101.722 179.718C103.387 179.718 104.735 184.725 104.735 190.9Z" fill="#FFECE1"/>
<path d="M101.723 208.766H91.2841C89.1037 208.766 87.2461 203.579 86.5625 196.341H97.0013C97.6853 203.579 99.5421 208.766 101.723 208.766Z" fill="#5F4434"/>
<path d="M158.932 190.179C158.932 200.444 156.69 208.767 153.923 208.767C151.16 208.767 148.918 200.444 148.918 190.179C148.918 179.915 151.16 171.592 153.923 171.592C156.69 171.592 158.932 179.915 158.932 190.179Z" fill="#775744"/>
<path d="M153.922 202.283C151.912 202.283 150.711 196.495 150.711 190.9C150.711 185.306 151.912 179.518 153.922 179.518C155.933 179.518 157.135 185.306 157.135 190.9C157.135 196.495 155.933 202.283 153.922 202.283ZM153.922 179.918C152.565 179.918 151.111 184.331 151.111 190.9C151.111 197.47 152.565 201.883 153.922 201.883C155.281 201.883 156.735 197.47 156.735 190.9C156.735 184.331 155.281 179.918 153.922 179.918Z" fill="#775744"/>
<path d="M153.923 208.766H143.484C141.303 208.766 139.446 203.579 138.762 196.341H149.201C149.885 203.579 151.742 208.766 153.923 208.766Z" fill="#5F4434"/>
<path d="M46.5547 187.845H149.409V196.342H46.5547V187.845Z" fill="#DAD9D8"/>
<path d="M149.406 187.845V196.342H217.497C217.694 196.342 217.889 196.303 218.072 196.227C218.254 196.152 218.419 196.041 218.559 195.902C218.698 195.762 218.809 195.597 218.884 195.415C218.959 195.233 218.998 195.037 218.998 194.84V189.346C218.998 189.149 218.959 188.954 218.884 188.771C218.809 188.589 218.698 188.424 218.559 188.284C218.419 188.145 218.254 188.034 218.072 187.959C217.889 187.884 217.694 187.845 217.497 187.845H149.406Z" fill="#F4F3F2"/>
<path d="M46.5547 66.5977H149.409V187.845H46.5547V66.5977Z" fill="#CECDCC"/>
<path d="M149.406 66.5977V187.845H176.582V70.5569C176.582 68.3701 174.809 66.5977 172.623 66.5977H149.406Z" fill="#FCAB7A"/>
<path d="M51.0039 71.0479H144.958V183.394H51.0039V71.0479Z" fill="#D39671"/>
<path d="M100.82 71.0479H144.957V183.394H100.82V71.0479Z" fill="#C78964"/>
<path d="M66.2496 192.09C66.2504 192.415 66.1868 192.737 66.0625 193.038C65.9383 193.339 65.7558 193.612 65.5256 193.842C65.2959 194.072 65.0229 194.255 64.7223 194.38C64.4216 194.505 64.0992 194.57 63.7736 194.57H55.6128C54.9553 194.569 54.325 194.307 53.8601 193.842C53.3952 193.377 53.1337 192.747 53.1328 192.09C53.1328 191.406 53.4116 190.787 53.8608 190.338C54.0907 190.107 54.3639 189.925 54.6645 189.801C54.9652 189.676 55.2875 189.613 55.6128 189.614H63.7736C64.4303 189.614 65.0601 189.874 65.5244 190.339C65.9887 190.803 66.2496 191.433 66.2496 192.09ZM142.827 192.09C142.828 192.415 142.764 192.737 142.64 193.038C142.515 193.339 142.333 193.612 142.103 193.842C141.873 194.072 141.6 194.255 141.299 194.38C140.999 194.505 140.676 194.57 140.351 194.57H132.19C131.533 194.569 130.902 194.307 130.437 193.842C129.972 193.377 129.711 192.747 129.71 192.09C129.71 191.406 129.989 190.787 130.438 190.338C130.668 190.107 130.941 189.925 131.242 189.801C131.542 189.676 131.865 189.613 132.19 189.614H140.351C141.007 189.614 141.637 189.874 142.102 190.339C142.566 190.803 142.827 191.433 142.827 192.09ZM217.718 151.45V187.844H176.582V94.7168H194.105C196.27 94.7165 198.378 95.4109 200.119 96.6979C201.859 97.9849 203.141 99.7966 203.775 101.866L216.504 143.362C217.309 145.983 217.718 148.709 217.718 151.45Z" fill="#EB925C"/>
<path d="M199.242 146.315C199.242 145.802 199.039 145.311 198.676 144.948C198.314 144.585 197.822 144.382 197.309 144.382H185.219V99.9766H194.108C196.256 99.9766 198.122 101.357 198.749 103.408L211.478 144.904C212.438 147.839 210.25 150.856 207.162 150.856H203.783C201.275 150.856 199.242 148.823 199.242 146.315Z" fill="#DDA27F"/>
<path d="M193.492 155.383C193.492 155.679 193.434 155.971 193.321 156.244C193.208 156.517 193.042 156.765 192.832 156.973C192.624 157.183 192.376 157.349 192.103 157.463C191.83 157.576 191.538 157.634 191.242 157.633H187.5C186.903 157.633 186.331 157.396 185.909 156.974C185.487 156.552 185.25 155.98 185.25 155.383C185.25 154.76 185.501 154.202 185.91 153.793C186.118 153.584 186.366 153.418 186.639 153.304C186.911 153.191 187.204 153.133 187.5 153.134H191.242C191.839 153.134 192.411 153.371 192.833 153.793C193.254 154.215 193.491 154.787 193.492 155.383Z" fill="#FF6000"/>
<path d="M214.505 147.614V148.266C214.505 148.568 214.261 148.812 213.959 148.812H211.967C211.666 148.812 211.422 148.568 211.422 148.266V147.614C211.422 147.312 211.666 147.068 211.967 147.068H213.959C214.261 147.068 214.505 147.312 214.505 147.614Z" fill="#775744"/>
<path d="M212.965 147.775C212.88 147.775 212.798 147.741 212.738 147.681C212.678 147.621 212.645 147.54 212.645 147.455V145.255C212.645 145.17 212.678 145.088 212.738 145.028C212.798 144.968 212.88 144.935 212.965 144.935H218.284V141.791C218.284 141.706 218.317 141.624 218.377 141.564C218.437 141.504 218.519 141.471 218.604 141.471C218.689 141.471 218.77 141.504 218.83 141.564C218.89 141.624 218.924 141.706 218.924 141.791V145.255C218.924 145.34 218.89 145.421 218.83 145.481C218.77 145.541 218.689 145.575 218.604 145.575H213.285V147.455C213.285 147.54 213.251 147.621 213.191 147.681C213.131 147.741 213.049 147.775 212.965 147.775Z" fill="#775744"/>
<path d="M222.901 130.942V139.466C222.901 140.749 221.861 141.789 220.579 141.789H216.322C215.706 141.789 215.116 141.544 214.68 141.109C214.245 140.673 214 140.082 214 139.466V130.942C214 129.659 215.04 128.619 216.322 128.619H220.578C221.862 128.619 222.901 129.659 222.901 130.942Z" fill="#775744"/>
<path d="M209.627 190.177C209.627 200.442 207.385 208.765 204.621 208.765H194.18C191.996 208.765 190.145 203.577 189.461 196.343H199.896C199.928 196.675 199.961 197.001 200 197.32C199.752 195.124 199.616 192.712 199.616 190.177C199.616 179.912 201.857 171.595 204.621 171.595C207.385 171.595 209.627 179.912 209.627 190.177Z" fill="#5F4434"/>
<path d="M171.522 190.179C171.522 200.444 169.28 208.767 166.513 208.767C163.749 208.767 161.508 200.444 161.508 190.179C161.508 179.915 163.749 171.592 166.513 171.592C169.28 171.592 171.522 179.915 171.522 190.179Z" fill="#775744"/>
<path d="M166.512 208.766H156.074C153.893 208.766 152.036 203.579 151.352 196.341H161.791C162.474 203.579 164.332 208.766 166.512 208.766ZM204.618 208.766H194.179C191.998 208.766 190.141 203.579 189.457 196.341H199.896C200.58 203.579 202.437 208.766 204.618 208.766Z" fill="#5F4434"/>
<path d="M209.623 190.179C209.623 200.444 207.382 208.767 204.615 208.767C201.851 208.767 199.609 200.444 199.609 190.179C199.609 179.915 201.851 171.592 204.615 171.592C207.382 171.592 209.623 179.915 209.623 190.179Z" fill="#775744"/>
<path d="M207.63 190.9C207.63 197.075 206.282 202.082 204.616 202.082C202.954 202.082 201.605 197.075 201.605 190.9C201.605 184.724 202.954 179.718 204.616 179.718C206.281 179.718 207.63 184.725 207.63 190.9ZM169.524 190.9C169.524 197.075 168.176 202.082 166.511 202.082C164.848 202.082 163.5 197.075 163.5 190.9C163.5 184.724 164.848 179.718 166.511 179.718C168.176 179.718 169.524 184.725 169.524 190.9Z" fill="#FFECE1"/>
<path d="M121.016 183.393H138.019C138.271 183.393 138.521 183.343 138.754 183.247C138.987 183.15 139.199 183.009 139.377 182.83C139.556 182.652 139.697 182.44 139.794 182.207C139.89 181.974 139.94 181.724 139.94 181.472V149.014C139.94 148.761 139.89 148.511 139.794 148.278C139.697 148.045 139.556 147.834 139.377 147.655C139.199 147.477 138.987 147.335 138.754 147.239C138.521 147.142 138.271 147.093 138.019 147.093H121.016C121.268 147.093 121.518 147.142 121.751 147.239C121.984 147.335 122.195 147.477 122.374 147.655C122.552 147.834 122.694 148.045 122.79 148.278C122.886 148.512 122.936 148.761 122.936 149.014V181.472C122.936 181.724 122.886 181.974 122.79 182.207C122.694 182.44 122.552 182.652 122.374 182.83C122.195 183.009 121.984 183.15 121.751 183.247C121.518 183.343 121.268 183.393 121.016 183.393Z" fill="#FCAB7A"/>
<path d="M122.938 149.012V181.473C122.938 181.983 122.735 182.471 122.375 182.831C122.015 183.192 121.526 183.394 121.017 183.394H90.2407C89.7314 183.394 89.2429 183.191 88.8828 182.831C88.5226 182.471 88.3203 181.983 88.3203 181.473V149.012C88.3203 148.502 88.5227 148.014 88.8829 147.653C89.2431 147.293 89.7317 147.091 90.2411 147.091H121.017C121.526 147.091 122.015 147.293 122.375 147.654C122.735 148.014 122.938 148.502 122.938 149.012Z" fill="#FFBA90"/>
<path d="M90.1797 183.393H107.183C107.435 183.393 107.685 183.343 107.918 183.247C108.151 183.15 108.363 183.009 108.541 182.83C108.72 182.652 108.861 182.44 108.958 182.207C109.054 181.974 109.104 181.724 109.104 181.472V149.014C109.104 148.761 109.054 148.511 108.958 148.278C108.861 148.045 108.72 147.834 108.541 147.655C108.363 147.477 108.151 147.335 107.918 147.239C107.685 147.142 107.435 147.093 107.183 147.093H90.1797C90.432 147.093 90.6818 147.142 90.9149 147.239C91.148 147.335 91.3598 147.477 91.5381 147.655C91.7165 147.834 91.858 148.045 91.9545 148.278C92.051 148.511 92.1006 148.761 92.1005 149.014V181.472C92.1006 181.724 92.051 181.974 91.9545 182.207C91.858 182.44 91.7165 182.652 91.5381 182.83C91.3598 183.009 91.148 183.15 90.9149 183.247C90.6818 183.343 90.432 183.393 90.1797 183.393Z" fill="#FCAB7A"/>
<path d="M92.102 149.012V181.473C92.102 181.983 91.8996 182.471 91.5394 182.831C91.1792 183.192 90.6906 183.394 90.1812 183.394H59.4052C58.8957 183.394 58.4072 183.192 58.047 182.831C57.6867 182.471 57.4844 181.983 57.4844 181.473V149.012C57.4844 148.502 57.6867 148.014 58.047 147.653C58.4072 147.293 58.8957 147.091 59.4052 147.091H90.1812C90.6906 147.091 91.1792 147.293 91.5394 147.653C91.8996 148.014 92.102 148.502 92.102 149.012Z" fill="#FFBA90"/>
<path d="M70.4141 147.565H75.7793V156.734H70.4141V147.565Z" fill="#FCAB7A"/>
<path d="M96.8555 152.931H102.427V156.107H96.8555V152.931ZM127.985 152.931H133.557V156.107H127.985V152.931Z" fill="#FFBA90"/>
<path d="M84.5735 206.009C84.7239 207.145 83.9323 208.101 82.4083 208.536C80.2831 209.145 76.1059 208.39 74.6843 208.098C74.3679 208.031 74.0408 208.034 73.7255 208.105C72.5523 208.357 69.5403 208.928 68.2423 208.371C67.4463 208.033 67.4959 206.309 67.6939 204.824C67.6095 206.028 67.7019 207.177 68.3355 207.449C69.6335 208.007 72.6503 207.443 73.8107 207.189C74.1309 207.119 74.462 207.118 74.7827 207.185C76.2039 207.477 80.3811 208.231 82.5067 207.622C83.5979 207.311 84.3147 206.734 84.5735 206.009Z" fill="#51392A"/>
<path d="M83.9022 206.92C83.5426 207.22 83.0806 207.453 82.5078 207.619C80.3818 208.227 76.205 207.471 74.781 207.181C74.4617 207.116 74.1322 207.12 73.8146 207.193C72.7122 207.426 69.957 207.946 68.571 207.536C68.4902 207.518 68.4114 207.491 68.3358 207.458C66.899 206.842 68.2278 201.665 68.2278 201.665L68.3766 199.969L68.511 198.991C68.657 199.272 76.0182 198.732 76.2278 198.108C76.2278 198.108 76.8458 199.42 77.393 200.208C77.5514 200.44 77.7062 200.63 77.837 200.724C77.9378 200.798 78.053 200.864 78.1786 200.924C78.3494 201.011 78.5498 201.083 78.7602 201.149C78.9054 201.199 79.0578 201.239 79.2154 201.277C79.413 201.331 79.6178 201.375 79.8254 201.425C80.623 201.607 81.4802 201.796 82.2182 202.165C82.439 202.277 82.6626 202.405 82.8622 202.559C84.9742 204.186 85.1494 205.89 83.9022 206.92Z" fill="#FFBA90"/>
<path d="M77.8349 200.725C77.8325 200.733 77.8349 200.737 77.8301 200.74C77.7295 200.942 77.596 201.126 77.4349 201.284C77.3637 201.353 77.2649 201.416 77.1773 201.38C77.1524 201.367 77.1308 201.348 77.1144 201.325C77.0981 201.302 77.0873 201.275 77.0829 201.247C77.0749 201.195 77.0765 201.138 77.0905 201.08C77.1358 200.811 77.2199 200.549 77.3401 200.304C77.3573 200.277 77.3721 200.244 77.3909 200.209C77.5493 200.441 77.7041 200.63 77.8349 200.725V200.725ZM78.7581 201.15C78.7579 201.163 78.7538 201.176 78.7461 201.187C78.6467 201.389 78.5121 201.572 78.3485 201.726C78.2769 201.795 78.1805 201.863 78.0905 201.822C78.0429 201.803 78.0073 201.746 77.9989 201.694C77.9829 201.64 77.9925 201.585 78.0017 201.53C78.0352 201.322 78.0939 201.119 78.1765 200.925C78.3473 201.011 78.5477 201.083 78.7581 201.15ZM79.8233 201.425C79.8141 201.467 79.7945 201.503 79.7753 201.538C79.6779 201.742 79.5438 201.926 79.3797 202.082C79.3137 202.148 79.2125 202.219 79.1225 202.178C79.0976 202.164 79.0761 202.146 79.0597 202.122C79.0433 202.099 79.0325 202.073 79.0281 202.045C79.0201 201.993 79.0265 201.933 79.0357 201.878C79.0677 201.673 79.1317 201.47 79.2133 201.277C79.4109 201.332 79.6157 201.376 79.8233 201.425V201.425Z" fill="#51392A"/>
<path d="M81.6135 205.659C81.8527 206.05 82.1894 206.372 82.5905 206.593C82.9917 206.814 83.4435 206.927 83.9015 206.921C85.1475 205.894 84.9739 204.185 82.8599 202.561C82.6639 202.406 82.4411 202.278 82.2151 202.164C81.1747 202.986 80.8895 204.491 81.6135 205.659ZM68.3335 207.459C68.4083 207.49 68.4779 207.513 68.5687 207.535C68.6775 207.478 68.7943 207.417 68.9067 207.347C70.8667 206.132 71.4715 203.553 70.2563 201.594C69.8099 200.873 69.1532 200.306 68.3747 199.97L68.2299 201.665C68.2299 201.665 66.8991 206.842 68.3335 207.459Z" fill="#FCAB7A"/>
<path d="M76.9867 198.41C75.6003 199.914 69.5691 200.318 67.9991 199.022C67.2799 198.424 68.0171 194.332 68.0171 194.332C68.0171 194.332 76.0995 194.884 76.6959 195.235C77.3007 195.586 77.5891 197.751 76.9867 198.41ZM34.5703 205.694C34.3387 206.817 33.2767 207.459 31.6943 207.368C29.4871 207.244 25.7903 205.157 24.5443 204.413C24.2675 204.246 23.9577 204.141 23.6363 204.105C22.4459 203.956 19.4135 203.505 18.3715 202.551C17.7311 201.971 18.3451 200.358 19.0203 199.022C18.5447 200.13 18.2539 201.246 18.7627 201.712C19.8051 202.665 22.8395 203.126 24.0187 203.268C24.3463 203.31 24.6587 203.414 24.9375 203.583C26.1839 204.327 29.8803 206.414 32.0875 206.538C33.2207 206.604 34.0871 206.294 34.5703 205.694Z" fill="#51392A"/>
<path d="M33.6355 206.334C33.1975 206.499 32.6843 206.567 32.0887 206.535C29.8815 206.41 26.1863 204.321 24.9367 203.578C24.6564 203.413 24.344 203.308 24.0203 203.272C22.9023 203.13 20.1295 202.714 18.9555 201.871C18.8854 201.827 18.8197 201.776 18.7595 201.719C17.6051 200.665 20.5635 196.214 20.5635 196.214L21.2623 194.661L21.7107 193.781C21.7563 194.096 28.8851 196.008 29.2883 195.488C29.2883 195.488 29.4403 196.929 29.6975 197.854C29.7707 198.125 29.8547 198.355 29.9467 198.488C30.6907 199.558 33.0935 200.349 34.0883 201.874C35.5471 204.106 35.1523 205.772 33.6355 206.334Z" fill="#FFBA90"/>
<path d="M29.9471 198.488C29.9427 198.494 29.9431 198.5 29.9379 198.5C29.7764 198.658 29.5897 198.788 29.3855 198.884C29.2959 198.925 29.1815 198.953 29.1107 198.89C29.0916 198.869 29.0775 198.844 29.0697 198.817C29.0618 198.79 29.0604 198.761 29.0655 198.734C29.0747 198.682 29.0955 198.628 29.1275 198.578C29.259 198.339 29.4244 198.12 29.6187 197.928C29.6439 197.907 29.6683 197.881 29.6979 197.854C29.7711 198.125 29.8551 198.355 29.9471 198.488ZM30.6795 199.192C30.6748 199.205 30.6665 199.216 30.6555 199.224C30.4952 199.382 30.308 199.51 30.1027 199.602C30.0127 199.643 29.8995 199.676 29.8279 199.608C29.7891 199.574 29.7739 199.509 29.7835 199.457C29.7863 199.4 29.8131 199.351 29.8399 199.302C29.9401 199.117 30.0625 198.944 30.2043 198.788C30.3371 198.927 30.5027 199.06 30.6795 199.192ZM31.5947 199.803C31.5719 199.84 31.5419 199.867 31.5123 199.894C31.3532 200.054 31.166 200.185 30.9599 200.278C30.8759 200.318 30.7567 200.352 30.6851 200.283C30.666 200.262 30.652 200.238 30.6441 200.21C30.6363 200.183 30.6349 200.155 30.6399 200.127C30.6491 200.075 30.6751 200.02 30.7019 199.972C30.7991 199.788 30.9267 199.618 31.0675 199.463C31.2359 199.579 31.4147 199.688 31.5947 199.803V199.803Z" fill="#51392A"/>
<path d="M31.891 204.39C31.9884 204.838 32.2004 205.252 32.5064 205.593C32.8124 205.934 33.2017 206.189 33.6362 206.334C35.1506 205.774 35.549 204.104 34.087 201.875C33.9534 201.664 33.785 201.47 33.609 201.288C32.3558 201.722 31.5914 203.05 31.891 204.39ZM18.7582 201.72C18.8182 201.774 18.877 201.818 18.9554 201.868C19.077 201.851 19.2074 201.832 19.3362 201.803C21.5866 201.3 23.0062 199.064 22.5042 196.814C22.3198 195.986 21.8861 195.235 21.2614 194.661L20.5666 196.215C20.5666 196.215 17.6066 200.665 18.7582 201.72Z" fill="#FCAB7A"/>
<path d="M29.9064 196.022C28.1024 196.987 22.2744 195.383 21.2184 193.642C20.7356 192.842 22.7784 189.22 22.7784 189.22C22.7784 189.22 30.2288 192.401 30.6768 192.929C31.1324 193.459 30.6924 195.598 29.9064 196.022Z" fill="#51392A"/>
<path d="M78.2713 195.14C78.3333 195.922 77.8073 196.635 77.0417 196.792C75.3683 197.137 73.6607 197.289 71.9525 197.245C70.5275 197.21 69.1093 197.037 67.7177 196.729C67.4128 196.662 67.1351 196.505 66.9205 196.279C66.706 196.052 66.5645 195.766 66.5145 195.458C65.7125 190.588 62.1965 169.706 59.6909 162.481C58.2793 158.402 51.9453 147.037 51.9453 147.037L64.0041 126.524C64.0041 126.524 64.5561 127.894 65.4209 130.092C68.2441 137.27 74.4061 153.266 75.6457 159.267C77.2917 167.247 77.8233 189.458 78.2713 195.14Z" fill="#775744"/>
<path d="M72.2386 197.267C71.8694 192.317 69.9034 167.189 67.491 158.571C65.611 151.855 55.9414 133.014 55.8438 132.824L56.1997 132.642C56.2973 132.832 65.9858 151.708 67.8762 158.463C70.2986 167.117 72.2674 192.281 72.6378 197.237L72.2386 197.267Z" fill="#5F4434"/>
<path d="M71.9525 197.245C70.5275 197.21 69.1093 197.037 67.7177 196.729C67.4128 196.662 67.1351 196.505 66.9205 196.279C66.706 196.052 66.5645 195.766 66.5145 195.458C65.7125 190.588 62.1965 169.706 59.6909 162.481C58.2793 158.402 51.9453 147.037 51.9453 147.037L64.0041 126.524C64.0041 126.524 65.9145 131.356 66.7793 133.555C65.7429 135.206 64.4669 135.948 63.6857 137.698C61.8521 141.787 59.6545 143.958 60.2589 148.474C60.7277 152.016 62.3161 155.298 63.7173 158.585C68.558 169.967 71.3512 182.115 71.9681 194.468C72.0101 195.364 72.0201 196.312 71.9525 197.244V197.245Z" fill="#5F4434"/>
<path d="M41.8627 116.354C37.9899 122.221 37.2619 137.371 37.2619 137.371C37.2619 137.371 35.8171 152.887 33.7747 159.303C31.5403 166.321 23.3555 184.879 21.3483 189.4C21.0739 190.017 21.2763 190.738 21.8243 191.133C24.1943 192.848 27.2443 193.895 31.0071 194.244C31.2702 194.27 31.5352 194.222 31.7725 194.105C32.0097 193.989 32.2098 193.808 32.3503 193.585C41.9223 178.199 51.9691 157.816 61.4295 136.192C63.6375 131.144 64.8943 125.731 65.1599 120.228L41.8627 116.354Z" fill="#775744"/>
<path d="M25.7445 193.184L25.3945 192.991C39.7625 167.08 48.3817 142.552 51.7457 118.004L52.1421 118.059C48.7713 142.656 40.1365 167.23 25.7445 193.185V193.184Z" fill="#5F4434"/>
<path d="M68.7462 93.333C68.7462 93.333 76.0698 107.688 80.4594 110.491C83.617 112.507 94.0354 113.131 96.9594 113.269C97.4366 113.291 97.8578 113.606 97.9954 114.063C98.589 116.037 98.5167 118.191 97.9622 120.314C97.9002 120.549 97.7652 120.757 97.5769 120.91C97.3886 121.062 97.1567 121.151 96.9146 121.163C93.8242 121.326 82.7955 121.84 78.8107 121.119C75.9467 120.6 67.9062 116.849 67.9062 116.849" fill="#EB925C"/>
<path d="M69.65 97.0252L68.1716 137.403C60.0372 139.373 49.2252 139.18 37.4308 138.193C35.4696 123.882 35.0352 108.305 35.0352 92.362V92.156C35.0352 92.156 42.9844 86.7816 55.0316 87.826C58.0668 88.088 61.364 88.758 64.8636 90.0228C67.8012 91.0856 69.736 93.9 69.65 97.0252Z" fill="#EB925C"/>
<path d="M60.2238 137.61C60.205 137.52 60.2462 137.7 60.2238 137.61V137.61Z" fill="#FF6000"/>
<path d="M55.7805 125.764C57.0193 129.701 59.4429 134.61 60.5205 138.599C53.2365 139.12 45.5221 138.956 37.4309 138.193H37.1809C35.2201 123.882 35.0281 108.305 35.0353 92.362V92.156C35.0353 92.156 42.9845 86.7816 55.0317 87.826C55.0581 89.6112 54.7101 91.5012 54.3397 93.2376C53.5237 97.0588 52.7977 101.512 55.3349 104.488C56.5629 105.921 58.5125 106.98 58.7669 108.848C59.0213 110.696 57.4609 112.224 56.4469 113.792C54.2121 117.265 54.5341 121.827 55.7805 125.764Z" fill="#FF6000"/>
<path d="M69.0755 117.462H69.0695C69.0432 117.461 69.0173 117.455 68.9934 117.445C68.9694 117.434 68.9477 117.419 68.9297 117.4C68.9116 117.38 68.8975 117.358 68.8881 117.333C68.8788 117.309 68.8743 117.283 68.8751 117.256L69.4463 97.0205C69.472 96.1483 69.3336 95.2791 69.0383 94.4581C69.0231 94.4089 69.0275 94.3558 69.0505 94.3098C69.0735 94.2638 69.1133 94.2284 69.1618 94.211C69.2102 94.1936 69.2634 94.1955 69.3104 94.2164C69.3575 94.2372 69.3947 94.2753 69.4143 94.3229C69.7265 95.1906 69.873 96.1091 69.8463 97.0309L69.2751 117.267C69.2737 117.319 69.2521 117.369 69.2147 117.405C69.1773 117.442 69.1272 117.462 69.0751 117.462H69.0755Z" fill="#775744"/>
<path d="M48.1312 80.9518C48.1312 80.9518 43.6224 79.7142 43.6564 73.463C43.6904 67.2118 47.2716 66.3838 47.2716 66.3838L51.8296 69.2542L50.5924 77.1098L48.1312 80.9518Z" fill="#5F4434"/>
<path d="M48.1219 85.1232L48.1435 77.9016C46.3395 77.846 45.1291 76.6804 44.8691 75.4016C44.7035 74.5864 45.0515 73.7352 45.6959 73.2088C46.6287 72.4472 47.7159 72.4248 48.9251 72.986L50.1403 67.3424C54.8595 67.1216 59.4279 66.9972 62.0563 68.124C63.3039 77.1844 61.6515 81.5788 57.2379 83.1656V88.238H48.2523L48.1219 85.1232Z" fill="#F9B891"/>
<path d="M62.0499 68.1232C56.7939 67.2164 52.7047 68.0192 49.7299 69.2536H49.7251C45.6307 70.9464 43.6563 73.4624 43.6563 73.4624C41.9267 68.7172 41.6871 64.2996 47.0319 61.0904C49.1363 59.8248 51.5691 59.132 54.0119 59.3404C56.9347 59.5956 58.9039 60.976 60.2267 63.1276C61.0759 64.5076 61.6539 66.206 62.0499 68.1232Z" fill="#DDA27F"/>
<path d="M47.0309 61.0916C48.4937 60.2116 50.1133 59.6064 51.7865 59.3916C48.2257 62.1604 48.1029 65.6792 49.2325 69.4696C45.4725 71.1504 43.6577 73.4632 43.6577 73.4632C41.9269 68.7192 41.6857 64.3008 47.0309 61.092V61.0916ZM63.4405 66.7016L62.0497 68.1236C56.7937 67.2168 52.7045 68.0196 49.7297 69.254H49.7249L52.1053 65.0552C52.4558 64.437 52.9664 63.9245 53.5833 63.5716C54.2002 63.2187 54.9007 63.0384 55.6113 63.0496L60.2265 63.128L61.9821 63.1588C63.8105 63.1904 64.7169 65.3888 63.4405 66.7016Z" fill="#C78964"/>
<path d="M52.9059 87.8145C52.9059 87.8145 55.9567 85.6024 58.7111 85.6944C59.3279 85.7152 59.8439 86.1736 59.9763 86.7764L60.0715 87.2108C60.1382 87.5115 60.1019 87.8258 59.9683 88.1033C59.8348 88.3807 59.6117 88.6052 59.3351 88.7405C58.0511 89.3653 56.0871 90.3916 53.3727 90.7444C50.4815 91.1204 47.4803 88.9004 46.2943 87.6368C46.0831 87.4106 45.9547 87.1194 45.9301 86.8109C45.9055 86.5024 45.9861 86.1946 46.1587 85.9376L46.3507 85.6496C46.5117 85.4081 46.7448 85.2234 47.0168 85.1217C47.2887 85.02 47.5858 85.0066 47.8659 85.0832C49.7395 85.6 51.4191 86.5113 52.9059 87.8145Z" fill="#EB925C"/>
<path d="M57.238 83.164V85.032C55.7408 84.8712 54.3388 84.0128 53.0156 82.5752C54.6348 83.1416 56.0944 83.4284 57.238 83.164Z" fill="#5F4434"/>
<path d="M52.7037 90.9874C49.9277 90.9874 47.2481 88.9434 46.1501 87.7738C45.9692 87.5816 45.8401 87.3466 45.7749 87.0908C45.7097 86.835 45.7105 86.5668 45.7773 86.3114C45.7838 86.286 45.7953 86.2621 45.8111 86.2411C45.8269 86.22 45.8466 86.2024 45.8693 86.189C45.8919 86.1756 45.9169 86.1668 45.9429 86.1631C45.969 86.1594 45.9954 86.1609 46.0209 86.1674C46.0463 86.174 46.0703 86.1855 46.0913 86.2012C46.1123 86.217 46.13 86.2368 46.1433 86.2594C46.1567 86.282 46.1655 86.3071 46.1692 86.3331C46.1729 86.3591 46.1714 86.3856 46.1649 86.411C46.115 86.6011 46.1143 86.8007 46.1627 86.9912C46.2111 87.1816 46.3071 87.3566 46.4417 87.4998C47.7681 88.9126 50.7041 90.8922 53.3485 90.5462C55.8621 90.219 57.7513 89.2938 59.0017 88.6814L59.2493 88.5602C59.4859 88.445 59.6768 88.2533 59.7909 88.0161C59.905 87.779 59.9357 87.5102 59.8781 87.2534L59.7825 86.819C59.7769 86.7934 59.7764 86.7669 59.781 86.741C59.7856 86.7151 59.7953 86.6904 59.8095 86.6683C59.8236 86.6462 59.842 86.6271 59.8636 86.6121C59.8851 86.5971 59.9094 86.5865 59.9351 86.5808C59.9608 86.5752 59.9873 86.5747 60.0131 86.5793C60.039 86.584 60.0637 86.5936 60.0858 86.6078C60.1079 86.622 60.127 86.6404 60.142 86.6619C60.157 86.6835 60.1677 86.7078 60.1733 86.7334L60.2685 87.1678C60.3455 87.5122 60.3041 87.8725 60.1509 88.1905C59.9977 88.5084 59.7418 88.7654 59.4245 88.9198L59.1777 89.0406C57.9037 89.6646 55.9789 90.6074 53.4001 90.943C53.1681 90.973 52.9353 90.987 52.7041 90.987L52.7037 90.9874Z" fill="#775744"/>
<path d="M59.3563 72.362C59.3667 72.8352 59.6539 73.2184 59.9943 73.2124C60.3379 73.2064 60.6047 72.8132 60.5943 72.34C60.5839 71.8632 60.2995 71.48 59.9563 71.486C59.6163 71.492 59.3455 71.8852 59.3563 72.362ZM54.2831 72.3412C54.2935 72.8144 54.5811 73.1976 54.9211 73.1916C55.2651 73.1856 55.5319 72.7924 55.5211 72.3192C55.5107 71.8424 55.2267 71.4592 54.8831 71.4652C54.5431 71.4712 54.2727 71.8644 54.2831 72.3412ZM56.6199 77.5876C56.6041 77.5483 56.6045 77.5044 56.621 77.4654C56.6375 77.4264 56.6687 77.3956 56.7079 77.3796C57.0455 77.2424 57.3999 77.3064 57.7335 77.3124C58.3127 77.3212 58.6343 77.054 58.4179 76.5284C58.2487 76.1192 57.7791 75.7108 57.7431 74.4784C57.7283 73.9772 57.7915 73.4776 57.8527 72.9944C57.8554 72.9735 57.8621 72.9534 57.8725 72.9351C57.8829 72.9169 57.8968 72.9009 57.9134 72.888C57.93 72.8751 57.949 72.8656 57.9692 72.86C57.9895 72.8545 58.0107 72.853 58.0315 72.8556C58.0524 72.8582 58.0725 72.8649 58.0908 72.8753C58.109 72.8857 58.1251 72.8996 58.138 72.9163C58.1509 72.9329 58.1603 72.9518 58.1659 72.9721C58.1715 72.9924 58.173 73.0135 58.1703 73.0344C58.1103 73.506 58.0491 73.9928 58.0631 74.4692C58.0975 75.6512 58.5063 75.904 58.7139 76.4064C58.9875 77.0716 58.6311 77.6468 57.7275 77.6324C57.4067 77.6268 57.0891 77.5696 56.8283 77.6756C56.7891 77.6914 56.7451 77.6911 56.7062 77.6746C56.6672 77.6581 56.6359 77.6268 56.6199 77.5876ZM56.6319 71.1496C56.9695 70.9136 56.9071 70.1936 56.3091 69.9448C56.0471 69.836 55.8727 69.8464 54.5171 69.7748C54.3011 69.7636 54.0819 69.7528 53.8747 69.8228C53.6675 69.8924 53.4711 70.0576 53.3967 70.3028C53.3367 70.4992 53.4167 71.0548 53.6667 70.9312C53.7907 70.87 53.8867 70.7584 54.0211 70.71C54.9179 70.3884 56.0907 71.5292 56.6319 71.15V71.1496ZM61.1951 71.3096C61.2991 71.3292 61.4103 71.3292 61.4999 71.2484C61.7623 71.0136 61.7063 70.2912 61.2419 70.0424C61.0799 69.9556 60.9071 69.9424 60.7371 69.9304C59.6615 69.8528 59.5399 69.8252 59.3395 69.9108C59.1779 69.98 59.0255 70.144 58.9683 70.3896C58.9227 70.5856 58.9883 71.1412 59.1823 71.0188C59.2783 70.958 59.3531 70.8468 59.4583 70.7988C60.0467 70.5308 60.6079 71.2 61.1951 71.3096ZM57.2147 79.8696C56.8211 79.8696 56.3607 79.8012 55.8311 79.6204C55.7823 79.6022 55.7425 79.5657 55.7202 79.5186C55.6979 79.4716 55.6948 79.4176 55.7117 79.3683C55.7285 79.319 55.7639 79.2783 55.8103 79.2547C55.8568 79.2311 55.9106 79.2265 55.9603 79.242C57.8287 79.8796 58.6831 78.978 58.7187 78.94C58.7545 78.9011 58.8042 78.8778 58.8569 78.8753C58.9097 78.8727 58.9614 78.8911 59.0007 78.9264C59.0399 78.9617 59.0635 79.0112 59.0664 79.0639C59.0692 79.1166 59.0511 79.1682 59.0159 79.2076C58.9843 79.2428 58.4055 79.8696 57.2147 79.8696ZM47.8419 76.9644H47.8399C47.5259 76.9608 47.2015 76.9576 46.8815 76.8784C46.6187 76.8136 46.2555 76.6676 46.0163 76.342C45.7271 75.948 45.7243 75.422 45.7227 75.0384C45.7187 74.2576 45.8639 73.6904 46.6471 73.4912C46.8703 73.4352 47.1024 73.4238 47.33 73.4579C47.5575 73.4919 47.7761 73.5707 47.9731 73.6896C48.1696 73.8094 48.3404 73.967 48.4757 74.1531C48.6109 74.3393 48.708 74.5505 48.7611 74.7744C48.7671 74.7952 48.7688 74.8171 48.7661 74.8386C48.7634 74.8601 48.7563 74.8808 48.7453 74.8995C48.7344 74.9182 48.7197 74.9345 48.7023 74.9474C48.6848 74.9602 48.6649 74.9694 48.6438 74.9744C48.6227 74.9793 48.6008 74.9799 48.5794 74.9761C48.5581 74.9723 48.5377 74.9642 48.5196 74.9524C48.5015 74.9405 48.4859 74.925 48.474 74.9069C48.462 74.8889 48.4538 74.8685 48.4499 74.8472C48.3601 74.4796 48.1292 74.162 47.8071 73.9632C47.4821 73.769 47.0936 73.7108 46.7259 73.8012C46.1015 73.9604 46.0395 74.4052 46.0427 75.0372C46.0467 75.8172 46.1383 76.3652 46.9587 76.5676C47.2419 76.638 47.5479 76.6412 47.8435 76.6444C47.886 76.6446 47.9266 76.6617 47.9564 76.6918C47.9863 76.722 48.0029 76.7628 48.0027 76.8052C48.0025 76.8476 47.9855 76.8882 47.9553 76.9181C47.9252 76.948 47.8844 76.9646 47.8419 76.9644Z" fill="#51392A"/>
<path d="M87.1484 130.959H102.03C102.295 130.959 102.557 130.907 102.801 130.806C103.045 130.705 103.267 130.557 103.454 130.37C103.641 130.183 103.79 129.961 103.891 129.717C103.992 129.472 104.044 129.211 104.044 128.946V102.359C104.044 102.094 103.992 101.833 103.891 101.588C103.79 101.344 103.641 101.122 103.454 100.935C103.267 100.748 103.045 100.6 102.801 100.499C102.557 100.398 102.295 100.346 102.03 100.346H87.1484C87.4129 100.346 87.6747 100.398 87.919 100.499C88.1634 100.6 88.3854 100.748 88.5723 100.935C88.7593 101.122 88.9076 101.344 89.0087 101.588C89.1098 101.833 89.1618 102.094 89.1616 102.359V128.946C89.1618 129.211 89.1098 129.472 89.0087 129.717C88.9076 129.961 88.7593 130.183 88.5723 130.37C88.3854 130.557 88.1634 130.705 87.919 130.806C87.6747 130.907 87.4129 130.959 87.1484 130.959Z" fill="#FCAB7A"/>
<path d="M89.1648 102.358V128.945C89.1648 129.479 88.9527 129.991 88.5751 130.369C88.1976 130.746 87.6855 130.958 87.1516 130.958H60.8804C60.3465 130.958 59.8344 130.746 59.4568 130.369C59.0793 129.991 58.8672 129.479 58.8672 128.945V102.358C58.8672 101.824 59.0793 101.312 59.4568 100.934C59.8344 100.557 60.3465 100.345 60.8804 100.345H87.1516C87.6855 100.345 88.1976 100.557 88.5751 100.934C88.9527 101.312 89.1648 101.824 89.1648 102.358Z" fill="#FFBA90"/>
<path d="M70.3125 100.346H75.9357V109.955H70.3125V100.346Z" fill="#FCAB7A"/>
<path d="M93.3828 105.15H99.2228V108.479H93.3828V105.15Z" fill="#FFBA90"/>
<path d="M60.8594 118.913C60.8594 118.913 64.5234 114.806 66.3362 115.401C68.409 116.082 65.393 118.459 65.393 118.459C65.393 118.459 70.585 118.047 70.7034 118.912C70.8014 119.631 69.731 120.069 67.4066 119.87C67.4066 119.87 70.1826 119.913 70.1566 120.733C70.1286 121.608 67.6706 121.228 67.6706 121.228C67.6706 121.228 69.5618 121.792 69.1178 122.523C68.8042 123.039 67.3198 122.679 67.3198 122.679C67.3198 122.679 68.5582 123.217 68.381 123.848C68.1938 124.516 63.7058 125.171 60.8594 123.714V118.913Z" fill="#FFCEB0"/>
<path d="M65.0714 124.785C63.6626 124.785 62.0586 124.551 60.769 123.891C60.7362 123.875 60.7088 123.849 60.6896 123.818C60.6704 123.786 60.6602 123.75 60.6602 123.713V118.912C60.6602 118.863 60.6782 118.816 60.711 118.779C60.8638 118.607 64.483 114.579 66.3994 115.211C66.8974 115.375 67.1838 115.647 67.2502 116.023C67.3822 116.77 66.543 117.693 65.9806 118.216C67.7798 118.101 70.7866 118.038 70.9022 118.885C70.9199 119.005 70.9093 119.128 70.8714 119.243C70.8335 119.359 70.7693 119.464 70.6838 119.551C70.4798 119.765 70.1422 119.92 69.6822 120.013C69.8914 120.093 70.0678 120.193 70.1846 120.315C70.3026 120.438 70.3622 120.585 70.357 120.739C70.3514 120.919 70.2714 121.079 70.1258 121.2C69.839 121.438 69.3034 121.507 68.801 121.511C69.0462 121.667 69.259 121.857 69.3438 122.077C69.4146 122.261 69.3958 122.451 69.2894 122.626C69.0986 122.94 68.6402 123.015 68.2066 123.002C68.4706 123.241 68.673 123.55 68.5746 123.901C68.5274 124.069 68.3638 124.212 68.0746 124.338C67.5086 124.585 66.3734 124.785 65.0714 124.785ZM61.0602 123.589C63.3234 124.688 66.5722 124.467 67.7826 124.024C68.1386 123.894 68.1894 123.793 68.1898 123.792C68.287 123.445 67.5926 123.016 67.241 122.863C67.1953 122.843 67.1588 122.806 67.1386 122.76C67.1184 122.715 67.1161 122.663 67.1319 122.616C67.1478 122.568 67.1808 122.529 67.2244 122.504C67.268 122.48 67.3191 122.473 67.3678 122.484C67.909 122.615 68.7858 122.684 68.9478 122.418C68.9894 122.349 68.9966 122.288 68.971 122.221C68.845 121.895 68.0718 121.556 67.6142 121.419C67.5657 121.405 67.5245 121.372 67.499 121.328C67.4735 121.285 67.4655 121.233 67.4767 121.183C67.4879 121.134 67.5173 121.091 67.5592 121.062C67.601 121.034 67.6521 121.022 67.7022 121.03C68.355 121.131 69.5222 121.181 69.8702 120.892C69.8964 120.873 69.9179 120.848 69.933 120.819C69.9481 120.791 69.9564 120.759 69.9574 120.726C69.9582 120.697 69.953 120.651 69.8954 120.591C69.6498 120.333 68.8674 120.183 68.157 120.114C67.901 120.106 67.6453 120.091 67.3902 120.069C67.3389 120.065 67.2914 120.04 67.2575 120.002C67.2237 119.963 67.206 119.913 67.2082 119.861C67.2104 119.81 67.2323 119.761 67.2694 119.726C67.3065 119.69 67.3559 119.67 67.4074 119.67H67.4106C67.4918 119.671 67.8046 119.678 68.1974 119.715C69.749 119.751 70.2446 119.431 70.3938 119.275C70.4382 119.232 70.4715 119.179 70.491 119.12C70.5106 119.062 70.5156 119 70.5058 118.939C70.4578 118.584 68.029 118.451 65.4098 118.657C65.367 118.661 65.3244 118.65 65.2881 118.628C65.2518 118.605 65.2237 118.571 65.208 118.531C65.1923 118.491 65.1899 118.448 65.201 118.406C65.2121 118.365 65.2362 118.328 65.2698 118.301C65.7526 117.92 66.9786 116.781 66.8562 116.092C66.817 115.87 66.627 115.706 66.2746 115.59C64.9106 115.146 62.0986 117.839 61.0602 118.989V123.589Z" fill="#775744"/>
<path d="M61.1381 117.171C56.6913 115.933 49.1973 115.75 45.3553 113.468C41.9505 111.446 46.5365 90.7449 37.2173 91.6749C37.2173 91.6749 35.5569 91.8485 35.0013 92.3653C29.6393 97.3545 31.6853 118.347 38.5289 121.96C47.4741 126.683 57.1325 125.91 60.2637 125.068C61.4237 123.007 62.2201 120.707 61.1381 117.171Z" fill="#EB925C"/>
<path d="M54.2303 125.884C49.8823 125.884 44.0331 125.093 38.4339 122.137C37.3879 121.585 36.4167 120.624 35.5459 119.281C35.5171 119.237 35.5071 119.183 35.5183 119.131C35.5294 119.079 35.5607 119.033 35.6053 119.005C35.6498 118.976 35.704 118.966 35.7559 118.977C35.8077 118.988 35.8531 119.02 35.8819 119.064C36.7147 120.349 37.6359 121.264 38.6203 121.784C47.6455 126.549 57.3147 125.621 60.1283 124.897C61.1839 123.003 61.9979 120.77 60.9767 117.335C59.3871 116.903 57.4287 116.602 55.3579 116.284C51.6063 115.707 47.7271 115.111 45.2515 113.64C43.8891 112.831 43.7287 109.441 43.5431 105.516C43.2619 99.5817 43.0259 91.2941 37.2355 91.8741C36.7927 91.9205 35.5507 92.1261 35.1355 92.5121C35.1163 92.5305 35.0937 92.5449 35.0689 92.5544C35.0441 92.564 35.0177 92.5685 34.9911 92.5678C34.9646 92.567 34.9385 92.561 34.9143 92.55C34.8901 92.539 34.8683 92.5233 34.8503 92.5039C34.8322 92.4844 34.8182 92.4615 34.8091 92.4366C34.7999 92.4116 34.7959 92.3851 34.7971 92.3586C34.7983 92.3321 34.8048 92.306 34.8162 92.282C34.8276 92.2581 34.8437 92.2366 34.8635 92.2189C35.4607 91.6629 37.1243 91.4841 37.1947 91.4765C43.3427 90.8577 43.6495 99.3109 43.9427 105.496C44.1155 109.148 44.2787 112.597 45.4555 113.296C47.8647 114.727 51.7047 115.317 55.4187 115.888C57.5479 116.216 59.5587 116.525 61.1899 116.979C61.2222 116.988 61.2518 117.005 61.2758 117.029C61.2998 117.052 61.3176 117.081 61.3275 117.113C62.4547 120.796 61.5651 123.16 60.4359 125.167C60.4229 125.19 60.4053 125.21 60.3843 125.227C60.3633 125.243 60.3392 125.255 60.3135 125.262C59.2347 125.552 57.0475 125.884 54.2303 125.884V125.884Z" fill="#775744"/>
<path d="M156.859 46.7404C156.809 42.3936 154.014 39.8932 151.303 40.0032C149.844 40.0624 148.409 40.9928 147.925 42.37C147.003 38.3312 143.124 35.1672 138.982 35.0772C134.841 34.9872 130.827 37.98 129.732 41.9752C128.311 40.5084 126.289 39.6424 124.247 39.6256C120.483 39.5952 117.109 42.218 116.328 46.7404H156.859ZM222.019 69.1464C221.726 66.3984 219.897 64.9052 218.117 64.9776C217.083 65.0196 216.067 65.6788 215.723 66.6548C215.071 63.7928 212.322 61.5512 209.387 61.4876C206.453 61.4236 203.609 63.544 202.833 66.3748C201.827 65.3356 200.394 64.722 198.947 64.7104C196.547 64.6908 194.229 66.232 193.468 69.1464H222.019Z" fill="#F4F3F2"/>
<path d="M28.8277 41.9416C32.6202 41.9416 35.6945 38.8672 35.6945 35.0748C35.6945 31.2824 32.6202 28.208 28.8277 28.208C25.0353 28.208 21.9609 31.2824 21.9609 35.0748C21.9609 38.8672 25.0353 41.9416 28.8277 41.9416Z" fill="#ECE9E7"/>
<path d="M52.4093 43.0891C52.0157 40.2871 50.0997 38.7931 48.2637 38.8675C47.1585 38.9123 46.0709 39.6175 45.7037 40.6611C45.0053 37.6003 42.0653 35.2023 38.9265 35.1343C35.7877 35.0663 32.7465 37.3343 31.9161 40.3619C30.8397 39.2499 29.3073 38.5939 27.7597 38.5811C25.2297 38.5611 22.8333 40.1411 21.9609 43.0891H52.4093Z" fill="#F4F3F2"/>
</svg>
