<svg width="190" height="191" viewBox="0 0 190 191" fill="none" xmlns="http://www.w3.org/2000/svg">
<circle cx="95" cy="95.5" r="95" fill="#FFEFE6"/>
<circle cx="95.5333" cy="96.0337" r="83.2921" stroke="#FF8033"/>
<path d="M123.745 57.0722V142.334C123.745 144.023 123.074 145.643 121.88 146.837C120.686 148.032 119.066 148.703 117.377 148.704H77.2157C75.5267 148.703 73.9071 148.032 72.713 146.837C71.5189 145.643 70.8481 144.023 70.8481 142.334V57.0722C70.8481 55.3832 71.5189 53.7633 72.713 52.5688C73.9071 51.3743 75.5267 50.7029 77.2157 50.7022H117.377C119.066 50.7029 120.686 51.3743 121.88 52.5688C123.074 53.7633 123.745 55.3832 123.745 57.0722Z" fill="#DEE1EC"/>
<path d="M123.745 57.0722V142.334C123.745 144.023 123.074 145.643 121.88 146.837C120.686 148.032 119.066 148.703 117.377 148.704H77.2157C75.5267 148.703 73.9071 148.032 72.713 146.837C71.5189 145.643 70.8481 144.023 70.8481 142.334V57.0722C70.8481 55.3832 71.5189 53.7633 72.713 52.5688C73.9071 51.3743 75.5267 50.7029 77.2157 50.7022H117.377C119.066 50.7029 120.686 51.3743 121.88 52.5688C123.074 53.7633 123.745 55.3832 123.745 57.0722Z" fill="#DEE1EC"/>
<path d="M119.784 58.2354V141.473C119.784 142.243 119.478 142.981 118.934 143.525C118.39 144.069 117.651 144.375 116.882 144.375H77.7043C76.9346 144.375 76.1965 144.069 75.6522 143.525C75.108 142.981 74.8022 142.243 74.8022 141.473V58.2354C74.8022 57.4658 75.108 56.7276 75.6522 56.1834C76.1965 55.6391 76.9346 55.3334 77.7043 55.3334H87.5857C88.0072 55.3338 88.4173 55.47 88.7553 55.7218C89.0934 55.9735 89.3413 56.3275 89.4624 56.7312C89.5832 57.1349 89.8311 57.4887 90.1693 57.7402C90.5074 57.9916 90.9177 58.1271 91.339 58.1266H103.528C103.949 58.1271 104.359 57.9916 104.697 57.7402C105.035 57.4887 105.283 57.1349 105.404 56.7312C105.525 56.3273 105.773 55.9731 106.111 55.7213C106.449 55.4695 106.859 55.3334 107.281 55.3334H116.875C117.256 55.3324 117.634 55.4068 117.987 55.5522C118.34 55.6976 118.661 55.9112 118.931 56.1808C119.202 56.4504 119.416 56.7706 119.562 57.1232C119.709 57.4758 119.784 57.8537 119.784 58.2354Z" fill="#F5F5F5"/>
<path d="M97.2952 98.344C105.768 98.344 112.637 91.4751 112.637 83.0019C112.637 74.5287 105.768 67.6598 97.2952 67.6598C88.822 67.6598 81.9531 74.5287 81.9531 83.0019C81.9531 91.4751 88.822 98.344 97.2952 98.344Z" fill="#F5F5F5"/>
<path d="M97.2952 98.344C105.768 98.344 112.637 91.4751 112.637 83.0019C112.637 74.5287 105.768 67.6598 97.2952 67.6598C88.822 67.6598 81.9531 74.5287 81.9531 83.0019C81.9531 91.4751 88.822 98.344 97.2952 98.344Z" fill="#F5F5F5"/>
<path d="M97.2952 99.0695C94.1173 99.0695 91.0108 98.1272 88.3685 96.3616C85.7262 94.5961 83.6667 92.0867 82.4506 89.1507C81.2345 86.2147 80.9163 82.9841 81.5363 79.8673C82.1563 76.7504 83.6865 73.8875 85.9336 71.6404C88.1807 69.3933 91.0437 67.863 94.1605 67.243C97.2773 66.6231 100.508 66.9412 103.444 68.1574C106.38 69.3735 108.889 71.4329 110.655 74.0752C112.42 76.7175 113.363 79.824 113.363 83.0019C113.358 87.2617 111.663 91.3456 108.651 94.3578C105.639 97.3699 101.555 99.0644 97.2952 99.0695ZM97.2952 68.3853C94.4043 68.3853 91.5783 69.2426 89.1746 70.8486C86.7709 72.4547 84.8975 74.7375 83.7912 77.4084C82.6849 80.0792 82.3954 83.0181 82.9594 85.8534C83.5234 88.6888 84.9155 91.2932 86.9597 93.3374C89.0038 95.3816 91.6083 96.7736 94.4436 97.3376C97.2789 97.9016 100.218 97.6122 102.889 96.5059C105.56 95.3996 107.842 93.5261 109.448 91.1224C111.054 88.7188 111.912 85.8928 111.912 83.0019C111.907 79.1267 110.366 75.4115 107.626 72.6714C104.886 69.9312 101.17 68.3898 97.2952 68.3853Z" fill="#5E6175"/>
<path d="M99.1791 87.0696H95.4113C95.4117 85.7941 95.7151 84.5369 96.2966 83.4017C96.8781 82.2664 97.721 81.2856 98.7559 80.54C99.1047 80.2897 99.3833 79.954 99.565 79.5651C99.7468 79.1762 99.8255 78.7472 99.7938 78.3191C99.762 77.891 99.6208 77.4782 99.3836 77.1204C99.1465 76.7626 98.8214 76.4717 98.4395 76.2756C98.0576 76.0795 97.6318 75.9849 97.2028 76.0007C96.7738 76.0165 96.3561 76.1423 95.9897 76.366C95.6233 76.5897 95.3206 76.9038 95.1104 77.2781C94.9003 77.6524 94.7899 78.0745 94.7898 78.5037H91.022C91.0222 77.4291 91.2986 76.3726 91.8245 75.4354C92.3504 74.4982 93.1082 73.7119 94.0253 73.1517C94.9424 72.5916 95.988 72.2764 97.0619 72.2365C98.1358 72.1965 99.202 72.4331 100.158 72.9235C101.114 73.4139 101.929 74.1418 102.523 75.0373C103.117 75.9327 103.471 76.9658 103.551 78.0375C103.631 79.1091 103.435 80.1834 102.98 81.1573C102.526 82.1312 101.829 82.972 100.957 83.5992C100.406 83.9952 99.9581 84.5164 99.649 85.1199C99.3399 85.7233 99.1789 86.3916 99.1791 87.0696Z" fill="#E1830E"/>
<path d="M99.1549 89.9861H95.3701V93.7709H99.1549V89.9861Z" fill="#E1830E"/>
<path style="mix-blend-mode:multiply" d="M123.745 104.034H70.8481V138.039H123.745V104.034Z" fill="url(#paint0_linear_197_7972)"/>
<path d="M134.258 56.9779C133.723 56.9758 133.199 56.8301 132.74 56.5561C132.281 56.2821 131.904 55.8897 131.648 55.4202C131.393 54.9506 131.268 54.4209 131.287 53.8867C131.306 53.3524 131.468 52.8331 131.757 52.383C133.194 50.1605 136.62 50.799 137.174 53.3794C137.265 53.8136 137.259 54.2627 137.155 54.694C137.051 55.1253 136.852 55.528 136.572 55.8727C136.293 56.2174 135.94 56.4954 135.54 56.6866C135.139 56.8778 134.701 56.9773 134.258 56.9779ZM134.258 52.4652C134.043 52.4654 133.831 52.5107 133.635 52.5982C133.439 52.6856 133.264 52.8133 133.12 52.9729C132.977 53.1325 132.869 53.3204 132.803 53.5246C132.737 53.7287 132.714 53.9444 132.737 54.1577C132.759 54.3711 132.827 54.5773 132.934 54.763C133.042 54.9487 133.187 55.1097 133.361 55.2356C133.534 55.3615 133.733 55.4495 133.943 55.4938C134.153 55.5382 134.369 55.5379 134.579 55.493C134.949 55.4139 135.277 55.2006 135.499 54.8944C135.721 54.5881 135.821 54.2105 135.781 53.8343C135.741 53.4582 135.564 53.1102 135.282 52.8574C135.001 52.6045 134.636 52.4649 134.258 52.4652ZM123.215 45.8171C122.814 45.8174 122.422 45.7041 122.082 45.4904C121.743 45.2767 121.471 44.9713 121.298 44.6096C121.126 44.2478 121.059 43.8445 121.105 43.4463C121.152 43.0481 121.311 42.6713 121.562 42.3594C121.814 42.0476 122.15 41.8134 122.529 41.684C122.909 41.5547 123.317 41.5354 123.707 41.6285C124.097 41.7215 124.453 41.9231 124.733 42.2098C125.013 42.4966 125.206 42.8568 125.29 43.2488C125.356 43.5583 125.352 43.8785 125.279 44.1862C125.205 44.4938 125.064 44.7812 124.865 45.0273C124.666 45.2734 124.415 45.472 124.129 45.6086C123.844 45.7453 123.532 45.8165 123.215 45.8171ZM123.215 43.0215C123.121 43.0217 123.028 43.0416 122.942 43.0801C122.856 43.1185 122.779 43.1745 122.717 43.2445C122.654 43.3146 122.606 43.397 122.577 43.4865C122.548 43.5761 122.538 43.6707 122.548 43.7643C122.558 43.8579 122.587 43.9484 122.634 44.0299C122.682 44.1114 122.745 44.1822 122.821 44.2375C122.897 44.2929 122.984 44.3316 123.076 44.3513C123.168 44.3709 123.264 44.3711 123.356 44.3516C123.529 44.3131 123.681 44.208 123.779 44.059C123.844 43.9575 123.882 43.8403 123.886 43.7196C123.891 43.5988 123.863 43.4791 123.805 43.3729C123.747 43.2668 123.662 43.1781 123.558 43.1163C123.455 43.0544 123.336 43.0217 123.215 43.0215Z" fill="#5E6175"/>
<path d="M60.1518 135.971L56.6069 139.516L57.633 140.542L61.1779 136.997L60.1518 135.971Z" fill="#5E6175"/>
<path d="M65.5252 139.11H64.0742V144.124H65.5252V139.11Z" fill="#5E6175"/>
<path d="M57.9 131.928H52.8867V133.379H57.9V131.928Z" fill="#5E6175"/>
<path d="M138.899 125.488H137.448V124.037H138.899V125.488ZM138.899 121.618H137.448V120.167H138.899V121.618ZM138.899 117.749H137.448V116.298H138.899V117.749ZM138.899 113.88H137.448C137.458 113.417 137.445 112.955 137.409 112.494L138.86 112.366C138.906 112.961 138.899 113.335 138.899 113.88ZM136.964 110.298C136.822 109.871 136.651 109.454 136.451 109.05L137.75 108.404C137.98 108.868 138.178 109.348 138.342 109.838L136.964 110.298ZM135.225 107.169C134.937 106.826 134.627 106.503 134.296 106.201L135.264 105.13C135.646 105.478 136.003 105.852 136.333 106.25L135.225 107.169ZM132.475 104.878C132.082 104.659 131.674 104.467 131.254 104.303L131.779 102.951C132.261 103.138 132.73 103.359 133.182 103.611L132.475 104.878ZM129.09 103.739C128.644 103.678 128.195 103.648 127.745 103.647V102.196C128.262 102.197 128.778 102.232 129.29 102.303L129.09 103.739Z" fill="#A9AFC4"/>
<path d="M117.377 149.43H77.2156C75.3348 149.427 73.5318 148.678 72.202 147.348C70.8723 146.018 70.1245 144.215 70.1226 142.334V57.0722C70.1245 55.1914 70.8723 53.3881 72.202 52.0579C73.5318 50.7277 75.3348 49.9793 77.2156 49.9767H117.377C119.258 49.9793 121.061 50.7277 122.391 52.0579C123.721 53.3881 124.469 55.1914 124.47 57.0722V142.334C124.469 144.215 123.721 146.018 122.391 147.348C121.061 148.678 119.258 149.427 117.377 149.43ZM77.2156 51.4277C75.7194 51.4297 74.2851 52.025 73.2274 53.0832C72.1696 54.1414 71.5749 55.576 71.5736 57.0722V142.334C71.5749 143.83 72.1696 145.265 73.2274 146.323C74.2851 147.381 75.7194 147.977 77.2156 147.978H117.377C118.874 147.977 120.308 147.381 121.366 146.323C122.423 145.265 123.018 143.83 123.019 142.334V57.0722C123.018 55.576 122.423 54.1414 121.366 53.0832C120.308 52.025 118.874 51.4297 117.377 51.4277H77.2156Z" fill="#5E6175"/>
<path d="M125.607 107.904H68.9229C65.274 107.904 62.3159 110.862 62.3159 114.511V127.56C62.3159 131.209 65.274 134.167 68.9229 134.167H125.607C129.256 134.167 132.214 131.209 132.214 127.56V114.511C132.214 110.862 129.256 107.904 125.607 107.904Z" fill="#F5F5F5"/>
<path d="M125.607 107.904H68.9229C65.274 107.904 62.3159 110.862 62.3159 114.511V127.56C62.3159 131.209 65.274 134.167 68.9229 134.167H125.607C129.256 134.167 132.214 131.209 132.214 127.56V114.511C132.214 110.862 129.256 107.904 125.607 107.904Z" stroke="#E1830E" stroke-width="11" stroke-miterlimit="10"/>
<path d="M80.2193 113.928H76.5312V128.145H80.2193V113.928Z" fill="#5E6175"/>
<path d="M83.6096 115.885L71.2969 122.994L73.1409 126.188L85.4536 119.079L83.6096 115.885Z" fill="#5E6175"/>
<path d="M73.1414 115.886L71.2974 119.08L83.6101 126.189L85.4541 122.995L73.1414 115.886Z" fill="#5E6175"/>
<path d="M99.1089 113.928H95.4209V128.145H99.1089V113.928Z" fill="#5E6175"/>
<path d="M102.498 115.884L90.1855 122.992L92.0295 126.186L104.342 119.078L102.498 115.884Z" fill="#5E6175"/>
<path d="M92.03 115.885L90.186 119.079L102.499 126.188L104.343 122.994L92.03 115.885Z" fill="#5E6175"/>
<path d="M117.997 113.928H114.309V128.145H117.997V113.928Z" fill="#5E6175"/>
<path d="M121.387 115.884L109.075 122.992L110.919 126.186L123.231 119.078L121.387 115.884Z" fill="#5E6175"/>
<path d="M110.918 115.886L109.074 119.08L121.386 126.189L123.23 122.995L110.918 115.886Z" fill="#5E6175"/>
<path d="M51.8276 93.7684C53.7011 93.7684 55.4979 94.5127 56.8227 95.8375C58.1474 97.1622 58.8917 98.959 58.8917 100.832C58.8923 98.9592 59.6368 97.1628 60.9614 95.8382C62.286 94.5135 64.0824 93.7691 65.9557 93.7684C65.0281 93.7684 64.1095 93.5857 63.2524 93.2307C62.3954 92.8757 61.6166 92.3554 60.9607 91.6994C60.3047 91.0435 59.7844 90.2647 59.4294 89.4077C59.0744 88.5506 58.8917 87.6321 58.8917 86.7044C58.8917 87.6321 58.709 88.5506 58.354 89.4077C57.999 90.2647 57.4786 91.0435 56.8227 91.6994C56.1667 92.3554 55.388 92.8757 54.5309 93.2307C53.6739 93.5857 52.7553 93.7684 51.8276 93.7684ZM131.157 141.618C131.979 141.618 132.768 141.945 133.349 142.526C133.931 143.108 134.258 143.896 134.258 144.719C134.258 143.896 134.585 143.107 135.167 142.526C135.749 141.945 136.538 141.618 137.36 141.618C136.953 141.619 136.55 141.539 136.173 141.383C135.797 141.227 135.455 140.999 135.166 140.711C134.878 140.423 134.65 140.081 134.494 139.705C134.338 139.329 134.258 138.925 134.258 138.518C134.258 139.34 133.931 140.129 133.349 140.71C132.768 141.292 131.979 141.618 131.157 141.618Z" fill="#E1830E"/>
<defs>
<linearGradient id="paint0_linear_197_7972" x1="70.8481" y1="121.038" x2="123.745" y2="121.038" gradientUnits="userSpaceOnUse">
<stop stop-color="#CACFDD"/>
<stop offset="1" stop-color="#EEF0F1"/>
</linearGradient>
</defs>
</svg>
